<svg xmlns="http://www.w3.org/2000/svg" id="Layer_1" width="311" height="344" viewBox="136 110 311 344"><defs><style>svg{fill:#242b6e}</style></defs><g id="Layer_1"> <g id="_x35_8FbG8"> </g> </g> <g id="Layer_5"> <g id="rm5lsy"> </g> </g> <g id="Layer_4"> <g id="i4pJT4"> </g> </g> <g id="Layer_3"> <g id="BKrof5"> </g> </g> <g id="Layer_2"> <g> <path d="M405.64,367.66c-.23.05-.34-.05-.39-.2-.47-1.76-2.7-1.56-3.69-.42-1.3,1.5-1.38,3.87-.07,5.75,1.81,2.61,4.51,3.43,7.48,3.34,3.29-.09,6.07-1.54,8.2-4.02,4.06-4.72,4.59-10.19,3.1-16.02-.17-.65-.37-1.28-.55-1.93-.02-.08.02-.18.04-.31.13-.04.27-.09.41-.11.18-.03.37-.04.39-.29.01-.22-.11-.31-.3-.4-1.35-.64-1.76-1.93-2.14-3.22-.19-.64.08-1.08.82-1.14-.19-1.4-1.15-2.2-2.11-3.01.16.41.37.81.48,1.24.16.61-.1.91-.76.9-1.63-.04-3.92-2.16-4.02-3.71-.91-.34-1.8-.14-2.71-.04-1.22.13-2.43-.13-3.48-.84-.44-.29-.82-.69-.7-1.28.13-.61.66-.74,1.18-.84.76-.15,1.5-.04,2.24.19.66.21,1.27.76,2.05.38.07-.04.24.05.33.12,1.36,1.1,3.05,1.57,4.63,2.03,1.83.53,2.77,1.81,3.85,3.09.38.45.48,1.04.76,1.55.35.64.97,1.05,1.39,1.59-.18.41-.4-.01-.64.16.2,1.06.88,1.94,1.3,3.04.21-.48-.26-.95.15-1.32.47.07.53.48.66.79,1.35,3.25,1.74,6.63,1.14,10.1-.91,5.26-3.13,9.79-7.69,12.83-4.46,2.98-9.17,3.48-13.92.71-3.12-1.82-4.61-5.1-3.54-8.17.57-1.65,1.67-2.75,3.46-2.98,1.66-.21,2.95.95,2.66,2.42M407.5,342.36c.65.24,1.31.49,2.09.38-.7-.83-1.67-1.02-2.09-.38M414.36,345.24c.39.4.75.84,1.46.92-.29-.66-.74-.99-1.29-1.21-.14-.06-.33-.08-.17.29Z"/> <path d="M418.28,364.71c.36,1.06.05,1.98-.4,2.85-.28.54-.7,1.12-1.39.96-.72-.16-.82-.94-.9-1.51-.12-.84.22-1.67.83-2.22.47-.43,1.18-.61,1.86-.07Z"/> <path d="M419.44,360.51c.08.74.05,1.4-.21,2.03-.16.37-.42.69-.86.72-.47.04-.52-.39-.74-.67-.58-.76-.67-1.59-.55-2.49.09-.68.4-1.12,1.14-1.19.76-.07.88.49,1.08,1,.06.17.09.35.14.59Z"/> <path d="M415.57,370.66c-.43.82-1.02,1.36-1.83,1.61-.29.09-.61.13-.84-.13-.24-.26-.18-.57-.06-.85.31-.7.72-1.32,1.4-1.72.39-.23.85-.49,1.27-.22.47.31.22.81.07,1.31Z"/> <path d="M418.66,355.92c.04.21.08.36.09.51.02.46.04,1-.51,1.12-.51.12-.7-.38-.91-.74-.32-.55-.58-1.13-.69-1.77-.07-.39,0-.75.39-.92.35-.16.66.03.89.28.39.41.55.93.74,1.52Z"/> <path d="M409.85,372.91c.53-.14.99-.27,1.46-.36.23-.05.51-.07.61.22.09.27-.1.46-.28.61-.42.37-.94.55-1.48.61-.38.04-.88.12-1.02-.33-.13-.42.32-.58.7-.76Z"/> <path d="M407.1,373.85c-.28-.09-.55-.1-.53-.5.49-.16.93-.13,1.32.27-.18.38-.47.25-.79.23Z"/> </g> <path d="M453.85,215.98"/> <path d="M301.38,193.84c.83.22-.69,10.33-.95,11.26-.39,3.55-1.08,6.68-1,9.79.15,5.87,1.76,4.81,7.16,2.66.16-.07-2.12,4.44-1.91,4.56.3,1.44.81.84,1.35,2.59h7.1c-2.96,5.89-7.87,1.94-10.45,8.2,1.18-3.39-8.81-7.31-3.8-10.7.03-.02-.32-.54-.43-.85-2.25-6.05-3.51-12.92-.24-18.78l3.16-8.74Z"/> <path d="M335.3,228.77c.62-.79-.41-2.21,1.75-1.5-.81,10.81-11.86,16.37-23.47,11.82,1.04-.8,2.06-.63,3.43-.08,9.79,0,15.44-3.61,18.28-10.24h0Z"/> <path d="M318.42,224.35c4.33-4.62,12.06-2.79,15.88-8.19-2.07,6.68-2.16,6.73-10.35,7.24-2.04.34-3.79.65-5.53.96Z"/> <path d="M316.1,202.68c-2.05,2.4-3.96,4.49-5.92,6.25-.27-4.23,3.37-5.58,5.19-7.92.33.63.6,1,.73,1.68h0Z"/> <path d="M323.24,177.04c.75-1.43,1.46-2.53,2.52-3.67.45-.04.55.08.67.3.12.24.05.5-.22,1.12-.69,1.75-1.36,3.16-2.09,4.28-.35-.76-.63-1.22-.88-2.02h0Z"/> <path d="M305.16,243.99c1.12-1.82,2.12-1.12,2.52.07.76,2.24-2.13,1.01-2.69,2.01-.3-.86-.19-1.35.17-2.08Z"/> <path d="M335.37,245.06c-.13-.76-.1-1.21.16-1.9,1.16-.97,1.47-1.87,1.27-3.28,1.86.55,1.26,2.37,1.86,3.67-1.14.81-1.79,1.9-3.29,1.51h0Z"/> <path d="M336.25,226.41c.09-.7-.44-1.92.57-1.97,1.12-.05,1.34,1.09.98,2.27-.62,1.05-.98,1.95-1.45,2.47-.12-1.18-.2-1.98-.1-2.77Z"/> <path d="M298.24,213.11c.52-.92,1.05-1.51,1.58-2.11.66,1.28.72,2.47-.63,3.23-.39-.43-.67-.62-.95-1.13h0Z"/> <path d="M318.98,238.14c-.67-.65-2.64-1.37-.43-1.78,1.15-.22,2.48.54,3.4.94-1.15.21-2.21-.34-2.97.83h0Z"/> <path d="M326.37,171.13c.56-.86,1.05-1.42,1.55-1.98.52,1.24.69,2.42-.83,3.3-.46-.37-.63-.69-.72-1.32Z"/> <path d="M307.99,239.27c.57.34-.04.67-.42.13-.85-1.22-.39-2.26.54-2.86.06.83.07,1.3.07,2.05-.08.41-.21.67-.19.68Z"/> <path d="M327.27,172.79c-.4.74-.71,1.2-1.13,1.46-.25-.48-.46-.69-.67-1.1.32-.76.58-1.24,1.09-1.64.44.39.61.7.71,1.28h0Z"/> <path d="M336.68,240.47c.67,1.77.34,2.77-1.34,2.62.4-1.17.75-2.04,1.34-2.62Z"/> <path d="M337.68,237.27c.1.57.21,1.13.04,1.9-1.41-.63-.63-1.26-.04-1.9Z"/> <path d="M317.01,190.46c.19.8.18,1.38.03,1.7-.17-.81-.2-1.37-.03-1.7Z"/> <path d="M319.69,247.8s0,0,0,0Z"/> <path d="M347.03,104.35"/> <path d="M316.05,232.38c.84-.04,1.71-.08,2.46.21,2.76,1.05,5.54.28,6.6-1.99l-1.41-.34c0-.1-.01-.2-.02-.3,1.35-.23,2.69-.54,4.05-.65.93-.08,1.46.84,1.02,1.71-.33.65-.85,1.21-1.34,1.87-3.89,3.47-7.51,3.35-11.36-.5Z"/> <path d="M376.42,286.69c-.44.17-.68.08-.97-.3-1.34-3.2-3.43-5.7-4.97-8.53-1.4-2.56-3.74-4.19-5.42-6.49-2.8-3.84-7.67-5.19-12.74-5.03-.41-.1-.48-.33-.14-.64,9.05-2.5,21.22,6.06,24.05,19.22.08.2.06.31.13.59.15.46.19.75.07,1.16h0Z"/> <path d="M339.75,290.27c1.78,1.68,3.26,3.25,4.83,5.18-.23.8-.66.93-1.44.6-2.01-1.76-3.77-3.33-5.24-4.94.7-.34,1.12-.64,1.85-.83h0Z"/> <path d="M344.77,295.26c1.66,1.91,3.44,3.44,3.49,7.03-2.04-2.54-3.45-4.29-4.61-6.15.44-.42.64-.73,1.12-.87h0Z"/> <path d="M331.56,273.51c1.61,1.02,2.92,1.94,4.22,2.86-1.76-.72-4.06.84-5.36-1.49.3-.65.56-1.06,1.14-1.37h0Z"/> <path d="M351.88,327.1c-.67-3.57-1.03-6.83.27-9.57.09,3.6.04,6.74-.27,9.57Z"/> <path d="M350.48,313.88c-.1-2.14-.12-3.85-.3-5.86.13-.7.51-.84,1.08-.37.13.7.17,1.11.35,1.77.26.83.35,1.4.35,2.36-.01,1.11-.1,1.84-.38,2.61-.47-.02-.74-.06-1.1-.51h0Z"/> <path d="M348.36,302.5c2.35,1.67,2.43,3.34,2.64,4.99-.32.37-.48.61-.91.59-.66-1.71-1.07-3.18-1.73-5.58Z"/> <path d="M344.78,315.6c.46.92.92,1.84,1.12,2.79-.62,0-.97-.02-1.43-.32.03-1.01.17-1.74.31-2.47Z"/> <path d="M345,321.45c.28,1.11.31,1.98.14,2.6-.27-1.11-.32-1.97-.14-2.6Z"/> <path d="M351.69,311.19c-.21-.83-.21-1.42,0-1.8.22.83.21,1.43,0,1.8Z"/> <path d="M293.14,104.35"/> <path d="M393.2,312.82c11.37.53,19.4-4.78,25.94-13.07-8.29,13.72-16.26,17.86-28.07,14.33.24-1.21.87-1.49,2.13-1.26Z"/> <path d="M426.93,286.3c-2.14.39-3.79-1.45-3.87-4.02-.04-1.25.51-1.7,1.79-2.09,1.47-.45,1.69.39,2.05,1.19.71,1.55.44,3.18.03,4.93h0Z"/> <path d="M429.36,290.62c2.71,1.67,3.84,6.27,2.33,8.51-.76,1.13-1.46.49-1.93-.27-1.6-2.58-2.31-5.26-.38-8.24h0Z"/> <path d="M425.36,321.29c.65-.36,1.72-.62,2.2.26.48.9.3,1.96-.62,2.58-2.22,1.48-4.15,3.63-7.31,3.03.29-3.74,3.33-4.51,5.74-5.87Z"/> <path d="M435.65,307.54c-.01.72-.18,1.1-.64,1.69-.61.75-.91,1.31-1.41,2.14-.83,2.16-.37,4.54-2.89,5.8-3.25-3.47-1.94-7.08-.16-10.32,1.49-2.7,3.54-2.39,5.11.69h0Z"/> <path d="M407.01,331.42c-.17.31-.36.34-.71.14-.47-.81-1.9-1.05-.76-2.08,1.36-1.22,2.96-1.93,4.74-2.32,1.38-.3,3-.7,3.75.69.88,1.64-2.2.83-2.14,2.52-.28-.06-.33-.21-.61-.53-1.58.3-3.14.2-4.26,1.58h0Z"/> <path d="M418,266.15c0,.58-.02,1-.61,1.26-.52.71-1.25,1.69-1.77,1.25-.86-.73-.74-2.1-.78-3.27,1.08.28,2.04.89,3.16.75h0Z"/> <path d="M411.69,333.08c-1.71,1-3.9,1.3-4.31-.27-.42-1.62,2.03-1.49,3.29-2,.11-.05.26-.01.44.21.27.75.51,1.28.58,2.06h0Z"/> <path d="M419.66,260.67c.17.07.26.06.35.04-.05-.05-.1-.13-.15-.13-.14-.02-.29-.02-.43,0-.64.14-1.19,1.44-1.88.16-.05-.1.54-.67.92-.85.63-.31.98.07,1.18.78h0Z"/> <path d="M418.03,270.88c-.04.44-.07.99-.1.99-1.17.01-1.27-1.13-1.83-1.77-.21-.24-.13-.67.25-.74.84-.14.77.86,1.29,1.14.13.07.26.15.38.37h0Z"/> <path d="M417.61,263.01c-.86.21-.5,1.51-1.58,1.4-.14-.02-.31-.33-.36-.53-.17-.67.16-1.16.61-1.61.89-.88.83,1.34,1.71.63,0,.11-.19.2-.37.12Z"/> <path d="M418,270.7s.04.04.14-.13c-.01-.67-.38-1.3.17-1.63.45-.27.87.25,1.11.62.26.4.89.86.36,1.41-.66.68-1.16-.43-1.79-.27h0Z"/> <path d="M422.83,261.15c-.48-.2-.8-.39-1.22-.64.79-.39,1.56-.58,2.01,0,.58.76-.3.53-.79.64h0Z"/> <path d="M418.1,266.1c.39.67.71,1.26.07,1.74-.28.21-.57-.05-.6-.59,0-.58-.03-1.02.52-1.15h0Z"/> <path d="M417.58,264.41c-.12-.47-.12-.92.27-1.33.13-.1.15-.19.2-.38.28.64.12,1.21-.47,1.71Z"/> <g> <path d="M420.39,253.3c-.79-.06-1.12-.35-.67-1.11,1.14-.35,2.08-.66,3.03-.77,4.54-.55,8.07,1.21,10.45,5.04,2.11,3.4,2.32,6.89-.46,10.2-.58-.54-.55-.97,0-1.58,1.34-6.71-5-12.77-12.35-11.78h0Z"/> <path d="M432.1,266.99c-.92.75-1.25,2.3-2.91,1.71.96-1.17,1.82-2.23,2.68-3.11.1.52.2.86.24,1.4h0Z"/> <path d="M420.17,253.48c-1.25.46-2.31.82-3.64,1.17-.24-.18-.22-.35-.05-.66,1.03-.6,1.9-1.06,2.83-1.33.38.35.71.52.85.81h0Z"/> <path d="M416.42,255.29c-.97.87-1.85,1.54-3.17,2.57.58-1.99,1.5-2.9,2.93-3.34.2.31.27.45.24.77Z"/> </g> <path d="M421.88,329.28c.61-1.46,1.68-1.89,2.61-2.47-.01,2.14-1.38,1.89-2.61,2.47Z"/> <path d="M416.08,300.05c.61-.57.83-1.2,1.64-.71-.34,2.03-1.17,3.42-3.06,5.31.55-2.11.85-3.29,1.41-4.61h0Z"/> <path d="M418.95,295.1c-.02-.4.09-.59.36-.53.08.44-.04.62-.36.53Z"/> <path d="M436.9,311.66c-.32,1.34-.6,2.23-1.45,3.28-.89.99-1.66,1.2-1.4-.08.28-1.33,1-2.59,1.72-4.14.5-.8.69-1.51,1.51-.81-.17.6-.26.94-.38,1.75h0Z"/> <path d="M310.27,252.43c.58-.29.92-.26,1.41.03,2.52,2.9,5.93,4.89,8.65,7.36,2.46,2.24,6.06,3.26,8.86,5.15,4.68,3.16,11.73,3.19,18.74,1.62.58-.01.73.21.33.62-12.08,5.07-30.74-.33-37.35-13.03-.16-.18-.14-.3-.3-.57-.3-.44-.41-.72-.34-1.17h0Z"/> <g> <g> <path d="M302.21,420.4c.51,2.32,1.89,4.23.62,6.76-2.63-1.06-3.55-3.34-4.42-5.56-.66-1.68-1.45-4.15.39-4.88,2.2-.88,2.48,1.87,3.42,3.67h0Z"/> <path d="M309.59,437.13c-.72.23-1.16.24-1.9.06-1.4-1.7-3.06-3.09-2.5-5.34.07-.26.93-.62,1.22-.49,1.99.88,2.6,2.85,3.42,4.63.13.28.04.65-.24,1.14h0Z"/> <path d="M297.3,400.91c1.09.91,1.35,1.84,1.38,3.23-.26,2.13.96,4.63-2.56,4.75-1.27-3.05-1.95-5.86,1.16-7.97h.01Z"/> <path d="M297.76,392.25c.84-1.62.88-3.17,2.19-4.44.87.04,1.25.33,1.46,1.2-.45,1.85-.81,3.3-1.29,4.71-.33.96-1,1.98-2.11,1.41-.92-.47-1-1.61-.24-2.89h0Z"/> <path d="M298.23,403.04c.54.12.71.3.93.85.18,2.12.46,3.87.4,5.61-.03.8-.07,2.14-1.55,1.99-1.47-.16-1.93-1.02-1.38-2.7,2-1.81.72-3.93,1.62-5.75h0Z"/> <path d="M312.09,439.29c-.62,1.2-1.7.11-2.43-.33-.65-.39-1.11-1.1-1.58-1.91.75-1.39,1.3-.97,2.11.04.92.8,2.35,1.33,1.9,2.21Z"/> <path d="M299.53,388.2c-.48-.02-.62-.25-.69-.82.45-1.43,1.39-2.84,2.2-2.48,1.61.71.55,2.39.15,3.59-.62-.22-.98-.36-1.67-.28h.01Z"/> <path d="M311.9,367.47c.09-.43.27-.56.71-.5.35,1.23.43,2.29.26,3.46-.72,1.13-1.18,2.14-1.76,2.75.21-2.07.55-3.74.79-5.71Z"/> <path d="M350.19,357.79c-1.12-.85-1.17-1.87-.46-3.08.71-.88,1.09-1.69,1.59-2.15.07,2.04.26,3.81-1.14,5.23Z"/> <path d="M297.73,402.9c-.35-.86-.56-1.51-.56-2.4,2.38,0,1.97,1.6,1.62,2.92-.51-.16-.72-.24-1.07-.52h0Z"/> <path d="M299.72,388.35c-.65,1.72-.73,3.31-2.18,3.74.42-1.73.83-3.04,1.53-4.41.47.07.63.19.66.67h0Z"/> <path d="M311.87,367.49c-.32-1.31-.73-2.61.71-2.77.43-.05-.02,1.35-.3,2.32-.14.42-.2.58-.42.45h0Z"/> <path d="M329,334.41c-.17,1.45-.47,2.57-.83,3.35.19-1.46.45-2.57.83-3.35Z"/> <path d="M364.23,364.41c.7-.06.98-.08,1.46.15.12.58.11,1.21-.03,1.21-.92,0-1.43-.62-1.43-1.35h0Z"/> <path d="M339.27,371.28c-5.98,6.91-10.99,14.5-14.32,23.31-3.66,9.69-5.47,19.57-3.82,29.64.54,3.31,1.29,6.8,2.84,9.54,1.75,3.09,4.38,5.66,7.93,6.46,3.63.82,7.03.12,9.73-3.28,2.55-3.21,2.92-6.73,1.48-10.48.58.55,1.14,1.14,1.44,1.88,1.49,3.6.39,8.52-2.51,11.54-4.02,4.18-10.12,4.72-14.69,1.35-4.34-3.21-6.65-8.01-7.98-13.5-2.09-8.59-1.52-17.39.55-26.17,2.47-10.43,6.89-19.9,13.22-28.38,3.61-4.83,7.46-9.52,10-15.16,1.29-2.85,2.24-5.87,3.36-8.87.09.75.18,1.52.27,2.3.16.01.32.03.49.04.78-3.2,1.67-6.39,2.31-9.61.65-3.26,1.11-6.55,1.57-9.84.45-3.21.8-6.43,1.19-9.65.42,2.9.66,5.79.83,8.7.51,8.68-.11,17.24-4.02,25.54-2.55,5.59-6.07,10.24-9.88,14.64Z"/> <path d="M309.19,402.87c-.44,2.12-1.01,4.06-2.46,5.6-1.51,1.6-3.18,1.26-3.69-.87-.65-2.71-.1-5.3,1.4-7.62.58-.89,1.47-1.58,2.42-2.59.19.83.28,1.22.38,1.65.46-.29.82-.51,1.17-.73.94,1.24,1.08,2.05.78,4.56M306.93,400.81c-.18-.03-.37-.06-.55-.09-1.15,1.45-1.57,3.11-1.31,4.95.13.06.26.12.39.18.34-.71.68-1.41,1.02-2.12.2-1.13.33-2.03.46-2.93Z"/> <path d="M311.52,419.6c-.26.69-.43,1.31-.75,1.84-.46.76-1.04,1.01-1.6.04-.03-.04-.15-.03-.22-.05-.12.27-.24.55-.36.83-3.18-1.96-3.55-9.5-.59-11.66.2.31.4.62.66,1.03.76-1.61,1.35-.52,1.74.07,1.59,2.4,1.6,5.07,1.11,7.9M308.52,418.89c1.36-1.46,1.23-4.1-.16-5.44-.18.8-.33,1.45-.48,2.1.21,1.17.4,2.13.64,3.34Z"/> <path d="M309.45,387.83c1.49-.91,1.95-2.32,2.17-3.83.17-1.17.76-2.03,1.81-2.8.21.53.41.93.51,1.35.61,2.54-1.44,7.47-3.66,8.87-1.66,1.04-3.06.33-3.05-1.72.01-2.93,1.04-5.55,2.95-7.79.34-.39.88-.61,1.33-.91l.39.31c-.45.99-.9,1.98-1.41,3.07-.39,1.22-.72,2.33-1.05,3.44Z"/> <path d="M319.33,368.47c.28-2.16.45-4.24,1.9-5.96.25.29.46.52.67.76.27-.47.49-.84.83-1.42,1.81,2.43,1.58,4.97,1,7.46-.43,1.83-1.21,3.56-3.31,4.22-1.24-1.53-1.24-3.22-1.1-5.06M321.39,365.24c-.15,1.36-.3,2.72-.45,4.09l.45.04c.85-1.13.7-2.46.67-3.77-.25-.26-.46-.31-.67-.35Z"/> <path d="M310.77,434.66c-1.75-3.04-2.36-6.75-1.11-6.94.23.24.5.5.85.86l.37-1.23c2.69.98,5.44,6.57,4.41,8.82-.37-.19-.75-.38-1.24-.63.15.63.25,1.08.37,1.57-1.63-.1-2.19-.48-3.64-2.45M311.11,429.85c-.1,2.06.79,3.69,2.33,4.3-.3-.92-.54-1.64-.78-2.37-.51-.68-.93-1.18-1.55-1.93Z"/> <path d="M322.83,444.54c-3.22,0-5.64-2-5.8-4.72,1.25.71,2.32,1.31,3.46,1.98.83.96,1.59,1.85,2.34,2.73Z"/> <path d="M321.98,350.32c.29,1.65.57,3.33.48,4.98-.04.74-.83,1.45-1.35,2.08-.95-2.57-.66-5.38.88-7.06Z"/> <path d="M308.36,413.45c1.38,1.35,1.51,3.98.16,5.44-.24-1.21-.43-2.16-.62-3.23.14-.76.29-1.41.47-2.22Z"/> <path d="M321.39,369.37l-.45-.04c.15-1.36.3-2.72.45-4.09.21.05.42.1.65.25.06,1.41.21,2.75-.64,3.88Z"/> <path d="M313.45,434.15c-1.54-.61-2.44-2.23-2.33-4.3.63.75,1.05,1.25,1.51,1.84.28.82.52,1.54.82,2.46Z"/> </g> <g> <path d="M332.27,424.64c1.05.1,1.98,1.44,1.95,2.78-.03,1.44-.75,2.09-1.91,2.19-2.15.18-4.64-1.83-6.19-4.86-2.35-4.6-2.33-8.41-.49-11.43,1.88-3.09,5-3.88,8.75-3.42,2.47.31,4.95,1.41,7.41,3.3.24.18.54.33.62.73-.23.26-.61-.24-.94-.18.83.6,1.52,1.38,2.3,1.79.11-.16-.22-.44.07-.49.42.48.76,1.09,1.26,1.53.39.35.82.56,1.18.99,1,1.2,2,2.28,2.52,3.93.45,1.42.92,2.95,1.81,4.33.06.09.13.25.11.3-.22.56.22,1.19.42,1.79.22.67.35,1.31.3,1.92-.03.41-.09.82-.53.78-.42-.04-.74-.45-.98-.88-.59-1.04-.87-2.11-.86-3.09,0-.74.08-1.43-.23-2.27-1.13-.45-2.84-2.85-2.98-4.22-.06-.55.15-.69.6-.42.32.19.62.45.93.69-.66-.99-1.3-1.98-2.34-2.46.01.61-.29.73-.77.42-.96-.61-1.93-1.25-2.49-2.53-.08-.17-.15-.3-.31-.34-.18-.04-.17.11-.18.26,0,.11-.03.21-.05.31-.1-.02-.16,0-.22-.04-.48-.3-.96-.62-1.44-.91-4.34-2.61-8.27-3.44-11.4-1.16-1.64,1.2-2.49,3.18-2.32,5.89.15,2.45.94,4.89,2.97,7.01,1.46,1.53,3.18,2.01,4.17,1.28.76-.56.74-2.37-.57-3.17-.12-.07-.2-.19-.18-.37M350.49,428.99c.43-.2.23-1.05-.43-1.83-.02.62.21,1.23.43,1.83M348.1,422.54c-.2-.51-.47-.96-.97-1.35.11.61.46,1.01.78,1.43.28.22.25.05.2-.08Z"/> <path d="M333.57,416.33c-.35.38-.93.47-1.55.17-.42-.2-.99-.47-1.16-1.1-.16-.61.23-.83.6-.93.6-.17,1.24-.21,2.04.33.43.69.36,1.24.08,1.53Z"/> <path d="M336.89,415.07c.38.28.8.52.8,1.13,0,.6-.3.75-.78.67-.64-.11-1.25-.38-1.85-1.04-.22-.24-.53-.38-.54-.77,0-.36.2-.5.46-.55.44-.08.92.06,1.46.3.18.1.31.16.44.26Z"/> <path d="M330.32,416.04c.23.41.07.73-.07,1-.24.47-.66.67-1.15.77-.19.04-.42,0-.62-.25-.2-.26-.2-.51-.16-.73.13-.62.47-.99,1.04-1.15.35,0,.69-.11.95.36Z"/> <path d="M340.99,417.5c.2.26.36.55.27.81-.1.29-.35.25-.64.11-.47-.24-.91-.59-1.33-.99-.28-.26-.65-.53-.6-.93.05-.43.44-.29.78-.17.11.04.22.11.38.2.44.29.83.55,1.15.97Z"/> <path d="M327.65,420.33c-.34-.22-.32-.62-.31-.93,0-.44.1-.82.34-1.09.1-.11.22-.23.43-.09.22.15.22.38.21.56-.03.37-.09.72-.16,1.13-.11.28-.19.62-.5.41Z"/> <path d="M327.78,421.39c.32.42.37.79.29,1.16-.29-.08-.31-.31-.4-.56-.04-.27-.15-.54.11-.6Z"/> </g> </g> <path d="M405.9,338.17c-.23.41-.48.6-.95.84-.28.16-.34.27-.56.36-12.35,8.01-28.37,5.26-33.43-3.66-.02-.5.21-.62.6-.39,3.79,4.03,8.6,6.74,13.73,5.93,3.07-.49,6.14.06,9.2-.85,3.37-1,6.92-1.33,10.43-2.77.52-.06.77.05.98.52h0Z"/> <path d="M354.18,297.48h0c-.32-1.11-.25-1.98-.49-3.18-.09-1.07-.09-1.79.13-2.76.7-.3,1.08-.14,1.48.6,1.03,2.12,1.94,3.89,2.85,5.67.47-.06.95-.11,1.42-.16,0-3.3,0-6.61.31-10.09.51-.03.71.1,1.02.56.11,1.02.11,1.71.06,2.79.02,3.57-.38,6.77.25,10.3,4.36,13.29,15.06,17.95,27.29,21.25-6.16,2.41-12.09,2.73-18.9.42,2.51,4.03,6.01,4.95,8.82,7.25-.89,1.25-1.86,1.34-3.22.44-4.23-1.03-7.68-2.94-11.06-4.94-1.21-.72-3.51-1.03-1.89-3.53,1.23.22.63-.9,1.03-1.34-4.64-7.29-7.44-14.9-9.11-23.29h0Z"/> <path d="M423.18,275.1c0,.58-.02,1-.61,1.26-.52.71-1.25,1.69-1.77,1.25-.86-.73-.74-2.1-.78-3.27,1.08.28,2.04.89,3.16.75h0Z"/> <g> <path d="M405.64,367.66c-.23.05-.34-.05-.39-.2-.47-1.76-2.7-1.56-3.69-.42-1.3,1.5-1.38,3.87-.07,5.75,1.81,2.61,4.51,3.43,7.48,3.34,3.29-.09,6.07-1.54,8.2-4.02,4.06-4.72,4.59-10.19,3.1-16.02-.17-.65-.37-1.28-.55-1.93-.02-.08.02-.18.04-.31.13-.04.27-.09.41-.11.18-.03.37-.04.39-.29.01-.22-.11-.31-.3-.4-1.35-.64-1.76-1.93-2.14-3.22-.19-.64.08-1.08.82-1.14-.19-1.4-1.15-2.2-2.11-3.01.16.41.37.81.48,1.24.16.61-.1.91-.76.9-1.63-.04-3.92-2.16-4.02-3.71-.91-.34-1.8-.14-2.71-.04-1.22.13-2.43-.13-3.48-.84-.44-.29-.82-.69-.7-1.28.13-.61.66-.74,1.18-.84.76-.15,1.5-.04,2.24.19.66.21,1.27.76,2.05.38.07-.04.24.05.33.12,1.36,1.1,3.05,1.57,4.63,2.03,1.83.53,2.77,1.81,3.85,3.09.38.45.48,1.04.76,1.55.35.64.97,1.05,1.39,1.59-.18.41-.4-.01-.64.16.2,1.06.88,1.94,1.3,3.04.21-.48-.26-.95.15-1.32.47.07.53.48.66.79,1.35,3.25,1.74,6.63,1.14,10.1-.91,5.26-3.13,9.79-7.69,12.83-4.46,2.98-9.17,3.48-13.92.71-3.12-1.82-4.61-5.1-3.54-8.17.57-1.65,1.67-2.75,3.46-2.98,1.66-.21,2.95.95,2.66,2.42M407.5,342.36c.65.24,1.31.49,2.09.38-.7-.83-1.67-1.02-2.09-.38M414.36,345.24c.39.4.75.84,1.46.92-.29-.66-.74-.99-1.29-1.21-.14-.06-.33-.08-.17.29Z"/> <path d="M418.28,364.71c.36,1.06.05,1.98-.4,2.85-.28.54-.7,1.12-1.39.96-.72-.16-.82-.94-.9-1.51-.12-.84.22-1.67.83-2.22.47-.43,1.18-.61,1.86-.07Z"/> <path d="M419.44,360.51c.08.74.05,1.4-.21,2.03-.16.37-.42.69-.86.72-.47.04-.52-.39-.74-.67-.58-.76-.67-1.59-.55-2.49.09-.68.4-1.12,1.14-1.19.76-.07.88.49,1.08,1,.06.17.09.35.14.59Z"/> <path d="M415.57,370.66c-.43.82-1.02,1.36-1.83,1.61-.29.09-.61.13-.84-.13-.24-.26-.18-.57-.06-.85.31-.7.72-1.32,1.4-1.72.39-.23.85-.49,1.27-.22.47.31.22.81.07,1.31Z"/> <path d="M418.66,355.92c.04.21.08.36.09.51.02.46.04,1-.51,1.12-.51.12-.7-.38-.91-.74-.32-.55-.58-1.13-.69-1.77-.07-.39,0-.75.39-.92.35-.16.66.03.89.28.39.41.55.93.74,1.52Z"/> <path d="M409.85,372.91c.53-.14.99-.27,1.46-.36.23-.05.51-.07.61.22.09.27-.1.46-.28.61-.42.37-.94.55-1.48.61-.38.04-.88.12-1.02-.33-.13-.42.32-.58.7-.76Z"/> <path d="M407.1,373.85c-.28-.09-.55-.1-.53-.5.49-.16.93-.13,1.32.27-.18.38-.47.25-.79.23Z"/> </g> <path d="M356.61,359.11c-.15-.39-.11-.99.17-1.98.17.33.09,1.05-.17,1.98Z"/> <path d="M360.33,279.46"/> <path d="M240.36,105.5"/> <path d="M294.26,105.5"/> <g> <path d="M369.25,246.83c1.59-.33,2.43.69,3.7.92-1.18,1.72-2.6,2.4-4.06,2.96-.81.31-1.98.77-2.51-.14-.56-.97.05-2.04.92-2.72.51-.4,1.12-.66,1.95-1.02h0Z"/> <path d="M389.73,252.65c.68-.62,1.26-.58,2.12.03-.95.22-1.65.38-2.37.43,0-.11.18-.21.26-.46h0Z"/> <path d="M413.37,185.18c-.01-.92.05-1.71.13-2.5.11-1.18.4-2.38.3-3.54-.67-8.34-9.03-15.24-18.3-12.93-.44.11-.83.49-1.22.77-1.62,1.15-3.24,2.31-4.86,3.47-.11-.14-.23-.29-.34-.43.82-.89,1.64-1.78,2.46-2.66-.51,0-.88.14-1.24.33-4,2.12-7.08,5.24-8.99,9.49-3.86,8.58-2.83,16.82,2.07,24.31,2.83,4.33,6.5,8.05,9.84,12,2.21,2.62,3.9,5.52,5.27,8.73,3.13,7.36.3,16.44-6.47,20.34-3.39,1.96-7.07,2.55-10.81,2.9-4.97.47-9.24,2.91-13.52,5.35-1.65.94-3.24,2.05-4.97,2.77-2.75,1.15-5.65,1.42-8.51.65-1.57-.42-3.04-1.24-4.56-1.88.05-.13.1-.26.15-.39.39.06.79.1,1.17.2,3.82,1.03,7.55.51,11.06-1.24,2.33-1.16,4.52-2.69,6.64-4.26,4-2.95,8.31-4.88,13.16-5.51,1.96-.25,3.97-.64,5.82-1.37,6.31-2.48,9.67-8.42,8.44-15.76-.85-5.06-3.78-9.04-7.27-12.46-3.83-3.75-7.24-7.8-9.58-12.77-4.42-9.36-3.21-20.6,3.3-28.38,5.67-6.78,12.71-9.7,21.15-7.29,6.64,1.89,11.34,7.79,11.84,14.5.21,2.8-.14,5.5-1.89,7.83-.07-.04-.13-.1-.25-.3Z"/> <path d="M414.01,234.12c-.33,1.36-1.02,2.58-2.58,2.97-.11-.53-.2-.95-.29-1.42-1.26.94-1.77.89-2.32-.45-.91-2.23-1.13-4.58-.4-6.96.13-.44.36-.87.64-1.23.32-.42.79-1.04,1.25-.33.38.58.85,1.68.6,2.02-.89,1.22-.81,2.45-.53,3.73.08.37.53.64.81.96.31-.35.84-.67.88-1.04.11-1.03.01-2.09,0-3.13-.02-.88-.05-1.76-.03-2.64,0-.07.38-.14.66-.16,2.14,2.27,1.99,4.96,1.33,7.68Z"/> <path d="M410.3,241.55c.15.34.24.48.27.63.57,2.85-2.52,7.23-5.29,7.46-.69.06-1.44,0-1.33-1.1.01-.11-.13-.34-.23-.35-.93-.15-.85-.91-.83-1.57.05-1.94,2.48-5.45,4.27-6.05.4-.14.95.22,1.43.35-.2.62-.27,1.35-.63,1.84-.48.65-1.32,1.01-1.75,1.68-.38.59-.4,1.43-.58,2.15.68-.33,1.55-.49,2-1.04.7-.85,1.13-1.95,1.73-3.02.33-.35.59-.63.94-.99Z"/> <path d="M406.32,214.24c-.23-.58-.39-1.01-.59-1.54,2.34.43,4.64,2.79,5.45,5.46.35,1.16.53,2.34-.41,3.71-.58-1.23-1.02-2.26-1.55-3.24-.53-.97-1.13-1.91-1.76-2.8-.13-.18-.67-.26-.84-.13-.2.15-.36.71-.25.88.58.91,1.28,1.74,1.89,2.64.37.56.78,1.16.92,1.81.09.38-.31.88-.49,1.32-.54-.23-1.28-.31-1.58-.73-1.14-1.61-2.24-3.27-3.13-5.04-.31-.62.04-1.62.09-2.44.65.12,1.3.25,1.95.37.11-.05.23-.09.28-.27Z"/> <path d="M402.87,208.78c-.03.23-.06.46-.2.77-.72-.2-1.33-.47-1.93-.73.03.69.06,1.25.08,1.81-.58,0-1.23.17-1.74-.04-2.05-.82-3.73-2.17-4.81-4.19-.28-.54-.26-1.26-.37-1.89.57-.02,1.13-.04,1.7-.07.11,0,.23,0,.44-.02-.2-.46-.37-.86-.55-1.27,2.65-.41,6.33,2.41,7.37,5.63M400.25,208.01c-.27-1.22-1.68-2.69-2.62-2.79-.52-.05-1.03-.02-.87.79,1.02,1.16,1.82,2.38,3.48,2Z"/> <path d="M386.66,194.61c.08.05.16.11.24.16.02-.06.05-.13.07-.35.02-.52.04-.87.07-1.25,2.62.57,5.58,4.9,4.95,7.14-.39-.18-.78-.36-1.22-.56.25,1.73-.12,2.2-1.36,1.64-2.27-1.03-3.76-2.85-4.37-5.37-.12-.51.12-1.13.2-1.7.47.1.95.2,1.42.3M387.21,196.55c.56.85,1.25,1.6,2.1,2.23.38-1.58-.52-2.42-1.43-3.25-.35.3-.78.86-.67,1.02Z"/> <path d="M384.34,190.34c-2.66-1.16-3.25-5.97-1.07-8,.05-.04.15-.03.35-.05.11.24.24.54.4.89.33-.34.57-.58.82-.83,1.05,1.2,1.6,3.44,1.41,5.42-.12,1.26-.55,2.22-1.91,2.57M384.21,187.97c.83-1.17.66-2.9-.28-3.61-.84,1.4-.43,2.49.28,3.61Z"/> <path d="M405.31,188.35c-2.26-1.25-2.99-4.78-1.25-6.29,0,0,0-.02.04.08-.59,1.66-.23,3,.9,4.12,1.46,1.43,3.68,1.6,5.49.37.74-.5,1.4-1.16,2.01-1.67.33.11.61.21.91.34.07.1.13.16.15.28-1.95,3.33-5.31,4.42-8.27,2.79Z"/> <path d="M393.68,255.51c-.15-.23-.16-.61-.33-.73-1.22-.86-3.45-.22-4.16,1.26.08.07.09.06.09.06-.19-.02-.39-.05-.56.06.03.13.02.11,0-.01-.57-.23-1.12-.34-1.66-.44.37-.6.62-1.39,1.14-1.78,1.47-1.09,3.17-1.51,4.97-1.3.95.11,1.89.31,2.41,1.27-.45.47-.83.86-1.2,1.25-.21.12-.41.23-.68.37Z"/> <path d="M396.08,255.79c-1.37,2.3-6.39,3.13-8.16,1.52.28-.35.56-.7.84-1.05,0,0,0,.02,0,.02.16,0,.33.02.51-.08.02-.11.02-.09.02-.09,1.39-.19,2.77-.37,4.32-.59.36-.15.57-.27.87-.38.6.22,1.09.43,1.61.65Z"/> <path d="M384.22,178.07c-.19-1.71.63-3.07,1.59-4.39.75-1.04,1.39.08,2.19-.21-.32,2.27-1.11,4.05-2.83,5.43-.38-.24-.92-.5-.96-.83Z"/> <path d="M411.58,241.75c-.48-2.45-.41-2.62,1.47-3.89-.11.42-.21.78-.33,1.24-.36.86-.69,1.63-1.14,2.65Z"/> <path d="M404.86,210.56l-.35.39c-.59-.43-1.17-.87-1.75-1.39.04-.32.07-.55.17-.73.69.62,1.3,1.17,1.92,1.73Z"/> <path d="M413.44,225.09c-1.64-1.63-1.71-1.84-1.16-3.47.17.37.31.65.46,1.03.21.77.41,1.44.7,2.44Z"/> <path d="M402.97,251.45c-.5.58-.85,1.13-1.32,1.5-.29.23-.78.19-1.16.27.01,0-.01,0,.09.02.66-.77.93-1.94,2.39-1.79Z"/> <path d="M404.11,182.01c.08-.01.12.03.15.06-.03.02-.07.07-.08.06-.05-.03-.09-.08-.13-.11,0,.01.01.03.06-.02Z"/> <path d="M406.33,214.32c-.06.1-.18.14-.23.12.1-.1.14-.14.23-.12Z"/> <path d="M389.31,198.78c-.85-.63-1.54-1.38-2.1-2.23-.11-.16.32-.72.59-1.05.99.86,1.89,1.7,1.51,3.28Z"/> <path d="M411.72,256.2c.09-.09.35-.16.55.03.3.32.42.46.44.77-.09.16-.35.43-.57.3-.4-.41-.5-.7-.42-1.09h0Z"/> </g> <g> <path d="M177.77,367.65c-.3-1.47.99-2.63,2.66-2.42,1.79.23,2.88,1.33,3.46,2.98,1.07,3.07-.42,6.36-3.54,8.17-4.75,2.76-9.46,2.27-13.92-.71-4.56-3.04-6.78-7.57-7.69-12.83-.6-3.47-.22-6.84,1.14-10.1.13-.31.19-.73.66-.79.41.36-.06.84.15,1.32.42-1.1,1.1-1.98,1.3-3.04-.24-.17-.46.25-.64-.16.42-.54,1.04-.95,1.39-1.59.28-.51.37-1.09.76-1.55,1.08-1.27,2.02-2.56,3.85-3.09,1.58-.46,3.27-.93,4.63-2.03.09-.07.26-.15.33-.12.78.38,1.38-.17,2.05-.38.74-.23,1.48-.34,2.24-.19.52.1,1.05.23,1.18.84.12.59-.26.99-.7,1.28-1.05.71-2.26.97-3.48.84-.92-.1-1.8-.3-2.71.04-.1,1.55-2.39,3.67-4.02,3.71-.66.02-.91-.29-.76-.9.11-.42.31-.83.48-1.24-.96.81-1.92,1.6-2.11,3.01.75.06,1.01.5.82,1.14-.38,1.29-.78,2.58-2.14,3.22-.18.09-.31.18-.3.4.02.25.21.26.39.29.14.02.28.07.41.11.02.14.06.23.04.31-.18.64-.38,1.28-.55,1.93-1.5,5.83-.97,11.3,3.1,16.02,2.13,2.47,4.91,3.92,8.2,4.02,2.97.08,5.67-.73,7.48-3.34,1.31-1.89,1.23-4.25-.07-5.75-.99-1.15-3.22-1.34-3.69.42-.04.16-.15.26-.39.2M175.91,342.35c-.42-.64-1.38-.45-2.09.38.78.11,1.43-.14,2.09-.38M168.88,344.94c-.55.22-1,.55-1.29,1.21.71-.08,1.07-.53,1.46-.92.16-.37-.03-.34-.17-.29Z"/> <path d="M166.99,364.78c.61.55.95,1.38.83,2.22-.08.58-.18,1.35-.9,1.51-.69.16-1.11-.42-1.39-.96-.44-.87-.76-1.79-.4-2.85.68-.53,1.38-.35,1.86.07Z"/> <path d="M164.11,359.91c.19-.51.32-1.07,1.08-1,.74.07,1.05.51,1.14,1.19.12.9.03,1.73-.55,2.49-.21.28-.26.71-.74.67-.44-.04-.7-.35-.86-.72-.27-.63-.29-1.3-.21-2.03.05-.24.08-.43.14-.59Z"/> <path d="M167.91,369.34c.42-.28.87-.01,1.27.22.68.4,1.09,1.02,1.4,1.72.12.28.18.59-.06.85-.24.26-.55.22-.84.13-.82-.26-1.41-.79-1.83-1.61-.15-.5-.4-.99.07-1.31Z"/> <path d="M165.48,354.4c.24-.25.54-.44.89-.28.39.17.45.53.39.92-.11.64-.37,1.22-.69,1.77-.21.36-.4.86-.91.74-.55-.13-.54-.66-.51-1.12,0-.15.05-.3.09-.51.18-.59.35-1.11.74-1.52Z"/> <path d="M174.26,373.66c-.14.45-.64.37-1.02.33-.54-.06-1.06-.25-1.48-.61-.18-.16-.38-.35-.28-.61.1-.29.38-.27.61-.22.47.09.93.22,1.46.36.38.18.83.34.7.76Z"/> <path d="M175.52,373.61c.39-.4.83-.43,1.32-.27.02.4-.26.41-.53.5-.32.02-.61.15-.79-.23Z"/> </g> <path d="M257.14,214.53c1.72,1.3,3,2.47,5.3,1.99-2.24-4.38-4.04-8.71-6.56-12.58-1.77-2.73-1.87-3.72,2.35-3.37-10.44-9.51-17.84-19.98-18.02-34.52-.18-.5-.3-.59-.55-.5-1.24,3.83-.71,7.61-1.01,12.14-5.2-10.62-3.72-20.42.13-30.11,1.3-3.3,2.7-6.63,5.11-9.4.51-.59.57-1.57.84-2.37-.91.27-1.87.24-2.58,1.2-5.44,7.35-9.8,15.13-10.96,24.44-1.83,14.69,1.88,27.98,10,40.5,1.22.34,1.32-.31,1.08-1.34-1.38-5.04-4.04-9.4-4.25-15.13,4.22,6.08,8.01,11.69,13.61,15.75.82.59,1.14,1.88,1.96,3.02.69.52.78,1.05,1.1,1.74.23.59.31.96.56,1.57.25.63.33,1.02.64,1.63.19.38.19.55.25.94-.55,1.12-.13,2.05.19,3.23.29.47.35.68.78,1.2l.02-.03Z"/> <path d="M243.46,229.94c2.94,7.43,8.8,11.49,18.94,11.48,1.43-.62,2.48-.8,3.56.09-12.03,5.1-23.48-1.13-24.32-13.25,2.24-.79,1.18.8,1.82,1.69h0Z"/> <path d="M255.22,223.91c-8.49-.57-8.58-.62-10.73-8.11,3.96,6.06,11.97,4.01,16.46,9.19-1.81-.34-3.61-.69-5.73-1.07Z"/> <path d="M261.32,202.68c.13-.68.4-1.05.73-1.68,1.82,2.34,5.46,3.69,5.19,7.92-1.96-1.76-3.87-3.85-5.92-6.25h0Z"/> <path d="M254.18,177.04c-.25.8-.53,1.26-.88,2.02-.73-1.12-1.4-2.53-2.09-4.28-.27-.62-.34-.88-.22-1.12.12-.22.22-.34.67-.3,1.06,1.14,1.77,2.24,2.52,3.67h0Z"/> <path d="M272.43,246.06c-.56-1-3.45.23-2.69-2.01.4-1.19,1.4-1.89,2.52-.07.36.73.47,1.22.17,2.08Z"/> <path d="M248.03,245.05c-1.5.39-2.15-.7-3.29-1.51.6-1.3,0-3.12,1.86-3.67-.2,1.41.11,2.31,1.27,3.28.26.69.29,1.14.16,1.9h0Z"/> <path d="M249.39,231.53c-.39-.43-.69-1.18-1.21-2.06-.3-.98-.12-1.93.82-1.89.84.04.4,1.06.47,1.64.08.66.02,1.32-.08,2.31Z"/> <path d="M279.18,213.09c-.28.51-.56.7-.95,1.13-1.35-.76-1.29-1.95-.63-3.23.53.6,1.06,1.19,1.58,2.11h0Z"/> <path d="M264.42,238.12c-.76-1.17-1.82-.62-2.97-.83.92-.4,2.25-1.16,3.4-.94,2.21.41.24,1.13-.43,1.78h0Z"/> <path d="M250.33,172.44c-1.52-.88-1.35-2.06-.83-3.3.5.56.99,1.12,1.55,1.98-.09.63-.26.95-.72,1.32Z"/> <path d="M275.22,238.58c0-.75.01-1.22.07-2.05.93.6,1.39,1.64.54,2.86-.38.54-.99.21-.42-.13.02,0-.11-.27-.19-.68Z"/> <path d="M250.15,172.78c.1-.58.27-.89.71-1.28.51.4.77.88,1.09,1.64-.21.41-.42.62-.67,1.1-.42-.26-.73-.72-1.13-1.46h0Z"/> <path d="M248.06,243.08c-1.68.15-2.01-.85-1.34-2.62.59.58.94,1.45,1.34,2.62Z"/> <path d="M245.68,239.16c-.17-.77-.06-1.33.04-1.9.59.64,1.37,1.27-.04,1.9Z"/> <path d="M260.38,192.15c-.15-.32-.16-.9.03-1.7.17.33.14.89-.03,1.7Z"/> <path d="M263.71,247.79s0,.02,0,0Z"/> <path d="M236.38,104.34"/> <path d="M251.63,233.13c-.51-.68-1.05-1.26-1.39-1.93-.45-.9.09-1.85,1.05-1.77,1.41.12,2.8.44,4.2.68,0,.1-.01.21-.02.31l-1.46.35c1.1,2.36,3.98,3.15,6.84,2.06.78-.3,1.68-.25,2.55-.22-3.98,3.99-7.74,4.12-11.77.52Z"/> <path d="M258.79,304.52c3.05-5.95,6.09-11.36,9.02-16.9.36-.67,2.01-2.55-.73-2.95-.92-.25-1.25-.8-1.27-1.94,7.25-9.44,9.89-22.4,14.23-35.78,2.22,22.77-4.74,43.02-19.25,58.08-.92,1.19-1.5.97-1.99-.51Z"/> <path d="M192.11,284.6c-.11-.41-.07-.7.07-1.16.07-.28.05-.39.13-.59,2.82-13.16,14.99-21.73,24.05-19.22.34.31.26.54-.14.64-5.07-.16-9.94,1.19-12.74,5.03-1.68,2.3-4.02,3.93-5.42,6.49-1.54,2.83-3.63,5.33-4.97,8.53-.3.37-.53.46-.97.3h0Z"/> <path d="M243.66,290.27c.73.19,1.15.49,1.85.83-1.47,1.61-3.23,3.18-5.24,4.94-.78.33-1.21.2-1.44-.6,1.57-1.93,3.05-3.5,4.83-5.18h0Z"/> <path d="M238.64,295.26c.48.14.68.45,1.12.87-1.16,1.86-2.57,3.61-4.61,6.15.05-3.59,1.83-5.12,3.49-7.03h0Z"/> <path d="M251.85,273.5c.58.31.84.72,1.14,1.37-1.3,2.33-3.6.77-5.36,1.49,1.3-.92,2.61-1.84,4.22-2.86h0Z"/> <path d="M231.26,317.52c1.3,2.74.94,6,.27,9.57-.31-2.83-.36-5.97-.27-9.57Z"/> <path d="M232.93,313.87c-.36.45-.63.49-1.1.51-.28-.77-.37-1.5-.38-2.61,0-.96.09-1.53.35-2.36.18-.66.22-1.07.35-1.77.57-.47.95-.33,1.08.37-.18,2.01-.2,3.72-.3,5.86h0Z"/> <path d="M233.32,308.07c-.43.02-.59-.22-.91-.59.21-1.65.29-3.32,2.64-4.99-.66,2.4-1.07,3.87-1.73,5.58Z"/> <path d="M238.94,318.06c-.46.3-.81.32-1.43.32.2-.95.66-1.87,1.12-2.79.14.73.28,1.46.31,2.47Z"/> <path d="M238.27,324.04c-.17-.62-.14-1.49.14-2.6.18.63.13,1.49-.14,2.6Z"/> <path d="M231.71,309.38c.22.38.22.97,0,1.8-.22-.37-.23-.97,0-1.8Z"/> <path d="M290.27,104.34"/> <path d="M192.34,314.06c-11.81,3.53-19.78-.61-28.07-14.33,6.54,8.28,14.57,13.6,25.94,13.07,1.26-.23,1.89.05,2.13,1.26Z"/> <path d="M156.47,286.29c-.41-1.75-.68-3.38.03-4.93.36-.8.58-1.64,2.05-1.19,1.28.39,1.83.84,1.79,2.09-.08,2.57-1.72,4.41-3.87,4.02h0Z"/> <path d="M154.04,290.61c1.92,2.98,1.21,5.66-.38,8.24-.48.76-1.17,1.4-1.93.27-1.51-2.24-.38-6.84,2.33-8.51h0Z"/> <path d="M163.79,327.15c-3.16.6-5.1-1.56-7.31-3.03-.92-.61-1.1-1.68-.62-2.58.48-.88,1.55-.62,2.2-.26,2.41,1.36,5.45,2.13,5.74,5.87Z"/> <path d="M147.76,307.52c1.57-3.08,3.62-3.38,5.11-.69,1.78,3.25,3.08,6.85-.16,10.32-2.52-1.26-2.06-3.64-2.89-5.8-.5-.83-.8-1.39-1.41-2.14-.45-.58-.63-.97-.64-1.69h0Z"/> <path d="M176.4,331.41c-1.11-1.38-2.67-1.28-4.26-1.58-.28.32-.33.48-.61.53.05-1.69-3.02-.88-2.14-2.52.75-1.39,2.37-.99,3.75-.69,1.77.38,3.38,1.1,4.74,2.32,1.14,1.02-.29,1.27-.76,2.08-.35.2-.54.17-.71-.14h0Z"/> <path d="M165.41,266.13c1.12.14,2.08-.48,3.16-.75-.04,1.17.09,2.54-.78,3.27-.52.44-1.26-.54-1.77-1.25-.59-.26-.61-.68-.61-1.26h0Z"/> <path d="M171.72,333.07c.07-.77.3-1.31.58-2.06.18-.22.33-.26.44-.21,1.27.51,3.71.38,3.29,2-.41,1.57-2.6,1.28-4.31.27h0Z"/> <path d="M163.74,260.67c.21-.71.55-1.09,1.18-.78.38.19.97.75.92.85-.69,1.28-1.24-.02-1.88-.16-.14-.03-.29-.02-.43,0-.05,0-.1.09-.15.13.09.02.18.03.35-.04h0Z"/> <path d="M165.38,270.87c.12-.22.25-.3.38-.37.53-.28.45-1.28,1.29-1.14.38.06.46.5.25.74-.57.64-.67,1.79-1.83,1.77-.03,0-.06-.55-.1-.99h0Z"/> <path d="M165.43,262.89c.88.71.82-1.51,1.71-.63.45.45.78.94.61,1.61-.05.2-.22.52-.36.53-1.08.12-.72-1.18-1.58-1.4-.18.09-.38,0-.37-.12Z"/> <path d="M165.41,270.68c-.63-.17-1.13.94-1.79.27-.53-.55.1-1,.36-1.41.24-.37.66-.89,1.11-.62.56.34.19.96.17,1.63.1.17.13.14.14.13h0Z"/> <path d="M160.58,261.15c-.49-.11-1.37.12-.79-.64.45-.59,1.22-.39,2.01,0-.42.25-.74.44-1.22.64h0Z"/> <path d="M165.31,266.1c.55.13.52.57.52,1.15-.03.54-.32.8-.6.59-.64-.48-.32-1.08.07-1.74h0Z"/> <path d="M165.37,262.69c.04.19.06.28.2.38.39.42.39.86.27,1.33-.59-.5-.74-1.06-.47-1.71Z"/> <g> <path d="M162.09,252.07c-8.12-1.1-15.13,5.6-13.65,13.02.61.68.65,1.15,0,1.75-3.08-3.66-2.84-7.52-.51-11.28,2.63-4.23,6.53-6.18,11.55-5.57,1.05.13,2.09.47,3.35.85.49.84.14,1.16-.74,1.23h0Z"/> <path d="M149.15,267.22c.04-.6.15-.97.26-1.54.95.97,1.91,2.14,2.97,3.44-1.84.64-2.2-1.07-3.22-1.89h0Z"/> <path d="M162.35,252.27c.16-.32.52-.51.94-.9,1.03.31,1.99.81,3.13,1.48.2.34.22.53-.05.72-1.46-.39-2.64-.78-4.02-1.3h0Z"/> <path d="M166.76,253.43c1.58.48,2.6,1.5,3.24,3.69-1.47-1.13-2.44-1.88-3.51-2.84-.03-.36.05-.51.27-.85Z"/> </g> <path d="M158.92,326.79c.94.58,2,1.02,2.61,2.47-1.24-.58-2.6-.33-2.61-2.47Z"/> <path d="M167.34,300.03c.55,1.32.86,2.49,1.41,4.61-1.89-1.89-2.72-3.28-3.06-5.31.81-.49,1.03.14,1.64.71h0Z"/> <path d="M164.1,294.56c.27-.05.38.13.36.53-.32.09-.44-.09-.36-.53Z"/> <path d="M146.52,311.65c-.12-.81-.21-1.15-.38-1.75.81-.7,1.01.01,1.51.81.72,1.56,1.44,2.81,1.72,4.14.26,1.29-.51,1.07-1.4.08-.86-1.05-1.13-1.94-1.45-3.28h0Z"/> <path d="M262.44,251.57c.07.45-.04.73-.34,1.17-.16.27-.14.39-.3.57-6.61,12.7-25.28,18.1-37.35,13.03-.41-.41-.26-.63.33-.62,7.01,1.57,14.06,1.53,18.74-1.62,2.8-1.89,6.39-2.91,8.86-5.15,2.72-2.47,6.13-4.45,8.65-7.36.49-.3.84-.33,1.41-.03h0Z"/> <g> <g> <path d="M275.26,423.27c1.17-1.67,1.8-4.35,3.87-3.2,1.73.97.62,3.31-.25,4.89-1.15,2.09-2.36,4.23-5.11,4.94-.93-2.68.69-4.39,1.49-6.62h0Z"/> <path d="M265.77,438.9c-.21-.52-.25-.9-.09-1.16,1.04-1.67,1.9-3.54,3.99-4.15.31-.09,1.11.38,1.15.65.26,2.31-1.57,3.46-3.18,4.97-.76.08-1.19.02-1.87-.3h0Z"/> <path d="M282.67,404.59c2.82,2.5,1.77,5.19.12,8.05-3.48-.57-1.94-2.89-1.92-5.04.21-1.37.59-2.26,1.79-3.02h.01Z"/> <path d="M283.32,395.93c.59,1.36.36,2.48-.62,2.83-1.18.41-1.71-.69-1.91-1.68-.3-1.46-.47-2.94-.67-4.83.32-.83.73-1.07,1.6-1,1.13,1.43.98,2.97,1.6,4.68h0Z"/> <path d="M281.45,406.58c.66,1.92-.89,3.85.86,5.91.32,1.74-.25,2.53-1.72,2.5-1.5-.04-1.36-1.38-1.28-2.17.17-1.73.67-3.43,1.12-5.51.28-.52.48-.68,1.03-.72h0Z"/> <path d="M265.18,438.78c.93-.89,1.53-1.24,2.09.24-.57.74-1.11,1.39-1.81,1.69-.78.34-1.99,1.28-2.45.01-.33-.93,1.15-1.27,2.17-1.94Z"/> <path d="M282.11,391.71c-.68-.17-1.05-.07-1.69.06-.24-1.25-1.08-3.05.61-3.54.85-.25,1.6,1.27,1.86,2.75-.15.56-.32.77-.79.73h.01Z"/> <path d="M272.56,375.3c-.49-.68-.82-1.74-1.39-2.96-.02-1.18.2-2.22.71-3.4.45,0,.61.14.64.59-.02,1.99.1,3.69.04,5.77Z"/> <path d="M235.36,349.63c.44.53.71,1.37,1.3,2.34.55,1.29.37,2.3-.85,2.99-1.2-1.59-.78-3.32-.45-5.34Z"/> <path d="M281.97,406.5c-.38.23-.59.28-1.12.37-.18-1.35-.37-2.99,1.99-2.68-.11.88-.41,1.5-.86,2.31h0Z"/> <path d="M281.89,391.81c.09-.47.26-.57.74-.58.52,1.45.75,2.8.94,4.57-1.39-.62-1.26-2.21-1.68-3.99h0Z"/> <path d="M272.55,369.56c-.23.1-.27-.07-.35-.5-.15-1-.42-2.45,0-2.34,1.41.35.83,1.59.35,2.84h0Z"/> <path d="M260.25,337.97c-.26-.82-.41-1.97-.39-3.43.28.83.39,1.96.39,3.43Z"/> <path d="M221.04,359.71c-.09.72-.68,1.27-1.59,1.15-.14-.02-.07-.64.12-1.2.5-.16.78-.11,1.46.04h0Z"/> <path d="M236.99,353.96c-2.8-8.74-2.3-17.3-.67-25.85.54-2.86,1.16-5.69,1.95-8.52-.03,3.24-.1,6.48-.07,9.72.03,3.32.06,6.65.28,9.96.22,3.28.69,6.56,1.05,9.83.16,0,.32.02.49.02.19-.76.38-1.51.57-2.24.72,3.12,1.27,6.24,2.18,9.23,1.8,5.92,5,11.06,7.95,16.33,5.17,9.23,8.33,19.19,9.42,29.85.92,8.98.34,17.78-2.85,26.02-2.04,5.28-4.95,9.74-9.67,12.35-4.96,2.75-10.95,1.42-14.39-3.25-2.48-3.37-2.94-8.39-.99-11.77.4-.69,1.03-1.21,1.67-1.67-1.91,3.52-2,7.07.11,10.58,2.23,3.72,5.51,4.86,9.22,4.52,3.62-.34,6.56-2.53,8.7-5.38,1.89-2.51,3.09-5.88,4.06-9.09,2.94-9.77,2.44-19.8.06-29.88-2.16-9.17-6.14-17.35-11.18-24.98-3.21-4.86-6.09-9.93-7.89-15.8Z"/> <path d="M270.62,404.99c.03-2.53.27-3.32,1.37-4.42.32.26.65.53,1.07.88.15-.41.29-.79.59-1.59.82,1.12,1.61,1.92,2.07,2.88,1.18,2.49,1.39,5.13.4,7.73-.79,2.05-2.48,2.17-3.77.39-1.24-1.72-1.56-3.71-1.72-5.87M273.2,406.2c.24.74.49,1.49.73,2.23.14-.04.27-.08.41-.13.5-1.8.29-3.49-.66-5.08-.19,0-.37.01-.56.02.01.91.02,1.81.07,2.96Z"/> <path d="M266.13,421.27c-.12-2.87.24-5.51,2.13-7.69.47-.54,1.19-1.54,1.74.16.31-.37.55-.65.79-.93,2.66,2.52,1.31,9.96-2.1,11.48-.09-.3-.17-.58-.25-.87-.08,0-.2-.02-.23.02-.68.89-1.22.57-1.58-.24-.25-.57-.33-1.2-.5-1.93M270.26,417.73c-.06-.66-.13-1.33-.2-2.15-1.55,1.16-2.02,3.75-.86,5.38.39-1.17.7-2.09,1.06-3.23Z"/> <path d="M271.71,386.49c-.36-1.15-.68-2.19-1-3.23l.43-.26c.41.35.92.64,1.2,1.07,1.6,2.47,2.28,5.2,1.91,8.11-.26,2.03-1.74,2.55-3.25,1.3-2.02-1.67-3.41-6.82-2.47-9.27.15-.41.41-.77.68-1.27.94.9,1.41,1.83,1.43,3.01.03,1.52.3,2.98,1.66,4.08-.19-1.15-.37-2.29-.6-3.55Z"/> <path d="M265.03,369.56c-.1,1.84-.32,3.52-1.74,4.87-2-.92-2.55-2.74-2.73-4.61-.25-2.54-.15-5.09,1.96-7.27.26.62.43,1.02.64,1.52.25-.21.48-.42.76-.67,1.22,1.9,1.11,3.98,1.11,6.15M262.7,366.36c-.21,1.29-.53,2.6.17,3.83l.46.02c.03-1.37.06-2.74.08-4.11-.21.02-.43.04-.71.26Z"/> <path d="M264.92,436.3c-1.69,1.77-2.3,2.07-3.92,1.96.18-.47.34-.91.57-1.51-.52.18-.92.32-1.31.46-.74-2.36,2.72-7.54,5.51-8.17l.2,1.27c.4-.31.69-.54.96-.74,1.22.34.13,3.95-2,6.73M263.42,433.2c-.33.69-.66,1.38-1.08,2.25,1.61-.41,2.71-1.9,2.87-3.96-.72.66-1.2,1.1-1.79,1.71Z"/> <path d="M254.36,442.13c1.22-.52,2.35-.98,3.69-1.52-.51,2.67-3.17,4.35-6.36,3.93.86-.78,1.73-1.57,2.67-2.41Z"/> <path d="M264.71,358.34c-.43-.7-1.12-1.5-1.07-2.24.12-1.65.62-3.27,1.12-4.87,1.3,1.86,1.23,4.69-.05,7.12Z"/> <path d="M270.24,417.84c-.33,1.03-.64,1.95-1.04,3.12-1.15-1.62-.69-4.22.86-5.38.08.82.14,1.48.18,2.26Z"/> <path d="M262.73,366.26c.25-.12.46-.14.68-.16-.03,1.37-.06,2.74-.08,4.11l-.46-.02c-.7-1.23-.38-2.53-.14-3.93Z"/> <path d="M263.47,433.11c.54-.52,1.02-.97,1.74-1.63-.17,2.06-1.27,3.55-2.87,3.96.42-.87.75-1.56,1.14-2.33Z"/> </g> <g> <path d="M244.91,423.58c0,.18-.1.29-.22.34-1.4.62-1.66,2.42-.98,3.07.89.86,2.65.6,4.3-.73,2.29-1.84,3.38-4.15,3.85-6.57.52-2.67-.06-4.75-1.53-6.15-2.81-2.67-6.81-2.36-11.45-.33-.51.22-1.03.48-1.54.71-.06.03-.13,0-.23,0,0-.1-.02-.21,0-.32,0-.15.04-.3-.15-.28-.16.02-.25.13-.35.3-.73,1.19-1.77,1.7-2.8,2.19-.51.24-.79.08-.7-.52-1.09.34-1.86,1.24-2.64,2.13.34-.19.67-.41,1.01-.56.48-.21.67-.04.54.5-.32,1.34-2.33,3.5-3.51,3.79-.42.79-.43,1.49-.52,2.22-.12.98-.53,2-1.25,2.96-.3.4-.66.76-1.09.74-.43-.02-.44-.43-.42-.84.03-.6.24-1.22.55-1.86.27-.57.8-1.14.65-1.72-.01-.06.08-.2.15-.29,1.07-1.26,1.73-2.71,2.36-4.06.73-1.57,1.86-2.51,3.01-3.57.41-.38.87-.53,1.3-.83.55-.38.97-.94,1.45-1.36.28.09-.08.32,0,.5.83-.31,1.61-.99,2.51-1.48-.32-.11-.76.34-.96.06.14-.39.45-.5.71-.65,2.68-1.55,5.28-2.33,7.78-2.31,3.78.03,6.77,1.22,8.23,4.53,1.43,3.23.95,7.01-1.97,11.27-1.93,2.8-4.66,4.47-6.77,4.01-1.13-.24-1.76-.98-1.61-2.42.14-1.33,1.24-2.54,2.29-2.5M226.27,425.53c.3-.57.6-1.14.66-1.76-.75.69-1.07,1.5-.66,1.76M229.66,419.54c.37-.37.77-.73.96-1.32-.55.33-.88.74-1.14,1.22-.07.12-.12.28.18.1Z"/> <path d="M244.97,413.67c.86-.44,1.49-.31,2.06-.07.35.15.71.42.47,1-.25.61-.85.8-1.3.94-.65.21-1.21.05-1.52-.37-.24-.33-.24-.88.28-1.51Z"/> <path d="M242.03,413.29c.57-.17,1.06-.24,1.49-.11.25.08.44.25.39.6-.06.38-.38.48-.63.69-.68.58-1.32.77-1.97.79-.49.02-.76-.17-.69-.77.08-.61.53-.79.94-1.02.14-.08.28-.12.47-.2Z"/> <path d="M248.94,415.07c.54.24.83.64.88,1.28.02.23-.01.48-.25.71-.23.23-.46.23-.65.16-.47-.16-.86-.41-1.04-.91-.1-.29-.22-.63.07-1,.32-.43.64-.29.99-.23Z"/> <path d="M238.45,414.56c.17-.06.29-.12.4-.14.35-.08.75-.17.75.27,0,.4-.41.62-.72.84-.47.34-.95.63-1.45.8-.31.11-.56.11-.62-.19-.05-.27.14-.54.37-.77.37-.37.8-.58,1.27-.81Z"/> <path d="M249.6,419.43c-.01-.41-.02-.77,0-1.14,0-.18.04-.41.28-.53.22-.11.33.02.41.14.2.29.24.69.19,1.12-.03.3-.07.7-.43.88-.34.17-.38-.18-.45-.47Z"/> <path d="M249.81,421.55c-.12.24-.17.47-.47.51-.03-.38.07-.74.44-1.12.25.09.11.35.03.61Z"/> </g> </g> <path d="M177.5,338.16c.21-.47.46-.58.98-.52,3.51,1.44,7.06,1.77,10.43,2.77,3.06.91,6.13.36,9.2.85,5.13.81,9.94-1.9,13.73-5.93.39-.24.63-.11.6.39-5.06,8.92-21.08,11.67-33.43,3.66-.22-.09-.28-.19-.56-.36-.47-.25-.72-.44-.95-.84h0Z"/> <path d="M229.23,297.46c-1.67,8.39-4.47,16-9.11,23.29.4.44-.2,1.56,1.03,1.34,1.62,2.5-.68,2.81-1.89,3.53-3.38,2-6.83,3.91-11.06,4.94-1.36.9-2.33.81-3.22-.44,2.81-2.3,6.31-3.22,8.82-7.25-6.81,2.31-12.74,1.99-18.9-.42,12.23-3.3,22.93-7.96,27.29-21.25.63-3.53.23-6.73.25-10.3-.05-1.08-.05-1.77.06-2.79.31-.46.51-.59,1.02-.56.31,3.48.31,6.79.31,10.09.47.05.95.1,1.42.16.91-1.78,1.82-3.55,2.85-5.67.4-.74.78-.9,1.48-.6.22.97.22,1.69.13,2.76-.24,1.2-.17,2.07-.49,3.18h0Z"/> <path d="M160.22,275.09c1.12.14,2.08-.48,3.16-.75-.04,1.17.09,2.54-.78,3.27-.52.44-1.26-.54-1.77-1.25-.59-.26-.61-.68-.61-1.26h0Z"/> <g> <path d="M177.77,367.65c-.3-1.47.99-2.63,2.66-2.42,1.79.23,2.88,1.33,3.46,2.98,1.07,3.07-.42,6.36-3.54,8.17-4.75,2.76-9.46,2.27-13.92-.71-4.56-3.04-6.78-7.57-7.69-12.83-.6-3.47-.22-6.84,1.14-10.1.13-.31.19-.73.66-.79.41.36-.06.84.15,1.32.42-1.1,1.1-1.98,1.3-3.04-.24-.17-.46.25-.64-.16.42-.54,1.04-.95,1.39-1.59.28-.51.37-1.09.76-1.55,1.08-1.27,2.02-2.56,3.85-3.09,1.58-.46,3.27-.93,4.63-2.03.09-.07.26-.15.33-.12.78.38,1.38-.17,2.05-.38.74-.23,1.48-.34,2.24-.19.52.1,1.05.23,1.18.84.12.59-.26.99-.7,1.28-1.05.71-2.26.97-3.48.84-.92-.1-1.8-.3-2.71.04-.1,1.55-2.39,3.67-4.02,3.71-.66.02-.91-.29-.76-.9.11-.42.31-.83.48-1.24-.96.81-1.92,1.6-2.11,3.01.75.06,1.01.5.82,1.14-.38,1.29-.78,2.58-2.14,3.22-.18.09-.31.18-.3.4.02.25.21.26.39.29.14.02.28.07.41.11.02.14.06.23.04.31-.18.64-.38,1.28-.55,1.93-1.5,5.83-.97,11.3,3.1,16.02,2.13,2.47,4.91,3.92,8.2,4.02,2.97.08,5.67-.73,7.48-3.34,1.31-1.89,1.23-4.25-.07-5.75-.99-1.15-3.22-1.34-3.69.42-.04.16-.15.26-.39.2M175.91,342.35c-.42-.64-1.38-.45-2.09.38.78.11,1.43-.14,2.09-.38M168.88,344.94c-.55.22-1,.55-1.29,1.21.71-.08,1.07-.53,1.46-.92.16-.37-.03-.34-.17-.29Z"/> <path d="M166.99,364.78c.61.55.95,1.38.83,2.22-.08.58-.18,1.35-.9,1.51-.69.16-1.11-.42-1.39-.96-.44-.87-.76-1.79-.4-2.85.68-.53,1.38-.35,1.86.07Z"/> <path d="M164.11,359.91c.19-.51.32-1.07,1.08-1,.74.07,1.05.51,1.14,1.19.12.9.03,1.73-.55,2.49-.21.28-.26.71-.74.67-.44-.04-.7-.35-.86-.72-.27-.63-.29-1.3-.21-2.03.05-.24.08-.43.14-.59Z"/> <path d="M167.91,369.34c.42-.28.87-.01,1.27.22.68.4,1.09,1.02,1.4,1.72.12.28.18.59-.06.85-.24.26-.55.22-.84.13-.82-.26-1.41-.79-1.83-1.61-.15-.5-.4-.99.07-1.31Z"/> <path d="M165.48,354.4c.24-.25.54-.44.89-.28.39.17.45.53.39.92-.11.64-.37,1.22-.69,1.77-.21.36-.4.86-.91.74-.55-.13-.54-.66-.51-1.12,0-.15.05-.3.09-.51.18-.59.35-1.11.74-1.52Z"/> <path d="M174.26,373.66c-.14.45-.64.37-1.02.33-.54-.06-1.06-.25-1.48-.61-.18-.16-.38-.35-.28-.61.1-.29.38-.27.61-.22.47.09.93.22,1.46.36.38.18.83.34.7.76Z"/> <path d="M175.52,373.61c.39-.4.83-.43,1.32-.27.02.4-.26.41-.53.5-.32.02-.61.15-.79-.23Z"/> </g> <path d="M226.63,357.12c.28.99.32,1.59.17,1.98-.26-.93-.34-1.65-.17-1.98Z"/> <path d="M223.08,279.45"/> <path d="M343.05,105.49"/> <path d="M289.15,105.49"/> <g> <path d="M214.15,246.82c.83.36,1.44.61,1.95,1.02.87.68,1.48,1.75.92,2.72-.53.91-1.7.45-2.51.14-1.45-.55-2.88-1.24-4.06-2.96,1.27-.23,2.11-1.26,3.7-.92h0Z"/> <path d="M193.67,252.64c.07.25.26.35.26.46-.72-.05-1.42-.21-2.37-.43.86-.61,1.44-.66,2.12-.03h0Z"/> <path d="M169.78,185.47c-1.75-2.33-2.1-5.03-1.89-7.83.51-6.7,5.21-12.6,11.84-14.5,8.44-2.41,15.47.51,21.15,7.29,6.51,7.78,7.72,19.02,3.3,28.38-2.35,4.96-5.75,9.01-9.58,12.77-3.49,3.42-6.42,7.39-7.27,12.46-1.23,7.34,2.13,13.28,8.44,15.76,1.85.73,3.86,1.11,5.82,1.37,4.85.63,9.17,2.56,13.16,5.51,2.12,1.57,4.31,3.1,6.64,4.26,3.51,1.75,7.25,2.27,11.06,1.24.38-.1.78-.13,1.17-.2.05.13.1.26.15.39-1.52.64-2.98,1.46-4.56,1.88-2.85.76-5.76.5-8.51-.65-1.73-.73-3.32-1.83-4.97-2.77-4.28-2.44-8.55-4.88-13.52-5.35-3.74-.35-7.42-.95-10.81-2.9-6.77-3.91-9.61-12.99-6.47-20.34,1.37-3.21,3.06-6.12,5.27-8.73,3.34-3.95,7.01-7.68,9.84-12,4.9-7.48,5.93-15.73,2.07-24.31-1.91-4.26-4.99-7.38-8.99-9.49-.36-.19-.73-.34-1.24-.33.82.89,1.64,1.78,2.46,2.66-.11.14-.23.29-.34.43-1.62-1.16-3.24-2.32-4.86-3.47-.4-.28-.78-.66-1.22-.77-9.27-2.31-17.64,4.59-18.3,12.93-.09,1.16.19,2.36.3,3.54.07.79.14,1.58.13,2.5-.13.2-.19.25-.25.3Z"/> <path d="M170.73,226.42c.27.01.66.08.66.16.02.88-.01,1.76-.03,2.64-.02,1.05-.12,2.1,0,3.13.04.37.57.7.88,1.04.28-.32.73-.59.81-.96.28-1.28.36-2.51-.53-3.73-.25-.34.22-1.44.6-2.02.45-.7.93-.08,1.25.33.27.36.5.79.64,1.23.72,2.38.51,4.72-.4,6.96-.55,1.34-1.06,1.39-2.32.45-.09.46-.18.88-.29,1.42-1.55-.4-2.24-1.61-2.58-2.97-.67-2.72-.81-5.41,1.33-7.68Z"/> <path d="M174.04,242.53c.6,1.07,1.03,2.17,1.73,3.02.45.54,1.32.7,2,1.04-.18-.73-.2-1.56-.58-2.15-.43-.67-1.27-1.03-1.75-1.68-.36-.49-.43-1.22-.63-1.84.48-.13,1.03-.49,1.43-.35,1.79.6,4.22,4.1,4.27,6.05.02.65.1,1.42-.83,1.57-.1.01-.24.24-.23.35.11,1.11-.64,1.16-1.33,1.1-2.77-.22-5.85-4.6-5.29-7.46.03-.15.12-.29.27-.63.34.36.61.64.94.99Z"/> <path d="M177.37,214.5c.65-.12,1.3-.25,1.95-.37.05.83.41,1.82.09,2.44-.89,1.77-1.99,3.43-3.13,5.04-.3.42-1.04.49-1.58.73-.18-.45-.57-.95-.49-1.32.15-.65.55-1.25.92-1.81.6-.9,1.3-1.73,1.89-2.64.11-.18-.05-.73-.25-.88-.17-.13-.71-.05-.84.13-.64.9-1.23,1.83-1.76,2.8-.53.97-.97,2.01-1.55,3.24-.94-1.38-.76-2.55-.41-3.71.81-2.67,3.11-5.02,5.45-5.46-.2.53-.36.97-.59,1.54.05.18.17.23.28.27Z"/> <path d="M180.54,208.77c1.04-3.22,4.72-6.04,7.37-5.63-.18.41-.35.81-.55,1.27.21,0,.33.01.44.02.57.02,1.13.04,1.7.07-.12.64-.09,1.36-.37,1.89-1.08,2.03-2.76,3.38-4.81,4.19-.51.2-1.16.03-1.74.04.03-.56.05-1.12.08-1.81-.6.27-1.21.54-1.93.73-.14-.31-.17-.54-.2-.77M186.64,206c.17-.81-.35-.85-.87-.79-.94.1-2.35,1.57-2.62,2.79,1.66.38,2.47-.84,3.48-2Z"/> <path d="M196.75,194.59c.47-.1.95-.2,1.42-.3.08.57.32,1.19.2,1.7-.61,2.52-2.1,4.35-4.37,5.37-1.24.56-1.61.09-1.36-1.64-.44.2-.83.38-1.22.56-.62-2.24,2.33-6.57,4.95-7.14.03.38.06.73.07,1.25.02.22.04.29.07.35.08-.05.16-.11.24-.16M195.53,195.52c-.91.83-1.8,1.66-1.43,3.25.85-.63,1.54-1.38,2.1-2.23.11-.16-.32-.72-.67-1.02Z"/> <path d="M199.07,190.33c-1.37-.35-1.8-1.32-1.91-2.57-.18-1.98.36-4.22,1.41-5.42.24.25.49.5.82.83.16-.35.29-.65.4-.89.2.03.31.01.35.05,2.18,2.04,1.59,6.84-1.07,8M199.48,184.35c-.94.71-1.12,2.45-.28,3.61.71-1.12,1.12-2.21.28-3.61Z"/> <path d="M169.83,185.55c.02-.12.08-.18.15-.28.31-.13.59-.22.91-.34.61.51,1.27,1.17,2.01,1.67,1.82,1.23,4.04,1.07,5.49-.37,1.13-1.12,1.49-2.45.9-4.12.05-.1.04-.08.04-.08,1.74,1.51,1.01,5.05-1.25,6.29-2.96,1.63-6.31.55-8.27-2.79Z"/> <path d="M189.04,255.12c-.38-.39-.76-.79-1.2-1.25.52-.96,1.46-1.16,2.41-1.27,1.79-.2,3.49.22,4.97,1.3.52.38.77,1.17,1.14,1.78-.55.11-1.09.21-1.66.44-.03.13-.03.14,0,.01-.17-.1-.37-.08-.56-.06,0,0,0,.01.09-.06-.71-1.48-2.93-2.12-4.16-1.26-.17.12-.18.5-.33.73-.27-.14-.48-.26-.68-.37Z"/> <path d="M188.94,255.13c.31.11.51.23.87.38,1.54.22,2.93.41,4.32.59,0,0,0-.01.02.09.18.1.35.09.51.08,0,0,0-.01,0-.02.27.35.56.7.84,1.05-1.77,1.61-6.79.78-8.16-1.52.52-.22,1.01-.44,1.61-.65Z"/> <path d="M198.23,178.89c-1.72-1.38-2.51-3.17-2.83-5.43.8.29,1.44-.83,2.19.21.96,1.32,1.78,2.68,1.59,4.39-.04.33-.57.59-.96.83Z"/> <path d="M170.69,239.09c-.12-.46-.22-.82-.33-1.24,1.88,1.27,1.95,1.44,1.47,3.89-.44-1.02-.78-1.79-1.14-2.65Z"/> <path d="M180.47,208.83c.1.17.13.41.17.73-.58.52-1.16.96-1.75,1.39l-.35-.39c.62-.56,1.23-1.11,1.92-1.73Z"/> <path d="M170.66,222.64c.15-.37.29-.66.46-1.03.55,1.63.49,1.84-1.16,3.47.29-1,.48-1.68.7-2.44Z"/> <path d="M182.83,253.22c.1-.02.08-.02.09-.02-.39-.08-.87-.04-1.16-.27-.47-.37-.83-.92-1.32-1.5,1.47-.15,1.73,1.02,2.39,1.79Z"/> <path d="M179.36,182.01s-.08.08-.13.11c0,0-.05-.04-.08-.06.04-.04.07-.07.15-.06.05.05.05.03.06.02Z"/> <path d="M177.32,214.44c-.06.02-.17-.03-.23-.12.1-.02.14.02.23.12Z"/> <path d="M195.61,195.48c.26.34.7.89.59,1.05-.56.85-1.25,1.6-2.1,2.23-.38-1.58.52-2.42,1.51-3.28Z"/> <path d="M171.69,256.19c.08.4-.02.68-.42,1.09-.21.14-.48-.13-.57-.3.02-.3.14-.44.44-.77.2-.19.46-.12.55-.03h0Z"/> </g> <path d="M273.42,224.42c.13-.49.14-.93.66-1.18.79.51.77,1.39.67,2.12-.21,1.43.17,2.54,1.13,3.61.95,1.07.72,1.55-.66,1.72-.46.06-1.02,0-1.24.44-1.14,2.29-2.94.66-4.4.69-.91.02-1.17-1.21-.53-1.96.63-.73,1.22-1.49,2.06-2.01,1.24-.77,1.83-2.01,2.31-3.44Z"/> <path d="M272.67,212.72c.44-.83.9-.72,1.28-.12.61.96.89,1.99.4,3.38-1.1-.92-1.47-1.99-1.67-3.26Z"/> <path d="M323.04,121.02c.76.22,1.07.48,1.45.88.49.21.79.39,1.54.8.74.38,1.04.54,1.67.81,5.6,3.57,10.76,6.96,14.71,11.81,17.4,21.31,17.66,44.63-.22,63.86-4.62,4.97-6.72,9.8-4.24,16.31,1.22,3.22.93,6.55-3.02,9.12.95-3.64.53-6.65-1.05-9.73-1.92-3.75-1.53-7.36,1.15-10.8-.07-.38-.06-.53.11-.85-.08-.36-.31-.56-.64-.96-.08-.51.06-.76.46-1.15.39-.39.62-.61,1.02-1.04.36-.29.54-.37.88-.71,2.02-2.07,3.88-3.87,5.74-5.69,9.29-9.08,11.77-19.71,7.67-31.81-.53-1.55-.76-3.29-3.22-4.62-.45,3.59.73,7.11-.58,10.57-.06,1.29-.56,2.21-.59,3.56-.49,1.63-.9,2.93-1.56,4.4-.71.12-1.03-.1-1.15-.77,1.29-4.28.71-8.35-.41-12.35-2.29-8.27-4.27-16.66-11.14-23.77.82-.6,1.47-.46,2.33.27,2.2,1.56,4.07,2.98,6.56,4.88-1.4-8.17-6.19-13.73-13.35-18.29-.36-.36-.59-.54-1.21-.8-1.45-.86-2.6-1.59-4.05-2.41-.75-.25-1.04-.51-1.26-.87-.05.02-.08-.07-.24-.33-.11-.66.12-.95.87-1.06.7.26,1.07.46,1.77.77h0Z"/> <path d="M268.29,338.31c5.72-5.56,17.78,1.73,24.38,1.61,6.6-.12,12.24-8.68,17.14-6.43,4.9,2.24,12.42,14.6,9.91,12.46-7.17-6.09-7.69-9.14-13.62-6.19-5.93,2.95-14.37,4.83-19.42,3.15s-18.39-4.6-18.39-4.6Z"/> <path d="M292.13,301.29c2.39,9.14,6.54,17.18,9.76,26.1.95,1.94,1.44,3.54.81,5.37-3.46-5.24-5.95-10.92-8.53-17.02-.9-.81-1.23-1.58-1.47-2.81-.48-3.61-.9-6.91-1.32-10.63-.07-.92.12-1.18.74-1.01h.01Z"/> <path d="M315.38,294.38c-6.63-7.5-12.95-14.82-17.52-23.02-3.7-6.64-2.11-12.82-1.37-18.73,9.72,12.69,9.09,27.4,19.32,39.72,1.21.95.91,1.51-.44,2.03Z"/> </g></svg>
