<svg xmlns="http://www.w3.org/2000/svg" id="Layer_1" width="400" height="400" viewBox="107 0 400 400"><defs><style>.st0{fill:#fff}</style></defs><path d="M287.2 27.56c.76-.21 1.17-.37 1.93-.52.73.3.91.69.68 1.44-.21.27-.25.37-.3.34-.29.37-.64.62-1.44.75-1.62.66-2.91 1.27-4.54 1.97-.67.17-.94.33-1.37.68-8.08 3.83-13.96 9.34-16.89 18.66 2.87-1.7 5.03-2.97 7.54-4.33 1.01-.68 1.69-.7 2.41.18-8.26 6.89-11.82 16.35-15.67 25.59-1.87 4.48-3.21 9.14-2.7 14.46-.25.77-.61.96-1.31.66-.39-1.88-.57-3.49-.76-5.52.22-1.6-.12-2.79.06-4.32-.69-4.36 1.16-8.24 1.37-12.57-2.73 1.03-3.29 3.03-4.11 4.74-6.39 13.36-5.85 26.41 1.86 39.11 1.54 2.54 3.09 5.07 4.75 7.94.28.48.45.61.76 1.03.33.59.52.9.84 1.44.33.54.43.87.25 1.45-.41.4-.68.58-.83.99.11.41.09.59-.05 1.02 2.07 4.63 1.8 8.97-.84 12.97-2.17 3.28-3.16 6.74-2.87 11.23-3.51-3.88-3.19-7.86-1.36-11.39 3.71-7.13 2.48-13.27-1.27-20.12-14.53-26.5-9.94-53.9 11.61-75.24 4.9-4.86 10.74-7.73 17.07-10.73.69-.18 1.02-.3 1.84-.59.84-.32 1.18-.47 1.71-.61.46-.38.82-.62 1.63-.72Zm52.96 103.96c-1.89 1.6-3.29 3.01-5.96 2.6 2.31-5.17 4.12-10.25 6.77-14.84 1.87-3.24 1.92-4.38-2.89-3.73 11.41-11.54 19.27-24.01 18.61-40.73.18-.58.31-.7.6-.61 1.65 4.33 1.26 8.7 1.88 13.89 5.33-12.51 3.05-23.68-1.93-34.58-1.69-3.71-3.49-7.46-6.42-10.5-.62-.65-.75-1.77-1.1-2.67 1.06.26 2.16.17 3.03 1.23 6.67 8.12 12.13 16.8 14.01 27.42 2.97 16.77-.5 32.26-9.07 47.12-1.38.46-1.53-.28-1.32-1.47 1.28-5.87 4.07-11.04 3.98-17.63-4.48 7.23-8.49 13.9-14.67 18.9-.91.73-1.2 2.23-2.07 3.58-.76.64-.83 1.25-1.16 2.06-.23.69-.3 1.12-.55 1.84-.25.74-.32 1.19-.64 1.91-.2.45-.18.64-.23 1.1.7 1.25.27 2.35-.03 3.72-.31.56-.36.8-.82 1.42Zm-120.27 212.1c1.8.5 1.07 2.05 1.38 3.23 3.36 12.75 12 19.93 24.01 19.81 12.05-.12 21.85-8.26 24.81-20.45 1.28-5.27 1.7-10.52-.02-15.71-4.64-13.96-1.23-27.13 3.69-40.19 3.27-8.67 6.11-17.47 8.29-26.88.39-.74.78-.89 1.5-.59.22 1.29.2 2.34.08 3.77-.17 1.54-.09 2.7-.43 4.14.54 6.39 1.25 12.5-1.15 18.35 1.07-1.93-1.18-2.77-1.2-5.67-7.77 15.58-13.35 30.03-8.34 46.47 2.25 7.37 1.57 14.76-.89 22.07-5.72 17.05-26.19 21.41-37.86 16.38-8.39-3.61-12.19-10.81-13.93-19.77-.52-1.79-.32-3.22.05-4.96Zm114.6-63.77c1.86 3.88 3.45 7.53 5.17 11.12 6.15 12.87 8.11 25.96 4.05 40.04-4.92 17.07 5.65 33.23 22.42 35.42 9.43 1.23 17.92-3.05 22.5-11.37 1.84-3.35 3.04-6.93 3.55-10.97 2.99 9.16-5.28 22.22-15.46 24.8-21.99 5.57-40.99-12.69-36.02-35.08 2.42-10.91 4.18-21.63-.82-32.11-2.74-5.73-4.36-11.72-5.94-18.18-.15-.57-.27-.75-.43-1.24-.14-.74-.25-1.15-.35-1.89.28-.7.64-.86 1.32-.53Zm-77.74-1.54c.22-6.71 1.02-12.94 3.45-18.84 1.86-4.52 4.57-8.38 9.34-10.31 3.4-1.38 5.43-4.23 7.41-7.05 6.17-8.77 10.54-18.39 12.12-29.03.81-5.43 4.6-9.56 5.23-14.98 1.61 7.25 1.11 14.36.8 21.48-.03.64-.2 1.81-.4 1.83-8.13.81-6.54 8.54-8.8 13.13-2.43 4.95-4.56 10.28-8.52 13.78-9.88 8.73-14.87 20.06-19.3 32.3-2.1.48-1.39-1-1.34-2.31Zm-8.53-5.54c-1.67 8.39-4.47 16-9.11 23.29.4.44-.2 1.56 1.03 1.34 1.62 2.5-.68 2.81-1.89 3.53-3.38 2-6.83 3.91-11.06 4.94-1.36.9-2.33.81-3.22-.44 2.81-2.3 6.31-3.22 8.82-7.25-6.81 2.31-12.74 1.99-18.9-.42 12.23-3.3 22.93-7.96 27.29-21.25.63-3.53.23-6.73.25-10.3-.05-1.08-.05-1.77.06-2.79.31-.46.51-.59 1.02-.56.31 3.48.31 6.79.31 10.09.47.05.95.1 1.42.16.91-1.78 1.82-3.55 2.85-5.67.4-.74.78-.9 1.48-.6.22.97.22 1.69.13 2.76-.24 1.2-.17 2.07-.49 3.18Zm141.98 33.8c-1.04.14-1.84.02-3.01-.29-.51-.08-.65.04-.92-.09-4.18-.76-7.67-2.7-10.96-4.91-.65-.44-5.98-1.65-.52-3.67.76-.28-.01-1.38-.49-2.07-3.82-5.62-5.47-12-6.32-19.06-.62-1.49-.7-2.53.57-3.48 4.14 7.5 7.99 14.8 15.75 19.1 4.54 2.51 9.31 4.19 15.36 5.25-6.26 3.16-11.89 2.82-18.67.75 2.83 3.82 5.73 5.06 8.7 6.79.65.52.8.94.51 1.69ZM253.88 239.3c3.46-4.6 6.9-8.78 10.21-13.06.41-.52 2.25-1.96-.75-2.31-1.01-.21-1.36-.64-1.36-1.53 8.14-7.27 11.27-17.34 16.27-27.72 2.04 17.78-5.97 33.48-22.19 45.04-1.03.92-1.67.74-2.18-.42m-65.45 9.9c-.2-.71-.13-1.2.13-2 .13-.49.08-.67.23-1.02 5.02-22.67 26.65-37.42 42.74-33.11.6.53.47.93-.25 1.1-9.01-.28-17.67 2.05-22.65 8.66-2.98 3.96-7.15 6.77-9.63 11.18-2.74 4.87-6.45 9.18-8.84 14.69-.53.64-.95.8-1.73.51Zm28-77.02c-8.94-2.36-17.63-4.42-25.23-9.35-10.29-6.68-14.38-19.39-10.05-31.26.14-.62.24-.85.5-.74-.53 7.72.94 14.52 6.16 20 1.89 1.98-.63 4.43 1.64 6.42 3.04 2.66 6.03 5.32 10.05 5.94 4.99.76 9.25 3.27 14.18 5.14 2.25.12 3.81.75 4.41 2.72.3 1-.48 1.35-1.65 1.13Zm165.59 41.34c14.19-4.45 33.11 7.05 39.97 23.12 1.35 3.16 2.51 6.4 3.78 9.98-.28.73-.66.87-1.36.6-4.21-8.31-10.49-14.55-16.17-21.39-5.5-6.62-11.84-9.48-19.92-11.21-2.36-.34-4.44.47-6.3-1.1M344 183.49c6.16-5.39 10.25-11.53 10.96-20.5 2.06 4.41 1.79 8.03.28 11.76-.93 2.29-2.11 4.49-2.37 7.04-1.08 10.7 5.36 16.92 18.83 17.57-4.99 3.25-9.49 3.39-14.27.71-5.57-3.13-8.48-7.73-8.21-14.15.08-1.97.73-4.03-2.79-1.98-1.14.68-1.82.57-2.44-.45Zm14.27 97.12c.01.69.19 1.14.42 1.96-.28.75-.7.94-1.53.72-3.24-7.28-6.07-14.41-9.1-21.46-1.9-4.4-4.3-8.54-7.64-12.06-.9-.95-2.07-2.15.88-2.37 1.52-.13 2.41.36 3.63 1.08 6.94 6.29 11.52 13.45 12.04 23.15 1.02 1.74.28 3.29.64 5.07.17 1.11.25 1.86.34 2.99.17.48.32.59.32.92m73.99-135.81c-3.12 16.16-15.19 25.06-33.31 23.85 2.08-.8 3.2-1.22 4.63-1.68.47-.17.62-.31.71-.75-.07-.3-.18-.26-.19-.32-.41-.37-.57-.79-.29-1.56.68-.62 1.13-.96 1.87-1.33.73-.44 1.25-.51 2.05-.28.45.42.52.74.62.93.38-.23.55-.28 1.01-.39.81-.13 1.35-.17 1.99-.62.23-.52.3-.84.52-1.38.15-.21.53-.4.74-.4.77-.29 1.43-.12 2.19-.65 7.64-3.64 13.13-8.94 16.25-16.91 1.22-.43 1.37.29 1.21 1.48Zm-98.78 95.18c-4.81-7.5-9.39-14.82-12.7-23.02-2.68-6.64-1.53-12.82-.99-18.73 7.05 12.69 6.59 27.4 14.01 39.72.88.95.66 1.51-.32 2.03M212.45 115.09c1.62 3.19 4.04 3.98 6.74 2.44 2.85-1.62 3.31-4.35 1.7-7.26-2.09-3.79-5.77-5.13-9.62-4.96-5.02.21-10.08.95-14.89 3.67-1.07.64-1.74.56-2.37-.53 6.57-4.68 13.63-7.23 21.56-5.61 4.59.94 7.65 3.87 8.71 8.58.83 3.66-.32 6.72-3.46 8.65-3.07 1.88-6.06 1.33-8.68-1.72-.81-1.3-.83-2.3.32-3.25Zm204.3 81.09c-1.92-.02-1.01-.93-.55-1.37 4.94-4.74 10.82-6.44 17.31-4.28 6.11 2.03 10 6.42 10.76 13.02.51 4.39-.78 8.11-5.58 11.09 3.23-5.42 5.29-10.39 1.2-15.15-4.26-4.95-9.93-6.71-16.14-4.4-2.33.86-4.79-.9-7 1.1Zm-90.9-27.25c-.27 1.23-1 2.49-1.73 3.77 2.33.96 4.33-.03 7-.87-2.82 3.43-5.34 5.83-9.36 4.61-3.35-1.01-3.4 3.27-6.37 3.46.18-1.93.56-4.07-1.69-5.18-.36-.18-.78-1.09-.72-1.14 5.07-4.29-.29-8.39-.3-12.57-.01-4.13.99-7.4 4.87-8.98a25 25 0 0 1-.3 2.63c-.18 3.7-1.47 6.9-.56 10.28 1.58 5.87 3.04 6.6 9.17 3.99Zm74.89 7.47c.7-.16 1.13-.26 1.91-.35.49.15.64.28 1.06.55 1.42.47 2.68.55 3.31 1.97-9.83 1.67-16.08 7.34-19.88 16.13-.83 1.93-1.98 3.72-3.07 5.92-.58.54-.99.44-1.23-.32.32-2.48-.23-4.72 1.03-6.69-.13-.06-.28-.18-.39-.16-.27.07-.53.21-1.11.45-.86.33-1.3.19-1.54-.67 3.75-7.98 9.33-13.5 17.84-16.21.75-.46 1.3-.5 2.09-.62Zm.43-57.99c-3.83 3.34-7.49 3.35-10.21.33-3.04-3.37-2.55-9.18 1.06-12.58 5.25-4.95 15.83-5.6 22.84-.76 2.45 1.69 5.37 2.28 7.85 4.44.54 1.37-.18 1.53-1.31 1.35-4.98-2.66-9.74-4.94-15.01-5.72-4.74-.7-9.38-.43-12.92 3.37-1.98 2.13-2.47 4.82-.84 7.32 1.65 2.52 4.05 2.58 6.9.9 1.37-.4 1.81.08 1.64 1.34Zm-103.58 33.56c3.27 5.86 3.58 11.78 1.33 17.83-.11.31-.46.83-.43.85 5.01 3.39-1.91 5.98-.73 9.37-2.58-6.26-10.56-.98-13.52-6.87h5.26c.54-1.75-1.58-2.21-1.28-3.65.21-.12.53-.44.69-.37 5.4 2.15 8.88.07 9.03-5.8.08-3.11-.61-6.24-1-9.79-.26-.93-.16-1.34.67-1.56Zm-88.78 27.13c11.88 1.03 20.3 7.34 26.71 16.78.34.51 1.02 1 .38 1.71-1.09 1.2-1.61-.31-2.41-.49-.77-.18-1.86-4.1-2.47.46.64 1.47.7 2.52-.6 3.47-3.65-6.16-6.59-12.55-12.49-16.64-2.51-1.74-5.48-2.83-8.56-4.37-.48-.32-.63-.49-.56-.92m-14.46 15.11c-10.61-3.95-22.09 2.94-22.35 13.39.62 1.1.52 1.75-.52 2.36-3.04-5.87-1.54-11 2.74-15.35 4.83-4.9 10.68-6.34 17.26-3.99 1.38.49 2.67 1.27 4.25 2.17.41 1.28-.17 1.61-1.37 1.43Zm137.75-37.07c3.59-3.34 7.8-4.34 11.76-5.85 4.01-1.53 7.89-3.23 10.55-7.34.49-.76.87-.85 1.41-.25-.41 2.09-.77 3.88-1.4 5.56-1.42 3.83-3.86 6.3-8.32 6.4-4.62.1-9.08 1.26-13.8 2.81-.41-.25-.46-.58-.19-1.32Zm-42.8 152.45c.13.6.43.9 1.24.83 1.03-.58 1.45-.44 1.66.33-1.63 5.23-.56 10.05.24 14.86.43 2.61.99 5.2-.58 7.4-2.65-8.41-9.24-16.41-3.72-26.44 2.64-.18.73 1.77 1.16 3.01Zm-46.56-95.23c5.99-.6 10.51-3.89 15.46-6.12 1.19-.54 2.63-2.71 3.74-.83.77 1.31-.02 3.4-2.03 4.21-.76.31-1.45.8-2.49 1.34-.55.56-.81 1.02-1.25 1.21-.63.27-1.35.74-1.89-.19.1 1.05 1.5.3 1.61 1.54-5.37 2.68-10.7 3.04-16.43.46-.2-2.79 1.94-.78 3.28-1.6Zm78.94 117.68c-.2-.67-.3-1.03-.41-1.66.5-2.08.09-3.93.44-6.11.61-3.11 1.07-5.85 1.7-8.98 0-2.44.16-4.5.09-6.9-.15-1.09-.31-1.84-.5-2.97-.17-.54-.32-.69-.36-1.15-.02-.7-.15-1.11-.33-1.83.19-.74.55-.9 1.23-.58 1.43 3.13 2.85 5.92 3.83 8.86 1.73 5.15.57 9.93-2.2 14.52-1.07 1.78-1.52 3.94-2.29 6.29-.3.77-.65.92-1.21.49Zm-14.1-82.18c.35 9.44 3.08 18.21 4.48 27.62.6 2.1.75 3.77-.5 5.42-2.68-5.88-4.1-11.98-5.5-18.5-.85-.99-1.03-1.82-.98-3.07.42-3.63.82-6.94 1.34-10.65.17-.91.46-1.12 1.16-.82M280.33 141.1c-4.22-3.14-6.11-6.55-4.82-11.94.85-3.56-1.87-7.05-3.45-10.8-.7-1.12-.56-1.81.53-2.4 3.1 3.95 5.78 7.87 8.52 11.75 1.58 2.24.02 1.48-1.42 1.18-.08.55-.2 1.12-.51 1.93-.45 2.95.14 5.48 1.6 8.21.89 1.06.62 1.63-.46 2.08Zm-16.88 50.67c-3.87 9.15-10.71 12.12-19.85 8.19 7.5-.54 12.55-3.88 16.51-9.56 1.59-.76 2.43.03 3.34 1.37M205.42 281c-7.19-10.44-5.66-19.55 5.15-32-6.04 9.02-8.7 18.56-4.59 29.52.62 1.16.55 1.86-.56 2.48m200.33-30.24c7.95 6.84 9.36 19.35 3.37 29.9-1.24.41-1.55-.18-1.35-1.38 3.77-9.88 2.49-18.93-2.73-27.93.09-.52.27-.67.7-.59Zm-146.1-82.91c2.06 9.24 7.23 14.82 16.89 16.08 1.42-.56 2.44-.65 3.38.55-11.96 4.58-22.24-4.29-21.83-18.87 2.21-.66 1.04 1.1 1.56 2.24m81.07 1.58c.84-3.46 4.01-5.37 5.78-4.43 2.09 1.12.78 4.48-.45 6.69-2.38 4.27-7.13 6-10.97 4.02-.68-.35-1.7-1.02-1.7-1.52.02-1.02 1.11-1.92 2.03-1.75 2.54.48 4.22-.27 5.31-3.01m-63.43 6.56c-7.5-.72-10.42-4.25-9.78-11.85 2.71.88 5 1.75 6.15 4.74.59 1.55 1.45 3.55 3.78 3.34 1.48-.13 3.46-.75 3.7 1.15.25 1.97-2.04 2.03-3.85 2.62m159.74-45.36c3.18.87 2.96 3.92 3.4 6.3 1.67 9-.37 17.11-6.5 24.05 3.69-9.76 5.51-19.66 3.11-30.35Zm-81.35-12.45c.46.33.63.89 1.02 1.62-.47 4.8.55 9 2.99 13 2.13 3.5 3.19 7.3 1.34 11.75-2.81-.3-.96-2.53-1.77-4.27-1.66-3.22-3.32-6.03-4.58-9.01-1.84-4.34-.59-8.64.99-13.09Zm-83.06 39.86c-10.19-.68-10.3-.75-12.88-9.74 4.75 7.28 14.37 4.81 19.76 11.03-2.17-.41-4.34-.83-6.88-1.29m-90.55 75.37c.3-3.05.76-5.84 2.76-7.96 1.02-1.09 1.84-2.34 3.97-.8 1.85 1.34 2.5 2.36 1.75 4.37-1.54 4.12-5.21 6.2-8.47 4.39Zm257.92 23.45c3.8 2.98 3.7 8.01-.29 10.72-.52.01-.89.1-1.53.2-3.33-2.65-4.22-8.43-1.99-11.35 1.02-1.33 2.19-2.08 3.78-.28-.93 2.13.28 4.18-.65 6 .82-1.6-.01-3.36.7-5.29Zm-13.2-32.55c4.81.83 4.56 4.92 5.4 8.25.14.54-.62 1.8-1.16 1.94-3.71.97-5.13-2.09-6.65-4.39-1.09-1.65-2.9-4.2 1.53-4.66.5-.14.62-.52.88-1.14m11.63 20.4c-1.25 1.92 1.13 5.14-1.5 5.43-2.43.26-3.38-2.67-4.09-4.91-.1-.31-.38-.58-.42-.9-.3-2.07-1.49-4.95.83-5.81 2.73-1.01 3.72 1.86 4.54 4.06.23.62.52 1.21.64 2.13" class="st0"/><path d="M255.87 303.71c1.93-1.08 3.67-3.08 5.32-.61 1.4 2.1-.26 3.61-1.76 4.95-.61.54-1.21 1.1-1.83 1.63-1.67 1.43-3.73 2.04-5.27.38-1.69-1.81.38-3.23 1.39-4.58.47-.63 1.22-1.05 2.14-1.78Zm-74.88-65.29c1.99 4.46.46 7.96-2.26 11.14-.81.94-1.89 1.66-2.69-.04-1.59-3.37.92-9.4 4.96-11.1Zm177.14 65.33c1.68 2.16 5.79 3.64 3.01 6.44-2.25 2.27-4.74-.61-6.74-2.23-1.6-1.29-3.17-2.96-1.69-4.99 1.69-2.32 3.49-.46 5.42.78m9.53 7.34c.81.3 1.23.58 1.68.77 2.19.9 4.84 1.26 4.68 4.6-.08 1.63-1.16 1.76-2.35 1.78-3.13.06-6.09-.87-7.47-3.7-1.19-2.45.68-3.51 3.45-3.44Zm66.87-30.04c-1.31-2.02-2.38 3.43-3.97.68-1.33-2.29.45-4.44 1.2-6.56.32-.91.84-1.8 1.47-2.54.6-.7 1.35-1.78 2.43-1.21 1.2.63 1.26 1.84.69 3.05-.97 2.07-2.42 3.98-1.81 6.58Zm-165.34 14.78c-.79 1.17-1.35 2.17-2.08 3.03-1.08 1.25-2.67 1.72-3.98.87-1.34-.86-.69-2.48-.12-3.6 1.51-2.92 2.26-6.69 6.85-6.46.88 1.63-.56 2.49-.63 3.95-.04.47-.03.66.05 1.13.07.46.08.65-.08 1.08Zm-86.29-13.6c-3.61-1.4-4.22-4.83-5.55-7.75-.55-1.21-.06-2.42 1-3.03 1.05-.6 1.98.35 2.41 1.13 1.6 2.92 4.22 5.64 2.14 9.65m241.33 12.56c-2.16-.08-4.02-.45-2.32-3.01.9-1.36 1.85-2.71 2.93-3.92 1.1-1.23 2.93-2.83 4.11-1.55.93 1.01 2.01 3.66-.7 5.33-.54.69-.99.91-1.94.61-1.38-.3-1.67.66-2.22 1.44.18.5.28.69.14 1.1m-79.75.49c-.2-.72-.34-1.16-.45-1.94.25-1.23-.17-2-.21-3.09 2.97-2.16 3.84.48 4.94 1.97 1.34 1.82 3.58 4.29 2.25 6.15-2.76 3.86-4.1-.2-5.87-2.11-.27-.44-.43-.57-.66-.98m13.24-86.52c2.39.54 4.42.86 6.84 1.16.92-.26 1.34-.12 1.57.75-1.4 2.49.83 2.1 2.08 3.13-4.6 0-9.24 2.41-12.04-3.5-.37-1.35.26-1.69 1.55-1.54m-184.93 48.42c2.04-2.91 4.17-2.93 5.3.03 1.35 3.56 2.16 7.42-1.64 10.49-2.39-1.64-1.58-4-2.12-6.32-.39-.92-.62-1.53-1.13-2.38-.38-.66-.5-1.08-.41-1.81Zm111.58 100.13c1.42-1.46 2.47-4.01 4.33-2.54 1.55 1.23.08 3.37-1.03 4.79-1.47 1.88-3.01 3.8-5.83 4.06-.49-2.79 1.38-4.22 2.53-6.3Zm-67.91-185.18c1.88-2.92-1.98-1.85-2.3-3.35 2.09-2.63 7.16-1.98 8.65.87.34.65.4 1.71-.11 1.67-2.09-.16-3.56 3.23-6.24.8Zm24.38 142.1c.79-.75 1.38-1.35 2.11-1.65 2.33-.94 5.32-3.1 6.84.14 1.36 2.9-2.07 3.83-4.43 5.06-.83-.36-1.31-.71-2.06-1.19-1.06-.77-2.15-1.02-2.46-2.37Zm-51.14-19.96c-.26-2.12-1.92-3.01-3.35-4.32-.49.15-.64.28-.96.16 1.13-1.7-2.53-2.82-.59-3.94 1.65-.94 3.05.5 4.27 1.68 1.57 1.52 2.76 3.27 3.37 5.38.51 1.77-1.1 1.11-2.1 1.64-.49-.02-.66-.17-.64-.6m242.61-149.45c-.39-.23-.56-.8-.94-1.57 1.73-6.3.14-12.1-2.26-18.27 5.01 4.09 5.53 7.5 3.2 19.83Zm-202 29.14c.98.6 1.71 1.03 2.27 1.62.96 1 1.52 2.42.6 3.48-.86 1-2.26.21-3.22-.33-1.73-.96-3.4-2.07-4.54-4.39 1.67-.03 2.95-1.1 4.9-.38Zm87.36 159.81c-1.84-3.61-1.73-6.84 1.12-11.15.28 4.66 3.2 8.12-1.12 11.15M192.02 210.34c2.39.24 4.39-1.1 6.68-1.73-.03 2.49.29 5.38-1.51 6.97-1.09.96-2.69-1.09-3.82-2.57-1.26-.53-1.32-1.42-1.34-2.66Zm127.32 135.83c-.17-.23-.25-.69-.26-.93.07-.86-.13-1.38-.72-2.08-.42-1.59-.56-3.23.92-3.66 1.67-.48 1.96 1.46 2.39 2.49.75 1.79 1.14 3.75 1.56 5.66.2.93.39 2.3-.73 2.51-.65.12-1.54-1.01-2.42-1.86-.51-.75-.35-1.38-.75-2.14Zm63.56-167.11c-3.68-.37-2.39-3.42-1.4-3.61 2.2-.41 4.04-4.06 6.72-.53-.84 1.82-2.71 3.19-5.31 4.14Zm36.56 34.7c-.62.81-.92 1.14-1.31 1.8.24.77.2 1.16-.61 1.44-1.9-2.75-2.94-5.56-2.24-9.03.86 1.97 4.07.3 4.37 3.25.24.75.17 1.41-.2 2.54Zm-14.65 124.6c.06 1.79.75 3.35-.57 4.54-.58.53-1.31.31-1.66-.31-1.45-2.59-2.58-5.25-.77-8.24 2.28.35 1.73 2.67 2.99 4.01Zm-3.87 15.29c-.04-2.76.56-4.9 2.59-6.95 2.02 3.3.91 6.09-1.01 8.46-1.06 1.31-1.46-.11-1.58-1.5Zm-59.02 17.14c.93.59 2.11 1.03 2.13 1.53.06 1.2-1.06.8-1.81.74-1.7-.15-3.15-.98-4.35-2.04-1.21-1.08-3.76-2.21-2.23-4.06 1.17-1.42 2.77.54 4.14 1.81.71.85 1.04 1.62 2.12 2.04Zm-41.73-98.96c.44-1.4.79-2.4 1.23-3.7 1.08 3.97.71 9.47-1.49 15.01 0-1.82-.02-3.64 0-5.45.03-1.82.1-3.64.25-5.86Zm-88.3 78.28c.07 2.06 1.23 3.89-.42 5.51-1.51-1.17-1.93-2.84-2.62-4.48-.67-1.58-.53-3.22.54-3.7 1.54-.69 1.55 1.54 2.5 2.67m199.04-47.74c.27-.34.35-.51.49-.58 2-1.15 4.21-4.51 6.14-2.07 1.36 1.71-2.14 3.48-4.22 4.92-.5 0-.67-.04-1.08-.22-.38-.24-.52-.35-.86-.66-.41-.48-.57-.81-.48-1.39Zm-193.27 20.7c.02 3.66-2.21 6.11-5.21 8.09.58-3.3 1.26-6.52 5.21-8.09m173.05-152.59c1.69-2.85 4-4.27 7.94-4.6-2.32 3.37-4.36 5.38-7.94 4.6m-148.3 13.37c2.35-.13 5.32-2.22 7.89 1.42-3.12 1.79-5.42.71-7.89-1.42m135.06-3.36c.93 1.82.3 2.96-2.09 3.44-.98.2-2.91 1.49-3.02-.78-.06-1.36 1.02-2.66 2.94-2.33.59.1 1.24-.12 2.17-.33m18.5 144.92c3.68-.08 4.51 2.55 5.43 6.09-3.24-1.27-4.26-3.58-5.43-6.09M272.5 371.23c-.12-.55-.1-.93.1-1.16 1.29-1.48 2.44-3.19 4.6-3.46.32-.04 1.04.55 1.03.82-.11 2.32-2.1 3.17-3.93 4.4-.76-.04-1.18-.17-1.8-.6m-72.63-67.32c-.85-.22-1.16-.41-1.62-.82-.5-.82-.95-1.31-1.75-1.94-.94-2.5.66-2.46 1.85-2 1.46.56 2.72 1.65 4.3 2.77.63 1.42-.23 1.73-1.34 2.08-.51-.02-.71-.03-1.45-.09Z" class="st0"/><path d="M201.05 304.35c.47-.81 1-1.27 1.68-1.95.31-.15.49-.11.59 0 1.12 1.2 3.85 2.31 2.57 3.86-1.25 1.5-3.49.06-4.84-1.91m40.79-120.62c.14.38.19.2.19.16-3.1 1.06-5.21-.28-7.69-3.33 3.3.46 5.71.51 7.5 3.16Zm52.82 156.33c2.38 2.92.92 5.41-1.17 7.97-3.34-1.12-1.45-3.16-1.09-5.28.43-1.32.94-2.14 2.25-2.7Zm-71.03-35.05c.87.95 1.76.72 2.87.82-2.69 1.64-5.9 1.51-10.35 1.26 3.1-.91 5.1-1.5 7.48-2.08m19.02-90.84c-.51 1.28-2.05.53-3.36 1.43-2.68-.26-5.15-.78-7.98-1.43-.13-.36.12-.53.52-.84 3.54.12 6.96.44 10.83.85Zm192.32 67.13c2.26-1.68 2.4-4.52 3.55-6.88 1.45 3.92.46 6.11-3.4 7.09-.09-.32-.12-.25-.15-.22Zm-67.17-95.29c-1.78-.05-3.18-.15-5.4-.32 2.58-2.04 4.68-3.69 7.04-2.02 1.58 1.12-.6 1.6-1.64 2.33Zm-93.97 89.31c1.56-1.66 2.14-1.12 2.25.55.19 3.09-.73 5.85-2.83 8.51-1.12-.46-1.25-1.39-1.2-2.71.56-2.26 1.59-4.04 1.78-6.35m-80.15-167.2c.81.23 1.29.52 2.07.86-2.14 1.67-4.58 3.3-7.34 5.02-.57.1-.82.1-1.12-.25 1.62-2.52 3.89-3.98 6.39-5.62Zm86.42 33.2c.13-.68.4-1.05.73-1.68 1.82 2.34 5.46 3.69 5.19 7.92-1.96-1.76-3.87-3.85-5.92-6.25Zm132.86 162.76c.17.2.28.45.17.53-.2.21-.25.39-.37.48-1.42 1.07-3.61 2.43-4.61 1.13-1.19-1.54 1.36-2.58 2.64-3.94.43.17.63.42 1.1.74.46.35.7.6 1.07 1.07ZM188.26 198.8c.41-1.51 1.12-2.33 2.48-1.7.81.38 2.1 1.56 1.99 1.77-1.42 2.74-2.64 0-4-.26-.29-.06-.61-.04-.91 0-.11.01-.2.19-.31.29.19.03.39.05.75-.11Zm202.07 108.14c-.35-.5-.34-.89-.34-1.58 2.35-.2 4.45.87 6.59 1.69-1.93 0-3.9 0-6.24-.1Zm32.05-86.76c.41-1.23-1.35-3.2.42-3.88 1.43-.55 2.11 1.2 2.79 2.25.66 1.03.92 2.36-.22 3.05-1.33.81-1.89-.76-2.99-1.43Zm-230.22.21c.25-.47.52-.65.8-.8 1.11-.62.9-2.74 2.7-2.48.82.12 1 1.04.57 1.55-1.18 1.38-1.34 3.82-3.82 3.84-.07 0-.15-1.17-.25-2.1Zm104.53 111.22c.36 1.44-.04 2.51-1.06 2.7-1.23.22-1.58-.95-1.62-1.96-.06-1.49.01-2.98.11-4.88.45-.77.89-.94 1.74-.73.89 1.59.49 3.09.83 4.88ZM191.93 203.44c1.89 1.48 1.67-3.24 3.6-1.41.98.93 1.7 1.97 1.36 3.39-.1.43-.45 1.11-.75 1.15-2.29.29-1.57-2.48-3.41-2.9-.38.19-.8 0-.8-.23" class="st0"/><path d="M293.14 341.83c.35 2-1.49 3.66-.09 5.97.04 1.77-.65 2.46-2.1 2.19-1.47-.28-1.12-1.58-.92-2.35.44-1.68 1.21-3.28 1.99-5.26.36-.47.58-.59 1.13-.55Zm114.11-162.9c-1.25-1.45-2.93-.42-4.11-1.56.19-.57.48-.82.7-1.34 2.93-2.84 4.27 2.94 7.32 1.54-1.19.48-2.37.96-3.91 1.36m-153.62 60.08c.73.19 1.15.49 1.85.83-1.47 1.61-3.23 3.18-5.24 4.94-.78.33-1.21.2-1.44-.6 1.57-1.93 3.05-3.5 4.83-5.18Zm-82.51-28.73c.24-.79.5-1.26.82-2 .99 1.59 1.92 3.46 2.95 5.53-2.67.31-2.64-2.11-3.76-3.53Zm21.11 9.72c-1.35-.33-2.37 2.05-3.8.64-1.15-1.14.17-2.13.71-3 .49-.79 1.36-1.92 2.33-1.36 1.2.69.44 2.03.44 3.46.22.36.28.29.31.27Zm17.61 115.5c4.28 2.69.76 5.16-.56 7.63-1.14-2.63.05-4.94.56-7.63m210.88-132.48c-1.73.37-.18 3.45-2.64 3.79-1.65-1.58-.97-3.22.31-4.62 1.05-1.16 1.68-.32 2.34.83Zm-40.65 118.44c-2.65 1.29-3.99-1.13-3.71-1.83.97-2.42 2.79-.94 4.51.05.34.88.16 1.38-.79 1.79Zm37.2-104.18c.22-.45.44-.67.69-1.18 1.22 1.16 2.34 2.54 3.79 4.01.33.1.27.04.25.01-.16.75-.04 1.9-.51 2.24-.84.61-1.32-.37-1.75-1.05-.78-1.25-1.59-2.47-2.48-4.02ZM205.09 281.3c.24-.79.55-1.28.91-2.08 1.14 1.62 2.24 3.56 3.49 5.78-2.59-.23-2.94-2.43-4.4-3.7m176.55-68.21c2.02 1.32 4.02.31 6.03 1.15-3.34-.26-6.89.61-11.24.97 1.74-1.65 3.34-1.77 5.21-2.12" class="st0"/><path d="M248.61 244c.48.14.68.45 1.12.87-1.16 1.86-2.57 3.61-4.61 6.15.05-3.59 1.83-5.12 3.49-7.03Zm-71.5-116.7c1.23-2.27 2.53-4.27 4.05-6.5.43-.27.63-.31.87-.05-.33 2.93-2.49 4.62-3.66 7.18-.65.14-.96-.06-1.26-.64Zm145.61 55.99c.59-1.3.68-2.86 2.2-2.28.92.35 2.16 1.22 1.87 2.43-.12.5-1.54.69-2.59 1.27-1.36.54-1.58-.18-1.48-1.42m-86.67 137.48c-.44.93-.93 1.75-1.61 1.97-1.08.34-2.22 2.05-3.35.62-1.11-1.41.68-2.21 1.56-3.34.43.3.69.41 1.17 0 .1-.22-.08-.32-.05-.42.91-.21 1.58.16 2.27 1.18Zm103.17-39.64c-.6-.86-.92-1.68-1.17-2.83.41-.67.84-.79 1.61-.54.66 1.81 3.13.76 3.28 2.95-.47 1.48-1.27 1.98-2.83 1.62-.35-.17-.26-.13-.3-.1-.06-.35-.15-.71-.58-1.1Z" class="st0"/><path d="M339.79 282.47c.79-.61 1.63-.9 2.78-1.31.54 1.23 1.84 2.96.27 3.8-1.62.87-2.22-1.1-3.05-2.5Zm80.51-71.04c-.33-.12-.27-.05-.27 0 .43-.62 1.07-1.9 1.26-1.84 1.38.46 1.74 1.71 1.71 3.05-.01.65-.14 1.43-1.06 1.28-1.36-.22-.84-1.58-1.63-2.48ZM273.8 275.3c.88 1.73.49 3.57-.57 5.58-.62.51-1.05.64-1.81.39-.35-2.43 1.1-4 2.38-5.97m-64.04 60.01c.35 2.25.22 4.62-.72 7.25-2.33-2.23-.88-4.67.72-7.25" class="st0"/><path d="M271.05 281.37c.5-.32.91-.34 1.63-.32.31.97.32 1.9.31 3.17-.6.81-1.21 1.48-1.99.8-1.22-1.06-.56-2.23.05-3.66Zm57.5 80.6c-1.11-2.02-.44-2.98 1.28-2.52 1.17.32 2.62 1.36 2.03 2.9-.83 2.16-1.97.52-3.31-.39Zm72.63-243.42c-.44-.32-.63-.83-1.05-1.47.23-1.35.7-2.57 1.31-4.14 1.35 2 1.2 3.7-.25 5.61Zm-32.19 154.17c-1.18.78-.83 1.8-.98 3-1.53-1.77-1.13-4.09-.81-7.34.83 1.84 1.32 2.93 1.78 4.34Zm-42.69 85.35c-1.98-.84-2.04-2.61-1.02-3.47 1.21-1.01 2.27.24 2.81 1.91-.28.94-.85 1.25-1.79 1.56m-64.48-135.83c.58.31.84.72 1.14 1.37-1.3 2.33-3.6.77-5.36 1.49 1.3-.92 2.61-1.84 4.22-2.86m76.46 24.53c-1.19-.93-2.13-2.05-3.15-3.48-.03-.68.14-.99.67-1.33 1.36 1.15 2.47 2.38 3.74 3.87-.18.52-.57.69-1.26.94m73.38-85.74c.66.42.95.8 1.33 1.4-.69 1.79-2.4.63-3.82 1.53-.39.09-.73.2-1 .08-.73-.39-1.19-.65-1.93-.99 1.5-.74 3.27-1.4 5.41-2.03Zm9.34 42.02c.71.59 2.74-1.28 2.33 1.24-.16 1.01-.39 2.72-1.74 2.33-1.3-.38-.36-1.88-.37-3.26-.12-.36-.22-.36-.22-.31m-48.44 62.46c-.74-1.33-1.09-3.09-1.41-5.24.52-1.18.27-2.09.68-3.16 1.82 2.38 1.08 5.21.73 8.4m-88.65-2.86c-.48.4-.84.39-1.48.38-.83-2.37.62-4.28 1.59-6.4 0 1.87 0 3.73-.11 6.01Zm-11.97 108.37c1.06-.73 1.71-.98 2.03.57-.68.64-1.32 1.19-2.06 1.38-.82.21-2.17.95-2.42-.38-.18-.97 1.34-1.07 2.45-1.57m1.02-255.34c-.25.8-.53 1.26-.88 2.02-.73-1.12-1.4-2.53-2.09-4.28-.27-.62-.34-.88-.22-1.12.12-.22.22-.34.67-.3 1.06 1.14 1.77 2.24 2.52 3.67Zm-31.73 150.58c1.3 2.74.94 6 .27 9.57-.31-2.83-.36-5.97-.27-9.57m1.67-3.65c-.36.45-.63.49-1.1.51-.28-.77-.37-1.5-.38-2.61 0-.96.09-1.53.35-2.36.18-.66.22-1.07.35-1.77.57-.47.95-.33 1.08.37-.18 2.01-.2 3.72-.3 5.86m-2.21 51.41c.57 1.82 2.87-.32 3.24 1.68-.74 1.44-1.93 1.64-3.47 1.5-1.52-1.29-1-2.22.22-3.18Zm-31.81-135.51c.15.5.16.67.16 1.1-1.73-.39-3.45-1.03-5.57-2.03 1.7-1.3 3.41.06 5.4.92Zm27.58 142.48c-.9-.22-1.52-.59-2.39-1.23.51-1.65 1.64-2 2.96-1.21 1.46.88.14 1.56-.57 2.44m54.75-136.29c-.56-1-3.45.23-2.69-2.01.4-1.19 1.4-1.89 2.52-.07.36.73.47 1.22.17 2.08m-22 110.08c-2.74-1.7-1.01-2.96.64-4.53 1.23.29 1.07 1.23.79 2.49-.56.78-.96 1.24-1.43 2.04M194.28 194.2c.31-.38.85-.53 1.54-.92 1.3.73 2.44 1.7 3.77 2.94.16.52.13.78-.29.96-1.85-.97-3.32-1.86-5.02-2.97Zm-12.71 5.75c-1.04-.21-2.9.31-1.71-1.33.93-1.27 2.57-.89 4.27-.1-.89.55-1.56.97-2.57 1.42Zm10.25 10.31c1.18.25 1.12 1.18 1.15 2.41-.04 1.14-.64 1.71-1.24 1.28-1.37-.99-.72-2.27.08-3.7Zm-.03-7.24c.1.4.14.59.43.79.85.87.87 1.82.63 2.82q-1.9-1.54-1.06-3.61m215.97 76.19c.37.3.51.85.9 1.56-.44 1.85-1.71 2.97-4.04 4.58 1.27-2.56 2.1-4.23 3.15-6.14Zm-96.61 4.04c1.63-1.49.43-3.19.88-4.96 1.37 2.29 1.06 5.09.92 8.03-1.59-.47-.8-2.13-1.8-3.07m110.06-84.13c.98-1.56 1.91-2.77 3.88-1.63-.81 1.77-1.57 3.32-3.88 1.63m-221.34-2.02c1.98 1.13 3.05 2.81 3.24 5.96-1.63-1.97-2.71-3.27-3.86-4.89.07-.49.22-.67.62-1.07m96.3 130.15c-.64-.28-1.02-.24-1.68-.21-.04-1.27-.58-3.18 1.17-3.4.88-.11 1.38 1.51 1.4 3.01-.24.53-.44.71-.9.59Zm47.54-144.12c.79.24 1.26.5 2.02.82-1.32 1.69-3.28.95-6.5 1.11 2.18-1 3.17-1.45 4.48-1.93m87.82 16.57c-.86-.73-2.25-1.48-.2-1.8 1-.16 2.62-.3 2.66 1.22.04 1.5-1.38.61-2.46.59Zm-50.91-6.75c.48.22.69.53 1.17.96-.62.94-1.5 1.76-2.48 2.67-1.09-1.95.51-2.54 1.31-3.63" class="st0"/><path d="M243.29 256.81c-.43.02-.59-.22-.91-.59.21-1.65.29-3.32 2.64-4.99-.66 2.4-1.07 3.87-1.73 5.58m-6.54-58.51c1.24.46 2.14 1.5 1.18 2.44-.92.91-1.37-.72-2.19-1.37.26-.38.56-.59 1.02-1.07Zm99.23 43.28c-.11.58-.29.87-.71 1.28-.83-.68-1.44-1.49-2.1-2.59.18-.69.41-1.08.68-1.71.71.75 1.38 1.74 2.12 3.03Zm23.06-101.22c1.51.88.57 2.79 1.56 4.43.17 1.11-.19 1.92-1.61 2.42 0-2.28 0-4.35.05-6.85m20.67 181.15c.29-.32.64-.64 1.17-1.26 1.53.41 2.67 1.47 2.45 3.03-.11.81-1.29.73-2.25.06-.2-.73-.42-1.07-.99-1.6-.18-.28-.31-.22-.38-.23M263.82 191.77c-1.5.39-2.15-.7-3.29-1.51.6-1.3 0-3.12 1.86-3.67-.2 1.41.11 2.31 1.27 3.28.26.69.29 1.14.16 1.9M426.6 254.5c-.62-.75-.97-1.85-1.34-3.31.43-1.14.02-2.05.56-3.08 1.67 1.72 1.26 3.89.78 6.38Zm-166.75-86.69c-.47-.52-.83-1.42-1.45-2.47-.36-1.18-.14-2.32.98-2.27 1.01.05.48 1.27.57 1.97.1.79.02 1.59-.1 2.77m45.04 93.48c1.04.28 1.15 1.16 1.16 2.39-.65.86-1.26 1.39-1.86 1.93-.61-1.44-.12-2.74.7-4.31Zm40.34-12.96c-1.09.97-1.94.26-3.16-.5 1.41-5.18 1.98-.12 3.16.5m-55.87 61.2c-.38-.75-.53-1.85-.9-3.14.17-1.17.55-2.16 1.24-3.24.44.07.58.24.54.68-.34 1.96-.49 3.66-.88 5.7m-49.1 7.83c.95-.7 1.99-1.02 3.35-1.36.66.39.99.81 1.36 1.5-1.52.74-3.08.88-4.71-.15Zm-10.23-116.01c1.09-.84.74-1.87.94-3.07a18.6 18.6 0 0 1 1.08 3.81c.08.46.36 1.57-.61 1.36-.56-.12-.92-1.14-1.4-2.1Zm127.8 7.38c-.35.42-.94.6-1.69 1.05-1.13-.54-2.1-1.35-3.21-2.27 2.13-1.13 3.19.74 4.9 1.22m-101.75 7.14c-1.09-.48-1.89-.92-2.94-1.48 1.24-.49 2.25-.89 3.6-1.3 1.89 1.39 1 2.17-.66 2.78m.66 62.38c.35.59.48 1.47.91 2.52.34 1.36 0 2.33-1.32 2.82-.93-1.76-.24-3.4.41-5.34m93.95-53.91c.85-.42 1.47-.57 2.19-1.02 1.21.29 2.32.89 4.5 2.06-2.83-.19-4.42-.3-6.31-.16-.31.25-.35.12-.31.07-.07-.26-.19-.47-.06-.96Zm-174.5 53.41c.75 1.19 1.78 2.31 1.4 4.19-1.14-1.38-3.12-1.99-1.4-4.19m36.74-163c-1.14.83-.96 1.75-.93 2.96-1.59-1.23-1.3-2.92-.3-4.62.29-.5.73-1.26 1.23-.19.19.41.06.98 0 1.84Zm130.79 175.39c.13.9 3.55 1.18.63 2.83-1.38-.67-1.38-1.61-.63-2.83m28.3-23.87c.15-.33.48-.32.64-.33.23 1.27.71 2.65-.6 3.61-.14.11-.71-.05-.79-.23-.52-1.04.03-1.89.75-3.05m-79.67 44.6c-.45-.06-.63-.35-1.05-.74.18-1.49.6-2.88 1.28-4.53.45.01.63.29.67 1.05-.3 1.65-.47 2.82-.9 4.23Zm31.11-2.39c1.2 1.58.67 3.72.3 6.13-.24-1.7-.29-3.7-.3-6.13m102.8-53.28c.07-.34.28-.38.37-.31 1.69.99 1.18 2.5.77 4.04-.4-1.13-.81-2.25-1.14-3.72Zm-132.59 86.63c-.41.17-.63.18-1.17.19.04-1.36.11-3.01 2.39-2.33-.25.85-.64 1.42-1.22 2.14M176.86 127.29c.46-.05.75.15 1.13.61-.23 1-.57 1.75-1.06 2.77-1.11.5-1.31-.08-1.14-1.11.44-.85.66-1.43 1.06-2.27Zm163.08 150.35c-.41.36-.81.39-1.53.38-.11-1.34-1.46-3.52.6-3.7 2.1-.18-.36 2.24.93 3.32m-151.26-24.98c-.24 1.45-.62 2.64-1.3 4.78-.61-2.68-.57-4.35.25-6.3.97.02.82.69 1.04 1.52Zm-1.72 9.9q-.7-1.19.4-2.94c1.03 1.03-.43 1.75-.4 2.94m146.25 15.72c-1.09-1.33-1.57-2.47-.82-4.37.61 1.36 1.07 2.37 1.53 3.74-.16.54-.32.71-.71.62Zm-15.09 64.97c.95-.26 1.96-.38 2.43.6.34.72-.2 1.06-1.16 1.19-1.16-.16-1.35-.74-1.27-1.79m3.44-19.08c.22 1.57.13 3.4-.13 5.58-.86-1.54-.43-3.43.13-5.58m44.84-113.14c-.53-.31-.71-.62-1.18-1.04.79-.93 2.26-1.71 3.14-.66.68.81-.86 1.28-1.96 1.7m57.36-99.98c1.11.6 1.95 1.3 2.97 2.29.03.43-.12.58-.57.78-1.19-.47-2.07-1-3.12-1.78-.05-.63.16-.93.72-1.28Zm-125.8 40.68c-.28.51-.56.7-.95 1.13-1.35-.76-1.29-1.95-.63-3.23.53.6 1.06 1.19 1.58 2.11Zm84.76 48.48c.39.06.56.36.99.71.24 1.23-.39 2.05-1.34 2.69-.63-1.1-.32-2.13.35-3.4" class="st0"/><path d="M426.04 247.66c-.11 1.07-.24 1.89-.59 2.95-.57-.82-.93-1.88-1.29-3.28.36-.34.72-.35 1.35-.34.27 0 .5.44.53.68Zm-237.13 4.93c-.36-.16-.63-.66-.96-1.45-.04-.72-.03-1.14.1-1.87.52-.28.92-.25 1.63-.25-.02 1.06-.35 2.15-.77 3.57m91.3-67.75c-.76-1.17-1.82-.62-2.97-.83.92-.4 2.25-1.16 3.4-.94 2.21.41.24 1.13-.43 1.78Zm42.45-1.69c.39.38.55.99 1 1.7-.16.86-.62 1.62-1.21 2.59-.72-1.69-.63-2.89.21-4.29m35.11 93.55c-1.31-.86-.85-2.45-.89-4.28.38 1.06.67 2.49.89 4.28m-34.09 25.11c-.27.37-.6.43-1.17.4-.53-1.03-.82-1.98-1.14-3.03 2.09-.08 1.53 1.62 2.31 2.63M175.59 132.7c-.12 1.42-.55 2.59-1 3.81-1.06-.95-.55-2.02-.15-3.3.42-.42.63-.59 1.15-.51" class="st0"/><path d="M176 132.69c-.31.27-.52.27-1.04.27.01-1.05.33-2.1.86-3.41.34.19.47.64.79 1.24-.05.65-.27 1.14-.6 1.9Zm180.94 150.74c.33-.37.75-.4 1.49-.47.81.85.92 2.26.32 2.5-.99.4-1.15-1.07-1.81-2.03M181.95 130.86c-.14.31-.45.34-.61.33-.53-1.46.45-2.42 1.06-3.57 1.22 1.17.02 2-.45 3.24m37.94 212.6c.25 1.21.19 2.57.02 4.33-1-1.09-1.01-2.61-.02-4.33m49.22-232.38c-1.52-.88-1.35-2.06-.83-3.3.5.56.99 1.12 1.55 1.98-.09.63-.26.95-.72 1.32m-20.2 155.72c-.46.3-.81.32-1.43.32.2-.95.66-1.87 1.12-2.79.14.73.28 1.46.31 2.47m47.02 60.52c.16-.45.35-.52.82-.45.28 1.51.29 2.88.2 4.66-1.27-.83-.89-2.38-1.02-4.21m-77.88-4.27c.02-1.52.53-2.69 2.31-2.94.47 1.65-1.16 1.87-2.07 2.83-.32.07-.24.07-.24.11m103.43 8.99c.4-.48.68-.45 1.15-.17.22 1.12.22 2.2.22 4.13-.7-1.73-1.08-2.68-1.36-3.95Zm-125.16-30.86c.77.07 2.52-.96 1.94 1.43-.73-.22-1.31-.68-1.94-1.43m94.69-115.88c0-.75.01-1.22.07-2.05.93.6 1.39 1.64.54 2.86-.38.54-.99.21-.42-.13.02-.01-.11-.27-.19-.68M184.95 290c.27-.15.7-.31.88-.18.09.9.15 1.94-.96 1.76-.76-.12-.66-.87.08-1.58m141.15 68.66c.12-1.32.76-1.58 1.77-1.77.27-.06.21-.02.22-.05.1.29.18.61.29 1.42-.44 1.98-1.18 2.09-2.28.4M203.04 176.92c.04.32.26.48.23.61-.9-.2-1.76-.54-2.92-.99 1.22-.57 1.97-.51 2.7.38Zm87.23 126.94c-.24.06-.26-.11-.27-.55.01-1.01-.02-2.48.38-2.31 1.34.57.57 1.7-.11 2.86M423.9 110.73c-.1.5-.31.79-.78 1.21-.74-.09-1.23-.31-1.88-.76.36-.36.88-.5 1.56-.86.51-.23.78-.09 1.11.41ZM293.33 306.88c-.29-.05-.36-.34-.46-1.09.05-1.14-.08-2.54.81-2.07.99.52.4 1.93-.35 3.16m121.35-146.89c.36.58.41 1.16.46 1.74-.6-.18-1.2-.37-2.06-.71.26-.45.78-.74 1.61-1.04Z" class="st0"/><path d="M268.93 111.42c.1-.58.27-.89.71-1.28.51.4.77.88 1.09 1.64-.21.41-.42.62-.67 1.1-.42-.26-.73-.72-1.13-1.46m-5.08 78.38c-1.68.15-2.01-.85-1.34-2.62.59.58.94 1.45 1.34 2.62m44.03 60.02c-.36.45-.64.56-1.15.55-.5-1.19.18-1.88.84-2.58.14.58.27 1.16.31 2.04Zm-24.71 20.89c-.13-.85-.09-2.01.16-3.45.14.86.07 2-.16 3.45m120.59-106.58c.33.34.38.74.37 1.43-.51.24-.98.18-1.44.13.26-.5.52-1 1.07-1.55Zm23.42-49.82c.7.2 1.18.61 1.81 1.29.26.51.36.74.23 1.28-.85-.2-1.47-.71-2.22-1.49-.1-.48-.07-.68.18-1.08m-94.23 164.05c.03-.35.5-.37.73-.36.48.52.73 1.03 1 1.82-.32.28-.66.28-1.25.26-.34-.47-.43-.92-.48-1.72M183.29 118.53c-.2-1.03.35-1.71.88-1.32 1.1.83-.42 1.05-.88 1.32m-.52-.15c.26-.14.14.18.16.35-.06.82-.15 1.47-.55 2.23-.32.11-.65-.13-.82-.26.2-.81.57-1.49 1.2-2.32ZM426.8 223.91c.26.81.64 1.5-.35 1.86-.81-.89-.37-1.48.35-1.86m3.41-106.52c.74.55 1.49 1.34 1.35 1.55-.57.87-1.01-.06-1.61-.56-.12-.49-.13-.75.26-.99M248.24 272.78c-.17-.62-.14-1.49.14-2.6.18.63.13 1.49-.14 2.6m93.8 97.88c-.77.22-1.65.11-1.99-1.32.58.13 1.21.59 1.99 1.32m-80.57-184.78c-.17-.77-.06-1.33.04-1.9.59.64 1.37 1.27-.04 1.9m164.52 106.44c.43-.43.88-.58 1.68-.63-.14.83-.16 2.71-1.68.63M269 295c.12-.7.09-1.5 1.24-1.86.1.4-.07.88-.37 1.59-.24.37-.36.51-.67.46zm-79.36-.91c.3.06.35.22.4.65-.28.87-.79 1.45-1.33.85-.53-.58.26-1.01.94-1.5Zm234.46 1.16c-.11-.41-.11-.59-.02-1 .76.09 1.52.38 1.29 1.35-.01.05-.75-.07-1.27-.35m-105.02 50.98c1.18-.27 2.04-.09 1.01 1.53-.44-.24-.77-.73-1.01-1.53m86.83-95.51c-.08.29-.25.31-.69.3-1.09-.13-1.31-.74-1.32-1.72.69.19 1.3.66 2.01 1.41Z" class="st0"/><path d="M429.04 117.42c0-.45.03-.66.09-1.21.42.03.82.38 1.35.97 0 .36-.12.49-.44.8-.53.12-.78-.05-.99-.56Zm-187.36 140.7c.22.38.22.97.01 1.8-.22-.37-.23-.97-.01-1.8m137.96 63.72c.66.03 1.05.43 1.36 1.03-.6-.09-1.12-.37-1.36-1.03M187.88 113.91c-.13 1.03-.7 1.32-1.51.84-.04-.02.27-.64.64-1.17.37-.08.51.03.86.33Zm150.46 133.46c.07-.67.47-.94 1.11-1.25 1.28 1.36.67 1.77-1.11 1.25m2.79-117.62c-.07-.3-.01-.83.25-1.53.1.32-.01.81-.25 1.53m-61.97 1.04c-.15-.32-.16-.9.03-1.7.17.33.14.89-.03 1.7m59.83 150.56c.17-.38.38-.51.59-.63.11.34.21.68.25 1.29-.31.05-.56-.17-.85-.65Zm61.75-105.05c-.2.3-.68.55-1.43.75.2-.3.68-.55 1.43-.75m2.81-.53c.89.52 1.09.98-.26 1.24-.26.03-.25-.46-.28-.7-.02-.24.32-.51.54-.54m-86.33-20.92c-.15-.39-.11-.99.17-1.98.17.33.09 1.05-.17 1.98M269 295.27c0-.27.38-.31.56-.31.31.36.22.65-.32.98-.23-.06-.24-.23-.25-.67Zm59.75 63.35c-.43-.19-.52-.51-.62-1.32.76-.19 1.13.34.62 1.32m15.67-63.43c.3-.15.5.03.59.54-.27.12-.47-.06-.59-.54m-11.02-13.02c.4-.09.57.15.56.72-.32.05-.52-.19-.56-.72m-133.33-85.42c-.03.44-.2.71-.67 1.02-.23.08-.4-.28-.44-.48.1-.31.24-.42.6-.67.23-.14.45.01.51.13m36.49 1.1c.14.53-.14.78-.67 1.16-.64-.59-.47-1.1.67-1.16m121.66 82.86c-.35.05-.46-.12-.34-.51.33-.05.45.12.34.51m-78.72-86.2s0 .02 0 0m46.74-25.48c0 .05-.13-.16-.13-.16s.04.24.12.13 0-.02.02.03Zm77.91-2.84c.22-.04.4.17.54.42.02.03-.21.2-.56.33-.17-.15-.1-.31.03-.74Zm22.48-52.46c.28-.12.67.16.72.27-.02.28-.1.46-.33.88-.44.08-.72-.09-1.09-.48.08-.34.25-.44.69-.66Zm-106.49 84.95c-.11.09-.4-.24-.32-.34.31-.1.43.01.32.34m-131.28 47.44c.26.1.26.32.02.66-.33-.1-.33-.32-.02-.66m230.35-31.79c-.06-.09 0-.17.03-.18.02-.01.03.27-.03.18M199.32 304c0-.13.28-.25.4-.17s-.06.37-.06.37-.34-.07-.34-.2m123.33.16c.38-.04.5.19.4.69-.35.04-.49-.19-.4-.69m63.57 1.9c.07-.28.25-.31.52-.09.08.12-.16.29-.16.29s-.28-.07-.37-.2Zm52.13-38.16c-.02-.3.4-.66.99-.77-.07.4-.31.56-.99.77m-98.19-131.49c-.11-.03-.03-.32.05-.33s.06.36-.05.33m-106.5 183.22c.11.49.16 1.14-.61.47.05-.34.2-.48.61-.47m6.42-22.44c-.31.83-1.04 1.26-1.87.76-.13-.08.13-.8.49-1.39.53 0 .78.17 1.38.62Zm110.49-73.14c.42.23.49.44.39.92-.73.92-1.23.68-1.56.09-.49-.88.23-.93 1.17-1.01m58.42-59.74c.67-1.46 2.16-1.15 3.7-1.66.25 3-2.61.44-3.7 1.66m-.94-.22c-.38.62-.81 1.17-1.48.34.28-.15.56-.3 1.09-.48.25-.03.35.08.39.14m32.03 92.47c-.14 3.21 2.61 6.78-1.52 9.97-.63-3.48-.96-6.48 1.43-9.62.04-.44.05-.35.1-.36Zm-11.36-25.97c-.58-.46-1.11-1.07-1-1.23.28-.41.84-.47 1.27.34.07.48.07.71-.27.88Z" class="st0"/><path d="M428.89 230.09c.84.28 1.47.72.75 1.57-.03.04-.61-.41-1.1-.87-.16-.25.18-.55.35-.69Zm-60.68 85.01c1.64-1.46 2.55-.11 4.09.95-1.8.65-2.95.05-4.09-.95m-21.24-20.29c-.12-.18-.07-.36-.01-.54.06.18.13.36.01.54m-173.26-34.7c.19-.82.23-1.18.29-1.82 1.04-.37.96.39 1.14 1.34.11 1.76.33 3.23.1 4.61-.23 1.33-.89.84-1.37-.44-.43-1.33-.36-2.28-.17-3.69Z" class="st0"/><path d="M173.67 259.93c.23.66.27 1.59.25 2.98-.78-.53-.49-1.63-.25-2.98m239.38 44.08c-.18.04-.45-.19-.83-.64.17-.03.46.17.83.64" class="st0"/></svg>