<svg xmlns="http://www.w3.org/2000/svg" id="Layer_1" width="311" height="363" viewBox="136 71 311 363"><defs><style>svg{fill:#f38f1f}</style></defs><g id="Layer_1"> <g id="_x35_8FbG8"> </g> </g> <g id="Layer_5"> <g id="rm5lsy"> </g> </g> <g id="Layer_4"> <g id="i4pJT4"> </g> </g> <g id="Layer_3"> <g id="BKrof5"> </g> </g> <g id="Layer_2"> <g> <path d="M405.64,367.66c-.23.05-.34-.05-.39-.2-.47-1.76-2.7-1.56-3.69-.42-1.3,1.5-1.38,3.87-.07,5.75,1.81,2.61,4.51,3.43,7.48,3.34,3.29-.09,6.07-1.54,8.2-4.02,4.06-4.72,4.59-10.19,3.1-16.02-.17-.65-.37-1.28-.55-1.93-.02-.08.02-.18.04-.31.13-.04.27-.09.41-.11.18-.03.37-.04.39-.29.01-.22-.11-.31-.3-.4-1.35-.64-1.76-1.93-2.14-3.22-.19-.64.08-1.08.82-1.14-.19-1.4-1.15-2.2-2.11-3.01.16.41.37.81.48,1.24.16.61-.1.91-.76.9-1.63-.04-3.92-2.16-4.02-3.71-.91-.34-1.8-.14-2.71-.04-1.22.13-2.43-.13-3.48-.84-.44-.29-.82-.69-.7-1.28.13-.61.66-.74,1.18-.84.76-.15,1.5-.04,2.24.19.66.21,1.27.76,2.05.38.07-.04.24.05.33.12,1.36,1.1,3.05,1.57,4.63,2.03,1.83.53,2.77,1.81,3.85,3.09.38.45.48,1.04.76,1.55.35.64.97,1.05,1.39,1.59-.18.41-.4-.01-.64.16.2,1.06.88,1.94,1.3,3.04.21-.48-.26-.95.15-1.32.47.07.53.48.66.79,1.35,3.25,1.74,6.63,1.14,10.1-.91,5.26-3.13,9.79-7.69,12.83-4.46,2.98-9.17,3.48-13.92.71-3.12-1.82-4.61-5.1-3.54-8.17.57-1.65,1.67-2.75,3.46-2.98,1.66-.21,2.95.95,2.66,2.42M407.5,342.36c.65.24,1.31.49,2.09.38-.7-.83-1.67-1.02-2.09-.38M414.36,345.24c.39.4.75.84,1.46.92-.29-.66-.74-.99-1.29-1.21-.14-.06-.33-.08-.17.29Z"/> <path d="M418.28,364.71c.36,1.06.05,1.98-.4,2.85-.28.54-.7,1.12-1.39.96-.72-.16-.82-.94-.9-1.51-.12-.84.22-1.67.83-2.22.47-.43,1.18-.61,1.86-.07Z"/> <path d="M419.44,360.51c.08.74.05,1.4-.21,2.03-.16.37-.42.69-.86.72-.47.04-.52-.39-.74-.67-.58-.76-.67-1.59-.55-2.49.09-.68.4-1.12,1.14-1.19.76-.07.88.49,1.08,1,.06.17.09.35.14.59Z"/> <path d="M415.57,370.66c-.43.82-1.02,1.36-1.83,1.61-.29.09-.61.13-.84-.13-.24-.26-.18-.57-.06-.85.31-.7.72-1.32,1.4-1.72.39-.23.85-.49,1.27-.22.47.31.22.81.07,1.31Z"/> <path d="M418.66,355.92c.04.21.08.36.09.51.02.46.04,1-.51,1.12-.51.12-.7-.38-.91-.74-.32-.55-.58-1.13-.69-1.77-.07-.39,0-.75.39-.92.35-.16.66.03.89.28.39.41.55.93.74,1.52Z"/> <path d="M409.85,372.91c.53-.14.99-.27,1.46-.36.23-.05.51-.07.61.22.09.27-.1.46-.28.61-.42.37-.94.55-1.48.61-.38.04-.88.12-1.02-.33-.13-.42.32-.58.7-.76Z"/> <path d="M407.1,373.85c-.28-.09-.55-.1-.53-.5.49-.16.93-.13,1.32.27-.18.38-.47.25-.79.23Z"/> </g> <path d="M453.85,215.98"/> <path d="M328.9,201.55c.54-.54.63-.77,1.01-1.27.49-1.29,1.08-2.31.57-3.63.12-.44.12-.63.39-1.04.42-.66.55-1.09.91-1.77.35-.67.48-1.08.81-1.72.44-.74.6-1.33,1.44-1.84,1.05-1.19,1.55-2.62,2.55-3.19,6.78-3.98,11.69-9.91,17.13-16.32-.88,6.45-4.37,11.1-6.48,16.65-.38,1.13-.34,1.88,1.08,1.63,10.57-13.26,16.24-27.89,15.78-44.72-.29-10.65-4.36-19.94-9.7-28.85-.7-1.16-1.79-1.24-2.79-1.65.21.93.17,2.04.69,2.77,2.42,3.4,3.64,7.33,4.75,11.2,3.28,11.38,3.88,22.63-3.18,34.08.15-5.16,1.18-9.38.19-13.85-.27-.13-.42-.03-.68.51-1.8,16.44-11.33,27.47-24.19,37.07,4.81.07,4.59,1.18,2.28,4.07-3.27,4.1-5.78,8.8-8.8,13.51,2.55.79,4.13-.38,6.22-1.67l.02.03Z"/> <path d="M304.38,185.77c.83.22-.69,10.33-.95,11.26-.39,3.55-1.08,6.68-1,9.79.15,5.87,1.76,4.81,7.16,2.66.16-.07-2.12,4.44-1.91,4.56.3,1.44.81.84,1.35,2.59h7.1c-2.96,5.89-7.87,1.94-10.45,8.2,1.18-3.39-8.81-7.31-3.8-10.7.03-.02-.32-.54-.43-.85-2.25-6.05-3.51-12.92-.24-18.78l3.16-8.74Z"/> <path d="M346.46,219.19c.77-1.07-.51-2.97,2.18-2.02-1.01,14.55-14.76,22.03-29.2,15.91,1.3-1.07,2.56-.85,4.27-.1,12.18.01,19.21-4.86,22.74-13.78h0Z"/> <path d="M325.46,213.25c5.39-6.22,15.01-3.75,19.76-11.03-2.58,8.99-2.69,9.06-12.88,9.74-2.54.46-4.71.88-6.88,1.29Z"/> <path d="M319.09,194.6c-2.05,2.4-3.96,4.49-5.92,6.25-.27-4.23,3.37-5.58,5.19-7.92.33.63.6,1,.73,1.68h0Z"/> <path d="M326.23,168.96c.75-1.43,1.46-2.53,2.52-3.67.45-.04.55.08.67.3.12.24.05.5-.22,1.12-.69,1.75-1.36,3.16-2.09,4.28-.35-.76-.63-1.22-.88-2.02h0Z"/> <path d="M308.15,235.91c1.12-1.82,2.12-1.12,2.52.07.76,2.24-2.13,1.01-2.69,2.01-.3-.86-.19-1.35.17-2.08Z"/> <path d="M335.37,245.06c-.13-.76-.1-1.21.16-1.9,1.16-.97,1.47-1.87,1.27-3.28,1.86.55,1.26,2.37,1.86,3.67-1.14.81-1.79,1.9-3.29,1.51h0Z"/> <path d="M339.24,218.33c.09-.7-.44-1.92.57-1.97,1.12-.05,1.34,1.09.98,2.27-.62,1.05-.98,1.95-1.45,2.47-.12-1.18-.2-1.98-.1-2.77Z"/> <path d="M301.23,205.03c.52-.92,1.05-1.51,1.58-2.11.66,1.28.72,2.47-.63,3.23-.39-.43-.67-.62-.95-1.13h0Z"/> <path d="M318.98,238.14c-.67-.65-2.64-1.37-.43-1.78,1.15-.22,2.48.54,3.4.94-1.15.21-2.21-.34-2.97.83h0Z"/> <path d="M329.36,163.05c.56-.86,1.05-1.42,1.55-1.98.52,1.24.69,2.42-.83,3.3-.46-.37-.63-.69-.72-1.32Z"/> <path d="M307.99,239.27c.57.34-.04.67-.42.13-.85-1.22-.39-2.26.54-2.86.06.83.07,1.3.07,2.05-.08.41-.21.67-.19.68Z"/> <path d="M330.26,164.71c-.4.74-.71,1.2-1.13,1.46-.25-.48-.46-.69-.67-1.1.32-.76.58-1.24,1.09-1.64.44.39.61.7.71,1.28h0Z"/> <path d="M336.68,240.47c.67,1.77.34,2.77-1.34,2.62.4-1.17.75-2.04,1.34-2.62Z"/> <path d="M337.68,237.27c.1.57.21,1.13.04,1.9-1.41-.63-.63-1.26-.04-1.9Z"/> <path d="M320,182.38c.19.8.18,1.38.03,1.7-.17-.81-.2-1.37-.03-1.7Z"/> <path d="M319.69,247.8s0,0,0,0Z"/> <path d="M347.03,104.35"/> <path d="M322.52,222.4c1.04-.05,2.13-.1,3.06.26,3.43,1.31,6.89.35,8.22-2.48l-1.76-.42c0-.12-.01-.25-.02-.37,1.68-.28,3.35-.67,5.04-.81,1.15-.1,1.81,1.05,1.27,2.12-.41.81-1.06,1.5-1.67,2.32-4.84,4.32-9.35,4.17-14.13-.62Z"/> <path d="M271.77,333.36c4.88-4.92,15.3,1.68,20.98,1.62s10.47-7.66,14.7-5.62,10.79,13.12,8.61,11.2c-6.21-5.49-6.68-8.21-11.76-5.62-5.08,2.59-12.32,4.21-16.68,2.67s-15.85-4.24-15.85-4.24Z"/> <path d="M328.98,307.52c-14.51-15.06-21.47-35.31-19.25-58.08,4.33,13.38,6.97,26.34,14.23,35.78-.02,1.14-.35,1.69-1.27,1.94-2.73.41-1.09,2.28-.73,2.95,2.92,5.54,5.96,10.95,9.02,16.9-.49,1.48-1.07,1.7-1.99.51Z"/> <path d="M391.3,284.62c-.44.17-.68.08-.97-.3-1.34-3.2-3.43-5.7-4.97-8.53-1.4-2.56-3.74-4.19-5.42-6.49-2.8-3.84-7.67-5.19-12.74-5.03-.41-.1-.48-.33-.14-.64,9.05-2.5,21.22,6.06,24.05,19.22.08.2.06.31.13.59.15.46.19.75.07,1.16h0Z"/> <path d="M339.75,290.27c1.78,1.68,3.26,3.25,4.83,5.18-.23.8-.66.93-1.44.6-2.01-1.76-3.77-3.33-5.24-4.94.7-.34,1.12-.64,1.85-.83h0Z"/> <path d="M344.77,295.26c1.66,1.91,3.44,3.44,3.49,7.03-2.04-2.54-3.45-4.29-4.61-6.15.44-.42.64-.73,1.12-.87h0Z"/> <path d="M331.56,273.51c1.61,1.02,2.92,1.94,4.22,2.86-1.76-.72-4.06.84-5.36-1.49.3-.65.56-1.06,1.14-1.37h0Z"/> <path d="M351.88,327.1c-.67-3.57-1.03-6.83.27-9.57.09,3.6.04,6.74-.27,9.57Z"/> <path d="M350.48,313.88c-.1-2.14-.12-3.85-.3-5.86.13-.7.51-.84,1.08-.37.13.7.17,1.11.35,1.77.26.83.35,1.4.35,2.36-.01,1.11-.1,1.84-.38,2.61-.47-.02-.74-.06-1.1-.51h0Z"/> <path d="M348.36,302.5c2.35,1.67,2.43,3.34,2.64,4.99-.32.37-.48.61-.91.59-.66-1.71-1.07-3.18-1.73-5.58Z"/> <path d="M344.78,315.6c.46.92.92,1.84,1.12,2.79-.62,0-.97-.02-1.43-.32.03-1.01.17-1.74.31-2.47Z"/> <path d="M345,321.45c.28,1.11.31,1.98.14,2.6-.27-1.11-.32-1.97-.14-2.6Z"/> <path d="M351.69,311.19c-.21-.83-.21-1.42,0-1.8.22.83.21,1.43,0,1.8Z"/> <path d="M293.14,104.35"/> <path d="M393.2,312.82c11.37.53,19.4-4.78,25.94-13.07-8.29,13.72-16.26,17.86-28.07,14.33.24-1.21.87-1.49,2.13-1.26Z"/> <path d="M426.93,286.3c-2.14.39-3.79-1.45-3.87-4.02-.04-1.25.51-1.7,1.79-2.09,1.47-.45,1.69.39,2.05,1.19.71,1.55.44,3.18.03,4.93h0Z"/> <path d="M429.36,290.62c2.71,1.67,3.84,6.27,2.33,8.51-.76,1.13-1.46.49-1.93-.27-1.6-2.58-2.31-5.26-.38-8.24h0Z"/> <path d="M425.36,321.29c.65-.36,1.72-.62,2.2.26.48.9.3,1.96-.62,2.58-2.22,1.48-4.15,3.63-7.31,3.03.29-3.74,3.33-4.51,5.74-5.87Z"/> <path d="M435.65,307.54c-.01.72-.18,1.1-.64,1.69-.61.75-.91,1.31-1.41,2.14-.83,2.16-.37,4.54-2.89,5.8-3.25-3.47-1.94-7.08-.16-10.32,1.49-2.7,3.54-2.39,5.11.69h0Z"/> <path d="M407.01,331.42c-.17.31-.36.34-.71.14-.47-.81-1.9-1.05-.76-2.08,1.36-1.22,2.96-1.93,4.74-2.32,1.38-.3,3-.7,3.75.69.88,1.64-2.2.83-2.14,2.52-.28-.06-.33-.21-.61-.53-1.58.3-3.14.2-4.26,1.58h0Z"/> <path d="M418,266.15c0,.58-.02,1-.61,1.26-.52.71-1.25,1.69-1.77,1.25-.86-.73-.74-2.1-.78-3.27,1.08.28,2.04.89,3.16.75h0Z"/> <path d="M411.69,333.08c-1.71,1-3.9,1.3-4.31-.27-.42-1.62,2.03-1.49,3.29-2,.11-.05.26-.01.44.21.27.75.51,1.28.58,2.06h0Z"/> <path d="M419.66,260.67c.17.07.26.06.35.04-.05-.05-.1-.13-.15-.13-.14-.02-.29-.02-.43,0-.64.14-1.19,1.44-1.88.16-.05-.1.54-.67.92-.85.63-.31.98.07,1.18.78h0Z"/> <path d="M418.03,270.88c-.04.44-.07.99-.1.99-1.17.01-1.27-1.13-1.83-1.77-.21-.24-.13-.67.25-.74.84-.14.77.86,1.29,1.14.13.07.26.15.38.37h0Z"/> <path d="M417.61,263.01c-.86.21-.5,1.51-1.58,1.4-.14-.02-.31-.33-.36-.53-.17-.67.16-1.16.61-1.61.89-.88.83,1.34,1.71.63,0,.11-.19.2-.37.12Z"/> <path d="M418,270.7s.04.04.14-.13c-.01-.67-.38-1.3.17-1.63.45-.27.87.25,1.11.62.26.4.89.86.36,1.41-.66.68-1.16-.43-1.79-.27h0Z"/> <path d="M422.83,261.15c-.48-.2-.8-.39-1.22-.64.79-.39,1.56-.58,2.01,0,.58.76-.3.53-.79.64h0Z"/> <path d="M418.1,266.1c.39.67.71,1.26.07,1.74-.28.21-.57-.05-.6-.59,0-.58-.03-1.02.52-1.15h0Z"/> <path d="M417.58,264.41c-.12-.47-.12-.92.27-1.33.13-.1.15-.19.2-.38.28.64.12,1.21-.47,1.71Z"/> <g> <path d="M417.94,256.52c-.57-.04-.8-.25-.48-.8.82-.25,1.49-.47,2.18-.56,3.27-.4,5.8.87,7.51,3.62,1.51,2.44,1.67,4.95-.33,7.33-.41-.39-.39-.7,0-1.14.96-4.83-3.59-9.18-8.88-8.47h0Z"/> <path d="M426.36,266.37c-.66.54-.9,1.65-2.09,1.23.69-.84,1.31-1.61,1.93-2.23.07.37.14.62.17,1h0Z"/> <path d="M417.78,256.66c-.9.33-1.66.59-2.61.84-.17-.13-.16-.25-.03-.47.74-.43,1.36-.76,2.04-.96.28.25.51.38.61.58h0Z"/> <path d="M415.09,257.96c-.7.62-1.33,1.11-2.28,1.85.41-1.43,1.08-2.09,2.11-2.4.14.23.19.32.17.56Z"/> </g> <path d="M421.88,329.28c.61-1.46,1.68-1.89,2.61-2.47-.01,2.14-1.38,1.89-2.61,2.47Z"/> <path d="M416.08,300.05c.61-.57.83-1.2,1.64-.71-.34,2.03-1.17,3.42-3.06,5.31.55-2.11.85-3.29,1.41-4.61h0Z"/> <path d="M418.95,295.1c-.02-.4.09-.59.36-.53.08.44-.04.62-.36.53Z"/> <path d="M436.9,311.66c-.32,1.34-.6,2.23-1.45,3.28-.89.99-1.66,1.2-1.4-.08.28-1.33,1-2.59,1.72-4.14.5-.8.69-1.51,1.51-.81-.17.6-.26.94-.38,1.75h0Z"/> <path d="M320.97,251.57c.58-.29.92-.26,1.41.03,2.52,2.9,5.93,4.89,8.65,7.36,2.46,2.24,6.06,3.26,8.86,5.15,4.68,3.16,11.73,3.19,18.74,1.62.58-.01.73.21.33.62-12.08,5.07-30.74-.33-37.35-13.03-.16-.18-.14-.3-.3-.57-.3-.44-.41-.72-.34-1.17h0Z"/> <g> <g> <path d="M330.78,413.97c1.15,2.08,3.02,3.51,2.53,6.3-2.82-.26-4.36-2.18-5.83-4.06-1.11-1.42-2.58-3.56-1.03-4.79,1.86-1.47,2.91,1.08,4.33,2.54h0Z"/> <path d="M342.65,427.88c-.62.43-1.04.56-1.8.6-1.83-1.23-3.82-2.08-3.93-4.4-.01-.27.71-.86,1.03-.82,2.16.27,3.31,1.98,4.6,3.46.2.23.22.61.1,1.16h0Z"/> <path d="M320.5,396.7c1.31.56,1.82,1.38,2.25,2.7.36,2.12,2.25,4.16-1.09,5.28-2.09-2.56-3.55-5.05-1.17-7.97h.01Z"/> <path d="M318.46,388.27c.34-1.79-.06-3.29.83-4.88.85-.21,1.29-.04,1.74.73.1,1.9.17,3.39.11,4.88-.04,1.01-.39,2.18-1.62,1.96-1.02-.19-1.42-1.26-1.06-2.7h0Z"/> <path d="M322,398.48c.55-.04.77.08,1.13.55.78,1.98,1.55,3.58,1.99,5.26.2.77.55,2.07-.92,2.35-1.45.27-2.14-.42-2.1-2.19,1.4-2.31-.44-3.97-.09-5.97h0Z"/> <path d="M345.66,429.24c-.25,1.33-1.6.59-2.42.38-.74-.19-1.38-.74-2.06-1.38.32-1.55.97-1.3,2.03-.57,1.11.5,2.63.6,2.45,1.57Z"/> <path d="M318.99,383.89c-.46.12-.66-.06-.9-.59.02-1.5.52-3.12,1.4-3.01,1.75.22,1.21,2.13,1.17,3.4-.66-.03-1.04-.07-1.68.21h0Z"/> <path d="M324.91,360.48c-.04-.44.1-.61.54-.68.69,1.08,1.07,2.07,1.24,3.24-.37,1.29-.52,2.39-.9,3.14-.39-2.04-.54-3.74-.88-5.7Z"/> <path d="M358.82,340.24c-1.32-.49-1.66-1.46-1.32-2.82.43-1.05.56-1.93.91-2.52.65,1.94,1.34,3.58.41,5.34Z"/> <path d="M321.48,398.48c-.58-.72-.97-1.29-1.22-2.14,2.28-.68,2.35.97,2.39,2.33-.54-.01-.76-.02-1.17-.19h0Z"/> <path d="M319.22,383.97c-.13,1.83.25,3.38-1.02,4.21-.09-1.78-.08-3.15.2-4.66.47-.07.66,0,.82.45h0Z"/> <path d="M324.88,360.51c-.68-1.16-1.45-2.29-.11-2.86.4-.17.37,1.3.38,2.31,0,.44-.03.61-.27.55h0Z"/> <path d="M331.82,323.91c.25,1.44.29,2.6.16,3.45-.23-1.45-.3-2.59-.16-3.45Z"/> <path d="M374.17,342.55c.65-.26.92-.36,1.44-.27.28.52.45,1.12.31,1.17-.88.26-1.55-.19-1.75-.88h0Z"/> <path d="M352.23,356.29c-3.75,8.34-6.38,17.04-7.05,26.44-.73,10.33.37,20.31,4.83,29.49,1.47,3.02,3.19,6.15,5.46,8.33,2.57,2.46,5.82,4.16,9.45,3.92,3.71-.25,6.77-1.9,8.38-5.93,1.52-3.8.87-7.29-1.58-10.46.71.36,1.42.77,1.92,1.38,2.46,3.02,2.82,8.05.9,11.77-2.65,5.15-8.35,7.43-13.69,5.5-5.08-1.83-8.66-5.77-11.52-10.65-4.46-7.63-6.44-16.22-6.97-25.23-.62-10.7.9-21.04,4.54-30.97,2.07-5.67,4.42-11.25,5.24-17.39.42-3.1.46-6.27.68-9.46.3.69.61,1.41.92,2.13.16-.03.32-.07.48-.1-.17-3.29-.23-6.6-.54-9.87-.31-3.31-.81-6.6-1.31-9.88-.49-3.2-1.08-6.39-1.62-9.58,1.23,2.66,2.29,5.36,3.29,8.09,2.97,8.17,4.84,16.55,3.46,25.62-.84,6.08-2.88,11.55-5.27,16.86Z"/> <path d="M332.45,395.17c.19,2.16.19,4.18-.76,6.07-.99,1.97-2.68,2.12-3.79.22-1.4-2.41-1.61-5.05-.84-7.7.3-1.02.95-1.94,1.58-3.17.42.74.62,1.09.84,1.47.36-.41.64-.73.91-1.04,1.26.92,1.62,1.65,2.06,4.15M329.7,393.85c-.18.02-.37.05-.55.07-.68,1.72-.62,3.43.16,5.12.14.02.28.04.42.06.12-.77.24-1.55.37-2.32-.13-1.14-.27-2.04-.4-2.93Z"/> <path d="M339.48,410.53c-.05.74-.03,1.38-.19,1.98-.22.86-.71,1.26-1.52.49-.04-.04-.15,0-.23.02-.04.3-.07.59-.11.9-3.61-.97-6.12-8.09-3.9-11,.28.24.56.48.93.79.27-1.77,1.15-.89,1.69-.43,2.21,1.84,2.98,4.4,3.33,7.25M336.4,410.71c.88-1.79,0-4.28-1.71-5.17.05.82.1,1.49.14,2.15.54,1.07.99,1.92,1.56,3.02Z"/> <path d="M328.4,380.68c1.17-1.3,1.2-2.78.98-4.29-.17-1.17.15-2.16.93-3.2.35.45.66.77.88,1.15,1.31,2.26.76,7.57-.96,9.54-1.29,1.48-2.84,1.19-3.42-.77-.83-2.81-.59-5.62.59-8.31.21-.47.67-.84,1.01-1.25l.47.19c-.15,1.08-.3,2.15-.47,3.35-.02,1.28-.02,2.44-.02,3.6Z"/> <path d="M332.31,359.3c-.35-2.15-.78-4.19.12-6.25.32.2.58.37.86.54.13-.52.23-.95.39-1.6,2.43,1.81,2.94,4.31,3.1,6.86.12,1.88-.14,3.76-1.96,4.99-1.62-1.11-2.11-2.73-2.5-4.53M333.36,355.62c.25,1.35.49,2.7.74,4.04l.45-.09c.49-1.33-.03-2.56-.44-3.81-.31-.17-.53-.16-.74-.15Z"/> <path d="M343.08,425.17c-2.55-2.41-4.2-5.79-3.05-6.33.29.16.62.34,1.06.58v-1.28c2.85.17,7.1,4.74,6.75,7.18-.41-.07-.82-.15-1.37-.24.32.56.55.97.8,1.4-1.58.37-2.24.17-4.19-1.31M342.02,420.47c.49,2,1.82,3.3,3.47,3.45-.55-.79-.99-1.42-1.43-2.05-.68-.5-1.23-.86-2.04-1.4Z"/> <path d="M357.45,431.19c-3.08.93-5.97-.3-6.91-2.86,1.4.32,2.6.59,3.88.91,1.07.68,2.05,1.31,3.02,1.95Z"/> <path d="M329.65,341.16c.75,1.5,1.5,3.02,1.88,4.63.17.73-.38,1.62-.7,2.38-1.65-2.19-2.17-4.97-1.18-7.02Z"/> <path d="M334.69,405.54c1.71.89,2.59,3.38,1.71,5.17-.58-1.09-1.03-1.95-1.52-2.91-.09-.77-.13-1.44-.19-2.26Z"/> <path d="M334.55,359.58l-.45.09c-.25-1.35-.49-2.7-.74-4.04.21-.01.43-.03.69.05.46,1.34.99,2.57.49,3.9Z"/> <path d="M345.49,423.92c-1.65-.14-2.97-1.44-3.47-3.45.81.54,1.36.9,1.97,1.33.5.7.94,1.33,1.49,2.12Z"/> </g> <g> <path d="M360.8,409.42c1.03-.21,2.31.81,2.66,2.1.38,1.39-.12,2.22-1.2,2.64-2.01.78-4.97-.43-7.32-2.88-3.57-3.74-4.64-7.39-3.75-10.81.91-3.5,3.68-5.15,7.41-5.78,2.46-.41,5.15-.06,8.05,1.04.28.11.61.16.81.52-.15.32-.66-.06-.96.1.96.34,1.85.88,2.72,1.06.06-.19-.33-.36-.07-.49.54.33,1.04.82,1.64,1.11.47.22.95.31,1.41.61,1.31.86,2.57,1.61,3.54,3.04.84,1.23,1.72,2.56,2.98,3.63.08.07.2.2.19.26-.05.6.56,1.08.92,1.6.4.58.71,1.16.84,1.75.08.4.14.81-.28.9-.41.09-.83-.22-1.19-.56-.86-.83-1.43-1.77-1.71-2.72-.21-.71-.33-1.4-.87-2.11-1.21-.11-3.53-1.91-4.07-3.18-.21-.51-.06-.71.45-.57.36.09.73.26,1.09.39-.91-.76-1.82-1.52-2.94-1.69.19.58-.07.78-.61.62-1.1-.31-2.21-.65-3.11-1.71-.12-.14-.23-.25-.39-.24-.19,0-.13.16-.1.3.03.11.03.22.04.32-.1.01-.16.04-.22.03-.55-.15-1.09-.32-1.64-.46-4.9-1.26-8.91-.93-11.25,2.16-1.23,1.62-1.48,3.76-.53,6.31.85,2.31,2.3,4.42,4.85,5.87,1.84,1.04,3.62,1.02,4.36.03.57-.75.03-2.49-1.46-2.88-.13-.03-.24-.12-.28-.3M379.51,408.37c.36-.31-.08-1.07-.94-1.63.16.6.55,1.12.94,1.63M375.37,402.87c-.34-.43-.73-.79-1.32-1.02.28.55.73.84,1.15,1.15.33.13.25-.02.17-.13Z"/> <path d="M359.67,401.09c-.23.46-.76.72-1.44.61-.47-.07-1.09-.16-1.43-.72-.33-.54-.02-.86.31-1.07.53-.33,1.13-.56,2.05-.27.61.53.7,1.08.52,1.44Z"/> <path d="M362.49,398.93c.44.16.91.27,1.09.85.17.57-.07.81-.55.87-.65.08-1.31,0-2.07-.47-.28-.17-.62-.22-.74-.58-.11-.35.05-.54.29-.66.4-.2.9-.21,1.48-.13.2.04.35.07.5.12Z"/> <path d="M356.47,401.73c.34.33.28.68.23.98-.09.52-.44.83-.88,1.06-.17.09-.4.13-.67-.06-.27-.19-.34-.43-.36-.66-.06-.63.17-1.08.66-1.4.33-.11.63-.3,1.02.07Z"/> <path d="M367.11,400.08c.26.19.5.43.49.7-.01.3-.27.34-.58.29-.52-.09-1.04-.31-1.56-.56-.34-.17-.78-.32-.84-.72-.07-.42.34-.41.7-.38.12,0,.24.04.42.08.5.15.95.29,1.38.6Z"/> <path d="M355.14,406.61c-.39-.12-.48-.51-.56-.8-.12-.42-.14-.82.01-1.14.06-.14.15-.29.38-.21.25.08.32.3.36.48.07.36.12.72.17,1.13-.02.3,0,.64-.36.53Z"/> <path d="M355.57,407.59c.42.31.58.65.61,1.03-.3,0-.39-.21-.55-.42-.11-.25-.3-.47-.06-.61Z"/> </g> </g> <path d="M405.9,338.17c-.23.41-.48.6-.95.84-.28.16-.34.27-.56.36-12.35,8.01-28.37,5.26-33.43-3.66-.02-.5.21-.62.6-.39,3.79,4.03,8.6,6.74,13.73,5.93,3.07-.49,6.14.06,9.2-.85,3.37-1,6.92-1.33,10.43-2.77.52-.06.77.05.98.52h0Z"/> <path d="M354.18,297.48h0c-.32-1.11-.25-1.98-.49-3.18-.09-1.07-.09-1.79.13-2.76.7-.3,1.08-.14,1.48.6,1.03,2.12,1.94,3.89,2.85,5.67.47-.06.95-.11,1.42-.16,0-3.3,0-6.61.31-10.09.51-.03.71.1,1.02.56.11,1.02.11,1.71.06,2.79.02,3.57-.38,6.77.25,10.3,4.36,13.29,15.06,17.95,27.29,21.25-6.16,2.41-12.09,2.73-18.9.42,2.51,4.03,6.01,4.95,8.82,7.25-.89,1.25-1.86,1.34-3.22.44-4.23-1.03-7.68-2.94-11.06-4.94-1.21-.72-3.51-1.03-1.89-3.53,1.23.22.63-.9,1.03-1.34-4.64-7.29-7.44-14.9-9.11-23.29h0Z"/> <path d="M423.18,275.1c0,.58-.02,1-.61,1.26-.52.71-1.25,1.69-1.77,1.25-.86-.73-.74-2.1-.78-3.27,1.08.28,2.04.89,3.16.75h0Z"/> <g> <path d="M405.64,367.66c-.23.05-.34-.05-.39-.2-.47-1.76-2.7-1.56-3.69-.42-1.3,1.5-1.38,3.87-.07,5.75,1.81,2.61,4.51,3.43,7.48,3.34,3.29-.09,6.07-1.54,8.2-4.02,4.06-4.72,4.59-10.19,3.1-16.02-.17-.65-.37-1.28-.55-1.93-.02-.08.02-.18.04-.31.13-.04.27-.09.41-.11.18-.03.37-.04.39-.29.01-.22-.11-.31-.3-.4-1.35-.64-1.76-1.93-2.14-3.22-.19-.64.08-1.08.82-1.14-.19-1.4-1.15-2.2-2.11-3.01.16.41.37.81.48,1.24.16.61-.1.91-.76.9-1.63-.04-3.92-2.16-4.02-3.71-.91-.34-1.8-.14-2.71-.04-1.22.13-2.43-.13-3.48-.84-.44-.29-.82-.69-.7-1.28.13-.61.66-.74,1.18-.84.76-.15,1.5-.04,2.24.19.66.21,1.27.76,2.05.38.07-.04.24.05.33.12,1.36,1.1,3.05,1.57,4.63,2.03,1.83.53,2.77,1.81,3.85,3.09.38.45.48,1.04.76,1.55.35.64.97,1.05,1.39,1.59-.18.41-.4-.01-.64.16.2,1.06.88,1.94,1.3,3.04.21-.48-.26-.95.15-1.32.47.07.53.48.66.79,1.35,3.25,1.74,6.63,1.14,10.1-.91,5.26-3.13,9.79-7.69,12.83-4.46,2.98-9.17,3.48-13.92.71-3.12-1.82-4.61-5.1-3.54-8.17.57-1.65,1.67-2.75,3.46-2.98,1.66-.21,2.95.95,2.66,2.42M407.5,342.36c.65.24,1.31.49,2.09.38-.7-.83-1.67-1.02-2.09-.38M414.36,345.24c.39.4.75.84,1.46.92-.29-.66-.74-.99-1.29-1.21-.14-.06-.33-.08-.17.29Z"/> <path d="M418.28,364.71c.36,1.06.05,1.98-.4,2.85-.28.54-.7,1.12-1.39.96-.72-.16-.82-.94-.9-1.51-.12-.84.22-1.67.83-2.22.47-.43,1.18-.61,1.86-.07Z"/> <path d="M419.44,360.51c.08.74.05,1.4-.21,2.03-.16.37-.42.69-.86.72-.47.04-.52-.39-.74-.67-.58-.76-.67-1.59-.55-2.49.09-.68.4-1.12,1.14-1.19.76-.07.88.49,1.08,1,.06.17.09.35.14.59Z"/> <path d="M415.57,370.66c-.43.82-1.02,1.36-1.83,1.61-.29.09-.61.13-.84-.13-.24-.26-.18-.57-.06-.85.31-.7.72-1.32,1.4-1.72.39-.23.85-.49,1.27-.22.47.31.22.81.07,1.31Z"/> <path d="M418.66,355.92c.04.21.08.36.09.51.02.46.04,1-.51,1.12-.51.12-.7-.38-.91-.74-.32-.55-.58-1.13-.69-1.77-.07-.39,0-.75.39-.92.35-.16.66.03.89.28.39.41.55.93.74,1.52Z"/> <path d="M409.85,372.91c.53-.14.99-.27,1.46-.36.23-.05.51-.07.61.22.09.27-.1.46-.28.61-.42.37-.94.55-1.48.61-.38.04-.88.12-1.02-.33-.13-.42.32-.58.7-.76Z"/> <path d="M407.1,373.85c-.28-.09-.55-.1-.53-.5.49-.16.93-.13,1.32.27-.18.38-.47.25-.79.23Z"/> </g> <path d="M356.61,359.11c-.15-.39-.11-.99.17-1.98.17.33.09,1.05-.17,1.98Z"/> <path d="M360.33,279.46"/> <path d="M240.36,105.5"/> <path d="M294.26,105.5"/> <g> <path d="M369.25,246.83c1.59-.33,2.43.69,3.7.92-1.18,1.72-2.6,2.4-4.06,2.96-.81.31-1.98.77-2.51-.14-.56-.97.05-2.04.92-2.72.51-.4,1.12-.66,1.95-1.02h0Z"/> <path d="M389.73,252.65c.68-.62,1.26-.58,2.12.03-.95.22-1.65.38-2.37.43,0-.11.18-.21.26-.46h0Z"/> <path d="M413.37,185.18c-.01-.92.05-1.71.13-2.5.11-1.18.4-2.38.3-3.54-.67-8.34-9.03-15.24-18.3-12.93-.44.11-.83.49-1.22.77-1.62,1.15-3.24,2.31-4.86,3.47-.11-.14-.23-.29-.34-.43.82-.89,1.64-1.78,2.46-2.66-.51,0-.88.14-1.24.33-4,2.12-7.08,5.24-8.99,9.49-3.86,8.58-2.83,16.82,2.07,24.31,2.83,4.33,6.5,8.05,9.84,12,2.21,2.62,3.9,5.52,5.27,8.73,3.13,7.36.3,16.44-6.47,20.34-3.39,1.96-7.07,2.55-10.81,2.9-4.97.47-9.24,2.91-13.52,5.35-1.65.94-3.24,2.05-4.97,2.77-2.75,1.15-5.65,1.42-8.51.65-1.57-.42-3.04-1.24-4.56-1.88.05-.13.1-.26.15-.39.39.06.79.1,1.17.2,3.82,1.03,7.55.51,11.06-1.24,2.33-1.16,4.52-2.69,6.64-4.26,4-2.95,8.31-4.88,13.16-5.51,1.96-.25,3.97-.64,5.82-1.37,6.31-2.48,9.67-8.42,8.44-15.76-.85-5.06-3.78-9.04-7.27-12.46-3.83-3.75-7.24-7.8-9.58-12.77-4.42-9.36-3.21-20.6,3.3-28.38,5.67-6.78,12.71-9.7,21.15-7.29,6.64,1.89,11.34,7.79,11.84,14.5.21,2.8-.14,5.5-1.89,7.83-.07-.04-.13-.1-.25-.3Z"/> <path d="M414.01,234.12c-.33,1.36-1.02,2.58-2.58,2.97-.11-.53-.2-.95-.29-1.42-1.26.94-1.77.89-2.32-.45-.91-2.23-1.13-4.58-.4-6.96.13-.44.36-.87.64-1.23.32-.42.79-1.04,1.25-.33.38.58.85,1.68.6,2.02-.89,1.22-.81,2.45-.53,3.73.08.37.53.64.81.96.31-.35.84-.67.88-1.04.11-1.03.01-2.09,0-3.13-.02-.88-.05-1.76-.03-2.64,0-.07.38-.14.66-.16,2.14,2.27,1.99,4.96,1.33,7.68Z"/> <path d="M410.3,241.55c.15.34.24.48.27.63.57,2.85-2.52,7.23-5.29,7.46-.69.06-1.44,0-1.33-1.1.01-.11-.13-.34-.23-.35-.93-.15-.85-.91-.83-1.57.05-1.94,2.48-5.45,4.27-6.05.4-.14.95.22,1.43.35-.2.62-.27,1.35-.63,1.84-.48.65-1.32,1.01-1.75,1.68-.38.59-.4,1.43-.58,2.15.68-.33,1.55-.49,2-1.04.7-.85,1.13-1.95,1.73-3.02.33-.35.59-.63.94-.99Z"/> <path d="M406.32,214.24c-.23-.58-.39-1.01-.59-1.54,2.34.43,4.64,2.79,5.45,5.46.35,1.16.53,2.34-.41,3.71-.58-1.23-1.02-2.26-1.55-3.24-.53-.97-1.13-1.91-1.76-2.8-.13-.18-.67-.26-.84-.13-.2.15-.36.71-.25.88.58.91,1.28,1.74,1.89,2.64.37.56.78,1.16.92,1.81.09.38-.31.88-.49,1.32-.54-.23-1.28-.31-1.58-.73-1.14-1.61-2.24-3.27-3.13-5.04-.31-.62.04-1.62.09-2.44.65.12,1.3.25,1.95.37.11-.05.23-.09.28-.27Z"/> <path d="M402.87,208.78c-.03.23-.06.46-.2.77-.72-.2-1.33-.47-1.93-.73.03.69.06,1.25.08,1.81-.58,0-1.23.17-1.74-.04-2.05-.82-3.73-2.17-4.81-4.19-.28-.54-.26-1.26-.37-1.89.57-.02,1.13-.04,1.7-.07.11,0,.23,0,.44-.02-.2-.46-.37-.86-.55-1.27,2.65-.41,6.33,2.41,7.37,5.63M400.25,208.01c-.27-1.22-1.68-2.69-2.62-2.79-.52-.05-1.03-.02-.87.79,1.02,1.16,1.82,2.38,3.48,2Z"/> <path d="M386.66,194.61c.08.05.16.11.24.16.02-.06.05-.13.07-.35.02-.52.04-.87.07-1.25,2.62.57,5.58,4.9,4.95,7.14-.39-.18-.78-.36-1.22-.56.25,1.73-.12,2.2-1.36,1.64-2.27-1.03-3.76-2.85-4.37-5.37-.12-.51.12-1.13.2-1.7.47.1.95.2,1.42.3M387.21,196.55c.56.85,1.25,1.6,2.1,2.23.38-1.58-.52-2.42-1.43-3.25-.35.3-.78.86-.67,1.02Z"/> <path d="M384.34,190.34c-2.66-1.16-3.25-5.97-1.07-8,.05-.04.15-.03.35-.05.11.24.24.54.4.89.33-.34.57-.58.82-.83,1.05,1.2,1.6,3.44,1.41,5.42-.12,1.26-.55,2.22-1.91,2.57M384.21,187.97c.83-1.17.66-2.9-.28-3.61-.84,1.4-.43,2.49.28,3.61Z"/> <path d="M405.31,188.35c-2.26-1.25-2.99-4.78-1.25-6.29,0,0,0-.02.04.08-.59,1.66-.23,3,.9,4.12,1.46,1.43,3.68,1.6,5.49.37.74-.5,1.4-1.16,2.01-1.67.33.11.61.21.91.34.07.1.13.16.15.28-1.95,3.33-5.31,4.42-8.27,2.79Z"/> <path d="M393.68,255.51c-.15-.23-.16-.61-.33-.73-1.22-.86-3.45-.22-4.16,1.26.08.07.09.06.09.06-.19-.02-.39-.05-.56.06.03.13.02.11,0-.01-.57-.23-1.12-.34-1.66-.44.37-.6.62-1.39,1.14-1.78,1.47-1.09,3.17-1.51,4.97-1.3.95.11,1.89.31,2.41,1.27-.45.47-.83.86-1.2,1.25-.21.12-.41.23-.68.37Z"/> <path d="M396.08,255.79c-1.37,2.3-6.39,3.13-8.16,1.52.28-.35.56-.7.84-1.05,0,0,0,.02,0,.02.16,0,.33.02.51-.08.02-.11.02-.09.02-.09,1.39-.19,2.77-.37,4.32-.59.36-.15.57-.27.87-.38.6.22,1.09.43,1.61.65Z"/> <path d="M384.22,178.07c-.19-1.71.63-3.07,1.59-4.39.75-1.04,1.39.08,2.19-.21-.32,2.27-1.11,4.05-2.83,5.43-.38-.24-.92-.5-.96-.83Z"/> <path d="M411.58,241.75c-.48-2.45-.41-2.62,1.47-3.89-.11.42-.21.78-.33,1.24-.36.86-.69,1.63-1.14,2.65Z"/> <path d="M404.86,210.56l-.35.39c-.59-.43-1.17-.87-1.75-1.39.04-.32.07-.55.17-.73.69.62,1.3,1.17,1.92,1.73Z"/> <path d="M413.44,225.09c-1.64-1.63-1.71-1.84-1.16-3.47.17.37.31.65.46,1.03.21.77.41,1.44.7,2.44Z"/> <path d="M402.97,251.45c-.5.58-.85,1.13-1.32,1.5-.29.23-.78.19-1.16.27.01,0-.01,0,.09.02.66-.77.93-1.94,2.39-1.79Z"/> <path d="M404.11,182.01c.08-.01.12.03.15.06-.03.02-.07.07-.08.06-.05-.03-.09-.08-.13-.11,0,.01.01.03.06-.02Z"/> <path d="M406.33,214.32c-.06.1-.18.14-.23.12.1-.1.14-.14.23-.12Z"/> <path d="M389.31,198.78c-.85-.63-1.54-1.38-2.1-2.23-.11-.16.32-.72.59-1.05.99.86,1.89,1.7,1.51,3.28Z"/> <path d="M411.72,256.2c.09-.09.35-.16.55.03.3.32.42.46.44.77-.09.16-.35.43-.57.3-.4-.41-.5-.7-.42-1.09h0Z"/> </g> <g> <path d="M177.77,367.65c-.3-1.47.99-2.63,2.66-2.42,1.79.23,2.88,1.33,3.46,2.98,1.07,3.07-.42,6.36-3.54,8.17-4.75,2.76-9.46,2.27-13.92-.71-4.56-3.04-6.78-7.57-7.69-12.83-.6-3.47-.22-6.84,1.14-10.1.13-.31.19-.73.66-.79.41.36-.06.84.15,1.32.42-1.1,1.1-1.98,1.3-3.04-.24-.17-.46.25-.64-.16.42-.54,1.04-.95,1.39-1.59.28-.51.37-1.09.76-1.55,1.08-1.27,2.02-2.56,3.85-3.09,1.58-.46,3.27-.93,4.63-2.03.09-.07.26-.15.33-.12.78.38,1.38-.17,2.05-.38.74-.23,1.48-.34,2.24-.19.52.1,1.05.23,1.18.84.12.59-.26.99-.7,1.28-1.05.71-2.26.97-3.48.84-.92-.1-1.8-.3-2.71.04-.1,1.55-2.39,3.67-4.02,3.71-.66.02-.91-.29-.76-.9.11-.42.31-.83.48-1.24-.96.81-1.92,1.6-2.11,3.01.75.06,1.01.5.82,1.14-.38,1.29-.78,2.58-2.14,3.22-.18.09-.31.18-.3.4.02.25.21.26.39.29.14.02.28.07.41.11.02.14.06.23.04.31-.18.64-.38,1.28-.55,1.93-1.5,5.83-.97,11.3,3.1,16.02,2.13,2.47,4.91,3.92,8.2,4.02,2.97.08,5.67-.73,7.48-3.34,1.31-1.89,1.23-4.25-.07-5.75-.99-1.15-3.22-1.34-3.69.42-.04.16-.15.26-.39.2M175.91,342.35c-.42-.64-1.38-.45-2.09.38.78.11,1.43-.14,2.09-.38M168.88,344.94c-.55.22-1,.55-1.29,1.21.71-.08,1.07-.53,1.46-.92.16-.37-.03-.34-.17-.29Z"/> <path d="M166.99,364.78c.61.55.95,1.38.83,2.22-.08.58-.18,1.35-.9,1.51-.69.16-1.11-.42-1.39-.96-.44-.87-.76-1.79-.4-2.85.68-.53,1.38-.35,1.86.07Z"/> <path d="M164.11,359.91c.19-.51.32-1.07,1.08-1,.74.07,1.05.51,1.14,1.19.12.9.03,1.73-.55,2.49-.21.28-.26.71-.74.67-.44-.04-.7-.35-.86-.72-.27-.63-.29-1.3-.21-2.03.05-.24.08-.43.14-.59Z"/> <path d="M167.91,369.34c.42-.28.87-.01,1.27.22.68.4,1.09,1.02,1.4,1.72.12.28.18.59-.06.85-.24.26-.55.22-.84.13-.82-.26-1.41-.79-1.83-1.61-.15-.5-.4-.99.07-1.31Z"/> <path d="M165.48,354.4c.24-.25.54-.44.89-.28.39.17.45.53.39.92-.11.64-.37,1.22-.69,1.77-.21.36-.4.86-.91.74-.55-.13-.54-.66-.51-1.12,0-.15.05-.3.09-.51.18-.59.35-1.11.74-1.52Z"/> <path d="M174.26,373.66c-.14.45-.64.37-1.02.33-.54-.06-1.06-.25-1.48-.61-.18-.16-.38-.35-.28-.61.1-.29.38-.27.61-.22.47.09.93.22,1.46.36.38.18.83.34.7.76Z"/> <path d="M175.52,373.61c.39-.4.83-.43,1.32-.27.02.4-.26.41-.53.5-.32.02-.61.15-.79-.23Z"/> </g> <path d="M254.53,201.5c2.09,1.29,3.66,2.46,6.22,1.67-3.02-4.71-5.54-9.41-8.8-13.51-2.31-2.89-2.52-4,2.28-4.07-12.86-9.6-22.39-20.64-24.19-37.07-.26-.54-.41-.64-.68-.51-.98,4.47.04,8.69.19,13.85-7.05-11.44-6.46-22.69-3.18-34.08,1.11-3.87,2.32-7.8,4.75-11.2.51-.73.48-1.84.69-2.77-1,.41-2.09.48-2.79,1.65-5.34,8.91-9.42,18.2-9.7,28.85-.45,16.83,5.22,31.45,15.78,44.72,1.42.25,1.46-.5,1.08-1.63-2.11-5.55-5.6-10.19-6.48-16.65,5.45,6.41,10.35,12.34,17.13,16.32,1,.58,1.5,2,2.55,3.19.84.51,1,1.1,1.44,1.84.33.64.46,1.05.81,1.72.35.69.49,1.12.91,1.77.26.41.27.6.39,1.04-.5,1.32.08,2.34.57,3.63.39.5.47.73,1.01,1.27l.02-.03Z"/> <path d="M282.2,194.5c3.27,5.86,2.01,12.73-.24,18.78-.11.31-.46.83-.43.85,5.01,3.39-4.98,7.31-3.8,10.7-2.58-6.26-7.49-2.31-10.45-8.2h7.1c.54-1.75,1.05-1.15,1.35-2.59.21-.12-2.07-4.63-1.91-4.56,5.4,2.15,7.01,3.21,7.16-2.66.08-3.11-.61-6.24-1-9.79-.26-.93-1.78-11.04-.95-11.26l3.16,8.74Z"/> <path d="M236.95,219.18c3.53,8.92,10.56,13.79,22.74,13.78,1.71-.74,2.98-.97,4.27.1-14.44,6.12-28.19-1.36-29.2-15.91,2.69-.95,1.41.96,2.18,2.02h0Z"/> <path d="M251.06,211.94c-10.19-.68-10.3-.75-12.88-9.74,4.75,7.28,14.37,4.81,19.76,11.03-2.17-.41-4.34-.83-6.88-1.29Z"/> <path d="M264.31,194.6c.13-.68.4-1.05.73-1.68,1.82,2.34,5.46,3.69,5.19,7.92-1.96-1.76-3.87-3.85-5.92-6.25h0Z"/> <path d="M257.17,168.96c-.25.8-.53,1.26-.88,2.02-.73-1.12-1.4-2.53-2.09-4.28-.27-.62-.34-.88-.22-1.12.12-.22.22-.34.67-.3,1.06,1.14,1.77,2.24,2.52,3.67h0Z"/> <path d="M275.42,237.98c-.56-1-3.45.23-2.69-2.01.4-1.19,1.4-1.89,2.52-.07.36.73.47,1.22.17,2.08Z"/> <path d="M248.03,245.05c-1.5.39-2.15-.7-3.29-1.51.6-1.3,0-3.12,1.86-3.67-.2,1.41.11,2.31,1.27,3.28.26.69.29,1.14.16,1.9h0Z"/> <path d="M244.06,221.09c-.47-.52-.83-1.42-1.45-2.47-.36-1.18-.14-2.32.98-2.27,1.01.05.48,1.27.57,1.97.1.79.02,1.59-.1,2.77Z"/> <path d="M282.17,205.01c-.28.51-.56.7-.95,1.13-1.35-.76-1.29-1.95-.63-3.23.53.6,1.06,1.19,1.58,2.11h0Z"/> <path d="M264.42,238.12c-.76-1.17-1.82-.62-2.97-.83.92-.4,2.25-1.16,3.4-.94,2.21.41.24,1.13-.43,1.78h0Z"/> <path d="M253.32,164.36c-1.52-.88-1.35-2.06-.83-3.3.5.56.99,1.12,1.55,1.98-.09.63-.26.95-.72,1.32Z"/> <path d="M275.22,238.58c0-.75.01-1.22.07-2.05.93.6,1.39,1.64.54,2.86-.38.54-.99.21-.42-.13.02,0-.11-.27-.19-.68Z"/> <path d="M253.14,164.7c.1-.58.27-.89.71-1.28.51.4.77.88,1.09,1.64-.21.41-.42.62-.67,1.1-.42-.26-.73-.72-1.13-1.46h0Z"/> <path d="M248.06,243.08c-1.68.15-2.01-.85-1.34-2.62.59.58.94,1.45,1.34,2.62Z"/> <path d="M245.68,239.16c-.17-.77-.06-1.33.04-1.9.59.64,1.37,1.27-.04,1.9Z"/> <path d="M263.37,184.07c-.15-.32-.16-.9.03-1.7.17.33.14.89-.03,1.7Z"/> <path d="M263.71,247.79s0,.02,0,0Z"/> <path d="M236.38,104.34"/> <path d="M246.76,223.01c-.61-.82-1.26-1.51-1.67-2.32-.55-1.08.11-2.22,1.27-2.12,1.69.15,3.36.53,5.04.81,0,.12-.01.25-.02.37l-1.76.42c1.32,2.83,4.78,3.78,8.22,2.48.93-.36,2.02-.31,3.06-.26-4.78,4.79-9.29,4.94-14.13.62Z"/> <path d="M311.64,333.35c-4.88-4.92-15.3,1.68-20.98,1.62s-10.47-7.66-14.7-5.62c-4.23,2.04-10.79,13.12-8.61,11.2,6.21-5.49,6.68-8.21,11.76-5.62,5.08,2.59,12.32,4.21,16.68,2.67s15.85-4.24,15.85-4.24Z"/> <path d="M252.44,307.01c3.05-5.95,6.09-11.36,9.02-16.9.36-.67,2.01-2.55-.73-2.95-.92-.25-1.25-.8-1.27-1.94,7.25-9.44,9.89-22.4,14.23-35.78,2.22,22.77-4.74,43.02-19.25,58.08-.92,1.19-1.5.97-1.99-.51Z"/> <path d="M192.11,284.6c-.11-.41-.07-.7.07-1.16.07-.28.05-.39.13-.59,2.82-13.16,14.99-21.73,24.05-19.22.34.31.26.54-.14.64-5.07-.16-9.94,1.19-12.74,5.03-1.68,2.3-4.02,3.93-5.42,6.49-1.54,2.83-3.63,5.33-4.97,8.53-.3.37-.53.46-.97.3h0Z"/> <path d="M243.66,290.27c.73.19,1.15.49,1.85.83-1.47,1.61-3.23,3.18-5.24,4.94-.78.33-1.21.2-1.44-.6,1.57-1.93,3.05-3.5,4.83-5.18h0Z"/> <path d="M238.64,295.26c.48.14.68.45,1.12.87-1.16,1.86-2.57,3.61-4.61,6.15.05-3.59,1.83-5.12,3.49-7.03h0Z"/> <path d="M251.85,273.5c.58.31.84.72,1.14,1.37-1.3,2.33-3.6.77-5.36,1.49,1.3-.92,2.61-1.84,4.22-2.86h0Z"/> <path d="M231.26,317.52c1.3,2.74.94,6,.27,9.57-.31-2.83-.36-5.97-.27-9.57Z"/> <path d="M232.93,313.87c-.36.45-.63.49-1.1.51-.28-.77-.37-1.5-.38-2.61,0-.96.09-1.53.35-2.36.18-.66.22-1.07.35-1.77.57-.47.95-.33,1.08.37-.18,2.01-.2,3.72-.3,5.86h0Z"/> <path d="M233.32,308.07c-.43.02-.59-.22-.91-.59.21-1.65.29-3.32,2.64-4.99-.66,2.4-1.07,3.87-1.73,5.58Z"/> <path d="M238.94,318.06c-.46.3-.81.32-1.43.32.2-.95.66-1.87,1.12-2.79.14.73.28,1.46.31,2.47Z"/> <path d="M238.27,324.04c-.17-.62-.14-1.49.14-2.6.18.63.13,1.49-.14,2.6Z"/> <path d="M231.71,309.38c.22.38.22.97,0,1.8-.22-.37-.23-.97,0-1.8Z"/> <path d="M290.27,104.34"/> <path d="M192.34,314.06c-11.81,3.53-19.78-.61-28.07-14.33,6.54,8.28,14.57,13.6,25.94,13.07,1.26-.23,1.89.05,2.13,1.26Z"/> <path d="M156.47,286.29c-.41-1.75-.68-3.38.03-4.93.36-.8.58-1.64,2.05-1.19,1.28.39,1.83.84,1.79,2.09-.08,2.57-1.72,4.41-3.87,4.02h0Z"/> <path d="M154.04,290.61c1.92,2.98,1.21,5.66-.38,8.24-.48.76-1.17,1.4-1.93.27-1.51-2.24-.38-6.84,2.33-8.51h0Z"/> <path d="M163.79,327.15c-3.16.6-5.1-1.56-7.31-3.03-.92-.61-1.1-1.68-.62-2.58.48-.88,1.55-.62,2.2-.26,2.41,1.36,5.45,2.13,5.74,5.87Z"/> <path d="M147.76,307.52c1.57-3.08,3.62-3.38,5.11-.69,1.78,3.25,3.08,6.85-.16,10.32-2.52-1.26-2.06-3.64-2.89-5.8-.5-.83-.8-1.39-1.41-2.14-.45-.58-.63-.97-.64-1.69h0Z"/> <path d="M176.4,331.41c-1.11-1.38-2.67-1.28-4.26-1.58-.28.32-.33.48-.61.53.05-1.69-3.02-.88-2.14-2.52.75-1.39,2.37-.99,3.75-.69,1.77.38,3.38,1.1,4.74,2.32,1.14,1.02-.29,1.27-.76,2.08-.35.2-.54.17-.71-.14h0Z"/> <path d="M165.41,266.13c1.12.14,2.08-.48,3.16-.75-.04,1.17.09,2.54-.78,3.27-.52.44-1.26-.54-1.77-1.25-.59-.26-.61-.68-.61-1.26h0Z"/> <path d="M171.72,333.07c.07-.77.3-1.31.58-2.06.18-.22.33-.26.44-.21,1.27.51,3.71.38,3.29,2-.41,1.57-2.6,1.28-4.31.27h0Z"/> <path d="M163.74,260.67c.21-.71.55-1.09,1.18-.78.38.19.97.75.92.85-.69,1.28-1.24-.02-1.88-.16-.14-.03-.29-.02-.43,0-.05,0-.1.09-.15.13.09.02.18.03.35-.04h0Z"/> <path d="M165.38,270.87c.12-.22.25-.3.38-.37.53-.28.45-1.28,1.29-1.14.38.06.46.5.25.74-.57.64-.67,1.79-1.83,1.77-.03,0-.06-.55-.1-.99h0Z"/> <path d="M165.43,262.89c.88.71.82-1.51,1.71-.63.45.45.78.94.61,1.61-.05.2-.22.52-.36.53-1.08.12-.72-1.18-1.58-1.4-.18.09-.38,0-.37-.12Z"/> <path d="M165.41,270.68c-.63-.17-1.13.94-1.79.27-.53-.55.1-1,.36-1.41.24-.37.66-.89,1.11-.62.56.34.19.96.17,1.63.1.17.13.14.14.13h0Z"/> <path d="M160.58,261.15c-.49-.11-1.37.12-.79-.64.45-.59,1.22-.39,2.01,0-.42.25-.74.44-1.22.64h0Z"/> <path d="M165.31,266.1c.55.13.52.57.52,1.15-.03.54-.32.8-.6.59-.64-.48-.32-1.08.07-1.74h0Z"/> <path d="M165.37,262.69c.04.19.06.28.2.38.39.42.39.86.27,1.33-.59-.5-.74-1.06-.47-1.71Z"/> <g> <path d="M165.46,256.51c-5.28-.71-9.84,3.64-8.88,8.47.4.44.42.75,0,1.14-2.01-2.38-1.85-4.89-.33-7.33,1.71-2.75,4.25-4.02,7.51-3.62.68.08,1.36.31,2.18.56.32.55.09.76-.48.8h0Z"/> <path d="M157.04,266.36c.03-.39.1-.63.17-1,.62.63,1.24,1.39,1.93,2.23-1.19.42-1.43-.7-2.09-1.23h0Z"/> <path d="M165.62,256.64c.1-.21.34-.33.61-.58.67.2,1.3.53,2.04.96.13.22.14.34-.03.47-.95-.25-1.72-.51-2.61-.84h0Z"/> <path d="M168.49,257.39c1.03.31,1.69.97,2.11,2.4-.95-.74-1.58-1.22-2.28-1.85-.02-.23.03-.33.17-.56Z"/> </g> <path d="M158.92,326.79c.94.58,2,1.02,2.61,2.47-1.24-.58-2.6-.33-2.61-2.47Z"/> <path d="M167.34,300.03c.55,1.32.86,2.49,1.41,4.61-1.89-1.89-2.72-3.28-3.06-5.31.81-.49,1.03.14,1.64.71h0Z"/> <path d="M164.1,294.56c.27-.05.38.13.36.53-.32.09-.44-.09-.36-.53Z"/> <path d="M146.52,311.65c-.12-.81-.21-1.15-.38-1.75.81-.7,1.01.01,1.51.81.72,1.56,1.44,2.81,1.72,4.14.26,1.29-.51,1.07-1.4.08-.86-1.05-1.13-1.94-1.45-3.28h0Z"/> <path d="M262.44,251.57c.07.45-.04.73-.34,1.17-.16.27-.14.39-.3.57-6.61,12.7-25.28,18.1-37.35,13.03-.41-.41-.26-.63.33-.62,7.01,1.57,14.06,1.53,18.74-1.62,2.8-1.89,6.39-2.91,8.86-5.15,2.72-2.47,6.13-4.45,8.65-7.36.49-.3.84-.33,1.41-.03h0Z"/> <g> <g> <path d="M252.62,413.95c1.42-1.46,2.47-4.01,4.33-2.54,1.55,1.23.08,3.37-1.03,4.79-1.47,1.88-3.01,3.8-5.83,4.06-.49-2.79,1.38-4.22,2.53-6.3h0Z"/> <path d="M240.75,427.87c-.12-.55-.1-.93.1-1.16,1.29-1.48,2.44-3.19,4.6-3.46.32-.04,1.04.55,1.03.82-.11,2.32-2.1,3.17-3.93,4.4-.76-.04-1.18-.17-1.8-.6h0Z"/> <path d="M262.91,396.7c2.38,2.92.92,5.41-1.17,7.97-3.34-1.12-1.45-3.16-1.09-5.28.43-1.32.94-2.14,2.25-2.7h.01Z"/> <path d="M264.94,388.25c.36,1.44-.04,2.51-1.06,2.7-1.23.22-1.58-.95-1.62-1.96-.06-1.49.01-2.98.11-4.88.45-.77.89-.94,1.74-.73.89,1.59.49,3.09.83,4.88h0Z"/> <path d="M261.39,398.47c.35,2-1.49,3.66-.09,5.97.04,1.77-.65,2.46-2.1,2.19-1.47-.28-1.12-1.58-.92-2.35.44-1.68,1.21-3.28,1.99-5.26.36-.47.58-.59,1.13-.55h0Z"/> <path d="M240.19,427.66c1.06-.73,1.71-.98,2.03.57-.68.64-1.32,1.19-2.06,1.38-.82.21-2.17.95-2.42-.38-.18-.97,1.34-1.07,2.45-1.57Z"/> <path d="M264.42,383.89c-.64-.28-1.02-.24-1.68-.21-.04-1.27-.58-3.18,1.17-3.4.88-.11,1.38,1.51,1.4,3.01-.24.53-.44.71-.9.59h0Z"/> <path d="M257.61,366.17c-.38-.75-.53-1.85-.9-3.14.17-1.17.55-2.16,1.24-3.24.44.07.58.24.54.68-.34,1.96-.49,3.66-.88,5.7Z"/> <path d="M224.99,334.89c.35.59.48,1.47.91,2.52.34,1.36,0,2.33-1.32,2.82-.93-1.76-.24-3.4.41-5.34Z"/> <path d="M261.92,398.47c-.41.17-.63.18-1.17.19.04-1.36.11-3.01,2.39-2.33-.25.85-.64,1.42-1.22,2.14h0Z"/> <path d="M264.18,383.96c.16-.45.35-.52.82-.45.28,1.51.29,2.88.2,4.66-1.27-.83-.89-2.38-1.02-4.21h0Z"/> <path d="M258.52,360.5c-.24.06-.26-.11-.27-.55.01-1.01-.02-2.48.38-2.31,1.34.57.57,1.7-.11,2.86h0Z"/> <path d="M251.42,327.35c-.13-.85-.09-2.01.16-3.45.14.86.07,2-.16,3.45Z"/> <path d="M209.24,342.55c-.2.7-.87,1.15-1.75.88-.14-.04.03-.65.31-1.17.52-.08.79.01,1.44.27h0Z"/> <path d="M225.91,339.42c-1.37-9.07.49-17.45,3.46-25.62.99-2.73,2.05-5.44,3.29-8.09-.54,3.19-1.13,6.38-1.62,9.58-.5,3.28-1,6.57-1.31,9.88-.31,3.28-.37,6.58-.54,9.87.16.03.32.07.48.1.31-.72.62-1.43.92-2.13.22,3.19.26,6.36.68,9.46.83,6.13,3.17,11.72,5.24,17.39,3.63,9.93,5.16,20.28,4.54,30.97-.53,9.01-2.51,17.6-6.97,25.23-2.86,4.88-6.44,8.82-11.52,10.65-5.34,1.92-11.03-.35-13.69-5.5-1.92-3.72-1.56-8.76.9-11.77.5-.62,1.21-1.03,1.92-1.38-2.45,3.17-3.1,6.66-1.58,10.46,1.61,4.03,4.67,5.68,8.38,5.93,3.62.24,6.88-1.46,9.45-3.92,2.27-2.18,3.99-5.31,5.46-8.33,4.46-9.18,5.57-19.16,4.83-29.49-.67-9.4-3.3-18.11-7.05-26.44-2.39-5.31-4.43-10.77-5.27-16.86Z"/> <path d="M250.96,395.16c.43-2.49.8-3.23,2.06-4.15.27.31.55.63.91,1.04.22-.38.42-.73.84-1.47.63,1.24,1.28,2.15,1.58,3.17.77,2.65.56,5.29-.84,7.7-1.1,1.9-2.8,1.74-3.79-.22-.95-1.89-.95-3.91-.76-6.07M253.31,396.77c.12.77.24,1.55.37,2.32.14-.02.28-.04.42-.06.78-1.69.84-3.4.16-5.12-.18-.02-.37-.05-.55-.07-.13.9-.27,1.79-.4,2.93Z"/> <path d="M243.93,410.52c.34-2.85,1.12-5.4,3.33-7.25.55-.46,1.42-1.33,1.69.43.37-.31.65-.55.93-.79,2.22,2.92-.3,10.04-3.9,11-.04-.31-.07-.6-.11-.9-.08,0-.19-.05-.23-.02-.81.77-1.3.37-1.52-.49-.16-.6-.14-1.24-.19-1.98M248.57,407.69c.04-.67.09-1.33.14-2.15-1.71.89-2.59,3.38-1.71,5.17.58-1.09,1.03-1.95,1.56-3.02Z"/> <path d="M254.99,377.07c-.17-1.19-.32-2.27-.47-3.35l.47-.19c.34.41.8.78,1.01,1.25,1.19,2.69,1.42,5.5.59,8.31-.58,1.96-2.13,2.24-3.42.77-1.73-1.97-2.27-7.28-.96-9.54.22-.38.53-.7.88-1.15.78,1.04,1.1,2.03.93,3.2-.22,1.51-.18,2.99.98,4.29,0-1.16,0-2.32-.02-3.6Z"/> <path d="M251.09,359.29c-.39,1.8-.88,3.43-2.5,4.53-1.82-1.23-2.08-3.11-1.96-4.99.16-2.55.66-5.05,3.1-6.86.16.65.26,1.08.39,1.6.28-.17.54-.34.86-.54.9,2.07.46,4.1.12,6.25M249.31,355.76c-.41,1.24-.94,2.48-.44,3.81l.45.09c.25-1.35.49-2.7.74-4.04-.21-.01-.43-.03-.74.15Z"/> <path d="M240.33,425.16c-1.95,1.47-2.6,1.68-4.19,1.31.25-.43.48-.84.8-1.4-.55.1-.96.17-1.37.24-.35-2.45,3.89-7.01,6.75-7.18v1.28c.44-.24.77-.42,1.06-.58,1.15.53-.51,3.92-3.05,6.33M239.34,421.86c-.44.63-.87,1.26-1.43,2.05,1.65-.14,2.97-1.44,3.47-3.45-.81.54-1.36.9-2.04,1.4Z"/> <path d="M228.98,429.23c1.29-.32,2.48-.59,3.88-.91-.93,2.56-3.82,3.79-6.91,2.86.98-.64,1.95-1.27,3.02-1.95Z"/> <path d="M252.57,348.17c-.32-.76-.87-1.66-.7-2.38.38-1.61,1.13-3.13,1.88-4.63.99,2.05.46,4.82-1.18,7.02Z"/> <path d="M248.53,407.79c-.49.96-.95,1.82-1.52,2.91-.88-1.79,0-4.28,1.71-5.17-.05.82-.1,1.49-.19,2.26Z"/> <path d="M249.36,355.67c.26-.08.48-.07.69-.05-.25,1.35-.49,2.7-.74,4.04l-.45-.09c-.49-1.33.03-2.56.49-3.9Z"/> <path d="M239.41,421.78c.61-.43,1.16-.79,1.97-1.33-.49,2-1.82,3.3-3.47,3.45.55-.79.99-1.42,1.49-2.12Z"/> </g> <g> <path d="M222.61,409.41c-.03.18-.14.27-.28.3-1.48.39-2.02,2.13-1.46,2.88.74.99,2.52,1.01,4.36-.03,2.55-1.45,4-3.56,4.85-5.87.94-2.56.7-4.7-.53-6.31-2.35-3.09-6.35-3.41-11.25-2.16-.54.14-1.09.31-1.64.46-.07.02-.13-.01-.22-.03.01-.1.02-.21.04-.32.03-.14.09-.29-.1-.3-.16,0-.27.09-.39.24-.91,1.06-2.02,1.4-3.11,1.71-.54.15-.8-.04-.61-.62-1.13.17-2.03.93-2.94,1.69.36-.13.73-.3,1.09-.39.51-.13.67.06.45.57-.53,1.27-2.86,3.08-4.07,3.18-.54.71-.66,1.4-.87,2.11-.28.94-.85,1.89-1.71,2.72-.36.34-.78.65-1.19.56-.43-.09-.37-.5-.28-.9.12-.59.43-1.17.84-1.75.36-.52.97-1,.92-1.6,0-.06.11-.19.19-.26,1.25-1.07,2.14-2.4,2.98-3.63.97-1.43,2.24-2.18,3.54-3.04.46-.31.94-.39,1.41-.61.6-.29,1.1-.77,1.64-1.11.26.13-.13.31-.07.49.87-.17,1.75-.72,2.72-1.06-.3-.16-.81.22-.96-.1.2-.36.53-.42.81-.52,2.9-1.1,5.59-1.46,8.05-1.04,3.73.63,6.49,2.29,7.41,5.78.89,3.42-.18,7.07-3.75,10.81-2.35,2.46-5.31,3.67-7.32,2.88-1.08-.42-1.58-1.25-1.2-2.64.35-1.29,1.63-2.31,2.66-2.1M203.9,408.36c.39-.51.78-1.03.94-1.63-.85.56-1.29,1.31-.94,1.63M208.21,402.99c.42-.31.87-.6,1.15-1.15-.59.23-.98.59-1.32,1.02-.08.11-.16.26.17.13Z"/> <path d="M224.26,399.63c.92-.3,1.52-.07,2.05.27.33.21.64.52.31,1.07-.34.56-.97.65-1.43.72-.68.11-1.21-.15-1.44-.61-.18-.36-.1-.91.52-1.44Z"/> <path d="M221.42,398.8c.59-.07,1.09-.06,1.48.13.24.12.4.31.29.66-.12.37-.45.41-.74.58-.76.46-1.42.55-2.07.47-.49-.06-.73-.29-.55-.87.18-.59.65-.7,1.09-.85.15-.05.3-.07.5-.12Z"/> <path d="M227.95,401.65c.49.32.72.77.66,1.4-.02.22-.09.47-.36.66-.27.19-.49.15-.67.06-.43-.23-.79-.54-.88-1.06-.05-.3-.12-.65.23-.98.38-.37.68-.18,1.02-.07Z"/> <path d="M217.68,399.47c.18-.04.3-.07.42-.08.36-.03.77-.04.7.38-.07.39-.51.55-.84.72-.52.26-1.04.47-1.56.56-.32.06-.57.02-.58-.29-.01-.27.23-.51.49-.7.43-.31.88-.44,1.38-.6Z"/> <path d="M227.91,406.06c.06-.41.1-.76.17-1.13.04-.18.11-.4.36-.48.23-.08.32.07.38.21.15.32.13.72.01,1.14-.08.29-.18.68-.56.8-.36.11-.34-.24-.36-.53Z"/> <path d="M227.78,408.18c-.16.22-.25.43-.55.42.03-.38.19-.72.61-1.03.23.13.05.36-.06.61Z"/> </g> </g> <path d="M177.5,338.16c.21-.47.46-.58.98-.52,3.51,1.44,7.06,1.77,10.43,2.77,3.06.91,6.13.36,9.2.85,5.13.81,9.94-1.9,13.73-5.93.39-.24.63-.11.6.39-5.06,8.92-21.08,11.67-33.43,3.66-.22-.09-.28-.19-.56-.36-.47-.25-.72-.44-.95-.84h0Z"/> <path d="M229.23,297.46c-1.67,8.39-4.47,16-9.11,23.29.4.44-.2,1.56,1.03,1.34,1.62,2.5-.68,2.81-1.89,3.53-3.38,2-6.83,3.91-11.06,4.94-1.36.9-2.33.81-3.22-.44,2.81-2.3,6.31-3.22,8.82-7.25-6.81,2.31-12.74,1.99-18.9-.42,12.23-3.3,22.93-7.96,27.29-21.25.63-3.53.23-6.73.25-10.3-.05-1.08-.05-1.77.06-2.79.31-.46.51-.59,1.02-.56.31,3.48.31,6.79.31,10.09.47.05.95.1,1.42.16.91-1.78,1.82-3.55,2.85-5.67.4-.74.78-.9,1.48-.6.22.97.22,1.69.13,2.76-.24,1.2-.17,2.07-.49,3.18h0Z"/> <path d="M160.22,275.09c1.12.14,2.08-.48,3.16-.75-.04,1.17.09,2.54-.78,3.27-.52.44-1.26-.54-1.77-1.25-.59-.26-.61-.68-.61-1.26h0Z"/> <g> <path d="M177.77,367.65c-.3-1.47.99-2.63,2.66-2.42,1.79.23,2.88,1.33,3.46,2.98,1.07,3.07-.42,6.36-3.54,8.17-4.75,2.76-9.46,2.27-13.92-.71-4.56-3.04-6.78-7.57-7.69-12.83-.6-3.47-.22-6.84,1.14-10.1.13-.31.19-.73.66-.79.41.36-.06.84.15,1.32.42-1.1,1.1-1.98,1.3-3.04-.24-.17-.46.25-.64-.16.42-.54,1.04-.95,1.39-1.59.28-.51.37-1.09.76-1.55,1.08-1.27,2.02-2.56,3.85-3.09,1.58-.46,3.27-.93,4.63-2.03.09-.07.26-.15.33-.12.78.38,1.38-.17,2.05-.38.74-.23,1.48-.34,2.24-.19.52.1,1.05.23,1.18.84.12.59-.26.99-.7,1.28-1.05.71-2.26.97-3.48.84-.92-.1-1.8-.3-2.71.04-.1,1.55-2.39,3.67-4.02,3.71-.66.02-.91-.29-.76-.9.11-.42.31-.83.48-1.24-.96.81-1.92,1.6-2.11,3.01.75.06,1.01.5.82,1.14-.38,1.29-.78,2.58-2.14,3.22-.18.09-.31.18-.3.4.02.25.21.26.39.29.14.02.28.07.41.11.02.14.06.23.04.31-.18.64-.38,1.28-.55,1.93-1.5,5.83-.97,11.3,3.1,16.02,2.13,2.47,4.91,3.92,8.2,4.02,2.97.08,5.67-.73,7.48-3.34,1.31-1.89,1.23-4.25-.07-5.75-.99-1.15-3.22-1.34-3.69.42-.04.16-.15.26-.39.2M175.91,342.35c-.42-.64-1.38-.45-2.09.38.78.11,1.43-.14,2.09-.38M168.88,344.94c-.55.22-1,.55-1.29,1.21.71-.08,1.07-.53,1.46-.92.16-.37-.03-.34-.17-.29Z"/> <path d="M166.99,364.78c.61.55.95,1.38.83,2.22-.08.58-.18,1.35-.9,1.51-.69.16-1.11-.42-1.39-.96-.44-.87-.76-1.79-.4-2.85.68-.53,1.38-.35,1.86.07Z"/> <path d="M164.11,359.91c.19-.51.32-1.07,1.08-1,.74.07,1.05.51,1.14,1.19.12.9.03,1.73-.55,2.49-.21.28-.26.71-.74.67-.44-.04-.7-.35-.86-.72-.27-.63-.29-1.3-.21-2.03.05-.24.08-.43.14-.59Z"/> <path d="M167.91,369.34c.42-.28.87-.01,1.27.22.68.4,1.09,1.02,1.4,1.72.12.28.18.59-.06.85-.24.26-.55.22-.84.13-.82-.26-1.41-.79-1.83-1.61-.15-.5-.4-.99.07-1.31Z"/> <path d="M165.48,354.4c.24-.25.54-.44.89-.28.39.17.45.53.39.92-.11.64-.37,1.22-.69,1.77-.21.36-.4.86-.91.74-.55-.13-.54-.66-.51-1.12,0-.15.05-.3.09-.51.18-.59.35-1.11.74-1.52Z"/> <path d="M174.26,373.66c-.14.45-.64.37-1.02.33-.54-.06-1.06-.25-1.48-.61-.18-.16-.38-.35-.28-.61.1-.29.38-.27.61-.22.47.09.93.22,1.46.36.38.18.83.34.7.76Z"/> <path d="M175.52,373.61c.39-.4.83-.43,1.32-.27.02.4-.26.41-.53.5-.32.02-.61.15-.79-.23Z"/> </g> <path d="M226.63,357.12c.28.99.32,1.59.17,1.98-.26-.93-.34-1.65-.17-1.98Z"/> <path d="M223.08,279.45"/> <path d="M343.05,105.49"/> <path d="M289.15,105.49"/> <g> <path d="M214.15,246.82c.83.36,1.44.61,1.95,1.02.87.68,1.48,1.75.92,2.72-.53.91-1.7.45-2.51.14-1.45-.55-2.88-1.24-4.06-2.96,1.27-.23,2.11-1.26,3.7-.92h0Z"/> <path d="M193.67,252.64c.07.25.26.35.26.46-.72-.05-1.42-.21-2.37-.43.86-.61,1.44-.66,2.12-.03h0Z"/> <path d="M169.78,185.47c-1.75-2.33-2.1-5.03-1.89-7.83.51-6.7,5.21-12.6,11.84-14.5,8.44-2.41,15.47.51,21.15,7.29,6.51,7.78,7.72,19.02,3.3,28.38-2.35,4.96-5.75,9.01-9.58,12.77-3.49,3.42-6.42,7.39-7.27,12.46-1.23,7.34,2.13,13.28,8.44,15.76,1.85.73,3.86,1.11,5.82,1.37,4.85.63,9.17,2.56,13.16,5.51,2.12,1.57,4.31,3.1,6.64,4.26,3.51,1.75,7.25,2.27,11.06,1.24.38-.1.78-.13,1.17-.2.05.13.1.26.15.39-1.52.64-2.98,1.46-4.56,1.88-2.85.76-5.76.5-8.51-.65-1.73-.73-3.32-1.83-4.97-2.77-4.28-2.44-8.55-4.88-13.52-5.35-3.74-.35-7.42-.95-10.81-2.9-6.77-3.91-9.61-12.99-6.47-20.34,1.37-3.21,3.06-6.12,5.27-8.73,3.34-3.95,7.01-7.68,9.84-12,4.9-7.48,5.93-15.73,2.07-24.31-1.91-4.26-4.99-7.38-8.99-9.49-.36-.19-.73-.34-1.24-.33.82.89,1.64,1.78,2.46,2.66-.11.14-.23.29-.34.43-1.62-1.16-3.24-2.32-4.86-3.47-.4-.28-.78-.66-1.22-.77-9.27-2.31-17.64,4.59-18.3,12.93-.09,1.16.19,2.36.3,3.54.07.79.14,1.58.13,2.5-.13.2-.19.25-.25.3Z"/> <path d="M170.73,226.42c.27.01.66.08.66.16.02.88-.01,1.76-.03,2.64-.02,1.05-.12,2.1,0,3.13.04.37.57.7.88,1.04.28-.32.73-.59.81-.96.28-1.28.36-2.51-.53-3.73-.25-.34.22-1.44.6-2.02.45-.7.93-.08,1.25.33.27.36.5.79.64,1.23.72,2.38.51,4.72-.4,6.96-.55,1.34-1.06,1.39-2.32.45-.09.46-.18.88-.29,1.42-1.55-.4-2.24-1.61-2.58-2.97-.67-2.72-.81-5.41,1.33-7.68Z"/> <path d="M174.04,242.53c.6,1.07,1.03,2.17,1.73,3.02.45.54,1.32.7,2,1.04-.18-.73-.2-1.56-.58-2.15-.43-.67-1.27-1.03-1.75-1.68-.36-.49-.43-1.22-.63-1.84.48-.13,1.03-.49,1.43-.35,1.79.6,4.22,4.1,4.27,6.05.02.65.1,1.42-.83,1.57-.1.01-.24.24-.23.35.11,1.11-.64,1.16-1.33,1.1-2.77-.22-5.85-4.6-5.29-7.46.03-.15.12-.29.27-.63.34.36.61.64.94.99Z"/> <path d="M177.37,214.5c.65-.12,1.3-.25,1.95-.37.05.83.41,1.82.09,2.44-.89,1.77-1.99,3.43-3.13,5.04-.3.42-1.04.49-1.58.73-.18-.45-.57-.95-.49-1.32.15-.65.55-1.25.92-1.81.6-.9,1.3-1.73,1.89-2.64.11-.18-.05-.73-.25-.88-.17-.13-.71-.05-.84.13-.64.9-1.23,1.83-1.76,2.8-.53.97-.97,2.01-1.55,3.24-.94-1.38-.76-2.55-.41-3.71.81-2.67,3.11-5.02,5.45-5.46-.2.53-.36.97-.59,1.54.05.18.17.23.28.27Z"/> <path d="M180.54,208.77c1.04-3.22,4.72-6.04,7.37-5.63-.18.41-.35.81-.55,1.27.21,0,.33.01.44.02.57.02,1.13.04,1.7.07-.12.64-.09,1.36-.37,1.89-1.08,2.03-2.76,3.38-4.81,4.19-.51.2-1.16.03-1.74.04.03-.56.05-1.12.08-1.81-.6.27-1.21.54-1.93.73-.14-.31-.17-.54-.2-.77M186.64,206c.17-.81-.35-.85-.87-.79-.94.1-2.35,1.57-2.62,2.79,1.66.38,2.47-.84,3.48-2Z"/> <path d="M196.75,194.59c.47-.1.95-.2,1.42-.3.08.57.32,1.19.2,1.7-.61,2.52-2.1,4.35-4.37,5.37-1.24.56-1.61.09-1.36-1.64-.44.2-.83.38-1.22.56-.62-2.24,2.33-6.57,4.95-7.14.03.38.06.73.07,1.25.02.22.04.29.07.35.08-.05.16-.11.24-.16M195.53,195.52c-.91.83-1.8,1.66-1.43,3.25.85-.63,1.54-1.38,2.1-2.23.11-.16-.32-.72-.67-1.02Z"/> <path d="M199.07,190.33c-1.37-.35-1.8-1.32-1.91-2.57-.18-1.98.36-4.22,1.41-5.42.24.25.49.5.82.83.16-.35.29-.65.4-.89.2.03.31.01.35.05,2.18,2.04,1.59,6.84-1.07,8M199.48,184.35c-.94.71-1.12,2.45-.28,3.61.71-1.12,1.12-2.21.28-3.61Z"/> <path d="M169.83,185.55c.02-.12.08-.18.15-.28.31-.13.59-.22.91-.34.61.51,1.27,1.17,2.01,1.67,1.82,1.23,4.04,1.07,5.49-.37,1.13-1.12,1.49-2.45.9-4.12.05-.1.04-.08.04-.08,1.74,1.51,1.01,5.05-1.25,6.29-2.96,1.63-6.31.55-8.27-2.79Z"/> <path d="M189.04,255.12c-.38-.39-.76-.79-1.2-1.25.52-.96,1.46-1.16,2.41-1.27,1.79-.2,3.49.22,4.97,1.3.52.38.77,1.17,1.14,1.78-.55.11-1.09.21-1.66.44-.03.13-.03.14,0,.01-.17-.1-.37-.08-.56-.06,0,0,0,.01.09-.06-.71-1.48-2.93-2.12-4.16-1.26-.17.12-.18.5-.33.73-.27-.14-.48-.26-.68-.37Z"/> <path d="M188.94,255.13c.31.11.51.23.87.38,1.54.22,2.93.41,4.32.59,0,0,0-.01.02.09.18.1.35.09.51.08,0,0,0-.01,0-.02.27.35.56.7.84,1.05-1.77,1.61-6.79.78-8.16-1.52.52-.22,1.01-.44,1.61-.65Z"/> <path d="M198.23,178.89c-1.72-1.38-2.51-3.17-2.83-5.43.8.29,1.44-.83,2.19.21.96,1.32,1.78,2.68,1.59,4.39-.04.33-.57.59-.96.83Z"/> <path d="M170.69,239.09c-.12-.46-.22-.82-.33-1.24,1.88,1.27,1.95,1.44,1.47,3.89-.44-1.02-.78-1.79-1.14-2.65Z"/> <path d="M180.47,208.83c.1.17.13.41.17.73-.58.52-1.16.96-1.75,1.39l-.35-.39c.62-.56,1.23-1.11,1.92-1.73Z"/> <path d="M170.66,222.64c.15-.37.29-.66.46-1.03.55,1.63.49,1.84-1.16,3.47.29-1,.48-1.68.7-2.44Z"/> <path d="M182.83,253.22c.1-.02.08-.02.09-.02-.39-.08-.87-.04-1.16-.27-.47-.37-.83-.92-1.32-1.5,1.47-.15,1.73,1.02,2.39,1.79Z"/> <path d="M179.36,182.01s-.08.08-.13.11c0,0-.05-.04-.08-.06.04-.04.07-.07.15-.06.05.05.05.03.06.02Z"/> <path d="M177.32,214.44c-.06.02-.17-.03-.23-.12.1-.02.14.02.23.12Z"/> <path d="M195.61,195.48c.26.34.7.89.59,1.05-.56.85-1.25,1.6-2.1,2.23-.38-1.58.52-2.42,1.51-3.28Z"/> <path d="M171.69,256.19c.08.4-.02.68-.42,1.09-.21.14-.48-.13-.57-.3.02-.3.14-.44.44-.77.2-.19.46-.12.55-.03h0Z"/> </g> </g></svg>
