<?xml version="1.0" encoding="UTF-8"?>
<svg id="Layer_1" xmlns="http://www.w3.org/2000/svg" version="1.1" viewBox="0 0 612 400">
  <!-- Generator: Adobe Illustrator 29.8.9, SVG Export Plug-In . SVG Version: 2.1.1 Build 1)  -->
  <defs>
    <style>
      .st0 {
        fill: #231f20;
      }
    </style>
  </defs>
  <path class="st0" d="M358.66,23.93c-.54-.31-.82-.52-1.36-.78-.6.2-.81.55-.77,1.32.11.29.12.4.17.38.15.4.37.7.95.93,1.1.87,1.97,1.65,3.07,2.56.47.26.65.45.91.86,5.4,4.87,8.85,11.1,9.39,20.67-1.86-2.07-3.26-3.61-4.91-5.29-.64-.81-1.15-.92-1.85-.15,4.99,7.91,5.99,17.7,7.24,27.32.61,4.66.79,9.43-.55,14.6.05.79.29,1.03.87.83.63-1.8,1.05-3.36,1.56-5.33.12-1.6.59-2.73.73-4.26,1.3-4.2.6-8.27,1.21-12.56,1.87,1.39,1.94,3.43,2.25,5.23,2.43,14.02-.31,26.79-8.38,38.23-1.61,2.29-3.23,4.57-5,7.16-.3.43-.45.54-.76.91-.35.54-.55.81-.89,1.3-.35.49-.48.8-.45,1.39.24.45.41.66.45,1.09-.16.39-.17.57-.14,1.01-2.39,4.27-2.96,8.58-1.68,12.88,1.05,3.52,1.18,7.06.16,11.44,3.34-3.34,3.81-7.3,3.06-11.02-1.52-7.52.5-13.4,4.55-19.62,15.68-24.09,17.11-51.68,4.69-75.62-2.82-5.45-6.71-9.07-10.94-12.89-.49-.27-.71-.43-1.28-.83-.58-.43-.81-.62-1.18-.83-.28-.44-.51-.72-1.1-.93h0Z"/>
  <path class="st0" d="M261.21,125.39c1.9,1.6,3.31,3.01,6,2.6-2.33-5.17-4.15-10.25-6.82-14.84-1.88-3.24-1.93-4.38,2.91-3.73-11.49-11.54-19.4-24.01-18.73-40.73-.18-.58-.31-.7-.6-.61-1.66,4.33-1.27,8.7-1.89,13.89-5.37-12.51-3.07-23.68,1.94-34.58,1.7-3.71,3.51-7.46,6.46-10.5.62-.65.76-1.77,1.11-2.67-1.07.26-2.17.17-3.05,1.23-6.71,8.12-12.21,16.8-14.1,27.42-2.99,16.77.5,32.26,9.13,47.12,1.39.46,1.54-.28,1.33-1.47-1.29-5.87-4.1-11.04-4.01-17.63,4.51,7.23,8.55,13.9,14.77,18.9.92.73,1.21,2.23,2.08,3.58.77.64.84,1.25,1.17,2.06.23.69.3,1.12.55,1.84.25.74.32,1.19.64,1.91.2.45.18.64.23,1.1-.7,1.25-.27,2.35.03,3.72.31.56.36.8.83,1.42l.02-.03Z"/>
  <path class="st0" d="M219.89,320.54c1.8.44,1.07,1.8,1.38,2.84,3.36,11.21,12,17.53,24.01,17.42,12.05-.11,21.85-7.27,24.81-17.99,1.28-4.64,1.7-9.25-.02-13.82-4.64-12.28-1.23-23.86,3.69-35.35,3.27-7.63,6.11-15.37,8.29-23.64.39-.65.78-.78,1.5-.52.22,1.13.2,2.06.08,3.32-.17,1.35-.09,2.37-.43,3.64.54,5.62,1.25,10.99-1.15,16.14,1.07-1.7-1.18-2.44-1.2-4.99-7.77,13.7-13.35,26.41-8.34,40.87,2.25,6.48,1.57,12.98-.89,19.41-5.72,15-26.19,18.83-37.86,14.41-8.39-3.18-12.19-9.51-13.93-17.39-.52-1.57-.32-2.83.05-4.36h.01Z"/>
  <path class="st0" d="M334.49,264.45c1.86,3.41,3.45,6.62,5.17,9.78,6.15,11.32,8.11,22.83,4.05,35.22-4.92,15.01,5.65,29.23,22.42,31.15,9.43,1.08,17.92-2.68,22.5-10,1.84-2.95,3.04-6.1,3.55-9.65,2.99,8.06-5.28,19.54-15.46,21.81-21.99,4.9-40.99-11.16-36.02-30.85,2.42-9.6,4.18-19.02-.82-28.24-2.74-5.04-4.36-10.31-5.94-15.99-.15-.5-.27-.66-.43-1.09-.14-.65-.25-1.01-.35-1.66.28-.62.64-.76,1.32-.47h0Z"/>
  <path class="st0" d="M253.88,228.78c3.46-4.05,6.9-7.72,10.21-11.49.41-.46,2.25-1.72-.75-2.03-1.01-.18-1.36-.56-1.36-1.35,8.14-6.39,11.27-15.25,16.27-24.38,2.04,15.64-5.97,29.45-22.19,39.62-1.03.81-1.67.65-2.18-.37Z"/>
  <path class="st0" d="M188.43,237.49c-.2-.62-.13-1.06.13-1.76.13-.43.08-.59.23-.9,5.02-19.94,26.65-32.91,42.74-29.12.6.47.47.82-.25.97-9.01-.25-17.67,1.8-22.65,7.62-2.98,3.48-7.15,5.95-9.63,9.83-2.74,4.28-6.45,8.07-8.84,12.92-.53.56-.95.7-1.73.45h0Z"/>
  <path class="st0" d="M198.97,167.5c-10.16-1.2-20.01-2.13-29.07-6.05-12.26-5.31-18.56-17.39-15.48-29.72.07-.63.14-.87.44-.8.51,7.72,3.09,14.28,9.61,19.05,2.36,1.72-.06,4.47,2.71,6.16,3.72,2.25,7.38,4.51,11.89,4.61,5.59.12,10.63,2.06,16.32,3.28,2.49-.17,4.3.26,5.23,2.13.47.95-.34,1.4-1.65,1.33h-.01Z"/>
  <path class="st0" d="M344,179.69c6.16-4.74,10.25-10.14,10.96-18.03,2.06,3.88,1.79,7.06.28,10.34-.93,2.01-2.11,3.95-2.37,6.19-1.08,9.41,5.36,14.88,18.83,15.45-4.99,2.86-9.49,2.98-14.27.62-5.57-2.75-8.48-6.8-8.21-12.45.08-1.73.73-3.54-2.79-1.74-1.14.6-1.82.5-2.44-.4h.01Z"/>
  <path class="st0" d="M451.91,162.72c-9.47,13.83-25.5,17.53-43.96,9.54,2.48.04,3.81.08,5.48.19.56.02.77-.05,1.03-.43.04-.31-.09-.31-.08-.37-.29-.5-.29-.95.3-1.56.95-.32,1.55-.46,2.46-.53.93-.13,1.5,0,2.25.52.31.56.26.88.29,1.1.49-.07.68-.05,1.2.02.9.19,1.48.35,2.32.18.44-.4.64-.67,1.07-1.08.24-.14.71-.17.93-.09.92.02,1.54.43,2.54.23,9.38-.49,17.15-3.33,23.47-9.55,1.44.06,1.32.79.69,1.83h0Z"/>
  <path class="st0" d="M333.48,229.38c-4.81-6.6-9.39-13.04-12.7-20.25-2.68-5.84-1.53-11.28-.99-16.47,7.05,11.16,6.59,24.1,14.01,34.94.88.84.66,1.33-.32,1.79Z"/>
  <path class="st0" d="M174.53,117.99c2.83,1.38,4.59.92,5.05-1.12.5-2.15-.95-4.07-3.6-5.28-3.45-1.58-6.21-.97-8.13.66-2.51,2.12-4.71,4.59-5.56,8.22-.17.83-.57,1.04-1.57.6.56-5.57,2.69-9.98,7.86-12.09,3-1.22,6.42-.57,9.89,1.99,2.7,1.99,3.99,4.39,3.54,6.85-.45,2.41-2.36,3.24-5.63,2.34-1.23-.5-1.86-1.13-1.84-2.19h-.01Z"/>
  <path class="st0" d="M416.75,190.86c-1.92-.02-1.01-.82-.55-1.2,4.94-4.17,10.82-5.66,17.31-3.76,6.11,1.79,10,5.65,10.76,11.45.51,3.86-.78,7.13-5.58,9.75,3.23-4.77,5.29-9.14,1.2-13.33-4.26-4.35-9.93-5.9-16.14-3.87-2.33.76-4.79-.79-7,.97h0Z"/>
  <path class="st0" d="M325.85,166.89c-.27,1.08-1,2.19-1.73,3.32,2.33.84,4.33-.03,7-.77-2.82,3.02-5.34,5.13-9.36,4.05-3.35-.89-3.4,2.88-6.37,3.04.18-1.7.56-3.58-1.69-4.56-.36-.16-.78-.96-.72-1,5.07-3.77-.29-7.38-.3-11.06-.01-3.63.99-6.51,4.87-7.9-.07.91-.14,1.43-.3,2.31-.18,3.25-1.47,6.07-.56,9.04,1.58,5.16,3.04,5.81,9.17,3.51h-.01Z"/>
  <path class="st0" d="M396.86,192.59c.81-.13,1.31-.22,2.19-.22.5.33.63.56,1.03,1.07,1.44,1,2.81,1.35,3.14,3.74-11.26.94-19.6,8.92-26.04,22.32-1.41,2.94-3.14,5.61-4.9,8.94-.78.76-1.2.53-1.27-.73.99-3.91.96-7.6,2.85-10.53-.13-.12-.26-.34-.39-.32-.32.06-.64.24-1.34.52-1.03.38-1.48.07-1.52-1.34,6.18-12.12,13.74-19.97,23.81-22.81.94-.6,1.56-.57,2.46-.62h-.02Z"/>
  <path class="st0" d="M433.71,115.69c-5.64.25-8.92-2.02-9.37-6.09-.5-4.54,3.77-8.81,9.25-9.24,7.97-.63,17.88,5.44,20.97,13.61,1.08,2.85,3.31,5.13,4.1,8.38-.42,1.41-1.17,1.09-2.06.25-2.71-5.19-5.47-9.95-9.68-13.84-3.79-3.5-8.12-6.17-13.8-5.39-3.18.44-5.39,2.26-5.58,5.24-.18,3.01,1.93,4.55,5.59,5,1.49.54,1.57,1.19.59,2.07h0Z"/>
  <path class="st0" d="M297.59,151.97c3.27,5.15,3.58,10.36,1.33,15.68-.11.27-.46.73-.43.75,5.01,2.98-1.91,5.26-.73,8.24-2.58-5.51-10.56-.86-13.52-6.04h5.26c.54-1.54-1.58-1.94-1.28-3.21.21-.11.53-.39.69-.33,5.4,1.89,8.88.06,9.03-5.1.08-2.74-.61-5.49-1-8.61-.26-.82-.16-1.18.67-1.37h-.02Z"/>
  <path class="st0" d="M198.01,190.16c13.21-.44,23.36,4.12,31.75,11.63.45.41,1.26.76.66,1.45-1.03,1.17-1.81-.09-2.72-.16-.87-.07-2.63-3.37-2.65.68.91,1.21,1.13,2.12-.17,3.09-4.89-4.96-9.03-10.21-16.09-13.11-3.01-1.24-6.43-1.85-10.03-2.85-.57-.23-.76-.36-.75-.74h0Z"/>
  <path class="st0" d="M172.21,185.36c-12.42-1.44-23.26,6.61-21.11,15.64.93.83.97,1.41-.01,2.13-4.66-4.49-4.23-9.18-.6-13.71,4.09-5.11,10.1-7.42,17.78-6.62,1.61.17,3.19.6,5.11,1.08.74,1.03.19,1.42-1.15,1.48h-.01Z"/>
  <path class="st0" d="M332.1,157.14c3.59-3.34,7.8-4.34,11.76-5.85,4.01-1.53,7.89-3.23,10.55-7.34.49-.76.87-.85,1.41-.25-.41,2.09-.77,3.88-1.4,5.56-1.42,3.83-3.86,6.3-8.32,6.4-4.62.1-9.08,1.26-13.8,2.81-.41-.25-.46-.58-.19-1.32h-.01Z"/>
  <path class="st0" d="M303.39,296.4c-.01.54.21.88,1.01,1.02,1.13-.23,1.5,0,1.53.71-2.76,4.03-2.81,8.4-3.13,12.69-.17,2.33-.22,4.67-2.23,6.14-.66-7.83-5.22-16.32,2.39-23.43,2.59.53.31,1.69.44,2.86h0Z"/>
  <path class="st0" d="M261.55,194.88c-3.87,8.05-10.71,10.66-19.85,7.2,7.5-.47,12.55-3.41,16.51-8.41,1.59-.67,2.43.03,3.34,1.2Z"/>
  <path class="st0" d="M230.51,263.53c-10.43,5.74-18.11,3.09-27.03-9.07,6.79,7.06,14.64,10.86,24.96,8.21,1.13-.46,1.72-.31,2.07.86Z"/>
  <path class="st0" d="M410.04,255.82c-2.56,9.16-12.57,14.14-23.94,11.9-.85-.99-.48-1.44.62-1.62,9.9.44,17.04-3.39,22.53-10.74.48-.07.68.04.78.45h0Z"/>
  <path class="st0" d="M259.65,165.94c2.06,8.13,7.23,13.04,16.89,14.14,1.42-.49,2.44-.57,3.38.48-11.96,4.03-22.24-3.77-21.83-16.6,2.21-.58,1.04.97,1.56,1.97h0Z"/>
  <path class="st0" d="M340.72,167.33c.84-3.04,4.01-4.72,5.78-3.9,2.09.99.78,3.94-.45,5.88-2.38,3.76-7.13,5.28-10.97,3.54-.68-.31-1.7-.9-1.7-1.34.02-.9,1.11-1.69,2.03-1.54,2.54.42,4.22-.24,5.31-2.65h0Z"/>
  <path class="st0" d="M277.29,173.1c-7.5-.63-10.42-3.74-9.78-10.42,2.71.77,5,1.54,6.15,4.17.59,1.36,1.45,3.12,3.78,2.94,1.48-.11,3.46-.66,3.7,1.01.25,1.73-2.04,1.79-3.85,2.3h0Z"/>
  <path class="st0" d="M462.38,165.49c2.21,2.84.02,5.02-1.15,7.14-4.43,8.01-11.52,12.8-21.43,13.9,9.62-4.92,17.69-11.23,22.58-21.03h0Z"/>
  <path class="st0" d="M246.72,115.9c.46.33.63.89,1.02,1.62-.47,4.8.55,9,2.99,13,2.13,3.5,3.19,7.3,1.34,11.75-2.81-.3-.96-2.53-1.77-4.27-1.66-3.22-3.32-6.03-4.58-9.01-1.84-4.34-.59-8.64.99-13.09h.01Z"/>
  <path class="st0" d="M272.62,158.04c-10.19-.68-10.3-.75-12.88-9.74,4.75,7.28,14.37,4.81,19.76,11.03-2.17-.41-4.34-.83-6.88-1.29Z"/>
  <path class="st0" d="M174.41,221.34c-.35-2.68-.48-5.16,1.03-7.35.77-1.13,1.31-2.35,3.71-1.42,2.09.81,2.94,1.57,2.63,3.43-.64,3.83-3.79,6.29-7.36,5.34h0Z"/>
  <path class="st0" d="M439.99,244.23c3.8,2.62,3.7,7.05-.29,9.43-.52,0-.89.09-1.53.18-3.33-2.33-4.22-7.41-1.99-9.98,1.02-1.17,2.19-1.83,3.78-.25-.93,1.87.28,3.68-.65,5.28.82-1.41-.01-2.96.7-4.65h-.02Z"/>
  <path class="st0" d="M426.79,215.6c4.81.73,4.56,4.33,5.4,7.26.14.47-.62,1.58-1.16,1.71-3.71.85-5.13-1.84-6.65-3.86-1.09-1.45-2.9-3.69,1.53-4.1.5-.12.62-.46.88-1Z"/>
  <path class="st0" d="M438.42,233.54c-1.25,1.69,1.13,4.52-1.5,4.78-2.43.23-3.38-2.35-4.09-4.32-.1-.27-.38-.51-.42-.79-.3-1.82-1.49-4.35.83-5.11,2.73-.89,3.72,1.64,4.54,3.57.23.55.52,1.06.64,1.87Z"/>
  <path class="st0" d="M255.87,285.43c1.93-.95,3.67-2.71,5.32-.54,1.4,1.85-.26,3.18-1.76,4.35-.61.47-1.21.97-1.83,1.43-1.67,1.26-3.73,1.79-5.27.33-1.69-1.59.38-2.84,1.39-4.03.47-.55,1.22-.92,2.14-1.57h0Z"/>
  <path class="st0" d="M173.72,225.21c2.04,3.9.56,7-2.12,9.82-.8.84-1.87,1.48-2.69,0-1.63-2.95.8-8.28,4.82-9.82h-.01Z"/>
  <path class="st0" d="M362.67,281.28c2.02,1.62,6.32,2.29,4.06,5.13-1.83,2.3-4.77.18-7.02-.93-1.8-.88-3.63-2.09-2.51-4.07,1.27-2.26,3.36-.92,5.47-.13h0Z"/>
  <path class="st0" d="M373.31,286.22c.85.14,1.31.32,1.79.42,2.31.45,4.98.37,5.39,3.29.2,1.42-.84,1.7-2.01,1.89-3.07.52-6.15.15-7.99-2.09-1.59-1.95.08-3.14,2.82-3.5h0Z"/>
  <path class="st0" d="M434.53,265.5c-1.31-1.78-2.38,3.02-3.97.6-1.33-2.01.45-3.91,1.2-5.77.32-.8.84-1.58,1.47-2.23.6-.62,1.35-1.57,2.43-1.06,1.2.55,1.26,1.62.69,2.68-.97,1.82-2.42,3.5-1.81,5.79h-.01Z"/>
  <path class="st0" d="M269.19,278.5c-.79,1.03-1.35,1.91-2.08,2.67-1.08,1.1-2.67,1.51-3.98.77-1.34-.76-.69-2.18-.12-3.17,1.51-2.57,2.26-5.88,6.85-5.68.88,1.43-.56,2.19-.63,3.47-.04.41-.03.58.05.99.07.4.08.57-.08.95h-.01Z"/>
  <path class="st0" d="M179.9,267.16c-3.61-1.23-4.22-4.25-5.55-6.82-.55-1.06-.06-2.13,1-2.67,1.05-.53,1.98.31,2.41.99,1.6,2.57,4.22,4.96,2.14,8.49Z"/>
  <path class="st0" d="M424.23,277.59c-2.16-.07-4.02-.4-2.32-2.65.9-1.2,1.85-2.38,2.93-3.45,1.1-1.08,2.93-2.49,4.11-1.36.93.89,2.01,3.22-.7,4.69-.54.61-.99.8-1.94.54-1.38-.26-1.67.58-2.22,1.27.18.44.28.61.14.97h0Z"/>
  <path class="st0" d="M347.78,275.97c-.32-.59-.53-.95-.77-1.61.04-1.1-.51-1.71-.73-2.65,2.56-2.32,3.87-.16,5.2.97,1.63,1.38,4.26,3.19,3.26,5-2.07,3.76-4.07.44-6.14-.95-.34-.34-.52-.43-.82-.75Z"/>
  <path class="st0" d="M168.79,243.46c2.17-2.48,4.3-2.41,5.29.24,1.19,3.18,1.82,6.61-2.11,9.15-2.31-1.54-1.4-3.58-1.83-5.64-.35-.82-.55-1.37-1.02-2.14-.35-.6-.45-.97-.33-1.61h0Z"/>
  <path class="st0" d="M288.7,339.63c1.22-1.47,1.94-3.84,3.97-2.83,1.69.85.5,2.92-.42,4.32-1.22,1.85-2.5,3.74-5.26,4.37-.84-2.36.84-3.87,1.71-5.85h0Z"/>
  <path class="st0" d="M208.26,171.21c1.65-3.14-2.44-1.58-3-3.03,1.93-2.88,7.59-2.88,9.63-.24.47.6.68,1.64.12,1.67-2.32.11-3.46,3.66-6.75,1.59h0Z"/>
  <path class="st0" d="M237.11,294.52c.95-.41,1.66-.74,2.44-.79,2.47-.13,5.88-1.09,6.52,2.08.57,2.83-2.95,2.64-5.52,3-.7-.54-1.08-.97-1.67-1.59-.82-.95-1.8-1.47-1.76-2.7h0Z"/>
  <path class="st0" d="M188.65,279.01c-.49-1.83-2.24-2.45-3.81-3.45-.47.18-.61.31-.94.23.94-1.6-2.83-2.22-1.02-3.39,1.54-.98,3.09.14,4.43,1.05,1.73,1.18,3.1,2.59,3.94,4.38.7,1.5-.97,1.08-1.91,1.64-.49.03-.67-.08-.7-.46h0Z"/>
  <path class="st0" d="M451.95,162.75c-.32-.36-.28-.96-.38-1.81,4.23-5.2,4.8-11.19,4.67-17.83,3.66,5.7,2.89,9.06-4.28,19.63h0Z"/>
  <path class="st0" d="M224.67,168.93c1.05.41,1.83.71,2.46,1.16,1.08.76,1.82,1.94,1.04,2.97-.73.97-2.21.44-3.24.07-1.84-.64-3.64-1.42-5.06-3.32,1.65-.21,2.79-1.29,4.81-.88h0Z"/>
  <path class="st0" d="M317.67,311.87c-1.84-3.18-1.73-6.02,1.12-9.81.28,4.1,3.2,7.14-1.12,9.81Z"/>
  <path class="st0" d="M179.29,199.67c2.39-.23,4.06-1.76,6.17-2.72.49,2.15,1.41,4.57-.01,6.27-.86,1.03-2.86-.44-4.27-1.5-1.34-.22-1.59-.98-1.87-2.04h-.01Z"/>
  <path class="st0" d="M319.73,328.93c-.13-.23-.13-.64-.1-.85.21-.73.11-1.22-.35-1.93-.14-1.45,0-2.9,1.52-2.98,1.72-.09,1.68,1.64,1.92,2.61.43,1.69.48,3.46.57,5.19.04.84,0,2.06-1.14,2.03-.66-.02-1.34-1.17-2.06-2.07-.37-.75-.11-1.26-.37-1.99h0Z"/>
  <path class="st0" d="M382.28,173.93c-3.52-.99-1.62-3.38-.62-3.36,2.24.05,4.8-2.75,6.68.78-1.2,1.41-3.32,2.25-6.06,2.59h0Z"/>
  <path class="st0" d="M419.46,206.32c-.62.71-.92,1-1.31,1.58.24.68.2,1.02-.61,1.27-1.9-2.42-2.94-4.89-2.24-7.94.86,1.73,4.07.26,4.37,2.86.24.66.17,1.24-.2,2.23h-.01Z"/>
  <path class="st0" d="M404.81,315.91c.06,1.57.75,2.95-.57,3.99-.58.47-1.31.27-1.66-.27-1.45-2.28-2.58-4.62-.77-7.25,2.28.31,1.73,2.35,2.99,3.53h.01Z"/>
  <path class="st0" d="M400.94,329.36c-.04-2.43.56-4.31,2.59-6.11,2.02,2.9.91,5.36-1.01,7.44-1.06,1.15-1.46-.1-1.58-1.32h0Z"/>
  <path class="st0" d="M337.71,354.53c.81.69,1.9,1.3,1.83,1.73-.14,1.05-1.18.49-1.9.29-1.64-.46-2.92-1.45-3.92-2.6-1-1.17-3.32-2.63-1.5-3.93,1.39-1,2.63,1,3.76,2.36.55.87.75,1.6,1.73,2.17v-.02Z"/>
  <path class="st0" d="M227.56,349.35c1.31,1.26,3.26,1.61,3.06,3.78-1.8.31-3.12-.46-4.62-1.02-1.45-.54-2.35-1.67-1.87-2.72.69-1.51,2.06-.1,3.43-.04Z"/>
  <path class="st0" d="M410.93,284.26c.27-.3.35-.45.49-.51,2-1.01,4.21-3.97,6.14-1.82,1.36,1.5-2.14,3.06-4.22,4.33-.5,0-.67-.04-1.08-.19-.38-.21-.52-.31-.86-.58-.41-.42-.57-.71-.48-1.22h0Z"/>
  <path class="st0" d="M215.21,328.22c2.25,2.3,2.14,5.4,1.19,8.74-1.6-2.49-3.07-5-1.19-8.74Z"/>
  <path class="st0" d="M398.64,170.84c2.86-2.01,5.82-2.45,10.06-1.27-3.72,2.25-6.62,3.35-10.06,1.27Z"/>
  <path class="st0" d="M242.41,180.01c2.35-.11,5.32-1.95,7.89,1.25-3.12,1.57-5.42.62-7.89-1.25Z"/>
  <path class="st0" d="M377.47,177.06c.93,1.6.3,2.6-2.09,3.03-.98.18-2.91,1.31-3.02-.69-.06-1.2,1.02-2.34,2.94-2.05.59.09,1.24-.11,2.17-.29h0Z"/>
  <path class="st0" d="M395.97,304.52c3.68-.07,4.51,2.24,5.43,5.36-3.24-1.12-4.26-3.15-5.43-5.36Z"/>
  <path class="st0" d="M278.7,353.44c-.19-.46-.22-.8-.05-1.02,1.09-1.47,2.01-3.13,4.12-3.67.31-.08,1.1.33,1.12.57.18,2.04-1.68,3.06-3.34,4.39-.76.07-1.19.02-1.86-.27h0Z"/>
  <path class="st0" d="M199.87,285.61c-.85-.19-1.16-.36-1.62-.72-.5-.72-.95-1.15-1.75-1.71-.94-2.2.66-2.16,1.85-1.76,1.46.49,2.72,1.45,4.3,2.44.63,1.25-.23,1.52-1.34,1.83-.51-.02-.71-.03-1.45-.08h0Z"/>
  <path class="st0" d="M201.05,286c.47-.71,1-1.12,1.68-1.72.31-.13.49-.1.59,0,1.12,1.06,3.85,2.03,2.57,3.4-1.25,1.32-3.49.05-4.84-1.68h0Z"/>
  <path class="st0" d="M241.84,179.9c.14.33.19.18.19.14-3.1.93-5.21-.25-7.69-2.93,3.3.4,5.71.45,7.5,2.78h0Z"/>
  <path class="st0" d="M301.68,323.68c1.64,3.09-.33,4.83-2.93,6.47-2.97-1.81-.69-3.06.14-4.77.71-1.01,1.39-1.58,2.79-1.72h0Z"/>
  <path class="st0" d="M221.57,294.18c.48,1.1,1.38,1.26,2.38,1.76-3.04.3-5.96-1.03-9.99-2.94,3.17.45,5.22.73,7.61,1.17h0Z"/>
  <path class="st0" d="M242.65,206.68c-.51,1.13-2.05.47-3.36,1.26-2.68-.23-5.15-.69-7.98-1.26-.13-.32.12-.47.52-.74,3.54.11,6.96.39,10.83.75h-.01Z"/>
  <path class="st0" d="M434.97,265.72c2.26-1.48,2.4-3.98,3.55-6.05,1.45,3.45.46,5.37-3.4,6.24-.09-.28-.12-.22-.15-.19h0Z"/>
  <path class="st0" d="M367.8,181.91c-1.78-.04-3.18-.13-5.4-.28,2.58-1.79,4.68-3.25,7.04-1.78,1.58.99-.6,1.41-1.64,2.05h0Z"/>
  <path class="st0" d="M273.83,260.46c1.56-1.46,2.14-.99,2.25.48.19,2.72-.73,5.15-2.83,7.49-1.12-.4-1.25-1.22-1.2-2.38.56-1.99,1.59-3.55,1.78-5.59Z"/>
  <path class="st0" d="M280.1,141.32c.13-.68.4-1.05.73-1.68,1.82,2.34,5.46,3.69,5.19,7.92-1.96-1.76-3.87-3.85-5.92-6.25h0Z"/>
  <path class="st0" d="M412.96,285.76c.17.18.28.4.17.47-.2.18-.25.34-.37.42-1.42.94-3.61,2.14-4.61.99-1.19-1.35,1.36-2.27,2.64-3.47.43.15.63.37,1.1.65.46.31.7.53,1.07.94h0Z"/>
  <path class="st0" d="M173.19,190.44c.08-1.37.61-2.21,2.07-1.92.87.18,2.38.95,2.32,1.15-.81,2.62-2.58.49-3.97.52-.3,0-.6.08-.89.17-.11.03-.16.2-.24.31.19,0,.39-.03.71-.23h0Z"/>
  <path class="st0" d="M422.38,211.96c.41-1.08-1.35-2.81.42-3.41,1.43-.48,2.11,1.06,2.79,1.98.66.91.92,2.08-.22,2.68-1.33.71-1.89-.67-2.99-1.26h0Z"/>
  <path class="st0" d="M181.54,208.28c.15-.45.37-.65.61-.84.96-.74.3-2.52,2.12-2.63.83-.05,1.2.71.88,1.23-.86,1.4-.51,3.53-2.93,4.01-.07.01-.39-.98-.69-1.76h0Z"/>
  <path class="st0" d="M307.27,317.79c.38,1.26,0,2.21-1.02,2.39-1.23.22-1.6-.81-1.65-1.69-.08-1.31-.04-2.62.03-4.29.44-.69.87-.84,1.73-.67.92,1.38.54,2.71.91,4.28h0Z"/>
  <path class="st0" d="M177.75,193.75c2.16.92.95-3.09,3.22-1.88,1.15.62,2.08,1.38,2.04,2.66,0,.39-.21,1.04-.49,1.13-2.18.67-2.06-1.84-3.94-1.86-.33.23-.78.15-.83-.05Z"/>
  <path class="st0" d="M253.63,228.53c.73.17,1.15.43,1.85.73-1.47,1.42-3.23,2.8-5.24,4.35-.78.29-1.21.18-1.44-.53,1.57-1.7,3.05-3.08,4.83-4.56h0Z"/>
  <path class="st0" d="M181.52,207.93c-1.39-.03-1.89,2.2-3.58,1.25-1.36-.77-.28-1.86.06-2.71.31-.77.93-1.9,1.99-1.6,1.32.37.86,1.66,1.16,2.89.29.27.33.2.36.17h0Z"/>
  <path class="st0" d="M217.17,341.52c4.72-1.27,3.7,2.74,4.25,5.22-2.43-.87-2.98-3.16-4.25-5.22Z"/>
  <path class="st0" d="M420.72,196.87c-1.73.33-.18,3.03-2.64,3.33-1.65-1.39-.97-2.83.31-4.06,1.05-1.02,1.68-.28,2.34.73h0Z"/>
  <path class="st0" d="M387.3,293.36c-2.39,1.51-4.12-.38-3.97-1.03.55-2.24,2.59-1.23,4.45-.63.48.71.39,1.17-.48,1.67h-.01Z"/>
  <path class="st0" d="M417.27,209.41c.22-.4.44-.59.69-1.04,1.22,1.02,2.34,2.23,3.79,3.53.33.09.27.04.25,0-.16.66-.04,1.67-.51,1.97-.84.54-1.32-.33-1.75-.92-.78-1.1-1.59-2.17-2.48-3.54h.01Z"/>
  <path class="st0" d="M149.38,128.01c1.03-2.41,2.18-4.56,3.53-6.96.43-.32.65-.39.95-.16.05,2.95-2.08,4.9-3.01,7.59-.69.22-1.06.06-1.48-.47h0Z"/>
  <path class="st0" d="M322.72,179.52c.59-1.14.68-2.52,2.2-2.01.92.31,2.16,1.07,1.87,2.14-.12.44-1.54.61-2.59,1.12-1.36.47-1.58-.16-1.48-1.25Z"/>
  <path class="st0" d="M340.2,264.49c-.74-.66-1.19-1.32-1.63-2.28.29-.64.69-.81,1.5-.71.96,1.47,3.21.19,3.73,2.07-.21,1.35-.92,1.91-2.51,1.83-.37-.1-.28-.07-.31-.04-.12-.29-.27-.59-.76-.87h0Z"/>
  <path class="st0" d="M340.99,265.57c.68-.65,1.45-1.02,2.52-1.55.74.99,2.31,2.29.91,3.25-1.45,1-2.37-.62-3.43-1.71h0Z"/>
  <path class="st0" d="M420.3,204.27c-.33-.11-.27-.04-.27,0,.43-.55,1.07-1.67,1.26-1.62,1.38.4,1.74,1.5,1.71,2.68-.01.57-.14,1.26-1.06,1.13-1.36-.19-.84-1.39-1.63-2.18h-.01Z"/>
  <path class="st0" d="M273.8,260.45c.88,1.52.49,3.14-.57,4.91-.62.45-1.05.56-1.81.34-.35-2.14,1.1-3.52,2.38-5.25Z"/>
  <path class="st0" d="M216.99,341.46c1.63,1.18,2.98,2.77,3.91,5.09-3.04.2-3.48-2.35-3.91-5.09Z"/>
  <path class="st0" d="M271.05,265.78c.5-.28.91-.3,1.63-.28.31.85.32,1.67.31,2.79-.6.71-1.21,1.3-1.99.7-1.22-.93-.56-1.96.05-3.22h0Z"/>
  <path class="st0" d="M326.09,344.34c-.75-1.96.07-2.66,1.68-1.93,1.09.5,2.34,1.68,1.5,2.89-1.18,1.7-2.02.07-3.18-.97h0Z"/>
  <path class="st0" d="M433.62,115.81c-.18-.53-.02-1.05.03-1.81,1.1-.92,2.32-1.59,3.91-2.44-.11,2.41-1.37,3.66-3.93,4.26h0Z"/>
  <path class="st0" d="M324.54,340.54c-1.8-1.11-1.56-2.65-.41-3.19,1.36-.64,2.19.64,2.43,2.19-.43.76-1.05.92-2.02,1Z"/>
  <path class="st0" d="M261.82,213.78c.58.27.84.63,1.14,1.2-1.3,2.05-3.6.68-5.36,1.31,1.3-.81,2.61-1.62,4.22-2.52h0Z"/>
  <path class="st0" d="M338.28,235.35c-1.19-.82-2.13-1.8-3.15-3.06-.03-.6.14-.87.67-1.17,1.36,1.01,2.47,2.09,3.74,3.4-.18.46-.57.61-1.26.83Z"/>
  <path class="st0" d="M424.15,169.99c.53.64.68,1.1.85,1.8-1.41,1.4-2.75-.32-4.58-.03-.44-.06-.84-.09-1.08-.3-.61-.64-.99-1.05-1.63-1.65,1.85-.12,3.95-.06,6.43.16h0Z"/>
  <path class="st0" d="M421,196.9c.71.52,2.74-1.13,2.33,1.09-.16.89-.39,2.39-1.74,2.05-1.3-.33-.36-1.65-.37-2.87-.12-.32-.22-.32-.22-.27h0Z"/>
  <path class="st0" d="M283.91,249.32c-.48.35-.84.34-1.48.33-.83-2.08.62-3.76,1.59-5.63,0,1.64,0,3.28-.11,5.29h0Z"/>
  <path class="st0" d="M278.12,353.34c.96-.79,1.57-1.1,2.08.21-.59.65-1.16,1.22-1.87,1.5-.79.3-2.03,1.14-2.44.01-.3-.82,1.19-1.12,2.23-1.72Z"/>
  <path class="st0" d="M338.06,119.25c.19.81.43,1.28.71,2.05.71-1.09,1.38-2.47,2.08-4.19.27-.61.35-.87.25-1.11-.1-.22-.18-.35-.6-.33-1.01,1.1-1.7,2.17-2.45,3.57h0Z"/>
  <path class="st0" d="M237.02,294.3c.09,1.7,2.83.55,2.68,2.34-1.07,1-2.26.83-3.7.27-1.13-1.52-.4-2.16,1.01-2.62h0Z"/>
  <path class="st0" d="M291.21,180.76c-.56-.88-3.45.2-2.69-1.77.4-1.05,1.4-1.66,2.52-.06.36.64.47,1.07.17,1.83Z"/>
  <path class="st0" d="M269.21,277.58c-2.74-1.5-1.01-2.6.64-3.98,1.23.26,1.07,1.08.79,2.19-.56.69-.96,1.09-1.43,1.79h0Z"/>
  <path class="st0" d="M178.11,185.37c.22-.38.72-.61,1.31-1.08,1.42.39,2.74,1.01,4.3,1.83.27.42.29.65-.08.88-2.01-.49-3.64-.99-5.53-1.63h0Z"/>
  <path class="st0" d="M166.89,192.66c-1.06.01-2.77.8-1.95-.83.64-1.26,2.33-1.24,4.15-.87-.75.64-1.32,1.12-2.21,1.7h.01Z"/>
  <path class="st0" d="M179.08,199.63c1.21,0,1.34.81,1.63,1.86.2.99-.27,1.59-.94,1.33-1.55-.6-1.18-1.82-.7-3.2h.01Z"/>
  <path class="st0" d="M177.53,193.41c.18.33.26.48.59.6,1.01.59,1.23,1.4,1.21,2.31-1.45-.65-2.05-1.62-1.79-2.91Z"/>
  <path class="st0" d="M386.77,266.07c-.1.42-.51.71-.95,1.27-1.74.16-3.21-.65-5.52-2.26,2.68.38,4.43.63,6.48,1h0Z"/>
  <path class="st0" d="M421.21,193.44c.98-1.37,1.91-2.44,3.88-1.43-.81,1.56-1.57,2.92-3.88,1.43Z"/>
  <path class="st0" d="M193.11,195.54c1.44,1.55,1.83,3.27.88,5.92-.81-2.13-1.35-3.54-1.84-5.24.24-.38.45-.48.96-.68Z"/>
  <path class="st0" d="M306.94,308.32c-.6-.32-.99-.34-1.64-.39.1-1.11-.23-2.85,1.53-2.82.89.01,1.2,1.49,1.06,2.8-.3.43-.51.57-.96.4h0Z"/>
  <path class="st0" d="M343.71,179.38c.79.21,1.26.44,2.02.72-1.32,1.49-3.28.84-6.5.98,2.18-.88,3.17-1.28,4.48-1.7h0Z"/>
  <path class="st0" d="M431.53,193.95c-.86-.64-2.25-1.3-.2-1.58,1-.14,2.62-.26,2.66,1.07.04,1.32-1.38.54-2.46.52h0Z"/>
  <path class="st0" d="M236.75,192.72c1.24.4,2.14,1.32,1.18,2.15-.92.8-1.37-.63-2.19-1.2.26-.33.56-.52,1.02-.94h0Z"/>
  <path class="st0" d="M335.98,230.79c-.11.51-.29.77-.71,1.13-.83-.6-1.44-1.31-2.1-2.28.18-.61.41-.95.68-1.5.71.66,1.38,1.53,2.12,2.67h.01Z"/>
  <path class="st0" d="M359.04,140.36c1.51.88.57,2.79,1.56,4.43.17,1.11-.19,1.92-1.61,2.42,0-2.28,0-4.35.05-6.85h0Z"/>
  <path class="st0" d="M263.82,186.98c-1.5.34-2.15-.62-3.29-1.33.6-1.14,0-2.74,1.86-3.23-.2,1.24.11,2.03,1.27,2.88.26.61.29,1,.16,1.67h0Z"/>
  <path class="st0" d="M426.6,242.15c-.62-.66-.97-1.63-1.34-2.91.43-1,.02-1.8.56-2.71,1.67,1.51,1.26,3.42.78,5.61h0Z"/>
  <path class="st0" d="M259.85,167.81c-.47-.52-.83-1.42-1.45-2.47-.36-1.18-.14-2.32.98-2.27,1.01.05.48,1.27.57,1.97.1.79.02,1.59-.1,2.77Z"/>
  <path class="st0" d="M345.23,236.72c-1.09.85-1.94.23-3.16-.44,1.41-4.56,1.98-.11,3.16.44Z"/>
  <path class="st0" d="M235.77,296.99c1.09-.32,2.16-.29,3.55-.19.53.52.74.97.93,1.65-1.64.19-3.17-.14-4.48-1.47h0Z"/>
  <path class="st0" d="M229.77,200.76c1.09-.74.74-1.64.94-2.7.43.91.84,2.12,1.08,3.35.08.4.36,1.38-.61,1.2-.56-.11-.92-1-1.4-1.85h-.01Z"/>
  <path class="st0" d="M173.19,263.21c.75,1.05,1.78,2.03,1.4,3.69-1.14-1.21-3.12-1.75-1.4-3.69Z"/>
  <path class="st0" d="M346.16,271.63c.28.76,3.7.49,1.1,2.36-1.47-.38-1.63-1.19-1.1-2.36Z"/>
  <path class="st0" d="M426.26,242.77c.07-.3.28-.33.37-.27,1.69.87,1.18,2.2.77,3.55-.4-.99-.81-1.98-1.14-3.27h0Z"/>
  <path class="st0" d="M300.33,324.93c-.43.04-.65,0-1.17-.14.35-1.15.79-2.53,2.84-1.37-.43.66-.94,1.04-1.66,1.51h0Z"/>
  <path class="st0" d="M149.1,128.04c.5-.11.85.05,1.33.46-.11,1.02-.38,1.81-.77,2.88-1.15.64-1.45.09-1.41-.96.36-.9.52-1.5.84-2.39h.01Z"/>
  <path class="st0" d="M340.32,261.36c-.34.37-.73.46-1.44.56-.34-1.15-2.04-2.83-.04-3.3,2.04-.47.02,2,1.48,2.74Z"/>
  <path class="st0" d="M184.91,236.68c.07,1.29-.05,2.38-.27,4.35-1.16-2.19-1.47-3.64-1.08-5.46.95-.16.95.44,1.34,1.12h0Z"/>
  <path class="st0" d="M185.31,245.51c-.62-.6-.7-1.46-.23-2.6,1.22.7-.05,1.58.23,2.6Z"/>
  <path class="st0" d="M333.21,263.07c-1.09-1.17-1.57-2.17-.82-3.84.61,1.2,1.07,2.08,1.53,3.29-.16.47-.32.62-.71.55h0Z"/>
  <path class="st0" d="M319.03,326.17c.98-.04,1.99.05,2.28.99.21.69-.38.88-1.34.8-1.11-.36-1.2-.9-.94-1.79Z"/>
  <path class="st0" d="M458.81,123.95c.6,1.16.89,2.24,1.15,3.65-.26.36-.49.38-1.03.26-.76-1.11-1.2-2.07-1.62-3.34.37-.53.76-.63,1.49-.56h0Z"/>
  <path class="st0" d="M297.96,151.73c-.28.51-.56.7-.95,1.13-1.35-.76-1.29-1.95-.63-3.23.53.6,1.06,1.19,1.58,2.11h0Z"/>
  <path class="st0" d="M382.27,194.4c.56.09.8.51,1.42,1.01.34,1.75-.56,2.91-1.92,3.82-.9-1.56-.46-3.03.5-4.83h0Z"/>
  <path class="st0" d="M426.04,236.14c-.11.94-.24,1.66-.59,2.59-.57-.72-.93-1.65-1.29-2.88.36-.3.72-.31,1.35-.3.27,0,.5.39.53.6h0Z"/>
  <path class="st0" d="M185.12,236.57c-.39-.07-.75-.45-1.24-1.07-.19-.61-.27-.97-.29-1.63.45-.34.85-.38,1.54-.52.2.92.11,1.91,0,3.21h0Z"/>
  <path class="st0" d="M280.21,180.88c-.76-1.03-1.82-.55-2.97-.73.92-.35,2.25-1.02,3.4-.83,2.21.36.24.99-.43,1.57h0Z"/>
  <path class="st0" d="M322.66,179.39c.39.33.55.87,1,1.5-.16.76-.62,1.42-1.21,2.28-.72-1.49-.63-2.54.21-3.77Z"/>
  <path class="st0" d="M148.47,133.56c.07,1.42-.24,2.64-.56,3.91-1.3-.81-.89-1.93-.63-3.25.4-.47.61-.67,1.19-.65Z"/>
  <path class="st0" d="M148.92,133.5c-.3.31-.53.33-1.11.4-.14-1.04.07-2.12.46-3.49.4.14.61.57,1.04,1.13.04.65-.14,1.17-.39,1.96h-.01Z"/>
  <path class="st0" d="M356.94,267.6c.33-.33.75-.35,1.49-.41.81.75.92,1.99.32,2.2-.99.35-1.15-.94-1.81-1.79Z"/>
  <path class="st0" d="M155.2,130.92c-.11.33-.45.39-.62.41-.79-1.38.15-2.46.66-3.68,1.51,1,.31,1.98-.04,3.27Z"/>
  <path class="st0" d="M219.89,320.4c.25,1.06.19,2.26.02,3.81-1-.96-1.01-2.3-.02-3.81Z"/>
  <path class="st0" d="M341.76,114.81c1.42-.82,1.31-2,.9-3.26-.48.54-.95,1.08-1.49,1.92.05.63.19.96.6,1.35Z"/>
  <path class="st0" d="M215.48,327.94c-.91-.98-1.26-2.07-.13-3.46,1.35.72.31,1.99.24,3.23-.19.27-.13.21-.11.24h0Z"/>
  <path class="st0" d="M291.01,181.29c0-.66.01-1.07.07-1.8.93.53,1.39,1.44.54,2.52-.38.47-.99.18-.42-.11.02,0-.11-.24-.19-.6Z"/>
  <path class="st0" d="M182,275.67c.25-.14.67-.31.86-.22.18.68.34,1.47-.78,1.44-.77-.02-.74-.6-.07-1.22h0Z"/>
  <path class="st0" d="M324.24,341.01c.34-1.12,1.01-1.22,2.04-1.19.28,0,.21.02.22,0,.05.27.07.56.04,1.28-.77,1.62-1.51,1.58-2.31-.09h0Z"/>
  <path class="st0" d="M163.06,169.24c.16.29.45.37.47.5-1.01.11-2.04.08-3.42.04,1.06-.94,1.87-1.14,2.96-.54h-.01Z"/>
  <path class="st0" d="M459.15,123.79c-.42.33-.8.43-1.5.47-.6-.53-.9-1.01-1.18-1.77.56-.06,1.12.15,1.97.29.61.14.76.41.72,1.01h0Z"/>
  <path class="st0" d="M427.7,170.17c.15.68-.02,1.23-.19,1.79-.56-.39-1.11-.8-1.88-1.44.44-.32,1.1-.39,2.08-.36h-.01Z"/>
  <path class="st0" d="M341.91,115.16c-.07-.58-.21-.9-.59-1.31-.48.38-.74.85-1.06,1.6.17.42.35.64.56,1.13.39-.24.69-.69,1.09-1.41h0Z"/>
  <path class="st0" d="M263.85,185.24c-1.68.13-2.01-.75-1.34-2.3.59.51.94,1.28,1.34,2.3Z"/>
  <path class="st0" d="M283.17,256.41c-.13-.75-.09-1.77.16-3.03.14.76.07,1.76-.16,3.03Z"/>
  <path class="st0" d="M414.71,169.88c.21.44.11.83-.16,1.47-.62.03-1.09-.2-1.55-.42.46-.37.93-.73,1.71-1.03h0Z"/>
  <path class="st0" d="M459.72,128.65c.5.59.65,1.21.77,2.14-.1.56-.17.81-.64,1.15-.63-.69-.85-1.47-1.01-2.55.23-.44.39-.58.87-.74Z"/>
  <path class="st0" d="M332.95,263.14c.03-.31.5-.33.73-.32.48.46.73.91,1,1.6-.32.25-.66.25-1.25.23-.34-.41-.43-.81-.48-1.51h0Z"/>
  <path class="st0" d="M154.33,118.44c.27-.17.18.16.23.33.05.82.04,1.48-.29,2.28-.34.15-.73-.05-.94-.15.11-.83.42-1.55.99-2.45h.01Z"/>
  <path class="st0" d="M426.8,215.25c.26.71.64,1.32-.35,1.64-.81-.78-.37-1.3.35-1.64Z"/>
  <path class="st0" d="M460.41,132.95c.3.89.45,1.98.19,2.06-1.08.33-.87-.68-1.07-1.44.22-.46.38-.67.89-.62h0Z"/>
  <path class="st0" d="M342.04,344.32c-.77.19-1.65.1-1.99-1.16.58.11,1.21.52,1.99,1.16Z"/>
  <path class="st0" d="M261.47,181.8c-.17-.68-.06-1.17.04-1.67.59.56,1.37,1.12-.04,1.67Z"/>
  <path class="st0" d="M425.99,275.42c.43-.38.88-.51,1.68-.55-.14.73-.16,2.38-1.68.55Z"/>
  <path class="st0" d="M269,277.77c.12-.62.09-1.32,1.24-1.64.1.35-.07.77-.37,1.4-.24.33-.36.45-.67.4l-.2-.17h0Z"/>
  <path class="st0" d="M187.67,278.94c.3.02.37.16.47.53-.18.79-.63,1.34-1.23.87-.59-.46.15-.91.77-1.4h0Z"/>
  <path class="st0" d="M424.1,277.99c-.11-.36-.11-.52-.02-.88.76.08,1.52.33,1.29,1.19-.01.04-.75-.06-1.27-.31h0Z"/>
  <path class="st0" d="M319.46,328.93c1.2,0,2.02.32.73,1.52-.39-.29-.63-.78-.73-1.52Z"/>
  <path class="st0" d="M410.14,255.95c-.28.01-.36-.13-.53-.53-.33-1.02.09-1.39.92-1.69.12.67-.03,1.36-.38,2.22h0Z"/>
  <path class="st0" d="M459.34,132.25c.3-.35.46-.5.88-.9.36.28.48.81.57,1.6-.24.28-.43.31-.92.36-.55-.24-.67-.52-.52-1.06h0Z"/>
  <path class="st0" d="M338.34,235.88c.07-.59.47-.83,1.11-1.1,1.28,1.2.67,1.56-1.11,1.1Z"/>
  <path class="st0" d="M339.18,128.87c-.06-.3.03-.83.32-1.52.09.32-.05.81-.32,1.52Z"/>
  <path class="st0" d="M279.16,130.79c-.15-.32-.16-.9.03-1.7.17.33.14.89-.03,1.7Z"/>
  <path class="st0" d="M340.01,264.72c.1-.35.29-.5.47-.63.17.28.32.56.46,1.08-.3.09-.58-.06-.95-.44h0Z"/>
  <path class="st0" d="M317.22,154.85c-.15-.39-.11-.99.17-1.98.17.33.09,1.05-.17,1.98Z"/>
  <path class="st0" d="M269,278.01c0-.24.38-.27.56-.27.31.32.22.57-.32.86-.23-.05-.24-.2-.25-.59h.01Z"/>
  <path class="st0" d="M326.85,341.49c-.39-.25-.42-.54-.38-1.26.78-.02,1.05.51.38,1.26Z"/>
  <path class="st0" d="M344.42,277.94c.3-.13.5.03.59.47-.27.11-.47-.05-.59-.47Z"/>
  <path class="st0" d="M333.4,266.49c.4-.08.57.13.56.63-.32.04-.52-.17-.56-.63Z"/>
  <path class="st0" d="M191.61,193.54c-.03.39-.2.62-.67.9-.23.07-.4-.25-.44-.42.1-.27.24-.37.6-.59.23-.12.45,0,.51.11h0Z"/>
  <path class="st0" d="M236.56,192.32c.14.47-.14.69-.67,1.02-.64-.52-.47-.97.67-1.02Z"/>
  <path class="st0" d="M279.5,189.39s0,.02,0,0Z"/>
  <path class="st0" d="M326.24,169.03c0,.05-.13-.16-.13-.16,0,0,.04.24.12.13s0-.02.02.03h0Z"/>
  <path class="st0" d="M414.32,171.94c.25.05.35.31.4.59,0,.04-.3.11-.71.09-.12-.2.01-.33.32-.68h0Z"/>
  <path class="st0" d="M459.61,127.85c.33.08.49.54.47.66-.2.21-.39.3-.88.49-.45-.21-.59-.52-.66-1.06.3-.22.51-.19,1.05-.09h.02Z"/>
  <path class="st0" d="M320.14,193.05c-.11.08-.4-.21-.32-.3.31-.09.43,0,.32.3Z"/>
  <path class="st0" d="M419.21,206.82c-.06-.08,0-.15.03-.16.02,0,.03.24-.03.16Z"/>
  <path class="st0" d="M438.35,253.94c-.02-.26.4-.58.99-.68-.07.35-.31.49-.99.68Z"/>
  <path class="st0" d="M340.16,136.41c-.11-.03-.03-.32.05-.33s.06.36-.05.33Z"/>
  <path class="st0" d="M420.1,172.03c1.26-1.1,2.7-.25,4.5-.14-.89,2.88-2.9-.58-4.5.14Z"/>
  <path class="st0" d="M419.2,171.47c-.64.43-1.3.78-1.68-.24.35-.03.7-.07,1.32-.03.27.07.33.21.35.28Z"/>
  <path class="st0" d="M440.08,243.96c-.14,2.82,2.61,5.96-1.52,8.77-.63-3.06-.96-5.7,1.43-8.46.04-.39.05-.31.1-.32h-.01Z"/>
  <path class="st0" d="M428.72,221.12c-.58-.4-1.11-.94-1-1.08.28-.36.84-.41,1.27.3.07.42.07.62-.27.77h0Z"/>
  <path class="st0" d="M428.89,220.68c.84.25,1.47.63.75,1.38-.03.04-.61-.36-1.1-.77-.16-.22.18-.48.35-.61h0Z"/>
  <path class="st0" d="M350.16,275.2c-.15-.14-.13-.3-.1-.47.09.15.19.29.1.47Z"/>
  <path class="st0" d="M169.57,246.07c.23-.71.28-1.03.37-1.59,1.06-.28.94.38,1.08,1.22.03,1.55.18,2.85-.11,4.05-.29,1.16-.93.7-1.35-.44-.37-1.19-.26-2.02,0-3.25h0Z"/>
  <path class="st0" d="M169.54,245.91c.2.59.2,1.41.11,2.63-.76-.5-.42-1.45-.11-2.63Z"/>
  <path class="st0" d="M413.05,285.7c-.18.04-.45-.17-.83-.56.17-.03.46.15.83.56Z"/>
  <path class="st0" d="M202.37,303.19c3.23-1.6,5.67-.73,7.26,1.27,2.09,2.6,3.87,5.58,4.34,9.81.08.97,0-.13.94-.58-.05-6.45-1.19-10.29-5.67-13.04-2.6-1.59-5.73-1.06-9.06,1.67-2.59,2.12-3.95,4.8-3.73,7.67.98,1.42,1.02-3.04,5.93-6.81Z"/>
  <path class="st0" d="M226.31,315.27c-1.73-2.37-3.47-4.42-5.47-6.7-.49-.24-.69-.25-.87.08.99,3.26,3.5,4.82,5.24,7.53.67.05.94-.22,1.1-.92h0Z"/>
  <path class="st0" d="M218.7,306.1c-.29-.12-.1.23-.08.42.24.92.48,1.64,1.05,2.43.34.07.61-.25.75-.42-.38-.88-.9-1.59-1.71-2.43h0Z"/>
  <path class="st0" d="M427.33,301.41c-1.26,2.57-.95,4.06.75,4.29,1.79.25,3.45-1.18,4.56-3.58,1.45-3.13,1.04-5.48-.25-7-1.68-2-3.67-3.7-6.69-4.12-.69-.07-.85-.4-.45-1.32,4.65,0,8.27,1.48,9.84,5.79.91,2.5.24,5.52-2.04,8.76-1.77,2.52-3.83,3.84-5.88,3.66-2-.18-2.63-1.77-1.76-4.69.47-1.11,1.02-1.71,1.9-1.79h0Z"/>
  <path class="st0" d="M169.8,289.62c-3.22.22-4.33,1.66-3.29,3.89,1.16,2.49,4.9,4.53,8.1,4.42,4.65-.16,8.25-4.07,7.37-8.69-.3-1.61.21-2.99-.37-4.79-.68-.74-1-.52-1.23,0,.14,2.98.11,5.73-1,8.1-1,2.13-2.57,3.85-5.99,3.79-1.92-.04-3.73-.88-4.78-2.48-1.06-1.62-.37-2.58,1.53-3.06.66-.39.5-.74-.33-1.16h0Z"/>
  <path class="st0" d="M175.12,251.71c-.6.03-1.14.43-1.97.81-.81,1.59-1.33,3.21-1.99,5.3,2.61-1.16,3.75-3.06,3.97-6.1h0Z"/>
  <path class="st0" d="M188.28,275.63c1.37.15,2.59,0,4.17-.31.34-.43.33-.7.11-1.23-1.34-.35-2.46-.41-3.91-.33-.51.63-.56,1.1-.35,1.86h0Z"/>
  <path class="st0" d="M188.16,276.07c.29-.6.33-1.05.25-1.83-.68-.43-1.25-.54-2.13-.53.03.64.36,1.15.66,2.01.25.6.58.65,1.23.35h0Z"/>
  <path class="st0" d="M193.55,274.61c.73.28,1.43.19,2.46-.08.6-.35.85-.53,1.14-1.19-.85-.39-1.75-.29-2.95,0-.44.44-.56.67-.65,1.27Z"/>
  <path class="st0" d="M198.35,273.5c1.02-.06,2.23-.36,2.27-.68.17-1.32-.88-.65-1.75-.55-.46.43-.67.7-.52,1.23h0Z"/>
  <path class="st0" d="M197.41,272.64c-.33.48-.47.72-.83,1.34.37.27.96.18,1.84-.07.27-.38.26-.6.23-1.16-.35-.5-.68-.5-1.24-.11h0Z"/>
  <path class="st0" d="M192.66,274.83c.14.33.68.31.8.23.19-.31.26-.56.38-1.16-.31-.4-.66-.42-1.26-.27-.19.42-.12.64.08,1.19v.02Z"/>
  <path class="st0" d="M436.73,291.12c.85-.15,1.31-.48.97-1.18-.21-.42-.86-1.11-.98-1.06-1.54.61-.02,1.33.12,2.02.03.15.02.31,0,.46,0,.05-.11.09-.16.15-.02-.1-.03-.2.07-.37h0Z"/>
  <path class="st0" d="M434.15,289.11c-.82-1,1.82-.72.81-1.76-.52-.53-1.09-.93-1.89-.81-.24.03-.62.19-.65.33-.18,1.14,1.38.88,1.6,1.82-.11.18,0,.4.12.41Z"/>
  <path class="st0" d="M436.05,294.44c.11.53-.19,1.45.73.91.72-.42.51-1.26.08-2.14-.31.43-.55.75-.81,1.24h0Z"/>
  <path class="st0" d="M434.39,289.19c-.22-.06-.33-.09-.44-.24-.48-.46-1.01-.5-1.58-.42.57.67,1.24.9,2.02.66Z"/>
</svg>