<?xml version="1.0" encoding="UTF-8"?>
<svg id="Layer_1" xmlns="http://www.w3.org/2000/svg" version="1.1" viewBox="0 0 612 400">
  <!-- Generator: Adobe Illustrator 29.8.9, SVG Export Plug-In . SVG Version: 2.1.1 Build 1)  -->
  <defs>
    <style>
      .st0 {
        fill: #231f20;
      }

      .st1 {
        fill: #221f1f;
      }
    </style>
  </defs>
  <path class="st0" d="M329.46,26.98c.81.1,1.17.34,1.63.72.53.14.87.29,1.71.61.82.29,1.15.41,1.84.59,6.33,3,12.17,5.87,17.07,10.73,21.55,21.34,26.14,48.74,11.61,75.24-3.75,6.85-4.98,12.99-1.27,20.12,1.83,3.53,2.15,7.51-1.36,11.39.29-4.49-.7-7.95-2.87-11.23-2.64-4-2.91-8.34-.84-12.97-.14-.43-.16-.61-.05-1.02-.15-.41-.42-.59-.83-.99-.18-.58-.08-.91.25-1.45.32-.54.51-.85.84-1.44.31-.42.48-.55.76-1.03,1.66-2.87,3.21-5.4,4.75-7.94,7.71-12.7,8.25-25.75,1.86-39.11-.82-1.71-1.38-3.71-4.11-4.74.21,4.33,2.06,8.21,1.37,12.57.18,1.53-.16,2.72.06,4.32-.19,2.03-.37,3.64-.76,5.52-.7.3-1.06.11-1.31-.66.51-5.32-.83-9.98-2.7-14.46-3.85-9.24-7.41-18.7-15.67-25.59.72-.88,1.4-.86,2.41-.18,2.51,1.36,4.67,2.63,7.54,4.33-2.93-9.32-8.81-14.83-16.89-18.66-.43-.35-.7-.51-1.37-.68-1.63-.7-2.92-1.31-4.54-1.97-.8-.13-1.15-.38-1.44-.75-.05.03-.09-.07-.3-.34-.23-.75-.05-1.14.68-1.44.76.15,1.17.31,1.93.52h0Z"/>
  <path class="st0" d="M267.41,132.9c-.46-.62-.51-.86-.82-1.42-.3-1.37-.73-2.47-.03-3.72-.05-.46-.03-.65-.23-1.1-.32-.72-.39-1.17-.64-1.91-.25-.72-.32-1.15-.55-1.84-.33-.81-.4-1.42-1.16-2.06-.87-1.35-1.16-2.85-2.07-3.58-6.18-5-10.19-11.67-14.67-18.9-.09,6.59,2.7,11.76,3.98,17.63.21,1.19.06,1.93-1.32,1.47-8.57-14.86-12.04-30.35-9.07-47.12,1.88-10.62,7.34-19.3,14.01-27.42.87-1.06,1.97-.97,3.03-1.23-.35.9-.48,2.02-1.1,2.67-2.93,3.04-4.73,6.79-6.42,10.5-4.98,10.9-7.26,22.07-1.93,34.58.62-5.19.23-9.56,1.88-13.89.29-.09.42.03.6.61-.66,16.72,7.2,29.19,18.61,40.73-4.81-.65-4.76.49-2.89,3.73,2.65,4.59,4.46,9.67,6.77,14.84-2.67.41-4.07-1-5.96-2.6l-.02.03h0Z"/>
  <path class="st0" d="M256.75,278.31c.22-6.71,1.02-12.94,3.45-18.84,1.86-4.52,4.57-8.38,9.34-10.31,3.4-1.38,5.43-4.23,7.41-7.05,6.17-8.77,10.54-18.39,12.12-29.03.81-5.43,4.6-9.56,5.23-14.98,1.61,7.25,1.11,14.36.8,21.48-.03.64-.2,1.81-.4,1.83-8.13.81-6.54,8.54-8.8,13.13-2.43,4.95-4.56,10.28-8.52,13.78-9.88,8.73-14.87,20.06-19.3,32.3-2.1.48-1.39-1-1.34-2.31h0Z"/>
  <path class="st0" d="M248.22,272.77c-1.67,8.39-4.47,16-9.11,23.29.4.44-.2,1.56,1.03,1.34,1.62,2.5-.68,2.81-1.89,3.53-3.38,2-6.83,3.91-11.06,4.94-1.36.9-2.33.81-3.22-.44,2.81-2.3,6.31-3.22,8.82-7.25-6.81,2.31-12.74,1.99-18.9-.42,12.23-3.3,22.93-7.96,27.29-21.25.63-3.53.23-6.73.25-10.3-.05-1.08-.05-1.77.06-2.79.31-.46.51-.59,1.02-.56.31,3.48.31,6.79.31,10.09.47.05.95.1,1.42.16.91-1.78,1.82-3.55,2.85-5.67.4-.74.78-.9,1.48-.6.22.97.22,1.69.13,2.76-.24,1.2-.17,2.07-.49,3.18h0Z"/>
  <path class="st0" d="M390.2,306.57c-1.04.14-1.84.02-3.01-.29-.51-.08-.65.04-.92-.09-4.18-.76-7.67-2.7-10.96-4.91-.65-.44-5.98-1.65-.52-3.67.76-.28-.01-1.38-.49-2.07-3.82-5.62-5.47-12-6.32-19.06-.62-1.49-.7-2.53.57-3.48,4.14,7.5,7.99,14.8,15.75,19.1,4.54,2.51,9.31,4.19,15.36,5.25-6.26,3.16-11.89,2.82-18.67.75,2.83,3.82,5.73,5.06,8.7,6.79.65.52.8.94.51,1.69h0Z"/>
  <path class="st0" d="M253.88,239.3c3.46-4.6,6.9-8.78,10.21-13.06.41-.52,2.25-1.96-.75-2.31-1.01-.21-1.36-.64-1.36-1.53,8.14-7.27,11.27-17.34,16.27-27.72,2.04,17.78-5.97,33.48-22.19,45.04-1.03.92-1.67.74-2.18-.42Z"/>
  <path class="st0" d="M188.43,249.2c-.2-.71-.13-1.2.13-2,.13-.49.08-.67.23-1.02,5.02-22.67,26.65-37.42,42.74-33.11.6.53.47.93-.25,1.1-9.01-.28-17.67,2.05-22.65,8.66-2.98,3.96-7.15,6.77-9.63,11.18-2.74,4.87-6.45,9.18-8.84,14.69-.53.64-.95.8-1.73.51h0Z"/>
  <path class="st0" d="M382.02,213.52c14.19-4.45,33.11,7.05,39.97,23.12,1.35,3.16,2.51,6.4,3.78,9.98-.28.73-.66.87-1.36.6-4.21-8.31-10.49-14.55-16.17-21.39-5.5-6.62-11.84-9.48-19.92-11.21-2.36-.34-4.44.47-6.3-1.1h0Z"/>
  <path class="st0" d="M344,183.49c6.16-5.39,10.25-11.53,10.96-20.5,2.06,4.41,1.79,8.03.28,11.76-.93,2.29-2.11,4.49-2.37,7.04-1.08,10.7,5.36,16.92,18.83,17.57-4.99,3.25-9.49,3.39-14.27.71-5.57-3.13-8.48-7.73-8.21-14.15.08-1.97.73-4.03-2.79-1.98-1.14.68-1.82.57-2.44-.45h.01Z"/>
  <path class="st0" d="M358.27,280.61c.01.69.19,1.14.42,1.96-.28.75-.7.94-1.53.72-3.24-7.28-6.07-14.41-9.1-21.46-1.9-4.4-4.3-8.54-7.64-12.06-.9-.95-2.07-2.15.88-2.37,1.52-.13,2.41.36,3.63,1.08,6.94,6.29,11.52,13.45,12.04,23.15,1.02,1.74.28,3.29.64,5.07.17,1.11.25,1.86.34,2.99.17.48.32.59.32.92h0Z"/>
  <path class="st0" d="M333.48,239.98c-4.81-7.5-9.39-14.82-12.7-23.02-2.68-6.64-1.53-12.82-.99-18.73,7.05,12.69,6.59,27.4,14.01,39.72.88.95.66,1.51-.32,2.03Z"/>
  <path class="st0" d="M416.75,196.18c-1.92-.02-1.01-.93-.55-1.37,4.94-4.74,10.82-6.44,17.31-4.28,6.11,2.03,10,6.42,10.76,13.02.51,4.39-.78,8.11-5.58,11.09,3.23-5.42,5.29-10.39,1.2-15.15-4.26-4.95-9.93-6.71-16.14-4.4-2.33.86-4.79-.9-7,1.1h0Z"/>
  <path class="st0" d="M325.85,168.93c-.27,1.23-1,2.49-1.73,3.77,2.33.96,4.33-.03,7-.87-2.82,3.43-5.34,5.83-9.36,4.61-3.35-1.01-3.4,3.27-6.37,3.46.18-1.93.56-4.07-1.69-5.18-.36-.18-.78-1.09-.72-1.14,5.07-4.29-.29-8.39-.3-12.57-.01-4.13.99-7.4,4.87-8.98-.07,1.03-.14,1.63-.3,2.63-.18,3.7-1.47,6.9-.56,10.28,1.58,5.87,3.04,6.6,9.17,3.99h-.01Z"/>
  <path class="st0" d="M297.59,151.97c3.27,5.86,3.58,11.78,1.33,17.83-.11.31-.46.83-.43.85,5.01,3.39-1.91,5.98-.73,9.37-2.58-6.26-10.56-.98-13.52-6.87h5.26c.54-1.75-1.58-2.21-1.28-3.65.21-.12.53-.44.69-.37,5.4,2.15,8.88.07,9.03-5.8.08-3.11-.61-6.24-1-9.79-.26-.93-.16-1.34.67-1.56h-.02Z"/>
  <path class="st0" d="M194.35,194.21c-10.61-3.95-22.09,2.94-22.35,13.39.62,1.1.52,1.75-.52,2.36-3.04-5.87-1.54-11,2.74-15.35,4.83-4.9,10.68-6.34,17.26-3.99,1.38.49,2.67,1.27,4.25,2.17.41,1.28-.17,1.61-1.37,1.43h0Z"/>
  <path class="st0" d="M332.1,157.14c3.59-3.34,7.8-4.34,11.76-5.85,4.01-1.53,7.89-3.23,10.55-7.34.49-.76.87-.85,1.41-.25-.41,2.09-.77,3.88-1.4,5.56-1.42,3.83-3.86,6.3-8.32,6.4-4.62.1-9.08,1.26-13.8,2.81-.41-.25-.46-.58-.19-1.32h-.01Z"/>
  <path class="st0" d="M242.74,214.36c5.99-.6,10.51-3.89,15.46-6.12,1.19-.54,2.63-2.71,3.74-.83.77,1.31-.02,3.4-2.03,4.21-.76.31-1.45.8-2.49,1.34-.55.56-.81,1.02-1.25,1.21-.63.27-1.35.74-1.89-.19.1,1.05,1.5.3,1.61,1.54-5.37,2.68-10.7,3.04-16.43.46-.2-2.79,1.94-.78,3.28-1.6v-.02h0Z"/>
  <path class="st0" d="M307.63,236.88c2.39,9.14,6.54,17.18,9.76,26.1.95,1.94,1.44,3.54.81,5.37-3.46-5.24-5.95-10.92-8.53-17.02-.9-.81-1.23-1.58-1.47-2.81-.48-3.61-.9-6.91-1.32-10.63-.07-.92.12-1.18.74-1.01h.01Z"/>
  <path class="st0" d="M341.66,134.43c-1.08-.45-1.35-1.02-.46-2.08,1.46-2.73,2.05-5.26,1.6-8.21-.31-.81-.43-1.38-.51-1.93-1.44.3-3,1.06-1.42-1.18,2.74-3.88,5.42-7.8,8.52-11.75,1.09.59,1.23,1.28.53,2.4-1.58,3.75-4.3,7.24-3.45,10.8,1.29,5.39-.6,8.8-4.82,11.94h.01Z"/>
  <path class="st0" d="M263.45,191.77c-3.87,9.15-10.71,12.12-19.85,8.19,7.5-.54,12.55-3.88,16.51-9.56,1.59-.76,2.43.03,3.34,1.37Z"/>
  <path class="st0" d="M205.42,281c-7.19-10.44-5.66-19.55,5.15-32-6.04,9.02-8.7,18.56-4.59,29.52.62,1.16.55,1.86-.56,2.48Z"/>
  <path class="st0" d="M405.75,250.76c7.95,6.84,9.36,19.35,3.37,29.9-1.24.41-1.55-.18-1.35-1.38,3.77-9.88,2.49-18.93-2.73-27.93.09-.52.27-.67.7-.59h.01Z"/>
  <path class="st0" d="M259.65,167.85c2.06,9.24,7.23,14.82,16.89,16.08,1.42-.56,2.44-.65,3.38.55-11.96,4.58-22.24-4.29-21.83-18.87,2.21-.66,1.04,1.1,1.56,2.24h0Z"/>
  <path class="st0" d="M340.8,169.45c1.05-3.4,4.34-5.11,6.05-4.06,2.02,1.25.5,4.52-.87,6.65-2.64,4.11-7.49,5.54-11.2,3.33-.66-.39-1.63-1.12-1.6-1.62.08-1.02,1.23-1.85,2.14-1.62,2.51.64,4.23,0,5.49-2.67h0Z"/>
  <path class="st0" d="M277.29,175.99c-7.5-.72-10.42-4.25-9.78-11.85,2.71.88,5,1.75,6.15,4.74.59,1.55,1.45,3.55,3.78,3.34,1.48-.13,3.46-.75,3.7,1.15.25,1.97-2.04,2.03-3.85,2.62h0Z"/>
  <path class="st0" d="M292.65,108.65c1.58,4.45,2.83,8.75.99,13.09-1.26,2.98-2.92,5.79-4.58,9.01-.81,1.74,1.04,3.97-1.77,4.27-1.85-4.45-.79-8.25,1.34-11.75,2.44-4,3.46-8.2,2.99-13,.39-.73.56-1.29,1.02-1.62h.01Z"/>
  <path class="st0" d="M272.62,158.04c-10.19-.68-10.3-.75-12.88-9.74,4.75,7.28,14.37,4.81,19.76,11.03-2.17-.41-4.34-.83-6.88-1.29Z"/>
  <path class="st0" d="M182.07,233.41c.3-3.05.76-5.84,2.76-7.96,1.02-1.09,1.84-2.34,3.97-.8,1.85,1.34,2.5,2.36,1.75,4.37-1.54,4.12-5.21,6.2-8.47,4.39h0Z"/>
  <path class="st0" d="M439.99,256.86c3.8,2.98,3.7,8.01-.29,10.72-.52.01-.89.1-1.53.2-3.33-2.65-4.22-8.43-1.99-11.35,1.02-1.33,2.19-2.08,3.78-.28-.93,2.13.28,4.18-.65,6,.82-1.6-.01-3.36.7-5.29h-.02Z"/>
  <path class="st0" d="M426.79,224.31c4.81.83,4.56,4.92,5.4,8.25.14.54-.62,1.8-1.16,1.94-3.71.97-5.13-2.09-6.65-4.39-1.09-1.65-2.9-4.2,1.53-4.66.5-.14.62-.52.88-1.14Z"/>
  <path class="st0" d="M438.42,244.71c-1.25,1.92,1.13,5.14-1.5,5.43-2.43.26-3.38-2.67-4.09-4.91-.1-.31-.38-.58-.42-.9-.3-2.07-1.49-4.95.83-5.81,2.73-1.01,3.72,1.86,4.54,4.06.23.62.52,1.21.64,2.13Z"/>
  <path class="st0" d="M180.99,238.42c1.99,4.46.46,7.96-2.26,11.14-.81.94-1.89,1.66-2.69-.04-1.59-3.37.92-9.4,4.96-11.1h-.01Z"/>
  <path class="st0" d="M434.53,281.05c-1.31-2.02-2.38,3.43-3.97.68-1.33-2.29.45-4.44,1.2-6.56.32-.91.84-1.8,1.47-2.54.6-.7,1.35-1.78,2.43-1.21,1.2.63,1.26,1.84.69,3.05-.97,2.07-2.42,3.98-1.81,6.58h-.01Z"/>
  <path class="st0" d="M182.9,282.23c-3.61-1.4-4.22-4.83-5.55-7.75-.55-1.21-.06-2.42,1-3.03,1.05-.6,1.98.35,2.41,1.13,1.6,2.92,4.22,5.64,2.14,9.65Z"/>
  <path class="st0" d="M424.23,294.79c-2.16-.08-4.02-.45-2.32-3.01.9-1.36,1.85-2.71,2.93-3.92,1.1-1.23,2.93-2.83,4.11-1.55.93,1.01,2.01,3.66-.7,5.33-.54.69-.99.91-1.94.61-1.38-.3-1.67.66-2.22,1.44.18.5.28.69.14,1.1h0Z"/>
  <path class="st0" d="M357.72,208.76c2.39.54,4.42.86,6.84,1.16.92-.26,1.34-.12,1.57.75-1.4,2.49.83,2.1,2.08,3.13-4.6,0-9.24,2.41-12.04-3.5-.37-1.35.26-1.69,1.55-1.54h0Z"/>
  <path class="st0" d="M172.79,257.18c2.04-2.91,4.17-2.93,5.3.03,1.35,3.56,2.16,7.42-1.64,10.49-2.39-1.64-1.58-4-2.12-6.32-.39-.92-.62-1.53-1.13-2.38-.38-.66-.5-1.08-.41-1.81h0Z"/>
  <path class="st0" d="M284.37,357.31c1.42-1.46,2.47-4.01,4.33-2.54,1.55,1.23.08,3.37-1.03,4.79-1.47,1.88-3.01,3.8-5.83,4.06-.49-2.79,1.38-4.22,2.53-6.3h0Z"/>
  <path class="st0" d="M216.46,172.13c1.88-2.92-1.98-1.85-2.3-3.35,2.09-2.63,7.16-1.98,8.65.87.34.65.4,1.71-.11,1.67-2.09-.16-3.56,3.23-6.24.8h0Z"/>
  <path class="st0" d="M189.7,294.27c-.26-2.12-1.92-3.01-3.35-4.32-.49.15-.64.28-.96.16,1.13-1.7-2.53-2.82-.59-3.94,1.65-.94,3.05.5,4.27,1.68,1.57,1.52,2.76,3.27,3.37,5.38.51,1.77-1.1,1.11-2.1,1.64-.49-.02-.66-.17-.64-.6h0Z"/>
  <path class="st0" d="M230.31,173.96c.98.6,1.71,1.03,2.27,1.62.96,1,1.52,2.42.6,3.48-.86,1-2.26.21-3.22-.33-1.73-.96-3.4-2.07-4.54-4.39,1.67-.03,2.95-1.1,4.9-.38h-.01Z"/>
  <path class="st0" d="M192.02,210.34c2.39.24,4.39-1.1,6.68-1.73-.03,2.49.29,5.38-1.51,6.97-1.09.96-2.69-1.09-3.82-2.57-1.26-.53-1.32-1.42-1.34-2.66h0Z"/>
  <path class="st0" d="M419.46,213.76c-.62.81-.92,1.14-1.31,1.8.24.77.2,1.16-.61,1.44-1.9-2.75-2.94-5.56-2.24-9.03.86,1.97,4.07.3,4.37,3.25.24.75.17,1.41-.2,2.54h-.01Z"/>
  <path class="st0" d="M410.93,302.37c.27-.34.35-.51.49-.58,2-1.15,4.21-4.51,6.14-2.07,1.36,1.71-2.14,3.48-4.22,4.92-.5,0-.67-.04-1.08-.22-.38-.24-.52-.35-.86-.66-.41-.48-.57-.81-.48-1.39h0Z"/>
  <path class="st0" d="M242.41,183.85c2.35-.13,5.32-2.22,7.89,1.42-3.12,1.79-5.42.71-7.89-1.42Z"/>
  <path class="st0" d="M272.5,371.23c-.12-.55-.1-.93.1-1.16,1.29-1.48,2.44-3.19,4.6-3.46.32-.04,1.04.55,1.03.82-.11,2.32-2.1,3.17-3.93,4.4-.76-.04-1.18-.17-1.8-.6h0Z"/>
  <path class="st0" d="M199.87,303.91c-.85-.22-1.16-.41-1.62-.82-.5-.82-.95-1.31-1.75-1.94-.94-2.5.66-2.46,1.85-2,1.46.56,2.72,1.65,4.3,2.77.63,1.42-.23,1.73-1.34,2.08-.51-.02-.71-.03-1.45-.09h0Z"/>
  <path class="st0" d="M201.05,304.35c.47-.81,1-1.27,1.68-1.95.31-.15.49-.11.59,0,1.12,1.2,3.85,2.31,2.57,3.86-1.25,1.5-3.49.06-4.84-1.91h0Z"/>
  <path class="st0" d="M241.84,183.73c.14.38.19.2.19.16-3.1,1.06-5.21-.28-7.69-3.33,3.3.46,5.71.51,7.5,3.16h0Z"/>
  <path class="st0" d="M294.66,340.06c2.38,2.92.92,5.41-1.17,7.97-3.34-1.12-1.45-3.16-1.09-5.28.43-1.32.94-2.14,2.25-2.7h.01Z"/>
  <path class="st0" d="M223.63,305.01c.87.95,1.76.72,2.87.82-2.69,1.64-5.9,1.51-10.35,1.26,3.1-.91,5.1-1.5,7.48-2.08h0Z"/>
  <path class="st0" d="M242.65,214.17c-.51,1.28-2.05.53-3.36,1.43-2.68-.26-5.15-.78-7.98-1.43-.13-.36.12-.53.52-.84,3.54.12,6.96.44,10.83.85h-.01Z"/>
  <path class="st0" d="M434.97,281.3c2.26-1.68,2.4-4.52,3.55-6.88,1.45,3.92.46,6.11-3.4,7.09-.09-.32-.12-.25-.15-.22h0Z"/>
  <path class="st0" d="M341.88,134.63c-2.05,2.4-3.96,4.49-5.92,6.25-.27-4.23,3.37-5.58,5.19-7.92.33.63.6,1,.73,1.68h0Z"/>
  <path class="st0" d="M412.96,304.08c.17.2.28.45.17.53-.2.21-.25.39-.37.48-1.42,1.07-3.61,2.43-4.61,1.13-1.19-1.54,1.36-2.58,2.64-3.94.43.17.63.42,1.1.74.46.35.7.6,1.07,1.07h0Z"/>
  <path class="st0" d="M188.26,198.8c.41-1.51,1.12-2.33,2.48-1.7.81.38,2.1,1.56,1.99,1.77-1.42,2.74-2.64,0-4-.26-.29-.06-.61-.04-.91,0-.11,0-.2.19-.31.29.19.03.39.05.75-.11h0Z"/>
  <path class="st0" d="M390.33,306.94c-.35-.5-.34-.89-.34-1.58,2.35-.2,4.45.87,6.59,1.69-1.93,0-3.9,0-6.24-.1h-.01Z"/>
  <path class="st0" d="M422.38,220.18c.41-1.23-1.35-3.2.42-3.88,1.43-.55,2.11,1.2,2.79,2.25.66,1.03.92,2.36-.22,3.05-1.33.81-1.89-.76-2.99-1.43h0Z"/>
  <path class="st0" d="M192.16,220.39c.25-.47.52-.65.8-.8,1.11-.62.9-2.74,2.7-2.48.82.12,1,1.04.57,1.55-1.18,1.38-1.34,3.82-3.82,3.84-.07,0-.15-1.17-.25-2.1h0Z"/>
  <path class="st0" d="M296.69,331.61c.36,1.44-.04,2.51-1.06,2.7-1.23.22-1.58-.95-1.62-1.96-.06-1.49.01-2.98.11-4.88.45-.77.89-.94,1.74-.73.89,1.59.49,3.09.83,4.88h0Z"/>
  <path class="st0" d="M191.93,203.44c1.89,1.48,1.67-3.24,3.6-1.41.98.93,1.7,1.97,1.36,3.39-.1.43-.45,1.11-.75,1.15-2.29.29-1.57-2.48-3.41-2.9-.38.19-.8,0-.8-.23Z"/>
  <path class="st0" d="M293.14,341.83c.35,2-1.49,3.66-.09,5.97.04,1.77-.65,2.46-2.1,2.19-1.47-.28-1.12-1.58-.92-2.35.44-1.68,1.21-3.28,1.99-5.26.36-.47.58-.59,1.13-.55h0Z"/>
  <path class="st0" d="M407.25,178.93c-1.25-1.45-2.93-.42-4.11-1.56.19-.57.48-.82.7-1.34,2.93-2.84,4.27,2.94,7.32,1.54-1.19.48-2.37.96-3.91,1.36h0Z"/>
  <path class="st0" d="M253.63,239.01c.73.19,1.15.49,1.85.83-1.47,1.61-3.23,3.18-5.24,4.94-.78.33-1.21.2-1.44-.6,1.57-1.93,3.05-3.5,4.83-5.18h0Z"/>
  <path class="st0" d="M171.12,210.28c.24-.79.5-1.26.82-2,.99,1.59,1.92,3.46,2.95,5.53-2.67.31-2.64-2.11-3.76-3.53h-.01Z"/>
  <path class="st0" d="M192.23,220c-1.35-.33-2.37,2.05-3.8.64-1.15-1.14.17-2.13.71-3,.49-.79,1.36-1.92,2.33-1.36,1.2.69.44,2.03.44,3.46.22.36.28.29.31.27h0Z"/>
  <path class="st0" d="M420.72,203.02c-1.73.37-.18,3.45-2.64,3.79-1.65-1.58-.97-3.22.31-4.62,1.05-1.16,1.68-.32,2.34.83h0Z"/>
  <path class="st0" d="M417.27,217.28c.22-.45.44-.67.69-1.18,1.22,1.16,2.34,2.54,3.79,4.01.33.1.27.04.25,0-.16.75-.04,1.9-.51,2.24-.84.61-1.32-.37-1.75-1.05-.78-1.25-1.59-2.47-2.48-4.02h.01Z"/>
  <path class="st0" d="M205.09,281.3c.24-.79.55-1.28.91-2.08,1.14,1.62,2.24,3.56,3.49,5.78-2.59-.23-2.94-2.43-4.4-3.7h0Z"/>
  <path class="st0" d="M381.64,213.09c2.02,1.32,4.02.31,6.03,1.15-3.34-.26-6.89.61-11.24.97,1.74-1.65,3.34-1.77,5.21-2.12Z"/>
  <path class="st0" d="M248.61,244c.48.14.68.45,1.12.87-1.16,1.86-2.57,3.61-4.61,6.15.05-3.59,1.83-5.12,3.49-7.03h0Z"/>
  <path class="st0" d="M322.72,183.29c.59-1.3.68-2.86,2.2-2.28.92.35,2.16,1.22,1.87,2.43-.12.5-1.54.69-2.59,1.27-1.36.54-1.58-.18-1.48-1.42Z"/>
  <path class="st0" d="M420.3,211.43c-.33-.12-.27-.05-.27,0,.43-.62,1.07-1.9,1.26-1.84,1.38.46,1.74,1.71,1.71,3.05-.01.65-.14,1.43-1.06,1.28-1.36-.22-.84-1.58-1.63-2.48h-.01Z"/>
  <path class="st0" d="M368.99,272.72c-1.18.78-.83,1.8-.98,3-1.53-1.77-1.13-4.09-.81-7.34.83,1.84,1.32,2.93,1.78,4.34h.01Z"/>
  <path class="st0" d="M261.82,222.24c.58.31.84.72,1.14,1.37-1.3,2.33-3.6.77-5.36,1.49,1.3-.92,2.61-1.84,4.22-2.86h0Z"/>
  <path class="st0" d="M338.28,246.77c-1.19-.93-2.13-2.05-3.15-3.48-.03-.68.14-.99.67-1.33,1.36,1.15,2.47,2.38,3.74,3.87-.18.52-.57.69-1.26.94Z"/>
  <path class="st0" d="M421,203.05c.71.59,2.74-1.28,2.33,1.24-.16,1.01-.39,2.72-1.74,2.33-1.3-.38-.36-1.88-.37-3.26-.12-.36-.22-.36-.22-.31h0Z"/>
  <path class="st0" d="M372.56,265.51c-.74-1.33-1.09-3.09-1.41-5.24.52-1.18.27-2.09.68-3.16,1.82,2.38,1.08,5.21.73,8.4Z"/>
  <path class="st0" d="M283.91,262.65c-.48.4-.84.39-1.48.38-.83-2.37.62-4.28,1.59-6.4,0,1.87,0,3.73-.11,6.01h0Z"/>
  <path class="st0" d="M271.94,371.02c1.06-.73,1.71-.98,2.03.57-.68.64-1.32,1.19-2.06,1.38-.82.21-2.17.95-2.42-.38-.18-.97,1.34-1.07,2.45-1.57Z"/>
  <path class="st0" d="M349.02,108.99c.75-1.43,1.46-2.53,2.52-3.67.45-.04.55.08.67.3.12.24.05.5-.22,1.12-.69,1.75-1.36,3.16-2.09,4.28-.35-.76-.63-1.22-.88-2.02h0Z"/>
  <path class="st0" d="M241.23,266.26c1.3,2.74.94,6,.27,9.57-.31-2.83-.36-5.97-.27-9.57Z"/>
  <path class="st0" d="M242.9,262.61c-.36.45-.63.49-1.1.51-.28-.77-.37-1.5-.38-2.61,0-.96.09-1.53.35-2.36.18-.66.22-1.07.35-1.77.57-.47.95-.33,1.08.37-.18,2.01-.2,3.72-.3,5.86h0Z"/>
  <path class="st0" d="M208.88,178.51c.15.5.16.67.16,1.1-1.73-.39-3.45-1.03-5.57-2.03,1.7-1.3,3.41.06,5.4.92h.01Z"/>
  <path class="st0" d="M291.21,184.7c-.56-1-3.45.23-2.69-2.01.4-1.19,1.4-1.89,2.52-.07.36.73.47,1.22.17,2.08Z"/>
  <path class="st0" d="M194.28,194.2c.31-.38.85-.53,1.54-.92,1.3.73,2.44,1.7,3.77,2.94.16.52.13.78-.29.96-1.85-.97-3.32-1.86-5.02-2.97h0Z"/>
  <path class="st0" d="M181.57,199.95c-1.04-.21-2.9.31-1.71-1.33.93-1.27,2.57-.89,4.27-.1-.89.55-1.56.97-2.57,1.42h.01Z"/>
  <path class="st0" d="M191.82,210.26c1.18.25,1.12,1.18,1.15,2.41-.04,1.14-.64,1.71-1.24,1.28-1.37-.99-.72-2.27.08-3.7h.01Z"/>
  <path class="st0" d="M191.79,203.02c.1.4.14.59.43.79.85.87.87,1.82.63,2.82-1.27-1.03-1.62-2.23-1.06-3.61Z"/>
  <path class="st0" d="M407.76,279.21c.37.3.51.85.9,1.56-.44,1.85-1.71,2.97-4.04,4.58,1.27-2.56,2.1-4.23,3.15-6.14h0Z"/>
  <path class="st0" d="M421.21,199.12c.98-1.56,1.91-2.77,3.88-1.63-.81,1.77-1.57,3.32-3.88,1.63Z"/>
  <path class="st0" d="M199.87,197.1c1.98,1.13,3.05,2.81,3.24,5.96-1.63-1.97-2.71-3.27-3.86-4.89.07-.49.22-.67.62-1.07Z"/>
  <path class="st0" d="M296.17,327.25c-.64-.28-1.02-.24-1.68-.21-.04-1.27-.58-3.18,1.17-3.4.88-.11,1.38,1.51,1.4,3.01-.24.53-.44.71-.9.59h0Z"/>
  <path class="st0" d="M343.71,183.13c.79.24,1.26.5,2.02.82-1.32,1.69-3.28.95-6.5,1.11,2.18-1,3.17-1.45,4.48-1.93h0Z"/>
  <path class="st0" d="M431.53,199.7c-.86-.73-2.25-1.48-.2-1.8,1-.16,2.62-.3,2.66,1.22.04,1.5-1.38.61-2.46.59h0Z"/>
  <path class="st0" d="M380.62,192.95c.48.22.69.53,1.17.96-.62.94-1.5,1.76-2.48,2.67-1.09-1.95.51-2.54,1.31-3.63Z"/>
  <path class="st0" d="M243.29,256.81c-.43.02-.59-.22-.91-.59.21-1.65.29-3.32,2.64-4.99-.66,2.4-1.07,3.87-1.73,5.58Z"/>
  <path class="st0" d="M236.75,198.3c1.24.46,2.14,1.5,1.18,2.44-.92.91-1.37-.72-2.19-1.37.26-.38.56-.59,1.02-1.07h0Z"/>
  <path class="st0" d="M335.98,241.58c-.11.58-.29.87-.71,1.28-.83-.68-1.44-1.49-2.1-2.59.18-.69.41-1.08.68-1.71.71.75,1.38,1.74,2.12,3.03h.01Z"/>
  <path class="st0" d="M359.04,140.36c1.51.88.57,2.79,1.56,4.43.17,1.11-.19,1.92-1.61,2.42,0-2.28,0-4.35.05-6.85h0Z"/>
  <path class="st0" d="M263.82,191.77c-1.5.39-2.15-.7-3.29-1.51.6-1.3,0-3.12,1.86-3.67-.2,1.41.11,2.31,1.27,3.28.26.69.29,1.14.16,1.9h0Z"/>
  <path class="st0" d="M426.6,254.5c-.62-.75-.97-1.85-1.34-3.31.43-1.14.02-2.05.56-3.08,1.67,1.72,1.26,3.89.78,6.38h0Z"/>
  <path class="st0" d="M259.85,167.81c-.47-.52-.83-1.42-1.45-2.47-.36-1.18-.14-2.32.98-2.27,1.01.05.48,1.27.57,1.97.1.79.02,1.59-.1,2.77Z"/>
  <path class="st0" d="M345.23,248.33c-1.09.97-1.94.26-3.16-.5,1.41-5.18,1.98-.12,3.16.5Z"/>
  <path class="st0" d="M289.36,309.53c-.38-.75-.53-1.85-.9-3.14.17-1.17.55-2.16,1.24-3.24.44.07.58.24.54.68-.34,1.96-.49,3.66-.88,5.7Z"/>
  <path class="st0" d="M230.03,201.35c1.09-.84.74-1.87.94-3.07.43,1.04.84,2.41,1.08,3.81.08.46.36,1.57-.61,1.36-.56-.12-.92-1.14-1.4-2.1h-.01Z"/>
  <path class="st0" d="M357.83,208.73c-.35.42-.94.6-1.69,1.05-1.13-.54-2.1-1.35-3.21-2.27,2.13-1.13,3.19.74,4.9,1.22Z"/>
  <path class="st0" d="M256.08,215.87c-1.09-.48-1.89-.92-2.94-1.48,1.24-.49,2.25-.89,3.6-1.3,1.89,1.39,1,2.17-.66,2.78Z"/>
  <path class="st0" d="M256.74,278.25c.35.59.48,1.47.91,2.52.34,1.36,0,2.33-1.32,2.82-.93-1.76-.24-3.4.41-5.34Z"/>
  <path class="st0" d="M350.69,224.34c.85-.42,1.47-.57,2.19-1.02,1.21.29,2.32.89,4.5,2.06-2.83-.19-4.42-.3-6.31-.16-.31.25-.35.12-.31.07-.07-.26-.19-.47-.06-.96h-.01Z"/>
  <path class="st0" d="M176.19,277.75c.75,1.19,1.78,2.31,1.4,4.19-1.14-1.38-3.12-1.99-1.4-4.19Z"/>
  <path class="st0" d="M372.02,266.27c.15-.33.48-.32.64-.33.23,1.27.71,2.65-.6,3.61-.14.11-.71-.05-.79-.23-.52-1.04.03-1.89.75-3.05Z"/>
  <path class="st0" d="M426.26,255.2c.07-.34.28-.38.37-.31,1.69.99,1.18,2.5.77,4.04-.4-1.13-.81-2.25-1.14-3.72h0Z"/>
  <path class="st0" d="M293.67,341.83c-.41.17-.63.18-1.17.19.04-1.36.11-3.01,2.39-2.33-.25.85-.64,1.42-1.22,2.14h0Z"/>
  <path class="st0" d="M188.68,252.66c-.24,1.45-.62,2.64-1.3,4.78-.61-2.68-.57-4.35.25-6.3.97.02.82.69,1.04,1.52h.01Z"/>
  <path class="st0" d="M186.96,262.56c-.47-.79-.33-1.77.4-2.94,1.03,1.03-.43,1.75-.4,2.94Z"/>
  <path class="st0" d="M366.4,211.03c-.53-.31-.71-.62-1.18-1.04.79-.93,2.26-1.71,3.14-.66.68.81-.86,1.28-1.96,1.7h0Z"/>
  <path class="st0" d="M297.96,151.73c-.28.51-.56.7-.95,1.13-1.35-.76-1.29-1.95-.63-3.23.53.6,1.06,1.19,1.58,2.11h0Z"/>
  <path class="st0" d="M382.72,200.21c.39.06.56.36.99.71.24,1.23-.39,2.05-1.34,2.69-.63-1.1-.32-2.13.35-3.4h0Z"/>
  <path class="st0" d="M426.04,247.66c-.11,1.07-.24,1.89-.59,2.95-.57-.82-.93-1.88-1.29-3.28.36-.34.72-.35,1.35-.34.27,0,.5.44.53.68h0Z"/>
  <path class="st0" d="M188.91,252.59c-.36-.16-.63-.66-.96-1.45-.04-.72-.03-1.14.1-1.87.52-.28.92-.25,1.63-.25-.02,1.06-.35,2.15-.77,3.57h0Z"/>
  <path class="st0" d="M280.21,184.84c-.76-1.17-1.82-.62-2.97-.83.92-.4,2.25-1.16,3.4-.94,2.21.41.24,1.13-.43,1.78h0Z"/>
  <path class="st0" d="M322.66,183.15c.39.38.55.99,1,1.7-.16.86-.62,1.62-1.21,2.59-.72-1.69-.63-2.89.21-4.29Z"/>
  <path class="st0" d="M357.77,276.7c-1.31-.86-.85-2.45-.89-4.28.38,1.06.67,2.49.89,4.28Z"/>
  <path class="st0" d="M356.94,283.43c.33-.37.75-.4,1.49-.47.81.85.92,2.26.32,2.5-.99.4-1.15-1.07-1.81-2.03Z"/>
  <path class="st0" d="M352.15,103.08c.56-.86,1.05-1.42,1.55-1.98.52,1.24.69,2.42-.83,3.3-.46-.37-.63-.69-.72-1.32Z"/>
  <path class="st0" d="M248.91,266.8c-.46.3-.81.32-1.43.32.2-.95.66-1.87,1.12-2.79.14.73.28,1.46.31,2.47Z"/>
  <path class="st0" d="M295.93,327.32c.16-.45.35-.52.82-.45.28,1.51.29,2.88.2,4.66-1.27-.83-.89-2.38-1.02-4.21h0Z"/>
  <path class="st0" d="M196.32,301.18c.77.07,2.52-.96,1.94,1.43-.73-.22-1.31-.68-1.94-1.43Z"/>
  <path class="st0" d="M291.01,185.3c0-.75.01-1.22.07-2.05.93.6,1.39,1.64.54,2.86-.38.54-.99.21-.42-.13.02,0-.11-.27-.19-.68Z"/>
  <path class="st0" d="M184.95,290c.27-.15.7-.31.88-.18.09.9.15,1.94-.96,1.76-.76-.12-.66-.87.08-1.58h0Z"/>
  <path class="st0" d="M203.04,176.92c.04.32.26.48.23.61-.9-.2-1.76-.54-2.92-.99,1.22-.57,1.97-.51,2.7.38h0Z"/>
  <path class="st0" d="M290.27,303.86c-.24.06-.26-.11-.27-.55.01-1.01-.02-2.48.38-2.31,1.34.57.57,1.7-.11,2.86h0Z"/>
  <path class="st0" d="M353.05,104.74c-.4.74-.71,1.2-1.13,1.46-.25-.48-.46-.69-.67-1.1.32-.76.58-1.24,1.09-1.64.44.39.61.7.71,1.28h0Z"/>
  <path class="st0" d="M263.85,189.8c-1.68.15-2.01-.85-1.34-2.62.59.58.94,1.45,1.34,2.62Z"/>
  <path class="st0" d="M307.88,249.82c-.36.45-.64.56-1.15.55-.5-1.19.18-1.88.84-2.58.14.58.27,1.16.31,2.04h0Z"/>
  <path class="st0" d="M283.17,270.71c-.13-.85-.09-2.01.16-3.45.14.86.07,2-.16,3.45Z"/>
  <path class="st0" d="M426.8,223.91c.26.81.64,1.5-.35,1.86-.81-.89-.37-1.48.35-1.86Z"/>
  <path class="st0" d="M248.24,272.78c-.17-.62-.14-1.49.14-2.6.18.63.13,1.49-.14,2.6Z"/>
  <path class="st0" d="M342.04,370.66c-.77.22-1.65.11-1.99-1.32.58.13,1.21.59,1.99,1.32Z"/>
  <path class="st0" d="M261.47,185.88c-.17-.77-.06-1.33.04-1.9.59.64,1.37,1.27-.04,1.9Z"/>
  <path class="st0" d="M425.99,292.32c.43-.43.88-.58,1.68-.63-.14.83-.16,2.71-1.68.63Z"/>
  <path class="st0" d="M189.64,294.09c.3.06.35.22.4.65-.28.87-.79,1.45-1.33.85-.53-.58.26-1.01.94-1.5h0Z"/>
  <path class="st0" d="M424.1,295.25c-.11-.41-.11-.59-.02-1,.76.09,1.52.38,1.29,1.35-.01.05-.75-.07-1.27-.35h0Z"/>
  <path class="st0" d="M405.91,250.72c-.08.29-.25.31-.69.3-1.09-.13-1.31-.74-1.32-1.72.69.19,1.3.66,2.01,1.41h0Z"/>
  <path class="st0" d="M241.68,258.12c.22.38.22.97,0,1.8-.22-.37-.23-.97,0-1.8Z"/>
  <path class="st0" d="M338.34,247.37c.07-.67.47-.94,1.11-1.25,1.28,1.36.67,1.77-1.11,1.25Z"/>
  <path class="st0" d="M341.13,129.75c-.07-.3-.01-.83.25-1.53.1.32-.01.81-.25,1.53Z"/>
  <path class="st0" d="M342.79,122.41c.19.8.18,1.38.03,1.7-.17-.81-.2-1.37-.03-1.7Z"/>
  <path class="st0" d="M400.74,176.3c-.2.3-.68.55-1.43.75.2-.3.68-.55,1.43-.75Z"/>
  <path class="st0" d="M403.55,175.77c.89.52,1.09.98-.26,1.24-.26.03-.25-.46-.28-.7-.02-.24.32-.51.54-.54h0Z"/>
  <path class="st0" d="M317.22,154.85c-.15-.39-.11-.99.17-1.98.17.33.09,1.05-.17,1.98Z"/>
  <path class="st0" d="M344.42,295.19c.3-.15.5.03.59.54-.27.12-.47-.06-.59-.54Z"/>
  <path class="st0" d="M200.07,196.75c-.03.44-.2.71-.67,1.02-.23.08-.4-.28-.44-.48.1-.31.24-.42.6-.67.23-.14.45,0,.51.13h0Z"/>
  <path class="st0" d="M236.56,197.85c.14.53-.14.78-.67,1.16-.64-.59-.47-1.1.67-1.16Z"/>
  <path class="st0" d="M358.22,280.71c-.35.05-.46-.12-.34-.51.33-.05.45.12.34.51Z"/>
  <path class="st0" d="M279.5,194.51s0,.02,0,0Z"/>
  <path class="st0" d="M326.24,169.03c0,.05-.13-.16-.13-.16,0,0,.04.24.12.13s0-.02.02.03h0Z"/>
  <path class="st0" d="M320.14,198.68c-.11.09-.4-.24-.32-.34.31-.1.43,0,.32.34Z"/>
  <path class="st0" d="M188.86,246.12c.26.1.26.32.02.66-.33-.1-.33-.32-.02-.66Z"/>
  <path class="st0" d="M419.21,214.33c-.06-.09,0-.17.03-.18.02,0,.03.27-.03.18Z"/>
  <path class="st0" d="M199.32,304c0-.13.28-.25.4-.17s-.06.37-.06.37c0,0-.34-.07-.34-.2h0Z"/>
  <path class="st0" d="M322.65,304.16c.38-.04.5.19.4.69-.35.04-.49-.19-.4-.69Z"/>
  <path class="st0" d="M386.22,306.06c.07-.28.25-.31.52-.09.08.12-.16.29-.16.29,0,0-.28-.07-.37-.2h.01Z"/>
  <path class="st0" d="M438.35,267.9c-.02-.3.4-.66.99-.77-.07.4-.31.56-.99.77Z"/>
  <path class="st0" d="M340.16,136.41c-.11-.03-.03-.32.05-.33s.06.36-.05.33Z"/>
  <path class="st0" d="M240.08,297.19c-.31.83-1.04,1.26-1.87.76-.13-.08.13-.8.49-1.39.53,0,.78.17,1.38.62h0Z"/>
  <path class="st0" d="M350.57,224.05c.42.23.49.44.39.92-.73.92-1.23.68-1.56.09-.49-.88.23-.93,1.17-1.01h0Z"/>
  <path class="st0" d="M440.08,256.56c-.14,3.21,2.61,6.78-1.52,9.97-.63-3.48-.96-6.48,1.43-9.62.04-.44.05-.35.1-.36h-.01Z"/>
  <path class="st0" d="M428.72,230.59c-.58-.46-1.11-1.07-1-1.23.28-.41.84-.47,1.27.34.07.48.07.71-.27.88h0Z"/>
  <path class="st0" d="M428.89,230.09c.84.28,1.47.72.75,1.57-.03.04-.61-.41-1.1-.87-.16-.25.18-.55.35-.69h0Z"/>
  <path class="st0" d="M173.71,260.11c.19-.82.23-1.18.29-1.82,1.04-.37.96.39,1.14,1.34.11,1.76.33,3.23.1,4.61-.23,1.33-.89.84-1.37-.44-.43-1.33-.36-2.28-.17-3.69h0Z"/>
  <path class="st0" d="M173.67,259.93c.23.66.27,1.59.25,2.98-.78-.53-.49-1.63-.25-2.98Z"/>
  <path class="st0" d="M413.05,304.01c-.18.04-.45-.19-.83-.64.17-.03.46.17.83.64Z"/>
  <path d="M186.72,90.79c-1.74-3.17-1.62-6.52-.76-9.86,2.05-8.02,9.26-14.23,18.1-15.2,11.24-1.24,19.58,3.7,25.38,13.05,6.65,10.72,5.84,24.58-1.74,35.04-4.02,5.54-9.21,9.77-14.87,13.55-5.15,3.44-9.71,7.67-11.85,13.64-3.1,8.64-.07,16.51,7.44,20.77,2.2,1.25,4.67,2.12,7.12,2.81,6.04,1.73,11.13,4.93,15.59,9.3,2.37,2.32,4.83,4.61,7.55,6.48,4.1,2.82,8.75,4.2,13.81,3.71.51-.05,1.02,0,1.53,0,.04.17.08.33.11.5-2.06.47-4.1,1.18-6.19,1.37-3.79.35-7.44-.54-10.69-2.49-2.05-1.23-3.84-2.88-5.74-4.35-4.93-3.8-9.86-7.62-16.08-9.18-4.69-1.17-9.24-2.63-13.15-5.67-7.8-6.08-9.5-17.65-3.97-25.93,2.41-3.62,5.17-6.8,8.53-9.53,5.07-4.12,10.52-7.9,15.03-12.58,7.8-8.09,10.83-17.87,7.72-29.03-1.54-5.54-4.8-9.93-9.45-13.29-.41-.3-.86-.55-1.51-.65.86,1.24,1.71,2.48,2.57,3.72-.17.15-.35.3-.52.45-1.82-1.73-3.63-3.46-5.46-5.18-.45-.42-.86-.96-1.4-1.18-11.31-4.65-23.4,2.04-25.99,12.01-.36,1.39-.25,2.9-.36,4.35-.07.97-.15,1.94-.36,3.05-.2.21-.29.27-.39.31h0Z"/>
  <path d="M179.35,140.59c.34.07.82.23.8.32-.15,1.07-.38,2.13-.59,3.19-.24,1.26-.59,2.52-.67,3.8-.03.46.58.96.9,1.44.42-.33,1.05-.57,1.23-1,.63-1.49.98-2.97.11-4.62-.24-.46.59-1.7,1.19-2.32.73-.76,1.2.09,1.52.65.27.49.47,1.06.55,1.62.42,3.03-.34,5.82-1.97,8.35-.98,1.51-1.64,1.47-3.04.08-.22.54-.42,1.03-.67,1.66-1.89-.79-2.52-2.4-2.66-4.12-.28-3.43.1-6.72,3.3-9.04h0Z"/>
  <path d="M180.19,160.76c.55,1.41.85,2.83,1.57,4,.46.75,1.53,1.12,2.33,1.65-.08-.92.07-1.93-.29-2.72-.41-.89-1.4-1.51-1.87-2.39-.36-.67-.3-1.56-.42-2.36.64-.06,1.41-.39,1.89-.14,2.15,1.09,4.5,5.81,4.17,8.18-.11.8-.17,1.74-1.38,1.74-.12,0-.35.24-.36.38-.09,1.37-1.06,1.27-1.92,1.07-3.47-.82-6.48-6.74-5.16-10.09.07-.18.22-.33.48-.71.36.51.64.9.98,1.39h-.02Z"/>
  <path d="M190.29,127.47c.85-.02,1.7-.04,2.55-.06-.11,1.01.13,2.29-.39,2.98-1.5,1.97-3.25,3.76-5.04,5.49-.47.45-1.43.39-2.16.56-.13-.57-.53-1.26-.34-1.7.32-.75.96-1.4,1.55-2,.96-.97,2.02-1.83,2.95-2.83.18-.19.09-.89-.13-1.12-.19-.19-.89-.21-1.09,0-1,.96-1.95,1.97-2.83,3.05-.88,1.07-1.65,2.24-2.65,3.61-.91-1.86-.43-3.25.26-4.58,1.59-3.08,5.01-5.47,8.08-5.53-.36.6-.66,1.1-1.07,1.75.03.23.16.31.3.39h0Z"/>
  <path d="M195.52,121.16c2-3.7,7.27-6.38,10.56-5.35-.31.46-.62.92-.96,1.43.27.05.41.08.56.11.72.14,1.43.28,2.15.42-.28.75-.4,1.63-.87,2.22-1.79,2.24-4.22,3.54-7,4.12-.69.14-1.48-.19-2.22-.3.15-.67.3-1.35.48-2.18-.82.2-1.65.41-2.61.5-.11-.4-.1-.69-.09-.97M203.87,119.03c.38-.95-.27-1.09-.93-1.13-1.22-.07-3.31,1.43-3.91,2.86,2.03.79,3.31-.53,4.85-1.73h-.01Z"/>
  <path d="M219.12,107.22c.62-.03,1.25-.05,1.87-.08-.02.71.16,1.5-.1,2.1-1.31,2.93-3.58,4.85-6.69,5.64-1.69.43-2.07-.21-1.39-2.26-.61.16-1.14.29-1.67.43-.32-2.84,4.34-7.49,7.8-7.66-.04.46-.08.9-.17,1.53-.03.28,0,.36,0,.44.11-.05.23-.1.34-.15M217.37,108.1c-1.33.82-2.64,1.65-2.5,3.65,1.21-.59,2.25-1.36,3.14-2.28.17-.17-.26-.93-.64-1.37Z"/>
  <path d="M222.96,102.52c-1.67-.69-2.01-1.95-1.9-3.5.18-2.44,1.34-5.04,2.93-6.29.26.35.52.7.86,1.17.28-.4.51-.73.7-1,.25.08.39.07.44.14,2.35,2.9.59,8.6-3.04,9.48M224.73,95.36c-1.35.67-1.93,2.74-1.11,4.32,1.14-1.22,1.89-2.46,1.11-4.32Z"/>
  <path d="M186.77,90.9c.05-.14.13-.2.24-.31.42-.09.79-.16,1.23-.23.67.75,1.37,1.67,2.21,2.42,2.06,1.85,4.91,2.1,7.07.65,1.68-1.13,2.41-2.67,2.01-4.8.09-.1.07-.08.07-.08,1.9,2.18.23,6.31-2.9,7.37-4.1,1.39-8.15-.6-9.93-5.02h0Z"/>
  <path d="M196.63,179.01c-.4-.55-.8-1.1-1.27-1.76.87-1.06,2.1-1.11,3.33-1.05,2.32.11,4.4.96,6.05,2.57.58.57.73,1.57,1.08,2.38-.72.02-1.43.04-2.21.21-.06.15-.07.16,0,0-.2-.16-.45-.17-.7-.18,0,0,0,0,.13-.06-.59-1.93-3.29-3.16-5.03-2.35-.24.11-.33.56-.57.81-.32-.22-.56-.41-.79-.59h-.01Z"/>
  <path d="M212.36,189.64c-.97-.8-1.91-1.47-2.66-2.31-.39-.44-.45-1.18-.65-1.79.83-.21,1.17-1.46,2.39-.96,2.33.95,4.06,2.42,5.01,4.93-.29.06-.46.13-.64.14-.15,0-.3-.04-.57-.08.09.35.17.64.34,1.33-1.22-.47-2.16-.83-3.2-1.25h-.02Z"/>
  <path d="M196.51,178.99c.37.2.6.38,1.03.64,1.92.58,3.64,1.08,5.36,1.58,0,0,0-.02,0,.11.21.15.42.18.63.2v-.02c.28.47.56.95.84,1.43-2.59,1.6-8.8-.41-10.06-3.47.7-.17,1.38-.33,2.18-.47h.02Z"/>
  <path d="M224.29,88.49c-1.89-2.01-2.53-4.34-2.46-7.15.96.52,2-.72,2.74.7.94,1.8,1.71,3.6,1.1,5.64-.12.39-.85.6-1.39.81h0Z"/>
  <path d="M176.64,155.92c-.06-.58-.11-1.03-.16-1.57,2.13,1.91,2.18,2.13,1.05,5.01-.35-1.32-.61-2.32-.89-3.44h0Z"/>
  <path d="M195.42,121.21c.09.23.08.52.07.91-.84.52-1.68.93-2.51,1.34l-.36-.54c.9-.55,1.8-1.1,2.8-1.71h0Z"/>
  <path d="M180.06,135.99c.27-.42.5-.74.8-1.15.36,2.08.23,2.33-2.2,3.97.58-1.15.97-1.93,1.4-2.82Z"/>
  <path d="M189.13,175.47c.14,0,.1,0,.12,0-.47-.18-1.1-.22-1.42-.56-.53-.54-.86-1.28-1.37-2.08,1.9.11,1.99,1.58,2.67,2.64Z"/>
  <path d="M199.62,88.51c-.06.03-.12.08-.19.11,0,0-.06-.06-.09-.09.05-.04.11-.08.21-.05.05.07.06.04.07.03h0Z"/>
  <path d="M190.24,127.39c-.08.01-.22-.07-.27-.2.12,0,.17.06.27.2Z"/>
  <path d="M217.48,108.07c.27.46.7,1.22.53,1.4-.89.92-1.93,1.69-3.14,2.28-.15-1.99,1.17-2.83,2.61-3.67h0Z"/>
  <path d="M389.35,148.47c4.13,9.68,6.54,19.54,2.66,29.94-1.28,3.43-2.69,6.78-6.28,8.59-1.35.68-2.3,2.16-3.53,3.13-4.44,3.51-9.54,4.84-14.93,4.72,2.88-1.65,6.13-2.93,8.68-5.08,9.75-8.21,13.47-18.96,10.93-31.52-1.43-7.07-3.86-13.93-5.98-20.85-3.02-9.87-3.84-19.85-.99-29.84,3.87-13.61,11.72-23.76,25.59-27.65,9.77-2.74,18.91-1.08,26.69,6.1,6.01,5.55,8.2,14.68,5.31,22.36-1.74,4.62-5.83,7.69-10,7.51-3.8-.16-6.8-3.26-6.58-6.85.04-.66.31-1.31.67-1.98-.1,2.72.93,4.67,3.32,5.77,2.62,1.21,5.01.57,7.22-1.1,3.97-3,5.27-8.56,3.29-14.02-3.5-9.68-15.37-15.87-25.16-13.12-.12.03-.21.18-.44.39.77.19,1.45.35,2.06.5-3.79,1.51-7.53,2.99-11.27,4.48-.06-.07-.12-.13-.18-.2,1.34-1.2,2.68-2.4,4.02-3.6-.06-.14-.11-.28-.17-.42-.51.2-1.03.37-1.52.61-11.81,5.74-17.67,15.74-19.44,28.55-1.39,10.09,1.21,19.59,4.64,29.24.11,1.35.19,2.39.15,3.42-.07,1.9-.21,3.8-.32,5.7.22.02.44.05.67.07.29-1.62.59-3.25.88-4.87v.02Z"/>
  <path d="M410.67,143.05c-.09-.9-.24-1.68-.14-2.42.08-.53.37-1.18.78-1.49.69-.51,1.55-.78,2.55-1.26,3.09,1.48,4.74,6.82,2.74,10.19-.35-.49-.68-.95-1.12-1.57-.31.82-.56,1.49-.89,2.35-2.59-1.17-3.25-3.41-3.93-5.81M414.16,145.29c.34-.08.88-.05.99-.26.68-1.24-.51-3.77-2.02-4.27-.45,1.59,0,2.99,1.03,4.53Z"/>
  <path d="M411.38,131.66c-.05.72-.11,1.3-.19,2.09l-1.6-.8c-.08.67-.16,1.23-.28,2.25-1.09-.64-2.22-.96-2.77-1.7-1.06-1.45-1.9-3.09-2.6-4.76-.28-.67-.15-1.71.18-2.4.33-.7,1.09-1.25,1.78-1.69.25-.16.9.13,1.27.37,2.36,1.53,3.64,3.79,4.21,6.64M408.37,129.31c-.56-.61-1.13-1.23-1.98-2.15-.07,2.62.96,4.26,2.74,4.58-.24-.81-.45-1.5-.76-2.43h0Z"/>
  <path d="M404.38,120.79c-.44-.07-.79-.23-1.2-.42-.16.47-.34.97-.52,1.47-3.39-.86-5.16-6.4-2.82-9.71.28.5.52.93.83,1.5.31-.78.54-1.34.76-1.91,2.74,1.27,4.19,5.68,2.93,9.06M401.88,114.87c-.26-.2-.52-.4-.77-.6-.18.08-.36.16-.55.24.44,1.49.88,2.99,1.31,4.48.21-.05.43-.11.64-.16.67-1.32.1-2.52-.64-3.96h0Z"/>
  <path d="M416.54,162.44c-.57.58-1.06,1.05-1.77,1.72-.1-.92-.16-1.53-.25-2.3-.51.4-.9.69-1.31,1-1.27-2.44-.57-6.69,1.53-9.07,1.37,2.2-.64,4.35.03,6.85,1.29-1.47,1.79-2.99,1.33-4.47-.47-1.5.16-2.44.93-3.75,1.92,3.57,1.21,6.76-.5,10.02h.01Z"/>
  <path d="M401.24,107.4c-1.26,1.28-1.94.6-2.45-.54-1.06-2.37.15-6.39,2.44-7.99.13.39.25.74.4,1.18.31-.24.59-.45,1.06-.81.54,2.99.51,5.67-1.44,8.16h0Z"/>
  <path d="M404.58,92.62c.76-.66,1.36-1.38,2.13-1.74.69-.32,1.57-.24,2.37-.34l.27.66c-1.1,1.2-2.14,2.47-3.32,3.58-1.1,1.03-1.36.94-2.56-.29.33-.57.68-1.17,1.11-1.87h0Z"/>
  <path d="M407.41,173.09c-.33,0-.73-.08-.73-.1.19-1.53,3.09-4.99,4.66-5.6.59,2.19-.66,4.03-3.93,5.7h0Z"/>
  <path d="M397.74,135.34c-.26,1.46-.5,2.79-.74,4.11-.18-.02-.37-.04-.55-.06.09-1.55.21-3.09.27-4.64.03-.84-.04-1.69-.05-2.68,2.35.29,1.1,1.92,1.08,3.27h-.01Z"/>
  <path d="M413.32,88.34c-.24-.2-.36-.41-.47-.62,1.13-.43,2.27-.86,3.4-1.29.08.21.17.41.25.62-1.02.43-2.03.85-3.17,1.29h0Z"/>
  <path d="M414.05,145.19c-.92-1.44-1.37-2.83-.93-4.43,1.51.5,2.7,3.03,2.02,4.27-.11.21-.65.18-1.1.15h.01Z"/>
  <path d="M408.42,129.43c.26.81.47,1.5.71,2.31-1.78-.32-2.82-1.96-2.74-4.58.85.93,1.42,1.54,2.03,2.27Z"/>
  <path d="M401.95,114.99c.67,1.32,1.23,2.52.57,3.84-.21.05-.43.11-.64.16-.44-1.49-.88-2.99-1.31-4.48.18-.08.36-.16.55-.24.26.2.52.4.84.72h0Z"/>
  <path d="M257.66,293.44c-1.37-7.98.49-15.34,3.46-22.52.99-2.4,2.05-4.78,3.29-7.11-.54,2.81-1.13,5.61-1.62,8.42-.5,2.88-1,5.77-1.31,8.68-.31,2.88-.37,5.78-.54,8.68l.48.09c.31-.63.62-1.26.92-1.87.22,2.81.26,5.59.68,8.31.83,5.39,3.17,10.3,5.24,15.28,3.63,8.73,5.16,17.82,4.54,27.22-.53,7.92-2.51,15.47-6.97,22.18-2.86,4.29-6.44,7.75-11.52,9.36-5.34,1.69-11.03-.31-13.69-4.84-1.92-3.27-1.56-7.69.9-10.35.5-.54,1.21-.9,1.92-1.22-2.45,2.79-3.1,5.85-1.58,9.19,1.61,3.54,4.67,4.99,8.38,5.21,3.62.21,6.88-1.28,9.45-3.44,2.27-1.92,3.99-4.66,5.46-7.32,4.46-8.07,5.57-16.84,4.83-25.92-.67-8.26-3.3-15.91-7.05-23.24-2.39-4.67-4.43-9.47-5.27-14.81v.02Z"/>
  <path d="M282.7,338.53c.43-2.49.8-3.23,2.06-4.15.27.31.55.63.91,1.04.22-.38.42-.73.84-1.47.63,1.24,1.28,2.15,1.58,3.17.77,2.65.56,5.29-.84,7.7-1.1,1.9-2.8,1.74-3.79-.22-.95-1.89-.95-3.91-.76-6.07M285.06,340.14c.12.77.24,1.55.37,2.32.14-.02.28-.04.42-.06.78-1.69.84-3.4.16-5.12-.18-.02-.37-.05-.55-.07-.13.9-.27,1.79-.4,2.93h0Z"/>
  <path d="M275.68,353.89c.34-2.85,1.12-5.4,3.33-7.25.55-.46,1.42-1.33,1.69.43.37-.31.65-.55.93-.79,2.22,2.92-.3,10.04-3.9,11-.04-.31-.07-.6-.11-.9-.08,0-.19-.05-.23-.02-.81.77-1.3.37-1.52-.49-.16-.6-.14-1.24-.19-1.98M280.32,351.05c.04-.67.09-1.33.14-2.15-1.71.89-2.59,3.38-1.71,5.17.58-1.09,1.03-1.95,1.56-3.02h0Z"/>
  <path d="M286.74,320.43c-.17-1.19-.32-2.27-.47-3.35l.47-.19c.34.41.8.78,1.01,1.25,1.19,2.69,1.42,5.5.59,8.31-.58,1.96-2.13,2.24-3.42.77-1.73-1.97-2.27-7.28-.96-9.54.22-.38.53-.7.88-1.15.78,1.04,1.1,2.03.93,3.2-.22,1.51-.18,2.99.98,4.29,0-1.16,0-2.32-.02-3.6h0Z"/>
  <path d="M282.84,302.66c-.39,1.8-.88,3.43-2.5,4.53-1.82-1.23-2.08-3.11-1.96-4.99.16-2.55.66-5.05,3.1-6.86.16.65.26,1.08.39,1.6.28-.17.54-.34.86-.54.9,2.07.46,4.1.12,6.25M281.05,299.12c-.41,1.24-.94,2.48-.44,3.81l.45.09c.25-1.35.49-2.7.74-4.04-.21-.01-.43-.03-.74.15h-.01Z"/>
  <path d="M272.08,368.52c-1.95,1.47-2.6,1.68-4.19,1.31.25-.43.48-.84.8-1.4-.55.1-.96.17-1.37.24-.35-2.45,3.89-7.01,6.75-7.18v1.28c.44-.24.77-.42,1.06-.58,1.15.53-.51,3.92-3.05,6.33M271.09,365.22c-.44.63-.87,1.26-1.43,2.05,1.65-.14,2.97-1.44,3.47-3.45-.81.54-1.36.9-2.04,1.4h0Z"/>
  <path d="M260.72,372.59c1.29-.32,2.48-.59,3.88-.91-.93,2.56-3.82,3.79-6.91,2.86.98-.64,1.95-1.27,3.02-1.95h.01Z"/>
  <path d="M284.32,291.53c-.32-.76-.87-1.66-.7-2.38.38-1.61,1.13-3.13,1.88-4.63.99,2.05.46,4.82-1.18,7.02h0Z"/>
  <path d="M280.27,351.15c-.49.96-.95,1.82-1.52,2.91-.88-1.79,0-4.28,1.71-5.17-.05.82-.1,1.49-.19,2.26Z"/>
  <path d="M281.1,299.03c.26-.08.48-.07.69-.05l-.74,4.04-.45-.09c-.49-1.33.03-2.56.49-3.9h.01Z"/>
  <path d="M271.16,365.15c.61-.43,1.16-.79,1.97-1.33-.49,2-1.82,3.3-3.47,3.45.55-.79.99-1.42,1.49-2.12h.01Z"/>
  <path d="M374.62,303.91c-.84-1-1.49-2.07-2.41-2.82-.59-.48-1.56-.48-2.37-.69.32.73.49,1.6,1.01,2.14.58.62,1.57.83,2.2,1.42.48.44.68,1.19,1.01,1.81-.5.23-1.04.71-1.5.65-2.06-.28-5.32-3.47-5.71-5.5-.13-.68-.35-1.47.64-1.81.1-.03.22-.3.19-.42-.31-1.14.5-1.34,1.27-1.42,3.07-.31,7.2,3.67,7.06,6.78,0,.17-.09.33-.19.72-.44-.31-.78-.55-1.19-.85h-.01Z"/>
  <path d="M378.88,306.86c.21.45.38.81.58,1.24-2.28-.96-2.38-1.12-2.27-3.79.66.98,1.16,1.72,1.7,2.55h-.01Z"/>
  <path class="st0" d="M337.98,361.62c1.15,2.08,3.02,3.51,2.53,6.3-2.82-.26-4.36-2.18-5.83-4.06-1.11-1.42-2.58-3.56-1.03-4.79,1.86-1.47,2.91,1.08,4.33,2.54h0Z"/>
  <path class="st0" d="M327.7,344.35c1.31.56,1.82,1.38,2.25,2.7.36,2.12,2.25,4.16-1.09,5.28-2.09-2.56-3.55-5.05-1.17-7.97h.01Z"/>
  <path class="st0" d="M325.66,335.92c.34-1.79-.06-3.29.83-4.88.85-.21,1.29-.04,1.74.73.1,1.9.17,3.39.11,4.88-.04,1.01-.39,2.18-1.62,1.96-1.02-.19-1.42-1.26-1.06-2.7h0Z"/>
  <path class="st0" d="M329.2,346.13c.55-.04.77.08,1.13.55.78,1.98,1.55,3.58,1.99,5.26.2.77.55,2.07-.92,2.35-1.45.27-2.14-.42-2.1-2.19,1.4-2.31-.44-3.97-.09-5.97h0Z"/>
  <path class="st0" d="M352.86,376.89c-.25,1.33-1.6.59-2.42.38-.74-.19-1.38-.74-2.06-1.38.32-1.55.97-1.3,2.03-.57,1.11.5,2.63.6,2.45,1.57Z"/>
  <path class="st0" d="M326.19,331.54c-.46.12-.66-.06-.9-.59.02-1.5.52-3.12,1.4-3.01,1.75.22,1.21,2.13,1.17,3.4-.66-.03-1.04-.07-1.68.21h0Z"/>
  <path class="st0" d="M332.11,308.13c-.04-.44.1-.61.54-.68.69,1.08,1.07,2.07,1.24,3.24-.37,1.29-.52,2.39-.9,3.14-.39-2.04-.54-3.74-.88-5.7Z"/>
  <path class="st0" d="M366.02,287.89c-1.32-.49-1.66-1.46-1.32-2.82.43-1.05.56-1.93.91-2.52.65,1.94,1.34,3.58.41,5.34Z"/>
  <path class="st0" d="M328.68,346.13c-.58-.72-.97-1.29-1.22-2.14,2.28-.68,2.35.97,2.39,2.33-.54-.01-.76-.02-1.17-.19h0Z"/>
  <path class="st0" d="M326.42,331.62c-.13,1.83.25,3.38-1.02,4.21-.09-1.78-.08-3.15.2-4.66.47-.07.66,0,.82.45h0Z"/>
  <path class="st0" d="M332.08,308.16c-.68-1.16-1.45-2.29-.11-2.86.4-.17.37,1.3.38,2.31,0,.44-.03.61-.27.55h0Z"/>
  <path d="M359.42,312.56c-3.75,7.33-6.38,14.98-7.05,23.24-.73,9.08.37,17.85,4.83,25.92,1.47,2.65,3.19,5.4,5.46,7.32,2.57,2.16,5.82,3.66,9.45,3.44,3.71-.22,6.77-1.67,8.38-5.21,1.52-3.34.87-6.41-1.58-9.19.71.32,1.42.67,1.92,1.22,2.46,2.65,2.82,7.08.9,10.35-2.65,4.53-8.35,6.53-13.69,4.84-5.08-1.61-8.66-5.07-11.52-9.36-4.46-6.7-6.44-14.26-6.97-22.18-.62-9.4.9-18.49,4.54-27.22,2.07-4.98,4.42-9.89,5.24-15.28.42-2.73.46-5.51.68-8.31.3.61.61,1.24.92,1.87l.48-.09c-.17-2.89-.23-5.8-.54-8.68-.31-2.91-.81-5.8-1.31-8.68-.49-2.82-1.08-5.62-1.62-8.42,1.23,2.34,2.29,4.71,3.29,7.11,2.97,7.18,4.84,14.54,3.46,22.52-.84,5.35-2.88,10.15-5.27,14.81v-.02Z"/>
  <path d="M339.65,342.83c.19,2.16.19,4.18-.76,6.07-.99,1.97-2.68,2.12-3.79.22-1.4-2.41-1.61-5.05-.84-7.7.3-1.02.95-1.94,1.58-3.17.42.74.62,1.09.84,1.47.36-.41.64-.73.91-1.04,1.26.92,1.62,1.65,2.06,4.15M336.89,341.5c-.18.02-.37.05-.55.07-.68,1.72-.62,3.43.16,5.12.14.02.28.04.42.06.12-.77.24-1.55.37-2.32-.13-1.14-.27-2.04-.4-2.93h0Z"/>
  <path d="M346.67,358.19c-.05.74-.03,1.38-.19,1.98-.22.86-.71,1.26-1.52.49-.04-.04-.15,0-.23.02-.04.3-.07.59-.11.9-3.61-.97-6.12-8.09-3.9-11,.28.24.56.48.93.79.27-1.77,1.15-.89,1.69-.43,2.21,1.84,2.98,4.4,3.33,7.25M343.6,358.37c.88-1.79,0-4.28-1.71-5.17.05.82.1,1.49.14,2.15.54,1.07.99,1.92,1.56,3.02h0Z"/>
  <path d="M335.59,328.34c1.17-1.3,1.2-2.78.98-4.29-.17-1.17.15-2.16.93-3.2.35.45.66.77.88,1.15,1.31,2.26.76,7.57-.96,9.54-1.29,1.48-2.84,1.19-3.42-.77-.83-2.81-.59-5.62.59-8.31.21-.47.67-.84,1.01-1.25l.47.19c-.15,1.08-.3,2.15-.47,3.35-.02,1.28-.02,2.44-.02,3.6h0Z"/>
  <path d="M339.51,306.96c-.35-2.15-.78-4.19.12-6.25.32.2.58.37.86.54.13-.52.23-.95.39-1.6,2.43,1.81,2.94,4.31,3.1,6.86.12,1.88-.14,3.76-1.96,4.99-1.62-1.11-2.11-2.73-2.5-4.53M340.55,303.28c.25,1.35.49,2.7.74,4.04l.45-.09c.49-1.33-.03-2.56-.44-3.81-.31-.17-.53-.16-.74-.15h-.01Z"/>
  <path d="M350.27,372.83c-2.55-2.41-4.2-5.79-3.05-6.33.29.16.62.34,1.06.58v-1.28c2.85.17,7.1,4.74,6.75,7.18-.41-.07-.82-.15-1.37-.24.32.56.55.97.8,1.4-1.58.37-2.24.17-4.19-1.31M349.22,368.13c.49,2,1.82,3.3,3.47,3.45-.55-.79-.99-1.42-1.43-2.05-.68-.5-1.23-.86-2.04-1.4h0Z"/>
  <path d="M364.65,378.84c-3.08.93-5.97-.3-6.91-2.86,1.4.32,2.6.59,3.88.91,1.07.68,2.05,1.31,3.02,1.95h.01Z"/>
  <path d="M336.85,288.82c.75,1.5,1.5,3.02,1.88,4.63.17.73-.38,1.62-.7,2.38-1.65-2.19-2.17-4.97-1.18-7.02h0Z"/>
  <path d="M341.74,307.23l-.45.09-.74-4.04c.21-.01.43-.03.69.05.46,1.34.99,2.57.49,3.9h.01Z"/>
  <path d="M352.69,371.57c-1.65-.14-2.97-1.44-3.47-3.45.81.54,1.36.9,1.97,1.33.5.7.94,1.33,1.49,2.12h.01Z"/>
  <path d="M281.89,277.1c5.72-5.56,17.78,1.73,24.38,1.61,6.6-.12,12.24-8.68,17.14-6.43,4.9,2.24,12.42,14.6,9.91,12.46-7.17-6.09-7.69-9.14-13.62-6.19s-14.37,4.83-19.42,3.15-18.39-4.6-18.39-4.6h0Z"/>
  <path class="st1" d="M483.78,141.21c1.82,1.64,3.2,3.12,5.3,2.32-2.79-5.77-5.15-11.49-8.11-16.54-2.09-3.56-2.33-4.89,1.7-4.72-11.31-12.11-19.89-25.74-22.28-45.38-.25-.66-.37-.78-.6-.64-.58,5.27.5,10.33.91,16.48-6.53-13.99-6.63-27.33-4.49-40.69.72-4.55,1.53-9.15,3.38-13.07.39-.84.3-2.16.43-3.26-.82.43-1.73.46-2.25,1.81-4,10.31-6.92,21.13-6.59,33.79.52,19.98,6.06,37.68,15.64,54.02,1.2.37,1.2-.51.82-1.88-2.07-6.71-5.25-12.42-6.33-20.14,4.91,7.91,9.34,15.23,15.25,20.32.87.74,1.37,2.46,2.31,3.94.73.66.89,1.36,1.3,2.27.31.78.44,1.27.77,2.09.33.84.47,1.35.86,2.16.24.5.26.73.38,1.26-.35,1.55.19,2.78.68,4.35.35.62.43.89.92,1.56v-.04Z"/>
  <path class="st1" d="M563.11,180.74c6.72-4.31,11.46-9.57,13.16-17.88,1.56,4.37.89,7.72-1.03,11.03-1.18,2.03-2.59,3.95-3.14,6.3-2.26,9.88,3.44,16.46,16.75,18.66-5.32,2.45-9.8,2.05-14.25-1.02-5.18-3.58-7.56-8.23-6.58-14.2.3-1.83,1.17-3.68-2.55-2.18-1.21.5-1.87.32-2.37-.71h0Z"/>
  <path class="st1" d="M551.08,159.8c-.22,1.23-5.13,4.01-5.72,5.29,1.9.96,5.15-2.03,7.34-2.87-2.31,3.43-5.98,7.83-9.26,6.61-2.74-1.01-5,2.31-7.42,2.5.15-1.93,4.65-5.59,2.81-6.7-.29-.18-2.86-2-2.81-2.05,4.14-4.29,0-5.01,0-9.19,0-4.13,3.66-18.72,3.66-18.72,0,0,.2,11.37.07,12.37-.15,3.7-1.2,6.9-.46,10.28,1.29,5.87,2.49,6.6,7.5,3.99l4.3-1.52Z"/>
  <path class="st1" d="M512.03,141.37c3.27,5.86,2.01,12.73-.24,18.78-.11.31-.46.83-.43.85,5.01,3.39-4.98,7.31-3.8,10.7-2.58-6.26-7.49-2.31-10.45-8.2h7.1c.54-1.75,1.05-1.15,1.35-2.59.21-.12-2.07-4.63-1.91-4.56,5.4,2.15,7.01,3.21,7.16-2.66.08-3.11-.61-6.24-1-9.79-.26-.93-1.78-11.04-.95-11.26l3.16,8.74Z"/>
  <path class="st1" d="M557.17,159.08c4.12-2.66,8.44-2.9,12.6-3.69,4.22-.8,8.33-1.79,11.68-5.37.62-.66,1.01-.68,1.43,0-.77,1.99-1.44,3.68-2.35,5.23-2.07,3.52-4.91,5.52-9.31,4.84-4.57-.71-9.16-.35-14.08.34-.36-.32-.35-.65.04-1.33h0Z"/>
  <path class="st1" d="M471.9,165.51c3.01,8.97,8.74,13.99,18.48,14.23,1.35-.71,2.36-.9,3.42.19-11.42,5.8-22.57-1.95-23.68-16.49,2.13-.89,1.15.99,1.79,2.07h0Z"/>
  <path class="st1" d="M480.67,158.81c-10.19-.68-10.3-.75-12.88-9.74,4.75,7.28,14.37,4.81,19.76,11.03-2.17-.41-4.34-.83-6.88-1.29Z"/>
  <path class="st1" d="M494.14,141.47c.13-.68.4-1.05.73-1.68,1.82,2.34,5.46,3.69,5.19,7.92-1.96-1.76-3.87-3.85-5.92-6.25h0Z"/>
  <path class="st1" d="M536.76,183.44c.59-1.3.68-2.86,2.2-2.28.92.35,2.16,1.22,1.87,2.43-.12.5-1.54.69-2.59,1.27-1.36.54-1.58-.18-1.48-1.42Z"/>
  <path class="st1" d="M487,115.83c-.25.8-.53,1.26-.88,2.02-.73-1.12-1.4-2.53-2.09-4.28-.27-.62-.34-.88-.22-1.12.12-.22.22-.34.67-.3,1.06,1.14,1.77,2.24,2.52,3.67h0Z"/>
  <path class="st1" d="M505.25,184.85c-.56-1-3.45.23-2.69-2.01.4-1.19,1.4-1.89,2.52-.07.36.73.47,1.22.17,2.08Z"/>
  <path class="st1" d="M557.75,183.28c.79.24,1.26.5,2.02.82-1.32,1.69-3.28.95-6.5,1.11,2.18-1,3.17-1.45,4.48-1.93h0Z"/>
  <path class="st1" d="M477.86,191.92c-1.5.39-2.15-.7-3.29-1.51.6-1.3,0-3.12,1.86-3.67-.2,1.41.11,2.31,1.27,3.28.26.69.29,1.14.16,1.9h0Z"/>
  <path class="st1" d="M473.89,167.96c-.47-.52-.83-1.42-1.45-2.47-.36-1.18-.14-2.32.98-2.27,1.01.05.48,1.27.57,1.97.1.79.02,1.59-.1,2.77Z"/>
  <path class="st1" d="M512,151.88c-.28.51-.56.7-.95,1.13-1.35-.76-1.29-1.95-.63-3.23.53.6,1.06,1.19,1.58,2.11h0Z"/>
  <path class="st1" d="M494.25,184.99c-.76-1.17-1.82-.62-2.97-.83.92-.4,2.25-1.16,3.4-.94,2.21.41.24,1.13-.43,1.78h0Z"/>
  <path class="st1" d="M536.7,183.3c.39.38.55.99,1,1.7-.16.86-.62,1.62-1.21,2.59-.72-1.69-.63-2.89.21-4.29Z"/>
  <path class="st1" d="M483.15,111.23c-1.52-.88-1.35-2.06-.83-3.3.5.56.99,1.12,1.55,1.98-.09.63-.26.95-.72,1.32Z"/>
  <path class="st1" d="M505.05,185.45c0-.75.01-1.22.07-2.05.93.6,1.39,1.64.54,2.86-.38.54-.99.21-.42-.13.02,0-.11-.27-.19-.68Z"/>
  <path class="st1" d="M482.97,111.57c.1-.58.27-.89.71-1.28.51.4.77.88,1.09,1.64-.21.41-.42.62-.67,1.1-.42-.26-.73-.72-1.13-1.46h0Z"/>
  <path class="st1" d="M477.89,189.95c-1.68.15-2.01-.85-1.34-2.62.59.58.94,1.45,1.34,2.62Z"/>
  <path class="st1" d="M475.51,186.03c-.17-.77-.06-1.33.04-1.9.59.64,1.37,1.27-.04,1.9Z"/>
  <path class="st1" d="M555.17,129.9c-.07-.3-.01-.83.25-1.53.1.32-.01.81-.25,1.53Z"/>
  <path class="st1" d="M493.2,130.94c-.15-.32-.16-.9.03-1.7.17.33.14.89-.03,1.7Z"/>
  <path class="st1" d="M531.26,155c-.15-.39-.11-.99.17-1.98.17.33.09,1.05-.17,1.98Z"/>
  <path class="st1" d="M540.28,169.18c0,.05-.13-.16-.13-.16,0,0,.04.24.12.13s0-.02.02.03h0Z"/>
  <path class="st1" d="M554.2,136.56c-.11-.03-.03-.32.05-.33s.06.36-.05.33Z"/>
  <path d="M466.21,51.21"/>
  <path class="st1" d="M562.69,12.61c-.63-.26-.97-.46-1.61-.66-.64.29-.82.71-.67,1.53.16.3.19.41.23.38.22.42.51.7,1.18.88,1.34.79,2.4,1.52,3.75,2.36.56.22.78.4,1.13.8,6.65,4.54,11.33,10.81,13.26,21.07-2.34-1.98-4.11-3.46-6.16-5.06-.82-.79-1.4-.84-2.06.08,6.62,7.88,9.08,18.32,11.8,28.54,1.32,4.95,2.18,10.08,1.42,15.83.17.85.46,1.07,1.08.78.45-2.02.7-3.76.98-5.96-.09-1.75.27-3.02.21-4.69.85-4.7-.49-9-.41-13.72,2.26,1.25,2.62,3.45,3.21,5.34,4.63,14.81,3.38,28.96-3.95,42.39-1.47,2.69-2.94,5.36-4.53,8.4-.27.51-.42.64-.71,1.08-.32.63-.5.95-.8,1.52-.31.57-.42.92-.3,1.56.33.45.54.66.65,1.11-.12.44-.11.64-.02,1.11-2.04,4.93-2.08,9.66-.07,14.13,1.65,3.67,2.28,7.47,1.76,12.33,3.23-4.05,3.19-8.38,1.85-12.31-2.73-7.92-1.31-14.53,2.3-21.79,13.99-28.09,11.73-58.06-5.33-82.26-3.88-5.51-8.68-8.91-13.89-12.46-.58-.23-.85-.37-1.53-.73-.7-.39-.98-.57-1.42-.74-.37-.43-.66-.71-1.35-.86h0Z"/>
  <path class="st1" d="M480.59,170.64c-.4-.94-.87-1.76-1.08-2.65-.28-1.18.63-2.14,1.73-1.77,1.61.53,3.14,1.3,4.71,1.96-.04.12-.07.24-.11.36h-1.81c.63,3.06,3.77,4.79,7.41,4.32.99-.13,2.04.17,3.04.46-5.77,3.54-10.19,2.64-13.89-2.69Z"/>
  <path class="st1" d="M566.9,168.71c.45-.94.97-1.76,1.21-2.65.31-1.18-.7-2.14-1.93-1.77-1.8.53-3.51,1.3-5.26,1.96.04.12.08.24.12.36h2.02c-.7,3.06-4.21,4.79-8.28,4.32-1.11-.13-2.27.17-3.39.46,6.44,3.54,11.38,2.64,15.51-2.69Z"/>
  <path d="M393.46,88.88c-1.87-3.59-1.75-7.38-.82-11.18,2.21-9.08,10-16.12,19.53-17.22,12.13-1.4,21.12,4.2,27.38,14.79,7.18,12.15,6.3,27.85-1.88,39.7-4.34,6.28-9.93,11.07-16.04,15.36-5.56,3.9-10.48,8.7-12.79,15.46-3.35,9.79-.08,18.71,8.03,23.54,2.37,1.41,5.04,2.4,7.68,3.19,6.52,1.96,12.01,5.58,16.82,10.54,2.55,2.63,5.22,5.22,8.15,7.34,4.43,3.2,9.44,4.75,14.91,4.2.55-.06,1.1,0,1.65,0,.04.19.08.38.12.57-2.23.54-4.43,1.34-6.68,1.56-4.09.4-8.02-.61-11.53-2.82-2.21-1.39-4.14-3.27-6.2-4.93-5.32-4.31-10.64-8.63-17.35-10.4-5.06-1.33-9.97-2.98-14.19-6.43-8.42-6.89-10.25-19.99-4.29-29.39,2.6-4.1,5.58-7.7,9.2-10.8,5.47-4.67,11.35-8.95,16.22-14.25,8.41-9.17,11.69-20.25,8.33-32.9-1.67-6.27-5.18-11.25-10.2-15.06-.45-.34-.93-.63-1.63-.73.92,1.4,1.85,2.81,2.77,4.21-.19.17-.38.34-.56.51-1.96-1.96-3.92-3.92-5.89-5.86-.48-.48-.93-1.09-1.51-1.34-12.21-5.27-25.24,2.31-28.04,13.61-.39,1.57-.27,3.29-.39,4.93-.08,1.1-.17,2.2-.39,3.46-.22.24-.31.31-.42.35Z"/>
  <path class="st1" d="M520.1,51.21"/>
  <path class="st1" d="M534.99,75.34"/>
</svg>