<?xml version="1.0" encoding="UTF-8"?>
<svg id="Layer_1" xmlns="http://www.w3.org/2000/svg" version="1.1" viewBox="0 0 612 1034">
  <!-- Generator: Adobe Illustrator 29.8.9, SVG Export Plug-In . SVG Version: 2.1.1 Build 1)  -->
  <path d="M196.11,564.86c-2.35,1.62-4.63,3.37-7.08,4.83-4.88,2.91-9.86,5.66-15.31,7.89l2.27-3.66c-.27-.21-.53-.41-.8-.62-16.09,10.18-28.64,23.29-34.47,42.54-1.73-.01-3.07-.25-4.42-.5,1.47-16.44,9.47-29.52,21.85-39.75,10.56-8.73,21.99-16.4,32.91-24.7,15.78-12,25.52-28.26,32.06-46.63.87-2.44,1-5.19,1.14-7.81.06-1.01-.8-2.07-1.23-3.1-.88.5-1.87.87-2.61,1.52-3.66,3.23-7.25,6.53-11.18,9.38,3.88-7.85,7.75-15.7,11.76-23.82,1.86,2.54,3.94,5.68,6.33,8.56,1.17,1.4,2.91,2.32,4.9,3.38,1.3-.3,2.1-.53,2.89-.76,3.04,2.67,1.82,5.9.61,8.65-5.86,13.28-10.11,27.49-19.88,38.64-6.32,7.21-13.53,13.64-20.34,20.9.2,2.01.4,3.54.6,5.06Z"/>
  <path d="M105.24,512.17c-8.14-5.02-16.82-8.39-26.52-8.43-23.61-.1-42.37,16.2-46.24,40.04-1.47,9.01-.16,17.75,2.24,26.43.29,1.04.47,2.11.61,3.18.06.43-.12.89-1.01,1.71-1.38-2.54-3-4.98-4.1-7.64-8.43-20.43-2.61-44.56,14.11-58.99,21.36-18.42,45.72-20.42,72.05-5.51-1.3,2.6-2.61,4.81-3.93,7.02-.44-.11-.88-.23-1.55-.29-.23.05-.19.05-.29-.15-.52-.35-.93-.49-1.44-.86-5.79-4.88-12.62-6.26-18.42-7.28,5.09,2.47,11.07,5.38,16.94,8.52-.9.9-1.68,1.57-2.46,2.24Z"/>
  <path d="M208.73,610.22c6.48-11.54,12.91-23.12,19.45-34.63,6.66-11.72,13.64-23.27,20.06-35.13,2.66-4.92,4.15-10.47,6.28-15.69,1.84-4.52,3.84-8.99,6.56-13.58.41,4.83,1.68,9.77,1.08,14.47-1.81,13.98-6.52,27.12-13.47,39.42-.99,1.75-2.61,3.81,2.1,4.11-3.3,4.92-6.31,9.41-9.32,13.91-.29-.11-.58-.21-.87-.32.29-1.86.59-3.73.88-5.59-.34-.18-.68-.37-1.02-.55-7.98,9.9-16.06,19.72-22.45,31.37-3.27,1.14-5.81,3.83-9.27,2.21Z"/>
  <path d="M93.14,253.89c10.8-.12,21.44-.04,32.38.11,7.52,4.1,13.93,9,18.61,16.01,4.22,6.32,7.29,13,7.46,21-.56.3-.88.3-1.2.31-1.55-3.81-3.1-7.61-4.65-11.42-.34.04-.69.09-1.03.13-.23.94-.46,1.88-.72,3.23.15.78.33,1.14.51,1.5.28.77.55,1.55.71,2.78,0,1.08.11,1.7.23,2.32.21,1.24.41,2.49.48,4.25-.08,1.56-.02,2.59.03,3.63-.38,2.5-.76,4.99-1.52,7.71-1.04-.82-2.47-2.1-2.23-2.86,1.57-5.1-1.85-9.42-1.93-14.21-2.21-5.67-3.53-11.94-6.81-16.91-9.16-13.85-25.09-16.04-38.53-11.41-11.33,3.9-19.33,11.5-22.86,23.25-2.83,9.42-1.05,21.86,8.57,29.25-7.34-1.51-10.95-6.67-12.68-13.18-3.33-12.57-.34-23.4,9.23-32.55,4.94-4.72,9.25-10.09,15.95-12.96Z"/>
  <path d="M386.68,602.88c3.38,13.34,3.18,26.53-2.03,39.79-1.44,1.29-2.52,2.3-3.55,3.35-.97,1-1.8,2.81-2.85,2.94-5.14.61-8.51,4.01-12.09,7.07-2.01,1.72-3.76,3.76-5.63,5.65,2.66-17.03.54-33.6-4.61-49.93-.98-3.11-3.04-6.52,1.03-10.03,4.9,10.9,8.76,21.75,12.24,32.97,3.17-5.36,3.38-11.24,4.37-17.22.86,5.66,1.72,11.31,2.59,16.97,4-8.77,4-17.89,3.38-27.38,1.65-.83,3.11-1.27,4.42-1.98,1.01-.55,1.82-1.45,2.72-2.2Z"/>
  <path d="M419.22,280.49c-.06,7.75-.12,15.5-.52,23.56-1.08.82-2.27,1.18-2.49,1.86-2.33,7.13-8.24,10.14-14.46,12.85.19-2.98.38-5.96.57-8.94-.43-.11-.87-.22-1.3-.33-4.55,6.08-9.1,12.16-13.31,17.78,3.36-16.81,6.79-33.96,10.33-51.69,1.32,6.02,2.57,11.76,3.83,17.5.34.13.67.27,1.01.4.87-1.2,2.23-2.3,2.52-3.63.8-3.62,1.15-7.35,2.02-11.19,4.16.5,7.98,1.17,11.81,1.83Z"/>
  <path d="M222.26,420.37c-1.19-.48-2.37-.96-3.56-1.44-.19.17-.37.35-.56.52.87,1.54,1.73,3.07,2.94,5.22-4.1-1.57-7.56-2.88-11.68-4.45.08,7.56,6.29,10.27,9.25,15.84-5.88-2.58-11.28-4.99-15.08-9.39-3.57-4.13-6.7-8.81-9.15-13.69-3.26-6.5-1.34-11.95,4.27-16.39,1.12-.88,1.75-2.86,1.89-4.39.27-3.1.05-6.25.3-9.73,1.87-1.83,3.47-3.3,5.07-4.76,2.2,4.97,1.14,9.75-.26,14.75-.75,2.65-.59,6.01.38,8.59,1.53,4.09,4.72,4.6,8.29,1.96.87,2.68,2.68,3.14,5.44,3.73,3.91.85,7.35,3.81,10.9,6.12-1.14.97-2.27,1.6-3.2,2.44-1.8,1.63-3.5,3.38-5.24,5.08Z"/>
  <path d="M161.54,458.16c4.09,5.09,8.25,9.89,14.89,12.04,9.52,3.08,18.48,2.53,27.11-2.6.31-.18.62-.4.96-.51,6.24-1.99,9.18-5.76,6.89-12.48-.26-.75-.11-1.69.03-2.51.92-5.15,1.9-10.3,2.86-15.44.35-.08.71-.16,1.06-.24.32,1.4,1.03,2.84.89,4.2-.69,6.88.97,13.24,4.47,19.01,2.02,3.32,4.44,6.66,7.41,9.08,3.74,3.04,8.23,5.15,12.69,7.9-.24,1.06-.78,1.87-1.32,2.68-.8.02-1.59.03-2.84-.07-1.04-.06-1.63,0-2.22.04-3.97-.35-7.21-2.02-10.37-4.52-3.02-2.38-6.61-3.93-8.89-7.37-.53-.79-3.5-1.02-4.41-.31-2.4,1.89-4.28,4.44-6.52,6.89.55.18,1.07.35,1.59.52-.13.17-.22.45-.38.5-8.76,2.73-17.55,5.28-26.88,3.41-6.59-1.32-12.07-4.49-16.36-9.77-2.2-2.7-4.75-5.1-6.97-7.86,2.22-1.02,4.26-1.81,6.31-2.6Z"/>
  <path d="M458.81,557.91c21.31,12.08,38.14,28.23,46.81,52.18-1.3,1.63-2.52,2.78-3.74,3.93-2.74-4.66-5.32-9.43-8.29-13.95-1.35-2.06-3.32-3.81-5.29-5.33-.91-.7-2.5-.5-3.91-.25,3.99,5.79,5.99,11.79,6.93,18.49-7.01-9.77-13.78-19.2-20.54-28.63.11-.17.21-.34.32-.51.93.57,1.85,1.15,2.79,1.71.95.57,1.91,1.13,3.3,1.16-5.66-10.36-14.64-17.27-24.11-23.97,1.94-1.82,3.84-3.32,5.74-4.82Z"/>
  <path d="M474.54,486.61c-5.32,10.03-11.58,19.22-21.78,25.06-12.55,7.19-25.16,6.59-37.94.22,1.8-1.94,3.67-3.5,5.53-5.06,2.27.15,4.54.24,6.8.46,9.7.94,18.4-1.27,25.67-8.04.8-.74,1.39-1.7,2.49-3.08-5.89.78-10.97,1.44-16.05,2.11-.15-.53-.29-1.05-.44-1.58,9.35-2.1,16.94-7.35,24.81-12.74,1.55.71,2.63,1.64,3.84,1.88,2.31.46,4.71.53,7.06.76Z"/>
  <path d="M360.48,661.95c1.94-2.16,3.69-4.19,5.7-5.91,3.58-3.06,6.95-6.46,12.09-7.07,1.05-.12,1.88-1.94,2.85-2.94,1.03-1.05,2.11-2.06,3.42-3.11-3.62,8.69-7.38,17.45-11.38,26.11-4.62,10-9.45,19.91-14.58,30.09-1.24.63-2.33.81-2.88,1.45-2.5,2.95-5.82,3.61-9.39,3.73,2-5.01,4.16-9.95,5.97-15.03,2.26-6.33,4.22-12.76,6.68-19.47,2.5-1.9,3.87-3.61,1.26-5.96.06-.54.13-1.08.26-1.89Z"/>
  <path d="M388.52,451.65c3.48-1.5,3.04-4.61,3.42-7.32.32-2.27.63-4.54.95-6.81.34.02.68.03,1.02.05,1.1,5.97,2.58,11.89,3.18,17.91.57,5.74-1.66,11.19-5.4,15.33-7.58,8.41-5.67,16.94-.84,25.28,2.66,4.59,6.71,8.38,10.13,12.52.44.53.92,1.02,1.38,1.52-.24.31-.48.63-.72.94-3.53-2.47-7.19-4.77-10.55-7.45-7.41-5.91-13.39-12.49-8.99-23.1.28-.67-.09-2.07-.64-2.49-.58-.44-2.02-.47-2.61-.03-2.49,1.81-4.97,3.72-7.15,5.88-1.86,1.84-3.59,2.62-6.23.99,1.1-1.56,2.09-2.96,3.21-4.56-5.13-2.61-11.55-1.22-15.48-6.56,1.3.25,2.58.65,3.89.73,4.03.24,8.3,1.29,12.04.34,8.03-2.04,14.21-7.25,18.05-14.62,1.23-2.36.91-5.53,1.34-8.57Z"/>
  <path d="M161.44,457.94c-1.95,1.02-4,1.81-6.32,2.61-6.73-5.89-14.52-8.73-22.97-10.21-15.09-2.63-24.71-11.59-29.45-25.95-1.08-3.28-1.65-6.73-2.7-10.48-.15-1.19-.06-2,.03-2.81,1.02,1.79,2.43,3.47,3.01,5.4,3.69,12.25,15.04,21.38,27.7,22.43,13.3,1.1,23.04,8.24,30.72,19.01Z"/>
  <path d="M283.91,587c.45,9.19-1.7,17.89-4.78,26.48-3.17,8.84-5.97,17.81-9.31,27.03-1.15,1.32-2.18,2.23-2.64,3.37-1.03,2.56-1.67,5.27-2.66,7.85-1.45,3.78-3.64,6.83-8.18,7.1,1.1-13.35,5.04-25.96,10.98-37.84,3.1-6.2,4.87-12.37,4.68-19.26-.08-3.06.51-6.15.8-9.22l.99-.06c.31,2.52.62,5.04.93,7.56.34.05.68.1,1.02.14,1.15-3.2,2.29-6.4,3.78-9.92,1.69-1.29,3.03-2.27,4.38-3.25Z"/>
  <path d="M256.29,659.15c4.6-.59,6.79-3.64,8.24-7.42.99-2.58,1.63-5.29,2.66-7.85.46-1.14,1.49-2.05,2.51-3.15-1.23,9.79-2.99,19.62-4.11,29.53-1.54,13.64.66,26.87,5.5,39.69.47,1.24.81,2.52,1.01,4.2-1.99,2.09-3.9,3.44-6.55,2.5-5.26-12.2-8.53-24.95-9.45-38.18-.44-6.3.06-12.67.19-19.32Z"/>
  <path d="M320.92,657.07c-1.37,11.33-7.34,20.22-13.58,29.19v-7.84c-.36-.06-.71-.13-1.07-.19-7.85,11.48-11.65,24.13-10.02,38.68-.76-.35-1.34-.43-1.47-.71-4.44-9.58-6.45-19.38-2.55-29.67.38-1.01.88-1.98,1.45-2.9,1.14-1.83,2.44-3.22,4.59-.03,7.74-14.01,15.23-27.55,22.8-41.26,1.47,4.67.42,9.55-.14,14.73Z"/>
  <path d="M197.01,253.42c4.02-.32,7.99-.37,12.29-.39-4.52,11.69-8.88,23.49-9.17,36.32-.11,5.03.04,10.07-.22,15.38-3.69-2.08-6.19.98-9.07,1.72-.19-1.71-.37-3.42-.43-5.62.05-1.09-.04-1.68-.13-2.28-.99-15.43,1.21-30.39,6.72-45.13Z"/>
  <path d="M265.58,716.92c2.61.67,4.52-.68,6.56-2.49,1.35.67,2.49,1.45,3.58,2.29.64.49,1.52.93,1.78,1.6,3.22,8.26,6.36,16.56,9.49,24.86.19.5.02,1.12.02,2.03-1.17-.41-2.01-.7-3.74-1.3.87,8.35,1.69,16.24,2.49,24.46-2.43.33-4.84.34-7.58.33-1.02-17.99-6.76-34.75-12.6-51.77Z"/>
  <path d="M474.65,363.67c1.86,5.92,4.28,11.73,5.46,17.78,2.57,13.22,8.2,26.07,5.8,39.96-1.63,9.44-5.4,17.7-14.88,22.26-1.25-1.93-2.12-3.71-2.98-5.48,12.29-11.51,13.52-25.89,10.41-41.22-1.12-5.51-3.16-10.82-4.67-16.25-1.25-4.51-2.32-9.06-3.25-13.96,1.51-1.27,2.81-2.18,4.1-3.08Z"/>
  <path d="M370.03,426.42c-1.39.29-2.8.49-4.16.88-7.14,2.05-14.17,4.75-21.45,6.01-4.43.76-9.08-.18-13.49,1.94-1.34.64-3.48-.4-5.3-.89,1.72-.93,4.65-1.27,5.02-2.43.9-2.78,2.49-3.01,4.79-3.06,1.91-.04,4.37.34,4.17-2.9,15.01-3.42,30.02-6.84,45.42-10.35-.86,1.21-1.51,2.13-2.17,3.05l.27,1.06c6.98-.51,14.01-.63,21.07-3.43-.28.95-.7,2.26-1.58,2.77-3.5,2-7.15,3.74-10.74,5.58-6.23,1.13-12.44,2.33-18.69,3.34-.94.15-2.02-.57-2.93-1.11.18-.39.25-.55.32-.71-.19.08-.38.17-.57.25Z"/>
  <path d="M493.4,700.01c1.23.86,2.47,1.71,4.2,2.92-1.51.51-2.35.79-3.45,1.16.34.61.49,1.36.89,1.52,5.07,2.09,10.01,4.82,15.3,5.97,11.74,2.55,22.89-.24,33.57-5.38,1.58-.76,3.56-.69,5.57-.29-5.89,6.5-13.44,9.58-21.57,11.1-17.2,3.21-33.39,1.79-46.53-12.03,1.09-.84,2.19-1.3,3.32-1.69.84-.29,2.2-.22,2.49-.76,1.41-2.69,3.8-2.53,6.2-2.52Z"/>
  <path d="M401.6,319c6.36-2.94,12.27-5.95,14.6-13.09.22-.68,1.4-1.04,2.42-1.57-1.94,9.8-3.9,19.7-6.49,29.42-1.5,5.63-4.01,11-6.47,16.63-2.5-.06-4.58-.28-6.66-.49,1.87-6.25,3.73-12.5,5.6-18.76-.45-.23-.91-.47-1.36-.7-3.09,3.95-6.17,7.89-9.26,11.84-.19-.11-.39-.22-.58-.33,2.68-7.58,5.37-15.16,8.2-22.97Z"/>
  <path d="M458.61,557.77c-1.7,1.64-3.6,3.14-5.72,4.79-11.23-4.53-22.84-8.03-32.71-16.17,1.15-.52,1.84-.84,3.02-1.38-8.05-8.14-18.58-13.16-25.36-22.49,20.19,11.71,40.38,23.41,60.77,35.25Z"/>
  <path d="M410.87,400.72c3.02,3.36,3.02,8.45.54,13.8-4.08,8.8-11.14,14.33-19.48,18.59-1.79.91-3.62,1.75-6,1.98.89-1,1.77-2.01,2.67-2.99,2.36-2.57,4.8-5.07,7.04-7.74.48-.57.56-1.84.27-2.55-.18-.42-1.53-.68-2.22-.5-1.97.52-3.88,1.3-6.26,2.1-1.28.07-2.11,0-3.69-.1,4.35-4.62,8.13-8.62,11.9-12.62,1.43-3.43,2.87-6.86,4.62-10.46,3.55,3.01,7.02,2.55,10.6.51Z"/>
  <path d="M112.62,510.16c1.14-2.39,2.45-4.6,3.93-7.04,9.09,3.57,17.92,7.59,26.96,11.07,3.45,1.33,7.38,1.43,11.09,2.09.02.42.05.84.07,1.26-4.36.44-8.73.87-13.09,1.31l-.46,1.02c2.74,1.16,5.49,2.32,8.35,3.81-1.29,2.6-2.7,4.87-4.11,7.14-6.27-3.4-12.7-6.54-18.75-10.29-4.85-3.01-9.24-6.76-14.01-10.36Z"/>
  <path d="M410.99,387.91c-2.9,3-6.18,4.23-10.28,1.81-1.64-2.42-2.83-4.97-4.54-7.1-1.05-1.3-2.96-1.88-4.37-2.93-.75-.57-1.77-1.47-1.78-2.23-.03-2.25-.04-4.66.71-6.73,2.48-6.88,5.3-13.64,8.13-20.63,2.22.03,4.31.24,6.69.49-.42,4.01-1.03,8.01-1.86,11.96-1.57,7.43.32,14.51,2.13,22.04.56.38,1,.34,1.44.3,1.2.94,2.4,1.88,3.73,3.03Z"/>
  <path d="M501.93,614.31c1.17-1.44,2.39-2.59,3.76-3.96,4.7,10.1,5.93,20.81,3.84,31.88-.54,2.83-1.3,5.64-2.22,8.37-2.77,8.21-5.66,16.38-8.39,24.26-5.59-5.6-6.13-18.48-.61-26.69,2.47,2.8,3.3,2.67,4.48-1.09,2.36-7.52,2.04-15.22,1.1-22.9-.4-3.22-1.25-6.38-1.95-9.86Z"/>
  <path d="M168.74,682.37c2.86-1.2,5.86-2.16,8.55-3.66,6.07-3.39,11.99-7.04,18.4-10.47,1.61,2.73,2.79,5.33,3.97,7.93-8.77,4.76-17.23,10.23-26.38,14.07-9.15,3.84-18.99,6.01-28.5,8.99-2.73.86-5.38,1.98-8.62,2.96-.74-.07-.92-.1-.96-.35,4.91-2.15,9.69-4.04,14.42-6.06,2.59-1.1,5.09-2.42,7.63-3.64-.16-.34-.32-.68-.48-1.02-1.87.27-3.74.54-5.48.6,4.29-1.99,8.51-3.63,12.57-5.61,1.8-.88,3.26-2.47,4.88-3.74Z"/>
  <path d="M86.73,752.12c.17-16.23,7.03-29.76,17.26-41.77,3.25-3.81,7.31-6.94,11.39-10.26,1.88,2.31,3.36,4.5,4.7,6.87-1.76,1.73-3.38,3.29-5,4.84-4.13,4.07-8.7,7.8-12.26,12.32-2.82,3.57-4.41,8.11-6.63,12.74-2.11,4.82-4.03,9.19-6.27,13.38-.49.93-2.1,1.27-3.19,1.88Z"/>
  <path d="M128.04,691.39c5.67-3.15,11.35-6.28,17.02-9.44,10.39-5.8,20.97-11.32,31.08-17.58,4.74-2.93,8.58-7.31,13.05-10.86-3.64,9.7-10.82,16.77-18.51,23.79-1.98.47-3.71.62-5.09,1.4-3.76,2.13-7.33,4.61-11.07,6.78-5.64,3.27-11.37,6.16-18.25,5.89-2.48-.1-5,.91-7.62,1.26-.29-.52-.45-.88-.62-1.24Z"/>
  <path d="M568.56,490.97c5.58,11.11,6.01,22.8,2.96,34.52-3.28,12.62-9.5,23.67-19.99,31.91-.93.73-1.9,1.4-3.3,1.9,16.02-18.29,22.71-38.71,15.3-62.95,1.79-2.08,3.41-3.73,5.03-5.38Z"/>
  <path d="M248.77,419.78c2.92,1.65,5.82,3.32,8.75,4.94,2.22,1.22,4.39,1.76,6.7-.07.61-.48,2.12-.44,2.86-.01,3.46,1.99,4.03,7.39,1.24,10.28-4.17,4.31-10.22,4.88-17.32,1.14-5.26-2.77-10.27-6.02-15.33-9.34,3.12-3.59,6.1-5.8,11.19-3.42,2.88,1.34,2.55-1.58,1.9-3.52Z"/>
  <path d="M100.11,410.76c-.17,1.16-.26,1.97-.35,2.99-.03,1.3-.06,2.4-.31,3.81-.48.33-.73.33-.98.34-6.81-20.42,1.12-36.39,15.27-50.47,3.16-3.14,6.34-6.26,9.91-9.4,1.12-.29,2-.38,2.53-.87,1.66-1.54,2.89-1.1,3.99.59-3.45,3.67-6.82,7.43-10.38,10.99-11.53,11.56-18.98,25-19.68,42.03Z"/>
  <path d="M425.24,729.73c3.15,2.94,6.01,6.3,9.52,8.74,10.57,7.36,22.7,8.74,35.18,8.35,3-.09,6.01-.11,9.16.07-2.07.72-4.36,1-6.48,1.76-1.4.5-2.56,1.7-3.82,2.58-8.38-.37-16.85-.12-25.12-1.26-10.61-1.47-18.51-7.65-23.93-17.32,1.85-1.27,3.68-2.1,5.5-2.92M466.96,750.31s-.01-.03,0,0Z"/>
  <path d="M145.6,530.96c1.19-2.42,2.6-4.7,4.08-7.21,8.44,1.56,16.89,2.01,25.04-.83,7.87-2.74,15.5-6.2,23.01-9.25-3.02,9.21-31.51,24.94-52.13,17.28Z"/>
  <path d="M387.58,553.42c-15.4-13.04-29.15-27.13-31.66-48.41.43-.32.86-.65,1.29-.97,3.59,4.6,7.89,8.82,10.63,13.88,5.32,9.84,9.52,20.3,17.06,28.82,1.12,1.26,2.26,2.5,3.49,4.21-.2,1.13-.51,1.8-.81,2.47Z"/>
  <path d="M474.71,486.44c-2.52-.06-4.92-.13-7.23-.59-1.21-.24-2.28-1.17-3.6-1.96,9.08-9.45,18.58-18.42,31.58-22.95,1.95,1,3.51,1.82,5.21,2.71-.24.98-.5,2.09-.77,3.2-10.06,4.26-17.78,11.53-25.19,19.59Z"/>
  <path d="M386.65,602.59c-.86,1.04-1.68,1.94-2.69,2.49-1.31.71-2.78,1.15-4.41,1.68-1.4-4.69-2.54-9.37-3.74-14.03-.65-2.52-1.59-4.72-5.31-2.71-1.39-4.64-2.67-8.91-3.94-13.19.35-.16.69-.32,1.04-.48l2.62,3.47c.28-.08.56-.17.83-.25-1.92-6.35-3.83-12.7-5.75-19.05,9.36,12.81,17.94,25.98,21.35,42.07Z"/>
  <path d="M518.78,456.71c13.62.13,25.82,3.89,35.73,14.24-1.29,2.13-2.7,3.88-4.11,5.62-10.48-9.47-22.87-13.59-37.39-13.33-1.1-.41-1.68-.72-2.92-1.36,3.24-1.93,5.96-3.55,8.68-5.17Z"/>
  <path d="M327.89,574.19c1.07,6.5,2.27,12.98,3.14,19.51.27,2.04-.33,4.2-1.29,6.33-1.07-4.21-2.07-8.43-3.22-12.61-2.53-9.16-5.24-18.24-10.52-26.31-.71-1.08-.99-2.44-1.27-4.04,2.63-1.89,5.1-3.35,7.46-4.97.58-.4.82-1.31,1.21-1.99.57.56,1.45,1.03,1.66,1.71,2.56,8.22,5.02,16.47,7.48,24.72.11.38-.12.87-.38,2.45-1.21-2.04-1.93-3.26-2.8-4.98-1.63-4.62-3.11-8.74-4.59-12.86-.55.2-1.09.4-1.64.6,1.59,4.14,3.17,8.29,4.76,12.43Z"/>
  <path d="M199.91,676.11c-1.43-2.54-2.61-5.14-3.99-7.94,3.78-4.04,8.03-7.63,11.68-11.77,4.44-5.04,8.36-10.52,12.51-15.82.43-.54.86-1.08,1.33-1.68,4.36,7-9.72,31.31-21.53,37.21Z"/>
  <path d="M425.14,729.51c-1.72,1.05-3.54,1.88-5.49,2.92-1.48-2.79-2.84-5.8-4.1-9.33-.35-4.01-.59-7.53-1.39-10.93-.2-.86-2.18-1.31-3.33-1.95-.59-4.76-1.97-9.58-1.62-14.27,1.06-14.25,2.79-28.46,4.29-42.68.02-.17.3-.3.93-.89,0,1.54.02,2.65,0,3.76-.26,11.76-.92,23.53-.67,35.28.29,13.55,3.55,26.43,11.38,38.1Z"/>
  <path d="M211.9,367.7c-1.84,1.48-3.66,2.65-5.72,3.83-.34-12.7-4.91-24.39-8.31-36.58,2.66-1.47,5.08-2.66,7.49-3.84,2.71,6.9,5.41,13.8,8.09,20.62-3.92,2.43-4.2,3.86-2.79,8.23.76,2.37.86,4.94,1.25,7.73Z"/>
  <path d="M323.2,549.97c-.21.83-.44,1.74-1.02,2.14-2.36,1.62-4.83,3.08-7.5,4.7-2.3-7.03-5.05-14.05-6.21-21.32-1.35-8.44-1.31-17.1-1.36-25.76,3.85,14.01,8.76,27.49,16.1,40.24Z"/>
  <path d="M80.28,437.43c-2.37-2.59-4.33-5.38-7.69-7.22-5.25-2.89-9.93-16.27-8.26-22.02.41-1.4,1.93-2.47,2.94-3.7,1.22,1.11,3.08,2.01,3.51,3.37.6,1.88.26,4.11.08,6.17-.48,5.54,2.14,9.99,4.95,14.35.28.44,1.7.64,2.18.33.47-.3.75-1.53.54-2.15-.91-2.6-2.15-5.09-3.05-7.7-1.04-2.98-2.49-6.06.38-9.55.95,1.31,1.91,2.23,2.38,3.36,2.49,5.96,5.42,11.8,2.55,18.64-.61,1.45.61,3.67.78,5.81-.57.28-.92.3-1.28.31Z"/>
  <path d="M522.86,600.38c-15.53-13.55-18.88-37.72-5.68-52.44-8.07,19.2-4.15,35.28,12.19,48.54-.91,3.93-4.57,2.32-6.51,3.9Z"/>
  <path d="M419.25,280.15c-3.86-.32-7.68-.99-11.74-1.76-.96-8.35-1.68-16.57-2.38-25.1,2.88-.3,5.75-.3,8.94-.28,1.96,8.95,3.59,17.88,5.18,27.14Z"/>
  <path d="M523,600.57c1.8-1.78,5.45-.16,6.51-3.91,5.84,2.03,11.58,4.17,17.2,6.58,4.84,2.08,9.54,4.49,14.32,7.13-1.08,2.11-2.17,3.84-3.27,5.57-6.11-2.09-12.17-4.33-18.35-6.21-6.09-1.86-11.5-4.8-16.41-9.17Z"/>
  <path d="M130.36,357.61c-1.31-1.56-2.53-2-4.19-.47-.52.48-1.41.58-2.31.76,5.49-6.21,11.2-12.29,16.81-18.47,3.56-3.92,6.7-7.97,7.55-13.61.85-5.69,2.99-11.18,3.89-16.86.71-4.48.54-9.12.42-13.68-.03-1.16-1.34-2.28-2.1-3.69.28-.27.6-.27,1.15-.28,1.07,1.33,2.4,2.57,2.65,4,2.34,13.38.82,26.27-6.24,38.03-5.11,8.52-9.91,17.33-17.63,24.27Z"/>
  <path d="M208.57,610.39c3.62,1.45,6.16-1.23,9.32-2.13,2.04-.73,3.86-1.39,6.86-2.49-3.53,4.96-5.65,10.72-9.71,12.91-4.94,2.67-6.52,7.07-9.4,10.77-4.64,5.96-8.8,12.29-13.19,18.45-.39.55-.93.99-1.99,1.14,1.45-2.9,3.01-5.74,4.33-8.69,3.82-8.55,7.53-17.15,11.33-25.71.63-1.42,1.5-2.72,2.43-4.25Z"/>
  <path d="M466.54,677.62c-.54-7.26-1.49-14.52-1.49-21.78,0-6.09,1.46-12.17,1.64-18.28.11-3.59-1.01-7.22-.98-11.11.47.71,1.2,1.36,1.37,2.14,1.6,7.24,3.57,14.45,4.51,21.78,1.03,8.07,1.07,16.27,1.26,24.74-2.29,1.05-4.3,1.78-6.31,2.51Z"/>
  <path d="M205.34,330.83c-2.4,1.46-4.81,2.65-7.49,3.84-2.54-9.21-4.82-18.43-7.06-27.94,2.92-1.02,5.42-4.09,9.08-1.66,1.99,8.54,3.72,17.01,5.46,25.76Z"/>
  <path d="M369.42,458.26c-7.64,3.89-14.7,3.28-19.76-2.25,2.24-.92,4.21-2.45,6.09-2.35,4.8.25,7.51-2.08,9.1-6.09,1.74-4.37,5.72-5.81,9.48-7.05,2.7-.9,3.31,1.85,2.98,3.92-.88,5.44-2.6,10.52-7.88,13.82Z"/>
  <path d="M466.56,677.91c1.99-1.01,4-1.74,6.29-2.48,2.02,7.55,4.77,14.64,9.96,20.57.79.9,1.73,1.68,2.6,2.51.27-.18.53-.36.8-.55-1.05-2.79-2.1-5.57-3.45-9.14,3.91,4.08,7.13,7.43,10.49,10.99-2.26.19-4.65.03-6.06,2.72-.28.54-1.65.47-2.49.76-1.13.39-2.23.85-3.46,1.49-8.12-7.01-12.34-16.28-14.7-26.87Z"/>
  <path d="M346.16,704.49c3.71-.32,7.03-.98,9.53-3.93.55-.64,1.64-.82,2.74-1.23-2.54,9.21-5.34,18.44-8.53,27.93-2.35.83-4.3,1.4-5.6,1.78-1.59-1.48-2.77-2.58-3.94-3.67,1.88-6.89,3.77-13.78,5.79-20.88Z"/>
  <path d="M236.17,455.9c-4.64-4.57-5.15-9.94-4.3-16.34,4.94,2.22,9.94,3.23,11.77,8.97,1.2,3.79,4.08,5.2,8.14,5.07,2.11-.06,4.26,1.13,6.73,1.86-5.38,7.38-16.81,5.82-22.34.44Z"/>
  <path d="M86.67,752.41c1.16-.9,2.76-1.24,3.25-2.17,2.23-4.2,4.15-8.56,6.25-13.12.85-1.06,1.73-1.8,2.41-2.68,2.05-2.62,4.02-5.29,6.62-7.68-6.3,13.12-11.69,26.34-9.73,41.6-2.4.33-4.78.33-7.49.3-.68-5.35-1.03-10.66-1.32-16.26Z"/>
  <path d="M515.76,294.06c-14.67,4.8-25.5,14.25-33.22,27.47-.72,1.23-1.66,2.34-2.87,3.55-.52-.88-.66-1.81-.81-2.74,5.57-12.49,13.12-23.33,25.64-29.76,3.38-1.74,7.13-2.75,11-3.77.28,1.97.27,3.61.26,5.26Z"/>
  <path d="M439.42,604.95c4.43,11.31,4.63,22.15,1.61,28.29-.22-1.37-.53-2.24-.48-3.09.42-7.13-2.54-12.85-6.57-18.55-2.7-3.81-3.98-8.64-5.82-13.05-.26-.61-.37-1.62-.04-2.08,1.8-2.56.65-4.8-.47-7.12-.29-.6-.37-1.29-.77-2.8,6.61,5.09,9.47,11.65,12.55,18.4Z"/>
  <path d="M432.35,455.91c-5.83,3.95-9.83,9.01-12.66,15.2-3.12,6.82-14.02,10.63-20.83,7.6-.7-.31-1.27-.92-2.3-1.7,1.16-.49,1.86-1.01,2.59-1.06,7.41-.54,12.33-4.65,16.03-10.76,4.39-7.27,11.07-11.11,19.35-12.38.47-.07.97-.05,1.44.02.33.05.64.25,1.8.73-2.12.91-3.64,1.57-5.41,2.35Z"/>
  <path d="M575.97,625.49c10.58,14.97,10.05,37.9-1.01,49.82.12-1.49-.03-3.08.42-4.47,3.02-9.47,4.03-19.02,1.84-29.18.85-1.43,1.48-2.45,2.11-3.47-.48-.2-.95-.41-1.43-.61-.33,1.26-.65,2.52-.98,3.77-1.63-3.75-3.26-7.5-4.83-11.77,1.34-1.71,2.6-2.9,3.87-4.09Z"/>
  <path d="M489.69,339.78c.39-.72.77-1.44,1.19-2.22,3.75,4.06,5.23,15.39,2.75,20.07-1.89,3.56-1.07,5.42,2.61,6.3.86.21,1.92.78,2.32,1.5,3.34,5.97,8.43,11.58,4.39,19.22-3.4-.85-5.19-3.76-4.62-7.68.47-3.2-3.94-10.83-6.91-11.35-.26.16-.22.18-.22.18.6-4.15-2.12-6.79-4.43-10.11-.44-1.29-.83-2.1-1.06-3.04.86-.51,1.56-.9,2.55-1.32.92-1.33,2.02-2.62,2.07-3.95.1-2.52-.39-5.07-.63-7.61Z"/>
  <path d="M552.69,302.08c7.24,9.09,4.77,23.4-2.41,29.61-5.32,4.6-12.87,5.35-17.12,1.41-.74-.69-1.18-1.71-1.82-2.67.79-.34,1.1-.58,1.21-.51,8.4,5.65,19.24-2.47,18.7-14.08-.15-3.23-1.81-6.39-2.59-9.87,1.47-1.49,2.75-2.7,4.02-3.9Z"/>
  <path d="M253.26,422.9c.78,2.14,1.11,5.05-1.77,3.71-5.09-2.38-8.07-.17-11.35,3.24-.75-.17-1.39-.34-1.8-.74-5.33-5.11-12.24-7.41-18.61-10.86,2.48-1.91,4.91-3.55,7.34-5.18,4.48,2.69,8.96,5.39,13.46,8.04,1.12.66,2.34,1.17,3.85,1.92.54.2.75.23.95.27-.07-.28-.13-.56-.2-.85-1.06-2.07-2.11-4.14-3.17-6.22,4.49,1.07,7.87,3.69,11.29,6.66Z"/>
  <path d="M164.56,716.18c-5.73,2.98-11.16,6.06-16.89,8.4-1.8.73-5.35.28-6.42-1.02-1.75-2.14-.56-4.79,1.71-6.87,5.4-4.93,11.14-8.98,18.89-8.07,4.63.54,5.6,3.33,2.71,7.56M150.23,718.21l8.13-4.06c-.25-.47-.5-.95-.75-1.42-4.14.18-7.61,1.91-10.65,4.62.07.35.14.7.21,1.05.86,0,1.71,0,3.07-.18Z"/>
  <path d="M398.4,768.31c-2.09.29-4.17.32-6.56.31-5.96-3.83-9.34-8.78-8.24-16.45.01-1.55-.11-2.58-.23-3.62-.12-.61-.23-1.22-.27-2.4.03-3.43-.1-6.29-.03-9.15.03-1.2.45-2.4.7-3.6,4.79,10.96,9.59,21.92,14.36,32.88.23.53.2,1.17.29,2.02Z"/>
  <path d="M84.95,653.68c-5.12-12.7-.65-27.98,10.3-34.16.27,2.48.3,4.7.34,6.92-3.13,4.24-3.91,9.07-4.23,14.22-.23,3.72-1.53,7.37-2.63,11.37-1.44.77-2.61,1.2-3.78,1.64Z"/>
  <path d="M501.28,400.62c-.09-2.78-.09-5.27-.09-7.76.55-.13,1.1-.27,1.65-.4,1.05,1.9,2.1,3.81,3.55,6.42,0-2.63-.17-4.56.07-6.44.13-1.04.72-2.32,1.52-2.87.43-.29,2.03.54,2.63,1.26,1.04,1.26,2.22,2.75,2.44,4.27.64,4.62,1.06,9.29,1.15,13.95.05,2.68-.7,5.39-3.7,7.41-1.28-3.79-2.42-7.13-3.64-10.75-.78.66-1.58,1.34-3.04,2.57-.91-2.74-1.68-5.05-2.53-7.65Z"/>
  <path d="M383.74,733.12c-.23,1.48-.65,2.68-.68,3.88-.06,2.86.06,5.72.04,8.84-1.31-1.44-3-2.96-3.71-4.85-4.86-13.04-3.97-26.18-.19-39.29.91-3.17,1.99-6.29,3.38-9.39-3.25,13.66-1.64,27.11,1.17,40.81Z"/>
  <path d="M478.64,322.44c.37.83.51,1.76.84,2.79-4.98,12.25-6.12,24.93-4.79,38.19-1.34,1.15-2.63,2.06-4.15,3.04-3.32-14.18-1.59-27.85,4.93-40.88.6-1.2,1.94-2.03,3.17-3.14Z"/>
  <path d="M349.39,768.63c-.88-.02-1.76-.03-2.89-.13-2.29-7.24-4.33-14.39-6.11-21.88,2.92-2.01,5.58-3.68,8.23-5.35,1.43,6.81,2.86,13.61,4.17,20.88-1.21,2.47-2.31,4.48-3.4,6.48Z"/>
  <path d="M136.22,615.67c1.43-.09,2.78.15,4.38.4-.16,4.91-.71,9.82-.92,14.74-.08,1.92.63,3.88,1.14,6.7,2.45-3.15,4.26-5.47,6.23-8.01,3.64,5.57.65,15.48-5.57,19.46-5.37-10.49-5.82-21.65-5.26-33.3Z"/>
  <path d="M526.68,483.61c-2.63-.27-5.31-.28-7.87-.87-2.93-.68-4.97.22-7.14,2.16-3.02,2.7-6.27,5.23-9.72,7.34-1.19.73-3.28-.02-4.96-.09.21-1.68-.2-3.89.72-4.93,3.68-4.17,7.23-8.88,14.21-6.59,1.56.51,4.22-.31,5.56-1.47,4.21-3.67,10.44-4.08,14.81-.06-2.85.38-5.57.38-7.93.38.89,1.6,1.6,2.87,2.31,4.14M505.94,485.94c.28-.54.55-1.08.83-1.61-.24-.23-.48-.46-.72-.69-1.48,1.17-2.96,2.34-4.44,3.5.24.33.49.66.73,1,1.07-.63,2.14-1.25,3.59-2.19Z"/>
  <path d="M504.48,691.05c-2.77-3.01-3.25-6.38-3.22-11.04,2.14,1.41,3.58,2.15,4.76,3.19,2.58,2.28,4.9,4.87,7.56,7.03,2.23,1.81,4.68,2.36,7.71,1.06,3.06-1.31,6.47-1.86,9.77-2.47,1.16-.22,2.47.35,3.79.58-2.89,6.93-11.09,9.11-16.44,4.96-1.05-.81-3.17-1.21-4.33-.71-3.93,1.68-6.74.15-9.61-2.6Z"/>
  <path d="M140.24,288.73c.11,4.45,3.53,8.77,1.96,13.87-.24.77,1.2,2.04,2.11,3.12-2,6.09-3.99,12.26-6.64,18.13-.95,2.11-3.5,3.5-5.31,5.21-1.65-2.05-2.67-3.33-4.02-5.02.3-2.27,1.28-4.18,4.57-4.9,4.5-1,7.86-9.2,6.12-13.36-.54-1.3-.2-3.02-.06-4.54.36-4.07.82-8.12,1.28-12.52Z"/>
  <path d="M471.18,530.34c.69-.89,1.2-1.61,1.71-2.33-.18-.24-.36-.49-.54-.73-1.83.98-3.67,1.97-5.5,2.95l-.62-.8c2.04-1.89,3.92-4.03,6.19-5.58,1.34-.92,3.31-.91,4.99-1.31.34,2.06.97,4.13.9,6.17-.04,1.15-.99,2.57-1.96,3.34-3.69,2.96-7.46,5.84-11.39,8.48-1.63,1.1-3.23.79-5.14-.68-1.58-1.22-4.39-.85-7.45-1.29,4.07-2.07,8.07-5.87,11.2-5.25,3.98.79,5.3-1.01,7.61-2.97Z"/>
  <path d="M120.44,558.94c.52.59,1.05,1.17,1.69,2.15.1.65.08.92.07,1.18-9.18-1.86-14.64-7.99-18.34-16.08-.73-1.6-1.07-3.38-1.6-5.11,4.32-1.34,7.04.55,9.57,3.49,2.26,2.62,4.89,4.93,7.43,7.83.44,2.49.81,4.52,1.18,6.55Z"/>
  <path d="M522.34,768.44c-.97.26-1.94.25-3.2.2-8.21-9.5-17.15-17.23-30.63-17.98-.23-.74-.22-1.11.03-1.54,1.75-.7,3.27-1.33,4.78-1.97,11.88,1.29,20.54,7.78,27.42,17.06.82,1.1,1.07,2.63,1.59,4.23Z"/>
  <path d="M124.65,730.61c2.7-2.89,5.65-4.46,9.57-3.7,1.49,3.82.33,7.13-2.25,10.13-2.35,2.73-4.45,5.75-7.16,8.05-1.39,1.18-3.89,1.06-5.88,1.53-.27-1.88-1.31-4.1-.64-5.56,1.65-3.61,4.07-6.87,6.36-10.46M123.25,737.36v2.46c2.74-2.72,5.68-4.29,6.14-7.74-.37-.31-.74-.62-1.12-.93-1.6,1.93-3.2,3.86-5.02,6.21Z"/>
  <path d="M128.78,692.79c2.5-.5,5.02-1.51,7.49-1.42,6.88.27,12.61-2.61,18.25-5.89,3.74-2.17,7.3-4.65,11.07-6.78,1.38-.78,3.11-.93,4.89-1.27-.74,1.09-1.78,2.01-2.59,3.11-.22.3.25,1.12.63,1.76-1.4,1.33-2.85,2.92-4.66,3.8-4.06,1.99-8.28,3.63-12.85,5.68-3.02,1.1-5.72,1.71-8.22,2.78-4.48,1.93-8.83,4.14-13.16,6,2.48-2.15,4.88-4.06,7.87-6.46-3.47-.53-6.09-.93-8.72-1.33Z"/>
  <path d="M100.44,356.34c.33.98.88,2.29.5,2.66-2.74,2.69-5.39,5.69-8.67,7.53-1.63.92-4.9.25-6.72-.86-1.75-1.07.27-5.39,2.46-6.93,2.81-1.98,5.33-4.37,7.92-6.64.8-.7,1.29-1.99,2.17-2.3,1.29-.45,2.81-.26,4.24-.35-.25,1.28-.4,2.59-.78,3.83-.31,1.03-.88,1.98-1.12,3.06Z"/>
  <path d="M550.54,476.77c1.28-1.95,2.68-3.7,4.16-5.67,6.42,5.05,10.45,11.96,13.83,19.6-1.59,1.91-3.22,3.56-5.05,5.36-3.23-7.03-7.2-13.6-12.94-19.29Z"/>
  <path d="M80.35,437.68c.29-.26.65-.28,1.28-.29,2.46,1.99,4.66,3.97,7.11,5.87.26-.09.22-.08.11.19.21.96.54,1.65.86,2.36,0,.02,0,.03,0,.03,3.2,3.93,6.39,7.87,9.97,12.26-1.05.31-2.05.91-3,.83-5.6-.5-15.49-9.38-16.38-14.82-.32-2,.06-4.12.06-6.43Z"/>
  <path d="M220.28,253.51c2.5-.36,5-.43,7.81-.46-1.73,9.21-3.78,18.38-6.05,28.02-.76,1.29-1.3,2.12-1.85,2.95-.57-4.38-1.15-8.75-1.72-13.73-.05-2.32-.1-4.03-.15-5.75.65-3.58,1.3-7.16,1.96-11.03Z"/>
  <path d="M262.14,374.14c-.69-.9-1.18-1.74-1.5-2.63-1.28-3.59-3.62-4.86-7.57-3.44-5.93-7.9-8.17-16.88-8.21-26.64,4.24,9.6,9.41,18.6,16.71,26.82,1.5,1.86,2.7,3.36,3.9,4.86-1.01.36-2.02.71-3.32,1.03Z"/>
  <path d="M490.06,497.83c2.98-1.47,3.93-.02,4.35,2.44.92,5.37-5.56,15.58-10.76,17.06-2.2.62-3.11-.44-2.98-2.29.49-7.03,2.86-13.13,9.39-17.2M488.14,506.26c.26-1.07.52-2.14.78-3.21l-1.31-.39-3.22,6.83c.43.22.86.44,1.29.66.73-1.14,1.46-2.29,2.46-3.89Z"/>
  <path d="M73.38,587.53c-6.79,5.63-15.49,6.39-23.36,1.94-5.38-3.04-11.45-5.63-12.11-12.9.32-.32.64-.64.96-.95,1.66,1.81,3.21,3.74,5.01,5.42,6.34,5.91,13.78,8.93,22.45,7.15,3.29-.68,6.32-2.64,9.62-4.07-.74,1.01-1.56,2.13-2.56,3.42Z"/>
  <path d="M135.06,702.03c.19.04.38.08.85.17-1.74,1.73-3.67,3.53-5.79,5.06-8.98,6.48-16.95,13.9-22.45,23.67-.24.42-.3.94-.85,1.06.5-7.38,4.47-12.9,8.84-18.71,3.88-3.1,7.41-5.9,11.22-8.78,2.91-.88,5.56-1.68,8.2-2.48Z"/>
  <path d="M348.67,740.94c-2.7,2-5.36,3.67-8.26,5.37-.45-5.32-.72-10.68-.83-16.04-.03-1.42.41-2.85.71-4.58,1.25.78,2.43,1.88,4.02,3.36,1.3-.38,3.25-.95,5.48-1.53.06,1.32-.16,2.66-.61,4.33-.34.48-.43.63-.49.79,0,2.66.01,5.31-.02,8.3Z"/>
  <path d="M526.95,483.71c-.97-1.38-1.68-2.64-2.58-4.25,2.36,0,5.08,0,8.05-.16,3.52,1.72,6.67,3.94,10.12,5.41,4.82,2.06,9.38,9.6,7.87,14.64-1.06-.56-2.33-.84-2.98-1.63-2.94-3.58-5.55-7.44-8.61-10.91-1.12-1.27-3.08-2.07-4.8-2.47-2.19-.5-4.53-.38-7.08-.63Z"/>
  <path d="M420.22,506.63c-1.73,1.77-3.59,3.33-5.58,5.1-8.33-5.42-15.75-11.66-18.28-22.44,4.69,4.06,8.7,7.94,13.15,11.23,3.22,2.38,7.04,3.97,10.72,6.11Z"/>
  <path d="M128.03,470.4c-5.66,1.75-11.22,2.14-16.7-.76-3.06-1.62-4.47-3.11-4.96-6.83,3.59,1.25,6.81,2.37,10.03,3.49.1-.2.2-.41.29-.61-1.56-1.31-3.12-2.61-4.93-4.13,5.16-.7,13.59,3.43,16.09,7.86.16.57.17.77.18.97Z"/>
  <path d="M70.79,393.86c-2.7,1.3-2.91-.96-3.29-2.31-1.47-5.18,2.61-16.63,6.93-19.69,1.66-1.17,3.66-2.63,5.35-.3,1.47,2.03-.5,3.06-1.58,4.65-2.26,3.31-3.83,7.12-5.43,10.84-.89,2.08-1.25,4.38-1.99,6.81Z"/>
  <path d="M128.66,692.63c2.75.56,5.37.96,8.84,1.49-2.99,2.39-5.39,4.31-7.85,6.5-.06.27-.04.38-.26.39-.6.4-.98.78-1.51,1.23-.15.06-.45.21-.7.23-2.49,1.45-4.72,2.88-6.96,4.32-1.48-2.19-2.96-4.39-4.62-6.79,3.86-2.98,7.9-5.75,12.18-8.56.41.32.58.68.87,1.2Z"/>
  <path d="M575.9,625.24c-1.2,1.43-2.46,2.62-3.83,4.09-4.72-4.16-9.33-8.6-14.13-13.21.92-1.9,2.01-3.63,3.25-5.55,6.25,3.41,10.99,8.38,14.71,14.68Z"/>
  <path d="M329.27,515.37c-1.17-4.98-2.23-9.7-3.5-15.35,9.37,9.92,10.83,22.07,14.81,33.2-3.73-5.86-7.47-11.73-11.31-17.85Z"/>
  <path d="M518.46,456.6c-2.39,1.72-5.12,3.34-8.36,5.27,1.24.64,1.82.95,2.58,1.36-3.98,1.23-8.13,2.36-12.54,3.55.01-1.05.28-2.15.51-3.14-1.7-.89-3.26-1.71-4.94-2.73,7.07-3.3,14.57-4.8,22.74-4.31Z"/>
  <path d="M277.14,525.16c-1.12,3-2.13,5.73-3.15,8.47.51-11.05.74-22.1,7.84-31.71.08,8.11.12,15.98-4.7,23.24Z"/>
  <path d="M245.21,476.3c1.74-.42,3.51-.74,5.21-1.27,2.59-.8,4.63-1.87,7.29.97,1.64,1.75,5.52,1.39,8.51,2.01-1.4,2.82-2.82,5.66-4.77,9.58-3.22-7.8-10.07-7.72-15.98-10.18-.26-.58-.27-.85-.27-1.11Z"/>
  <path d="M516.07,294.08c-.3-1.67-.29-3.31-.28-5.26,1.98-.59,3.95-.86,6.42-.99,1.31.08,2.12,0,2.94-.06,3.73.57,7.46,1.14,11.34,2.12-1.01,1.94-2.17,3.48-3.32,5.01-5.6-.27-11.19-.53-17.1-.82Z"/>
  <path d="M95.81,626.32c-.26-2.1-.3-4.33-.33-6.87,6.54-4.44,13.61-4.2,17.8.5,1.08,1.21,1.6,2.92,2.07,4.89-7.17-5.95-13.38-3.87-19.55,1.48Z"/>
  <path d="M498.68,317c.79.64,1.67,1.27,1.81,2.03.72,4.06-4.84,13.38-8.78,14.98-3.2-4.63.01-12.73,6.97-17.01Z"/>
  <path d="M298.71,744.26c-4.31-7.71-4.05-15.6-1.58-23.6l1.27-.24c1.61,6.01,3.22,12.02,4.52,18.33-4.29.02-2.93,3.75-4.21,5.5Z"/>
  <path d="M156.72,607.42c1.53-1.33,3.06-2.66,4.59-3.99.4.24.79.48,1.19.72-.19,2.06.19,4.42-.69,6.13-1.86,3.61-4.25,6.96-6.71,10.21-.61.81-2.38,1.22-3.45,1-.59-.12-1.41-2.15-1.12-2.95,1.09-2.99,2.59-5.83,4.24-8.72.38,1.15.46,2.29.54,3.51,4.2-2.17,4.52-3.71,1.41-5.92Z"/>
  <path d="M467.83,438.29c1.1,1.67,1.96,3.45,2.96,5.42-3.04,1.17-6.16,2.47-9.41,3-2.17.36-4.52-.52-6.79-.57-2.2-.05-4.4.25-6.6.4-.1-.36-.2-.72-.3-1.08,6.64-2.35,13.27-4.71,20.14-7.17Z"/>
  <path d="M502.63,437.98c-2.72,1.21-3.68-.77-3.16-2.26,1.64-4.73,3.81-9.28,5.84-13.88.16-.36.74-.53,1.11-.78,4.32,4.6,2.95,10.8-3.78,16.92Z"/>
  <path d="M48.96,539.01c-2.26-4.47,1.63-11.84,6.41-12.7,2.25-.4,4.45,1.62,4.02,3.71-.62,3.01-6.92,8.64-10.44,8.99Z"/>
  <path d="M98.6,530.62c.5,1.46.87,2.7,1.23,3.87-3.63,2.16-6.11.3-8.47-1.82-1.42-1.27-2.92-2.53-4-4.07-.78-1.12-.92-2.68-1.35-4.05,1.67-.07,3.71-.8,4.92-.09,2.73,1.6,5.05,3.91,7.67,6.16Z"/>
  <path d="M289.51,437.59c-.89-4.87-1.77-9.41-2.66-14,.82-.05,1.21-.16,1.26-.07,3.28,5.81,6.82,11.6,6.51,18.59-.06,1.41-1.6,3.81-2.63,3.91-2.59.25-2.6-2.17-2.58-4.15.02-1.32.07-2.64.1-4.29Z"/>
  <path d="M71.22,518.81c2.5.37,4.91.37,6.86,1.31,2.71,1.31,2.56,3.16.02,4.81-3.86,2.52-10.35,1.33-13.86-3.26,2.38-1,4.53-1.91,6.98-2.86M72.22,522.26c-.2.1-.4.21-.59.31.23-.02.47-.05.59-.31Z"/>
  <path d="M117.69,768.25c-.71.37-1.42.43-2.41.16-.29-2.57-.29-4.82-.29-7.07-.45-.04-.9-.07-1.35-.11-.28,2.48-.55,4.96-.83,7.44-.74.01-1.47.02-2.48.01.02-3.57-.13-7.24.79-10.61.45-1.66,2.87-2.78,4.41-4.14.95,1.8,2.51,3.53,2.72,5.41.31,2.81-.33,5.72-.56,8.91Z"/>
  <path d="M125.7,336.2c-.4,4.58-7.7,11.48-12.27,11.65-1.25.05-2.54-.78-3.81-1.21.96-1.27,1.69-2.86,2.93-3.74,2-1.42,4.36-2.32,6.5-3.56.81-.47,1.34-1.48,2.17-1.87,1.36-.64,2.87-.97,4.48-1.27Z"/>
  <path d="M75.87,396c-1.08.66-1.95,1.2-3.8,2.32,1.7-8.15,5.64-13.95,9.78-19.69.72,6.71-1.02,12.49-5.97,17.37Z"/>
  <path d="M562.05,659.43c1.45-1.63,2.79-3.01,4.13-4.39.56,1.94,1.74,3.95,1.55,5.82-.37,3.64-1.88,7.02-5.46,8.8-.84.42-2.64.65-2.83.32-.53-.94-.84-2.36-.52-3.35.78-2.39,1.98-4.64,3.12-7.19Z"/>
  <path d="M483.14,768.29c-3,.2-5.74.28-8.8.32-2.26-2.1-1.82-4.04.68-4.75,3.31-.94,6.81-1.49,10.24-1.6,1.29-.04,2.63,1.62,3.95,2.5-1.23.99-2.41,2.06-3.72,2.93-.56.37-1.39.32-2.35.59Z"/>
  <path d="M60.12,581.95c-4.65-1.42-8.87-3.56-12.11-7.31-1.92-2.22-2.73-4.71-1.41-8.86,1.84,1.85,3.45,3.06,4.53,4.63,2.14,3.12,3.18,7.19,7.19,8.62,2.65.95,5.45,1.46,8.26,2.92-1.52.14-3.04.28-4.91.25-.75-.2-1.16-.23-1.56-.25Z"/>
  <path d="M175.91,703.41c3.62-7.41,10.36-10.52,17.74-12.46,2.32-.61,3.8.99,3.04,3.86-1.69.45-2.98.7-4.56.93-4.41.76-7.93,2.42-10.13,6.46-2.21.41-4.15.81-6.09,1.21Z"/>
  <path d="M47.46,548.58c-.06,3.06.09,5.86-.35,8.57-.22,1.32-1.54,2.46-2.37,3.68-.77-1.07-1.79-2.04-2.26-3.23-1.58-3.97-1.82-7.96.86-11.63.51-.7,1.45-1.1,2.68-2,.57,1.73.99,3.02,1.44,4.62Z"/>
  <path d="M258.26,398.63c1.49-.25,3.06-.26,4.97-.28,1.37,1.55,2.05,3.62,3.48,4.56,4.88,3.2,6.42,8.07,7.01,13.71-5.13-5.92-10.25-11.84-15.47-17.99Z"/>
  <path d="M553.39,675.31c3.2,2.21,2.91,3.94-1.17,7.36-2.42-2.44-4.18-1.26-5.74,1.23-.49.78-1.23,1.63-2.05,1.93-.97.35-2.15.14-3.24.17.15-.99-.05-2.46.52-2.88,3.72-2.73,7.6-5.24,11.68-7.8Z"/>
  <path d="M571.77,682.92c-2.7,5.76-5.29,11.62-10.82,15.33-1.14.76-2.68.93-4.03,1.37.48-1.21.68-2.65,1.47-3.58,4.13-4.81,8.41-9.49,12.91-14.03.34.42.4.66.47.9Z"/>
  <path d="M128.27,470.51c-.25-.32-.26-.52-.28-.88,4.77.52,9.93-.71,14.2,2.51,1.41,1.07,2.62,2.41,4.66,4.31-6,1.39-9.95-.67-13.83-2.96-1.53-.9-3-1.91-4.74-2.99Z"/>
  <path d="M84.99,653.93c1.13-.69,2.3-1.13,3.71-1.6,1.12,1.9,1.97,3.85,2.91,5.76.95,1.94,1.91,3.88,3.03,5.73,1.02,1.67,2.25,3.21,3.05,5.06-6.45-3.01-10.18-8.32-12.7-14.94Z"/>
  <path d="M318.42,430.4c-.49,4.66-.92,9.06-1.44,13.44-.08.65-.61,1.26-1.55,3.08-1.19-2.25-2.85-3.91-2.6-5.2.93-4.71,2.51-9.29,3.84-13.92.47.07.93.14,1.4.21.13.7.26,1.41.35,2.38Z"/>
  <path d="M491.14,365.76c1.35,3.04,2.89,6.04,4.03,9.18.79,2.16,1.03,4.51,1.67,7.47-6.83-2.85-9.87-12.66-5.89-16.53.24-.08.21-.1.19-.12Z"/>
  <path d="M553.77,505.56c3.99,4.76,4.35,13.9.68,17.45-.4-.76-.99-1.42-1.09-2.15-.54-4.05-1.09-8.12-1.33-12.19-.06-1.03.99-2.12,1.75-3.11Z"/>
  <path d="M533.37,295.05c.95-1.69,2.11-3.23,3.34-5,3.13,1.3,6.18,2.83,9.31,4.85-.62,2.24-1.33,4.01-2.03,5.77-3.48-1.82-6.95-3.64-10.63-5.62Z"/>
  <path d="M306.08,742.59c1.08,4.25,2.4,8.47,3.08,12.78.2,1.28-1.4,2.84-2.52,4.9-1.68-4.41-2.98-7.81-4.07-11.64,1.31-2.3,2.4-4.17,3.5-6.05Z"/>
  <path d="M152.9,480.99c5.45.15,8.16,3.75,11.15,7.34-4.56,1.98-12.44-1.62-13.26-5.8-.07-.38,1.19-1.02,2.11-1.54Z"/>
  <path d="M105.39,512.36c.62-.86,1.4-1.53,2.53-2.4.65-.17.96-.13,1.52,0,.6,0,.93-.11,1.27-.2,0,0-.04,0-.03-.01.52.96.87,2.09,1.58,2.9,3.51,4.02,7.12,7.95,10.15,12.53-5.62-4.2-11.24-8.41-17.02-12.8Z"/>
  <path d="M304.61,656.87c.75-.18,1.83-.33,1.91-.11,1.28,3.49-3.61,13.96-7.46,15.57-1.1-6.23,2.32-10.69,5.54-15.46Z"/>
  <path d="M110.19,339.91c3.15-3.21,6.14-6.27,9.35-9.09.71-.63,2.2-.36,3.34-.51.04.96.5,2.46.05,2.81-3.42,2.69-7.02,5.14-10.54,7.7-1.13.82-2.12,1.6-2.21-.91Z"/>
  <path d="M488.3,749.19c-.01.36-.02.73-.05,1.37-6.27.43-12.54.6-19.13.72.94-.92,2.09-2.11,3.49-2.61,2.12-.76,4.41-1.04,6.81-1.69,2.36-.24,4.53-.32,7.07-.12.84.96,1.33,1.65,1.81,2.33Z"/>
  <path d="M513.68,307.97c-2.74,1.78-5.27,3.41-7.79,5.05-.44-.31-.87-.62-1.31-.93.51-1.46.64-3.29,1.62-4.29,1.45-1.49,3.4-2.65,5.34-3.45,1.24-.51,2.85-.13,4.29-.15-.65,1.21-1.29,2.42-2.14,3.78Z"/>
  <path d="M544.1,300.89c.6-1.99,1.3-3.75,2.05-5.77,2.16,2,4.27,4.25,6.47,6.73-1.2,1.43-2.48,2.63-4.01,3.87-1.64-1.51-3.03-3.06-4.51-4.83Z"/>
  <path d="M563.17,637.04c.86-.44,1.99-1.08,2.45-.76,2.89,2.03,3.52,9.12.92,12.3-3.02-3.3-2.62-7.5-3.37-11.55Z"/>
  <path d="M192.41,695.75c1.3-.24,2.59-.48,4.19-.71-1.73,6.59-7.53,8.41-13.23,10.45.28-1.16.76-2.16,1.48-3.24,2.85-2.02,6.65-2.62,7.57-6.5Z"/>
  <path d="M283.97,586.77c-1.41,1.21-2.76,2.19-4.33,3.23,1.04-5.26,2.3-10.58,3.56-15.91.48.04.97.09,1.45.13-.21,4.1-.42,8.2-.69,12.54Z"/>
  <path d="M90.01,445.78c-.31.06-.31.05-.19-.25-.21-.98-.54-1.67-.87-2.35,0,0,.04-.01.04,0,.62-.56,1.7-1.72,1.79-1.64,3.54,2.87,7.05,5.81,9.22,9.87-.28.31-.55.61-.83.92-2.95-2.2-5.9-4.41-9.16-6.55Z"/>
  <path d="M306.04,742.36c-1.06,2.1-2.16,3.98-3.47,5.99-1.37-1.16-2.53-2.46-3.77-3.92,1.19-1.92-.17-5.65,4.11-5.37.3,0,.25.02.3.16.48.29.93.44,1.37.59.48.78.95,1.55,1.47,2.56Z"/>
  <path d="M387.72,553.61c.16-.86.46-1.52.82-2.47,4.42,3.52,8.79,7.32,13.16,11.11-.25.36-.51.73-.76,1.09-4.36-3.18-8.72-6.37-13.21-9.74Z"/>
  <path d="M487.8,449.12c-1.22.38-2.21.67-3.19.95-.24-.33-.48-.67-.72-1,2.53-2.15,5.03-4.34,7.63-6.4.39-.3,1.28.03,1.94.07-.05.88.24,2.15-.23,2.56-1.58,1.4-3.44,2.5-5.42,3.81Z"/>
  <path d="M410.83,710.51c1.16.34,3.13.79,3.33,1.66.8,3.4,1.04,6.92,1.39,10.65-1.64-3.84-3.18-7.92-4.72-12.3Z"/>
  <path d="M135.84,657.15c-.89,4.85-5.4,7.44-12.56,6.51,1.43-1.38,2.42-2.35,3.84-3.25,3.19-1.05,5.96-2.15,8.72-3.26Z"/>
  <path d="M220.27,284.32c.47-1.13,1.01-1.96,1.68-2.97.56,5.22.99,10.63,1.42,16.04-.37.06-.73.13-1.1.19-.64-4.32-1.28-8.64-2-13.26Z"/>
  <path d="M196.37,564.83c-.46-1.49-.65-3.02-.95-4.8,3.29-.99,6.69-1.72,10.08-2.45.2.28.4.56.6.85-3.16,2.12-6.31,4.25-9.73,6.4Z"/>
  <path d="M487.95,351.36c-.7.39-1.4.78-2.38,1.16-.46-.18-.64-.33-.85-.46.21-2.81.23-5.66.73-8.42.19-1.06,1.49-1.92,2.6-2.66.18,3.6.05,6.99-.09,10.37Z"/>
  <path d="M307.09,768.19c-2.28.33-4.56.42-7.15.48-.17-.49-.14-1.05.15-1.38,1.2-1.36,2.49-2.66,3.74-3.97,1.09,1.55,2.17,3.09,3.25,4.88Z"/>
  <path d="M120.66,558.78c-.6-1.87-.96-3.9-1.27-6.19,3.04,1.87,6.02,3.99,9.18,6.52.19.7.19,1,.2,1.3-2.63-.59-5.25-1.19-8.11-1.62Z"/>
  <path d="M214.32,679.83c-.87.65-1.58,1.11-2.57,1.77.24-4.88,3.59-9.45,7.88-10.06-1.94,3.05-3.54,5.59-5.31,8.3Z"/>
  <path d="M235.06,491.36c-.74.48-1.53.71-2.57,1-1.45-3.71-2.66-7.49-3.88-11.26.35-.15.71-.3,1.06-.45,3.24,2.64,3.73,6.86,5.39,10.7Z"/>
  <path d="M120.08,706.96c2.38-1.61,4.61-3.04,7.03-4.28-.06.77-.29,1.34-.53,1.91-3.53,2.8-7.06,5.6-10.77,8.5-.27-.12-.37-.35-.6-.94,1.49-1.91,3.11-3.46,4.87-5.19Z"/>
  <path d="M265.65,373.02c-1.39-1.41-2.59-2.91-3.89-4.63-.1-1.68-.1-3.13-.1-4.6,3.44,1.2,5.63,6.03,3.99,9.23Z"/>
  <path d="M328.23,574.17c-1.93-4.12-3.52-8.26-5.1-12.41.55-.2,1.09-.4,1.64-.6,1.48,4.12,2.96,8.24,4.47,12.64-.2.3-.43.32-1,.37Z"/>
  <path d="M129,560.51c-.24-.41-.24-.71-.25-1.23,3.86.74,7.73,1.71,11.59,2.68-.05.48-.1.97-.16,1.45-2.01-.22-4.08-.25-6.03-.73-1.71-.42-3.29-1.35-5.16-2.17Z"/>
  <path d="M399.84,664.57c-.76,2.68-1.49,5.09-2.21,7.49-.51-.14-1.02-.29-1.53-.43-.68-3.63,2.03-6.46,3.52-9.76.09.81.17,1.62.22,2.7Z"/>
  <path d="M184.61,702.33c-.48,1-.96,1.99-1.5,3.22-2.78,1.06-5.57,2.12-7.17-1.86,1.9-.68,3.84-1.07,6.35-1.49,1.15.03,1.74.08,2.32.13Z"/>
  <path d="M330.94,478.86c.69-2.07,1.25-4.03,2.28-5.69.38-.62,1.88-.54,2.87-.78-.15.9-.1,1.9-.5,2.67-.75,1.45-1.68,2.83-2.72,4.09-.24.3-1.23-.02-1.93-.28Z"/>
  <path d="M234.8,626.85c-.38.09-.56.06-1.03-.01,1.45-3.92,3.17-7.79,4.9-11.67.46.2.91.4,1.37.6-1.68,3.65-3.36,7.3-5.24,11.08Z"/>
  <path d="M536.74,558.99c-1.61.82-3.02,1.47-4.42,2.13-.25-.39-.49-.78-.74-1.17,2.2-1.81,4.39-3.61,6.59-5.42.37.31.74.63,1.11.94-.78,1.12-1.55,2.24-2.53,3.51Z"/>
  <path d="M349.71,768.68c.77-2.05,1.87-4.06,3.11-6.25,1.03,1.78,1.91,3.75,2.86,5.95-1.84.27-3.74.31-5.97.3Z"/>
  <path d="M553.17,530.52c.93,3.24.1,5.7-2.34,7.46-.49-.22-.97-.43-1.46-.65,1.2-2.31,2.4-4.63,3.8-6.81Z"/>
  <path d="M214.12,276.96c.38-3.15.75-6.3,1.46-9.44.56.95.8,1.89,1.04,2.83-.08.55-.17,1.09-.38,2.12-.25,1.29-.36,2.1-.47,2.91-.07.31-.14.62-.46,1.2-.56.31-.87.34-1.19.38Z"/>
  <path d="M365.53,362.03c-.35.14-.51.14-.9.14,1.12-2.85,2.48-5.7,3.84-8.54.32.13.64.26.95.39-.51,2.89-.95,5.81-3.9,8.02Z"/>
  <path d="M525.42,301.79c1.92,0,3.61.09,5.3.17,0,.52,0,1.03,0,1.55h-5.96c.14-.55.29-1.09.67-1.71Z"/>
  <path d="M488.24,351.33c-.16-3.36-.02-6.75.04-10.38.28-.5.64-.76,1.2-1.09.45,2.46.94,5.01.83,7.53-.06,1.33-1.15,2.61-2.07,3.95Z"/>
  <path d="M156.53,607.49c3.31,2.14,2.98,3.67-1.21,5.84-.08-1.21-.16-2.35-.38-3.7.38-.83.89-1.45,1.59-2.15Z"/>
  <path d="M506.03,768.39c-1.45.15-3.04.14-4.94.09-1.28-.85-2.26-1.68-3.24-2.5l.57-1.04c2.8.15,5.16,1.64,7.61,3.45Z"/>
  <path d="M135.75,656.93c-2.67,1.33-5.43,2.44-8.4,3.41,1.39-1.33,2.86-2.77,4.61-3.63.99-.49,2.44-.03,3.78.22Z"/>
  <path d="M244.98,476.22c.23.35.24.62.24,1.08-1.77.86-3.53,1.53-5.51,2.09.32-.91.86-1.73,1.3-2.7,1.19-.29,2.46-.42,3.97-.47Z"/>
  <path d="M488.55,749.12c-.72-.62-1.2-1.3-1.73-2.2,1.96-.13,3.97-.05,6.25.13-1.25.73-2.76,1.37-4.51,2.07Z"/>
  <path d="M360.09,664.07c2.72,2.11,1.35,3.82-1.02,5.49.14-1.7.52-3.47,1.02-5.49Z"/>
  <path d="M571.93,682.75c-.23-.07-.3-.31-.45-.91.7-1.8,1.49-3.24,2.73-4.8.64-.09.84-.06,1.03-.03-1.05,1.86-2.09,3.72-3.3,5.74Z"/>
  <path d="M576.91,641.37c.34-1.28.67-2.54.99-3.79.48.2.95.41,1.43.61-.63,1.02-1.26,2.04-2.15,3.15-.26.09-.29.05-.27.03Z"/>
  <path d="M484.55,352.15c.37.03.56.19.85.49.52.94.91,1.76,1.25,2.8-.79-.92-1.52-2.06-2.1-3.29Z"/>
  <path d="M146.04,297.55c-.15-.83-.2-1.87-.15-3.11.15.83.2,1.87.15,3.11Z"/>
  <path d="M383.29,748.79c.2.78.32,1.82.35,3.04-.21-.8-.31-1.8-.35-3.04Z"/>
  <path d="M524.96,287.7c-.62.14-1.44.21-2.44.17.62-.15,1.44-.2,2.44-.17Z"/>
  <path d="M215.94,275.27c-.07-.7.05-1.51.29-2.52.05.67-.03,1.54-.29,2.52Z"/>
  <path d="M529.43,562.26c-.23.12-.41.16-.6.2.07-.17.15-.34.23-.51.14.08.28.16.37.31Z"/>
  <path d="M234.59,479.36c.43-.15,1.02-.2,1.76-.15-.43.15-1.02.2-1.76.15Z"/>
  <path d="M98.45,418.09c.26-.21.51-.22.95-.22.04.49-.1.97-.24,1.46-.24-.35-.48-.69-.71-1.24Z"/>
  <path d="M145.49,289.66c-.16-.41-.28-1.03-.3-1.79.18.43.26,1,.3,1.79Z"/>
  <path d="M190.22,298.71c.15.42.24,1.02.23,1.78-.16-.43-.23-1.02-.23-1.78Z"/>
  <path d="M392.26,343.95c0,.12-.06.18-.11.25-.05-.06-.1-.11-.15-.17.07-.04.14-.09.26-.08Z"/>
  <path d="M144.5,284.62c-.18-.22-.36-.58-.54-1.1.18.21.36.58.54,1.1Z"/>
  <path d="M407.02,384.83c-.2.09-.64.13-1.15.04.26-.12.58-.11,1.15-.04Z"/>
  <path d="M258.94,427.33c.13.07.21.2.28.32-.11-.09-.23-.18-.28-.32Z"/>
  <path d="M261.67,436.08c.19.18.21.47.23.76-.2-.07-.39-.14-.66-.3.04-.18.14-.27.43-.46Z"/>
  <path d="M122.34,562.28c-.13-.27-.11-.53-.07-1,.08.2.15.6.07,1Z"/>
  <path d="M304.43,739.63c-.31.02-.75-.14-1.25-.44.33-.01.72.13,1.25.44Z"/>
  <path d="M60.28,582.05c.25-.07.65-.05,1.14.07-.27.07-.63.05-1.14-.07Z"/>
  <path d="M207.4,505.38c0,.07-.22,0-.22,0,0,0,.23-.07.22,0Z"/>
  <path d="M338.56,436.72s.05-.16.05-.16c0,0,.02.11-.03.12s-.03.03-.02.04Z"/>
  <path d="M348.77,732.53c-.01-.06.07-.21.27-.43-.02.04-.11.18-.27.43Z"/>
  <path d="M575.19,676.79c-.14.18-.33.16-.81.09.06-.13.41-.21.81-.09Z"/>
  <path d="M98.7,779.21c4.83,8.31,9.59,16.66,14.54,24.9,1.48,2.46,3.44,4.63,5.22,6.9.28.36.79.86,1.13.82,5.53-.71,9.12,3.71,13.82,5.22,10.54,3.39,20.81,3.85,30.75-1.79,4.59-2.61,7.55-6.61,9.23-11.61.3.05.6.11.9.16-.28,1.87-.31,3.82-.9,5.59-2.26,6.76-6.96,11.67-13.7,13.31-14.58,3.55-28.82,2.2-40.59-7.9-9.87-8.46-19.68-17.28-24.75-30.05,1.58-2.05,2.96-3.79,4.35-5.54Z"/>
  <path d="M403.96,808.31c8.1,8.76,9.76,20.02,4.59,31.15-4.68,10.09-13.98,16.38-24.22,15.65-3.18-.22-6.51-1.67-9.26-3.39-1.79-1.12-2.63-3.74-3.49-5.94,8.73,5.38,17.05,5.55,24.09.2,7.48-5.68,10.62-16.17,7.21-25.33-1.16-3.11-3.2-5.89-4.83-9.27,1.97-1.33,3.94-2.2,5.91-3.07Z"/>
  <path d="M526.16,769.12c.16-.23.33-.18.63-.14,6.65,14.49,8.4,29.04-.24,43.28-5.93,9.77-14.25,15.92-26.45,15-4.35-.33-8.05-2-10.56-5.47-1.32-1.82-1.74-4.3-2.61-6.59,2.35,1.88,4.13,3.61,6.19,4.9,5.08,3.17,10.53,3.19,15.97,1.07,9.81-3.81,14.46-11.88,17.24-21.39,2.75-9.4,2.21-18.82.17-28.25-.15-.7-.23-1.42-.35-2.41Z"/>
  <path d="M253.2,819.37c11.35-5.24,16.99-15.1,21.12-26.16.55-1.46.91-2.98,1.73-4.76,2.33-.27,4.3-.26,6.26-.24-3.18,14.87-9.45,27.68-23.64,35.09-2.2,1.15-4.71,1.69-7.35,2.24.44-2.23,1.16-4.2,1.88-6.16Z"/>
  <path d="M252.89,819.37c-.41,1.97-1.13,3.94-1.86,6.18-9.67,4.01-25.03-1.61-27.77-13.98,1.77-.54,3.29-.82,4.81-1.11,5.69,9.8,14.61,10.71,24.82,8.91Z"/>
  <path d="M348.65,768.91c2.83-.23,5.66-.2,8.79-.11,3.51,4.4,6.73,8.73,9.94,13.51-.51,3.05-1.02,5.66-1.53,8.26-7.16-5.99-12.74-13.24-17.2-21.66Z"/>
  <path d="M403.85,808.08c-1.85,1.09-3.82,1.97-5.9,3.07-5.75-3.31-11.4-6.86-17.13-10.82.4-2.53.89-4.64,1.37-6.75,8.02,3.5,15.7,7.5,21.66,14.5Z"/>
  <path d="M282.43,787.97c-2.08.22-4.05.21-6.28.22.4-6.26,1.06-12.55,1.75-19.15,2.59-.32,5.15-.32,8.02-.27-.92,6.36-2.14,12.67-3.49,19.21Z"/>
  <path d="M407.02,768.96c1.2-.21,2.55-.25,4.18-.26,1.55.53,2.8,1.09,4.09,1.52,1.82.61,3.68,1.13,5.79,2.1.98,1.24,1.57,2.57,2.44,2.79,2.74.68,5.58.94,8.37,1.36,1.62.13,3.25.25,4.87.38l.28.9c-1.27.66-2.47,1.59-3.82,1.94-6.76,1.74-13.14.2-19.26-2.69-.91-.43-1.57-1.43-2.25-2.24-1.54-1.85-3.03-3.75-4.68-5.79Z"/>
  <path d="M275.8,825.14c1.91.2,3.57.49,5.23.79-.45,2.14-.22,4.87-1.48,6.3-4.03,4.58-9.39,7.07-15.58,7.03-1.26,0-2.52-1.46-3.77-2.24,1.34-.99,2.7-2.82,4.03-2.8,3.9.06,6.88-1.5,9.99-3.9-.67-.96-1.23-1.77-1.98-2.84,1.19-.8,2.25-1.52,3.57-2.34Z"/>
  <path d="M287.98,815.78c7-4.95,11.1-11.42,11.71-20.1.46.12.92.25,1.38.37.31,3.17,1.82,6.9.68,9.4-2.35,5.14-5.97,9.74-9.45,14.27-.79,1.02-3.15.84-4.79,1.21.11-1.65.21-3.29.47-5.15Z"/>
  <path d="M228.02,810.16c-1.47.58-2.99.87-4.8,1.15-3.31-6.4-1.72-15.71,3.2-20.49,3.51-3.4,7.04-4.35,10.57-2.51-10.82,4.06-11.34,12.25-8.98,21.85Z"/>
  <path d="M382.02,793.42c-.32,2.27-.8,4.38-1.4,6.76-4.9-2.9-9.7-6.06-14.64-9.41.38-2.8.89-5.41,1.51-8.24,4.86,3.43,9.6,7.09,14.52,10.9Z"/>
  <path d="M425.32,833.64c.88-8.85,1.85-17.49,2.81-26.12.17-.15.34-.29.51-.44.93,2.28,2.21,4.48,2.72,6.85,1.47,6.94.02,13.36-4.35,19.01-.35.45-1.06.62-1.68.7Z"/>
  <path d="M98.66,778.93c-1.35,2.03-2.73,3.77-4.37,5.57-2.12-5.04-4-10.13-5.9-15.5,2.51-.26,5.04-.25,7.86-.16.98,3.33,1.67,6.56,2.4,10.08Z"/>
  <path d="M126.75,793.6c.09,1.44.06,2.66.03,3.88-1.21-.34-2.96-.29-3.52-1.08-2.72-3.88-5.27-7.91-7.51-12.09-.45-.83.74-2.53,1.17-3.83,1.22.61,2.96.89,3.58,1.88,2.25,3.55,4.12,7.33,6.25,11.24Z"/>
  <path d="M307.7,769.13c.04-.26.12-.24.15-.25,2.42,5.46,2.44,10.98-.07,16.34-.87,1.85-2.61,3.29-4.58,4.57-2.03-7.76,3.45-13.57,4.5-20.65Z"/>
  <path d="M449.34,769.03c4.93-.25,9.69-.32,14.79-.37-1.76,3.53-11.9,7.65-15.56,6.47-2.87-.93-2.69-2.69.77-6.1Z"/>
  <path d="M249.2,840.9c-4.69,3.02-9.13,2.24-13.43-.25-.79-.45-1.13-1.66-1.69-2.53.92-.37,1.85-1.06,2.76-1.05,3.47.04,6.96.14,10.4.59,1.28.17,4.35.06,1.95,3.24Z"/>
  <path d="M133.6,803.54c.43-.51.77-.99,1.18-1.06,2.2-.39,10.95,4.25,12.09,6.34-4.54,2.55-10.56.27-13.27-5.28Z"/>
  <path d="M406.34,778.23c1.12,1.25,2.08,2.29,3.14,3.45-5.31-1.47-10.03-3.62-13.13-9.32,5.15-.39,7.32,2.94,10,5.87Z"/>
  <path d="M512.69,780.65c-.23-1.54-.36-2.83-.52-4.4,5.82,1.89,7.14,5.97,3.17,10.07-.91-1.95-1.73-3.69-2.64-5.68Z"/>
  <path d="M292.01,806.77c-.94,1.32-1.74,2.43-2.98,4.16-1.18-5.28,2.58-11.1,7.49-11.69-1.46,2.44-2.91,4.88-4.51,7.54Z"/>
  <path d="M298.28,769.16c1.17-.39,2.33-.45,3.77-.49-.38,3.59.14,7.47-2.53,11.31-2.36-3.79-1.11-7.23-1.24-10.82Z"/>
  <path d="M519.33,797.08c.56,3.81-.12,6.95-3.67,9.72-1.05-3.97.12-6.94,1.75-9.78.17-.3,1.18-.12,1.92.06Z"/>
  <path d="M431.87,776.2c-2.78-.15-5.62-.41-8.36-1.09-.87-.22-1.46-1.55-2.22-2.63,2.12-.23,4.29-.29,6.44-.16,2.24.14,3.98,1,4.13,3.88Z"/>
  <path d="M110.98,769.04c1.76-.27,3.6-.31,5.74-.32-.52,1.35-1.34,2.66-2.17,3.97-1.16-1.14-2.33-2.29-3.57-3.65Z"/>
  <path d="M228.83,253.64c-2.42.31-4.79.37-7.6.16,1.53-6.97,3.51-13.66,5.48-20.36-.49-.21-.98-.43-1.46-.64-6.49,5.82-11.21,12.95-14.7,20.99-3.98.09-7.96.18-12.27.27-.19-.7-.16-1.45.14-2.07,10.29-21.52,22.02-42.08,39.88-58.42,15.15-13.86,32.56-23.55,52.86-27.42,4.18-.8,8.61-.37,12.92-.44,1.92-.03,3.85,0,5.75.2,2.53.26,5.05.7,7.57,1.06,0,.44,0,.87-.01,1.31-1.17.19-2.33.49-3.51.56-4.63.29-9.38-.02-13.89.86-10.19,1.99-20.32,4.66-28.84,10.91-5.39,3.95-10.11,8.81-15.35,13.7.23.6.68.75,1.13.9,4.86-2.07,9.69-4.2,14.58-6.17,1.38-.55,2.95-.64,4.77-.45-9.82,7.88-20.28,15.01-26.11,26.46.21.3.43.6.64.91,1.34-.42,2.68-.85,4.01-1.27-11.12,11.36-19.95,24.06-25.98,38.95Z"/>
  <path d="M412.97,252.73c-2.8.26-5.62.25-8.74.17-5.23-17.87-13.95-33.62-26-47.55-1.07-1.23-2.47-2.18-3.8-3.33,1.4-2.55,3.07-3.2,5.17-1.12,14.86,14.76,26.95,31.33,33.38,51.83Z"/>
  <path d="M113.09,768.69c0-2.49.28-4.97.55-7.45.45.04.9.07,1.35.11,0,2.25,0,4.5.02,7.05-.53.31-1.09.31-1.92.29Z"/>
  <path d="M109.18,509.86c-.3-.04-.61-.07-1.14-.14-6.22-2.94-12.2-5.84-17.29-8.31,5.8,1.02,12.63,2.4,18.4,7.52.06.62.04.77.03.93Z"/>
  <path d="M109.44,509.95c-.24-.25-.23-.41-.2-.8.44-.09.85.06,1.37.4-.24.3-.58.4-1.17.4Z"/>
  <path d="M366.67,429.38c.06-.22.19-.38.31-.55.02.18.03.36-.04.62-.09.08-.21-.02-.27-.07Z"/>
  <path d="M126.85,704.51c-.03-.5.2-1.07.51-1.86.07-.21.37-.36.72-.47.74-.47,1.14-.83,1.53-1.19,0,0-.01-.1-.04-.15,4.38-2.14,8.74-4.35,13.22-6.28,2.5-1.08,5.2-1.69,8.09-2.58,2.15-.34,4.02-.61,5.89-.88.16.34.32.68.48,1.02-2.54,1.22-5.04,2.53-7.63,3.64-4.73,2.02-9.51,3.91-14.42,6.06-2.79,1.01-5.43,1.81-8.35,2.69Z"/>
  <path d="M466.96,750.3s0,.01,0,0Z"/>
  <path d="M149.98,718.3c-1.11.09-1.96.09-2.82.09-.07-.35-.14-.7-.21-1.05,3.04-2.71,6.5-4.43,10.65-4.62.25.47.5.95.75,1.42-2.71,1.35-5.42,2.71-8.38,4.15Z"/>
  <path d="M505.75,486.1c-1.26.78-2.33,1.41-3.41,2.04-.24-.33-.49-.66-.73-1,1.48-1.17,2.96-2.34,4.44-3.5.24.23.48.46.72.69-.28.54-.55,1.08-1.02,1.77Z"/>
  <path d="M123.36,737.15c1.71-2.14,3.31-4.07,4.91-6,.37.31.74.62,1.12.93-.46,3.45-3.4,5.02-6.14,7.74,0-1.37,0-1.91.11-2.67Z"/>
  <path d="M88.84,443.45c.44.41.77,1.1.98,2.06-.45-.41-.77-1.1-.98-2.06Z"/>
  <path d="M488.01,506.49c-.86,1.37-1.59,2.52-2.33,3.66-.43-.22-.86-.44-1.29-.66l3.22-6.83,1.31.39c-.26,1.07-.52,2.14-.91,3.44Z"/>
  <path d="M129.39,701.01c-.18.34-.57.7-1.16,1.11.18-.33.56-.72,1.16-1.11Z"/>
  <path d="M72.27,522.38c-.18.14-.41.17-.65.19.2-.1.4-.21.65-.19Z"/>
  <path d="M184.85,702.24c-.82.03-1.4-.01-2.28-.06,1.64-4.03,5.16-5.68,9.57-6.44-.64,3.89-4.43,4.48-7.29,6.5Z"/>
  <path d="M257.65,190.99c-.18.07-.62-.09-.95-.44.31-.06.49.08.95.44Z"/>
  <path d="M90.89,253.75c12.95-4.22,25.72-4.53,38.4,2.12-.55,2.43-1.32,4.53-2.1,6.64-12.95-5.64-26.01-5.6-39.68-.73-1.17-.04-1.82-.15-3.2-.36,2.46-2.86,4.52-5.26,6.58-7.66Z"/>
</svg>