<?xml version="1.0" encoding="UTF-8"?>
<svg xmlns="http://www.w3.org/2000/svg" version="1.1" viewBox="0 0 612 1024">
  <!-- Generator: Adobe Illustrator 29.8.9, SVG Export Plug-In . SVG Version: 2.1.1 Build 1)  -->
  <g id="Layer_1">
    <path d="M477.42,733.63c.26.21.36.29.52.45,1.14,2.91,2.92,5.67.86,8.82-.49.76.15,1.36.71,1.75,6.89,4.78,13.81,9.5,22.4,10.68,6.31.87,12.52.77,18.38-2.18.79-.4,1.6-.88,2.66-.19-.25,2.31-2.21,3.1-3.88,3.96-7.53,3.87-15.61,4.75-23.84,3.55-19.06-2.79-32.1-14.07-41.28-30.3-7.66-13.55-11.36-28.18-10.61-43.81.47-9.75,2.97-19.02,6.62-28.03,2.63-6.5,4.89-13.1,3.77-20.28-1.86-11.96-9.24-19.75-19.46-25.26-5.84-3.15-12.24-4.73-18.67-6.09-2.62-.55-3.42.24-2.9,2.81,5.21,25.56-2.75,47.64-17.64,68.01-6.22,8.51-13.59,16.21-18.52,25.63-5.5,10.49-6.84,21.15-.47,31.83,4.87,8.17,14.34,11.2,22.4,7.35,2.65-1.27,4.32-3.67,6.7-5.8.61,2.52-.6,4.15-1.65,5.72-6.76,10.12-20.68,12.66-31.21,5.73-11.02-7.24-16.04-21.02-12.96-34.7,2.11-9.38,7.22-17.17,12.49-24.92,6.26-9.2,11.48-18.91,13.82-29.9,3.27-15.31,1.5-30.25-3.42-44.97-3.27-9.79-9.34-17.69-16.07-25.25-6.86-7.7-12.38-16.34-17.17-25.44-1.14-2.16-1.16-2.44-1.28-4.6,1.61.26,2.25,1.61,2.99,2.64,5.87,8.13,12.88,15.2,20.51,21.63,15.64,13.18,25.35,29.68,28.53,49.92.88,5.62.97,11.28.62,17.38,1.57-.97,1.93-2.28,2.37-3.48,6.22-16.56,5.17-32.94-1.16-49.23-3.09-7.97-8.42-14.36-13.85-20.75-1.79-2.11-4.12-3.96-4.78-6.8,1.3-1.08,2.13-.34,2.97.13,12.8,7.16,26.28,12.82,39.85,18.31,10.75,4.35,20.62,10.01,27.92,19.32,2.2,2.81,4.11,5.85,6.2,8.87.22-2.39-1.56-4.48-.84-7.09,1.85.66,2.49,2.15,3.15,3.53,6.33,13.2,5.55,26.36-.26,39.49-2.54,5.74-6.09,11-8.17,16.93-9.11,25.88-4.4,49.31,12.72,70.47.93,1.15,2.06,2.17,3.17,3.16.93.84,1.97,1.55,3.02,2.24-7.1-8.46-10.99-18.31-12.99-29.01-.41-2.18-.45-4.37-.1-6.54.28-1.72.96-3.61,2.78-3.88,1.7-.25,3.65.44,4.65,2.05,2.61,4.22,3.61,8.81,2.36,13.71-.21.82-.74,1.67-1.34,2.27-3.04,3.02-3.14,4.55-.36,7.88,2.12.07,2.68-3.41,5.34-2.26,2.07.9,3.2,2.58,4.4,4.54M473.46,736.88c.81.8,1.43,1.93,3.39,1.65-1.54-2.76-3.07-5.09-5.94-6.63.22,2.02,1.36,3.28,2.55,4.97M465.05,717c.35.55.38,1.37,1.63,1.53.24-2.72.25-5.25-1.76-7.67-1.58,2.22-.37,3.98.13,6.14Z"/>
    <path d="M162,589.13c-9.95,9.98-15.98,21.58-17.16,36.19,2.69-1.72,2.49-5.09,5.16-6.07.2.36.5.65.44.83-2.81,9.89-2.93,20.3-5.81,30.15-3.26,11.13-9.26,20.46-20.08,25.48-11.5,5.33-23.01,4.55-34.04-1.82-.82-.47-1.81-.9-1.95-2.23,1.06-.8,2.03-.04,2.98.26,6.32,2.01,12.84,2.14,19.21.93,12.68-2.4,20.93-11.64,22.99-24.72.93-5.86.36-11.73.48-17.59.36-16.61,5.35-31.46,16.45-44.06,2.64-3,5.85-5.36,8.74-8.08-.54-1.43-1.89-1.55-2.83-2.18-1.75-1.16-3.47-2.16-3.89-4.59-.3-1.76-5.75-4.44-7.93-4.24-5.35.48-15.08-6.51-16.12-11.78-.26-1.32-.94-2-1.92-2.38-2.74-1.06-3.66-3.09-3.45-5.87,1.05-1.21,2.49.14,3.62-.51-1.39-2-3.14-3.08-6.31-3.82-.32,1.42.44,3.96-3.4,2.45,2.41,1.77,5.23,2.89,4.3,5.04-.93,2.17-3.77,1.1-5.7.58-4.2-1.14-8.32-2.29-11.65-5.6-1.86-1.85-4.85-2.12-7.61-1.28-5.09,1.55-10.21.74-14.36-1.95-2.78-1.8-5.34-3.96-8.72-4.9.72-1.67,1.26-2.91,1.85-4.27,2.9.46,5.75,1.74,9.04.22-5.53-2.35-10.85-4.29-15.65-7.33-16.34-10.36-26.12-25.05-26.63-44.46-.72-27.21,19.81-43.39,41.08-42.64,10.47.37,19.39,6.24,22.59,14.87,1.72,4.65,1.62,9.21-1.12,13.46-1.91,2.96-4.64,4.65-8.29,4.28-1.7-.17-3.21-.79-3.57-3.01.56,0,.96-.09,1.29.01,5.04,1.58,8.68-.89,9.22-6.28.71-7.13-4.24-13.89-12.25-16.32-11.71-3.55-21.68.25-30.16,8.18-14.06,13.16-15.03,35.08-2.66,50.46,9.01,11.2,21.1,16.57,34.96,18.6,8.07,1.18,16.26.86,24.35,2.22,12.13,2.04,22.26,7.69,31.25,15.81,2.16,1.95,4.13,4.23,7.06,5.38.88-1.73-1.14-3-.15-4.61,1.74-.14,2.78,1.21,3.94,2.15,5.77,4.66,11.75,8.94,19.18,10.57,8.29,1.82,16.38,1.08,24.36-1.81,5.7-2.06,10.66-5.29,15.4-8.96.88-.68,1.53-1.88,3.17-1.61-.18,2.15-1.54,3.59-2.75,5.1-7.4,9.25-16.86,15.98-26.92,21.97-7.78,4.64-16,8.55-23.22,14.08-2.29,1.75-4.44,3.69-6.8,5.68M105.96,537.91c-4.56-1.69-9.3-1.99-14.96-2.34,1.89,1.41,2.89,2.19,3.01,3.95.1,1.38,2.06,1.6,3.33,2.06.67.24,1.7.1,1.74-.64.15-2.31,1.75-1.52,3-1.66,1.41-.16,3.18.95,3.88-1.37M138.03,556.11c3.43,1.46,4.3,5.19,6.7,7.56.67.67,1.35,1.8,2.44.98,1.2-.91.33-1.99-.25-2.87-1.93-2.96-4.68-5.05-7.64-6.87-.83-.51-1.75-.68-2.92-.03.59.45.97.73,1.67,1.23M135.66,557.97c-.52-.28-.96-.9-1.81-.44,1.76,2.23,3.95,3.6,7.1,5.17-1.81-2.23-3.44-3.32-5.29-4.73M165.65,572.93c.46.18.99.36,1.28-.17.29-.52-.09-.96-.5-1.22-1.05-.68-2.19-.96-3.54-.65.6,1.15,1.58,1.42,2.75,2.05Z"/>
    <path d="M376.17,255.36c-3.57-2.91-7.25-5.26-11.03-7.5-3.61-2.13-7.67-3.55-11.17-6.45,1.94-1.65,3.55-.91,5.06-.41,24.03,8.13,41.79,23.38,51.48,46.98,12.78,31.15,10.65,61.86-4.48,91.74-2.92,5.77-6.45,11.22-9.57,16.88-3.15,5.7-5.42,11.75-6.3,18.24-.5,3.69-.19,7.19,1.89,10.55,2.32,3.75,1.7,7.86.42,11.84-.98,3.05-2.68,5.77-4.31,8.51-4.15,6.99-3.14,16.63,2.47,23.07,5.15,5.91,14.1,7.82,21.63,4.65,3.65-1.53,6.6-4.04,9.54-6.59.44-.38.85-.87,1.55-.61-.41,4.15-7.48,11.3-16.03,16.15,5.63,1.96,10.8-.32,16.11-1.44-.76,5.26-13.38,10.6-22.69,9.56-8.15-.91-14.79-4.78-19.21-11.76-4.29-6.77-5.85-14.1-2.7-22.23-5.87,2.66-11.57,4.37-17.88,1.69,15.05-4.01,22.76-14.05,25.35-28.42-.25-.24-.5-.48-.74-.71-.77.54-1.54,1.08-2.83,1.99-.39-4.43.88-8.51-.25-12.92-5.73,3.16-11.98,2.03-17.88,3.23-3.75.76-7.15,2.41-10.57,4.04-.83.4-1.6,1.31-2.71.68-.64-1.07.16-1.72.73-2.34,3.8-4.19,8.08-7.67,13.59-9.4,2.28-.71,4.51-1.63,6.82-2.2,9.47-2.35,14.57-9.14,18.08-17.58.15-.37.48-.89.34-1.11-2.12-3.4.82-5.36,2.3-7.52,6.64-9.76,12.58-19.83,15.72-31.35,3.93-14.42,3.38-28.73-.87-42.97-.48-1.62-.91-3.09-.08-4.87.85-1.83-.18-3.43-1.74-4.66-2.31.93-2.14,2.9-2.09,4.76.24,8.7-.26,17.32-2.88,25.68-.74,2.36-1.22,4.98-3.35,6.68-1.72-1-1.23-2.44-1.22-3.64.25-19.95-4.27-38.66-14.45-55.92-.74-1.26-2.52-2.79-1.05-4.22,1.51-1.47,2.83.57,4.13,1.24,2.44,1.25,4.24,3.53,7.75,4.94-3.89-10.44-8.97-19.11-16.84-26.29Z"/>
    <path d="M189.5,454.58c-2.79-2.49-5.42-4.84-8.71-7.77,4.71-.99,7.44,2.05,11.09,2.68-1.4-2.85-3.71-4.41-5.83-6.07-3.62-2.82-7.5-5.28-11.67-7.21-8.85-4.1-17.48-8.58-25.53-14.32,1.08,1.58,2.17,3.16,3.39,4.93-1.85.68-2.75-.45-3.64-1.19-10.1-8.39-15.98-19.24-17.86-32.12-2.31-15.81,2.99-29.44,13.15-41.3,5.69-6.63,12.17-12.59,16.52-20.31,9.56-16.95,11.18-34.27,1.95-51.84-3.93-7.49-10.08-12.48-18.72-13.91-7.96-1.32-15.66,3.41-17.6,10.83-.78,3-.21,5.8,1.53,8.24,2.51,3.51,5.81,3.74,9.44,1.39-.13,2.58-1.33,3.69-3.92,3.93-5.05.47-9.86-4.25-10.18-9.99-.56-10.01,6.23-18.35,16.52-19.69,14.54-1.9,25.25,4.75,32.53,16.61,10.97,17.89,9.22,36-.89,53.76-4.62,8.12-11.43,14.54-17.07,21.86-7.07,9.16-11.47,19.3-11,31.13.46,11.51,4.99,21.33,12.34,30.06,7.32,8.68,17.02,13.97,26.78,19.16,6.13,3.26,11.61,7.3,16.5,12.19,1.96,1.96,3.54,3.96,2.91,7.07-.5,2.42,1.37,3.4,3.24,3.93,1.42.4,2.52,1.07,3.51,2.1,5.2,5.41,11.1,8.42,18.73,5.42.18-.07.4-.07.59-.05.19.02.37.11.55.17-.29,3.63-5.85,7.8-12.22,9.18-8.17,1.77-19.4-2.55-23.02-9.1,2.84-1.05,4.58,2.4,7.48,1.54-3.33-4.1-7.08-7.59-10.9-11.3Z"/>
    <path d="M475.14,274.71c-15,5.04-25.73,20.05-26.42,35.66-.62,13.86,4.64,25.4,12.62,36.12,4.93,6.63,9.93,13.19,13.12,20.94,7.87,19.13,5.48,37.2-5.45,54.38-7.86,12.34-18.92,21.18-31.74,27.85-8.98,4.67-17.41,9.96-24.42,17.41-3.83,4.07-11.28,4.02-14.78.37.09-.72.64-1.01,1.22-1.15,4.55-1.12,7.88-4.05,11.12-7.21,4.23-4.13,9.06-7.45,14.38-10.06,12.39-6.07,23.59-13.68,31.97-24.9,8.57-11.48,14.01-24.12,13.36-38.71-.5-11.17-3.92-21.5-10.53-30.62-3.51-4.83-7.38-9.4-10.89-14.23-13.38-18.36-13.74-40.39-1.04-57.85,9.92-13.65,26.71-20.05,41.74-15.91,10.84,2.99,18.12,13.71,16.42,24.2-.82,5.03-4.06,8.83-8.41,9.83-2.17.5-3.08.18-4.55-1.68,1.39-.95,3.05-.06,4.52-.86,3.67-2.02,5.47-6.76,4.17-11.76-1.75-6.71-7.53-11.86-14.67-12.73-3.85-.47-7.76-.54-11.74.92Z"/>
    <path d="M215.59,353.12c-1.35-2.66-2.6-5.13-3.84-7.6-1.15,4.91-.17,9.61.71,14.32.87,4.63,3.04,8.98,3.2,14.01-2.32-.41-3.11-2.13-4.13-3.51-6.03-8.18-9.22-17.53-11.3-27.37-4.55-21.56-1.67-42.19,8.11-61.79,7.46-14.94,18.49-26.8,32.77-35.55,1.1-.68,2.18-1.84,3.88-1.11.02,2.39-2.14,2.95-3.47,4.03-11.63,9.43-21.06,20.63-26.96,34.47-5.22,12.23-7.51,24.91-3.99,38.12.61,2.28,1.17,4.6,2.89,6.99,1.19-8.57,2.2-16.77,6.36-24.38,1.69,1.25,1.35,2.62,1.33,3.82-.1,8.67.29,17.29,2.36,25.77,3.31,13.53,9.56,25.47,18.93,35.76,2.54,2.79,5.29,5.4,7.91,8.13.79.82,2.07,1.65,1.17,3.01-.77,1.17-2.08.94-3.28.67-1.04-.24-2.07-.51-3.53-.42,5.36,10.09,8.77,21.01,15.74,29.93-1.25,1.17-1.96.99-2.56.64-4.11-2.42-8.42-4.57-11.71-8.17-1.8-1.96-3.34-4.23-3.07-6.91.75-7.52-3.14-12.94-7.77-18.03-4.02-4.41-8.55-8.33-12.14-13.16-2.74-3.69-5.2-7.53-7.62-11.67Z"/>
    <path d="M92.13,621.63c.49-.6.99-.57,1.41-.26,4.77,3.56,10.12-1.46,10.35-6.42.3-6.5-4.3-12.75-11.49-14.95-9.96-3.06-18.56.33-26.03,6.57-8.28,6.92-12.49,16.28-12.95,26.97-.87,20.4,8.86,35.54,24.53,47.5,1.74,1.33,3.56,2.55,5.33,3.84.22.16.3.49.53.88-.26.36-.51.77-.83,1.12-.41.45-.89.85-.42,1.53.41.59.92.57,1.57.42,4.79-1.09,8.46,1.41,12.04,3.95,1.77,1.26,1.99,2.93.18,4.6,3.33,3.23,7.42,3.33,11.53,3.46-1.25-.73-2.59-1.34-3.74-2.21-1.63-1.24-1.6-2.55.12-3.85,4.28-3.21,14.47-2.38,17.87,1.38,3.03-.97,4.91-3.28,7.07-5.39,2.86-2.8,6.51-4.6,10.65-4.91,1.71-.13,3.51.11,4.39,1.89.91,1.82-.18,3.25-1.31,4.56-1.67,1.93-3.79,3.15-6.17,4.06-2.12.81-4.79.62-6.03,3.18-.12.25-.72.37-1.09.37-5.72-.07-11.05,2.14-16.03,4.16-5.8,2.35-10.81.96-16.18-.13-1.91-.39-3.35-1.71-5.09-2.45-2.22-.94-4.64-.73-6.82-1.28-.38-1.42,1.04-.77,1.32-1.71-2.67-2.31-6.21-3.2-9.51-5.18.43,1.66,2.61,1.92,2.28,3.7-1.34.77-2.33-.17-3.3-.71-10.09-5.63-17.92-13.52-23.41-23.67-8.32-15.39-11.79-31.54-6.24-48.62,5.43-16.71,16.53-27.54,34.36-30.07,11.72-1.66,22.23,3.77,25.7,13.84,1.87,5.4,1.29,10.45-2.86,14.67-3.86,3.92-9.52,3.54-11.75-.84M138.68,690.5c-2.18.7-4.36,1.39-6.15,3.25,3.5.72,6.37-.76,6.15-3.25M115.2,697c-1.81-.23-3.64-.63-5.63.58,2.08,1.12,3.92,1.05,5.77.51.47-.14,1.01-.48-.14-1.09Z"/>
    <path d="M270,655.48c-9.49-20.71-1.82-48.37,16.65-60.59,11.23-7.43,26.61-6.85,38.57,1.32,6.87,4.7,12.37,10.6,16.5,17.81.67,1.17,1.39,2.35.43,3.58-2.74,3.52-1.79,7.32-1.03,11.14.25,1.23.77,2.52-.16,3.28-8.77-.91-12.53-7.28-16.1-13.82-1.1-2.02-2.02-4.09-1.16-6.54.45-1.27-.25-2.33-1.31-3.08-6.03-4.27-12.66-6.52-20.09-6.08-1.66,6.03-11.89,10.51-17.16,7.48-4.94,4.03-7.67,9.5-9.43,15.48-3.21,10.9-2.64,21.47,3.7,31.24,6.19,9.52,17.98,11.47,26.13,4.56,1.43-1.22,1.91-3.24,3.64-4.2,1.04,1.11.32,2-.07,2.83-5.54,12.01-21.42,15.17-31.24,6.25-3.28-2.98-6.03-6.35-7.87-10.67M331.33,617.29c-.91-.94-1.72-2.08-3.37-1.98,1.12,4.25,4.82,8.87,7.47,9.34-.83-2.65-2.14-4.94-4.1-7.36Z"/>
    <path d="M227.2,405.54c3.69,5.65,9.12,8.15,15.23,9.4,6.96,1.42,13.45,3.66,18.37,9.11.7.78,1.72,1.43,1.34,3.3-4.43-1.7-8.71-3.76-13.42-4.19-4.63-.42-9.32-.16-13.63-1.62-2.13,9.44-1.84,17.95,4.72,25.63,6.54,7.67,14.91,9.61,24.16,9.04.35,1.2-.12,1.61-.71,1.78-6.78,1.97-13.56,3.43-20.26-.37-.79-.45-1.71-1.35-2.69-.43-.76.71-.48,1.72-.2,2.54,2.66,8.02-.55,14.48-5.7,20.18-5.26,5.83-11.88,8.9-19.91,8.38-1.36-.09-2.79,0-3.78-1.21.08-1.35,1.38-.98,2.19-1.77-3.61-.2-6.96-.8-10.09-2.18-3.02-1.33-5.95-2.81-8.21-5.54,1.46-.89,2.16-.07,2.88.32,16.88,9.23,36.27-3.79,37.43-22,.25-3.9-.84-6.59-2.6-9.46-4.16-6.76-6.24-13.6-2.79-21.49,1.32-3.02.17-6.46-1.22-9.52-1.23-2.71-2.94-5.22-3.71-8.12-.22-.83-.43-1.85.41-2.5.84-.65,1.47,0,2.2.7Z"/>
    <path d="M357.49,758.17c5.18-.92,8.64,2.23,11.62,5.19,2.79,2.78,6.06,2.71,9.21,3.16,2.62.37,5.35.22,7.95.97,2.33.68,3.8,1.88,2.32,4.69,2.06.68,3.55-.32,5.22-1.09-.5-1.51-.96-2.89-1.45-4.39,1.56-1.18,3.5-1.33,5.24-1.93,13.13-4.5,21.27-13.43,23.23-27.25,1.01-7.09-.82-13.67-6.73-18.49-4-3.27-7.74-3.34-11.92-.29-.4.29-.76.66-1.31.41.14-2.82,2.6-4.98,6.25-5.33,5.83-.56,10.52,1.74,14.17,6.14,7.89,9.51,8.41,24.48,1.18,36.11-6.34,10.2-15.6,16.35-27.36,18.45-3.75.67-7.56,1.57-11.45,1.21-2.07-.19-3.77-.44-5.23-2.59-1.56-2.31-4.29-3.77-7.23-4.38-2.89-.59-1.91,1.63-2.08,3.25-4.1-.05-8.77-1.63-9.61-4.64-.79-2.84-4.91-5.4-2.02-9.21Z"/>
    <path d="M181.75,500.06c-7.63-4.84-12.33-11.75-15.65-19.71-1.66-3.98-3.88-7.62-6.16-11.23-1.01-1.6-1.78-3.41-4.39-3.34-1.54.05-5.54-5.83-5.56-7.43,0-.53.1-1,.64-1.21.66-.25,1.15.14,1.59.54,2.13,1.94,3.98,4.18,6.49,5.7,1.19.72,2.33,1.5,3.78,1.48.84-1,.61-1.96,0-2.78-.69-.92-1.57-.61-2.37-.06-1.06.73-1.92.16-2.69-.48-2.78-2.3-5.11-5.02-6.86-8.18-.87-1.57-1.09-3.2.36-4.67,1.38-1.39,2.78-.62,4.13-.03,5.76,2.51,9.31,7.3,12.57,12.36,3.35,5.21,5.61,10.98,8.29,16.52,5.15,10.66,13.02,18.2,24.7,21.28,3.29.87,6.65,1.14,10.05,1.02.95-.03,1.97-.37,3.04.41-.2,1.71-1.65,2.04-2.86,2.5-10.05,3.81-19.69,2.85-29.1-2.71Z"/>
    <path d="M516.43,518.54c1.92.09,3.68-1.49,5.45.36-1.12,2.29-3.27,3.05-5.43,3.67-1.19.34-2.22.57-2.68,1.96-.4,1.21-1.62,1.26-2.73,1.43-14.74,2.33-28.01-1.26-40.03-9.9-10.77-7.75-22.65-11.79-36.03-11.19-4.66.21-9.35.17-14-.42-1.25-.16-2.55-.11-3.47-1.6,2.61-1.31,5.34-1.02,7.89-1.49,6.25-1.16,12.45-2.46,18.85-2.75,11.73-.53,22.13,3.03,31.75,9.44,4.88,3.25,9.67,6.66,15.26,8.69,8.14,2.96,16.43,3.78,25.18,1.81Z"/>
    <path d="M288.93,487.93c2.15,16.25,1.13,32.01-3.33,47.52-1.24,4.31-2.59,8.57-4.52,12.62-.41.85-.77,2.12-2.03,1.78-1.24-.33-.91-1.53-.88-2.53.06-1.84.02-3.69.02-6.25-4.85,7.86-8.81,15.56-14.73,22.09-1.15-1.4-.73-2.27-.36-3.04,8.64-17.9,13.25-37,17.09-56.36,1.39-7.01,4.61-13.54,6.13-20.55.1-.44.49-.81.92-1.49,1.66,1.88,1.47,3.97,1.68,6.21Z"/>
    <path d="M312.18,490.92c2.72,20.38,6.68,40.22,13.21,59.48,1.85,5.46,3.97,10.82,5.97,16.23.28.75.58,1.48.81,2.24.33,1.08.58,2.28-.65,2.9-1.26.64-2.07-.4-2.72-1.24-2.99-3.88-5.2-8.23-7.39-12.59-.44-.88-.88-1.75-1.49-2.99-.68,2.26.46,4.49-1.01,6.23-1.67-.05-1.81-1.49-2.24-2.47-3.94-9-5.96-18.5-7.22-28.2-1.21-9.29-1.51-18.62-1.19-27.97.2-5.95.78-11.88,1.2-17.82.06-.78.09-1.62,1.28-2.14,1.18,2.59,1.09,5.38,1.46,8.34Z"/>
    <path d="M349.34,524.8c-4.9-7.72-8.97-15.54-9.69-24.65-.46-5.79-.03-11.52,1.27-17.18.32-1.4.36-1.39,1.91-2.71,6.99,15.09,11.9,30.94,19.72,46.18-2.84-.5-3.73-2.33-5.23-3.42,4.82,12.03,13.06,21.78,20.92,31.86-11.85-7.81-21.15-18.04-28.9-30.07Z"/>
    <path d="M199.68,528.78c7.62-2.25,14.15-5.9,19.76-11.21,2.24-2.12,3.13-5.08,5.32-7.34,6.08-6.28,12.56-12.23,17.71-19.37.47-.65.94-1.31,1.96-1.33,1.37.89.81,2.29.62,3.46-3.85,24.39-30.62,44.26-55.13,40.9-2.15-.3-4.59.06-6.99-2.43,5.96-.62,11.38-.88,16.74-2.68Z"/>
    <path d="M319.79,443.36c.48-.87.86-1.59,1.39-2.17,1.68-1.84,2.01-3.75,1.47-6.28-1.73-8.08-.97-15.85,4.17-22.69,1.08-1.44,2.48-3.83,4.36-2.73,1.84,1.07-.28,2.98-.78,4.45-1.79,5.21-3.14,10.47-2.75,16.05.15,2.12.69,4.11,1.65,5.99,1.55,3.05,3.79,4.06,7.13,3.29,1.15-.27,2.2-.97,3.45-.79.18.03.35.17.53.27.71,1.35-.8,2.13-.86,3.66,3.43,1.65,6.51-.88,9.99-1.27-.2,2.65-2.16,3.81-3.65,5.21-3.24,3.06-7.08,4.41-11.51,3.3-2.44-.61-4.51.07-6.5,1.35-.9.58-1.8,1.16-2.85,1.83-.28-.49-.63-.82-.61-1.12.25-3.2-.73-5.65-3.91-6.93-.36-.14-.51-.8-.72-1.43Z"/>
    <path d="M461.81,463.52c4.4-1.8,7.61-5.01,11.19-7.68.8-.59,1.64-1.12,2.5-1.63.53-.31,1.14-.43,1.64.08.51.53.31,1.15-.02,1.64-2.76,4.06-5.72,7.96-10.84,9.15-1.15.27-1.67.98-2.3,1.69-4.31,4.9-7.38,10.6-10.39,16.33-.74,1.41-1.48,2.82-2.31,4.18-2.75,4.49-3.63,4.78-8.36,2.7-1.61-.7-2.47-2.06-1.4-3.59,5.16-7.41,8.78-15.87,15.39-22.3,1.68-1.63,2.96-1.97,4.9-.59Z"/>
    <path d="M142.84,505.01c4.95.6,9.4,1.82,13.07,5.05,1.17,1.03,2.9.03,3.97.92,3.63,3,8.12,4.07,12.3,5.87,1.54.66,3.7,2.06,2.88,3.94-.84,1.92-3.16.99-4.83.51-3.37-.97-6.22-2.42-8.51-5.51-1.26-1.71-4.45-2.09-6.96-2.45-5.06-.72-10.01-1.65-13.63-5.77-.19-.22-.48-.61-.65-.57-3.48.78-6.67-1.74-10.19-.84-4.25,1.09-8.49.62-12.65-.62-1.03-.31-2.26-.73-2.28-2.04-.02-1.5,1.33-1.89,2.47-2.17,3.96-.95,7.93-.72,11.77.49,1.73.55,3.32.83,5.17.69,2.81-.21,5.5.68,8.05,2.49Z"/>
    <path d="M148.97,323.4c2.4-3.44,6.36-5.16,8.14-8.87.39-.8,1.23-1.54,1.25-2.34.18-5,2.25-9.67,2.69-14.53.44-4.86-2.1-9.4-3.43-14.05-.23-.8-1.14-1.45-.37-2.82,3.71,3.05,6.18,6.64,6.86,11.33.62,4.3-1.34,8.41-1.29,12.7,1.46-1.36-.01-3.55,1.74-4.73,1.45-.04,1.8,1.14,2.26,2.07,2.04,4.15-1.12,11.04-5.61,12.32-1.94.55-3.28,3.52-2.14,5.1.58.82.71,1.58.71,2.48,0,3.94-4.95,10.24-8.77,11.11-1.73.4-3.4-.28-3.34-1.94.09-2.55-.88-5.37,1.3-7.83M152.14,327.82c1.83-1.87,3.58-3.79,4.64-6.38-2.27.4-6.5,4.51-6.46,6.24.04,1.63.89.75,1.83.14Z"/>
    <path d="M248.79,665.86c-.27-1.79-.2-3.3,1.31-4.19,1.53-.91,2.97-.09,4.15.76,3.47,2.49,6.14,5.72,7.48,9.78.82,2.48,2.53,4.18,4.65,4.55,6.04,1.06,10.62,3.99,13.88,9.11-6.66,3.44-12.69,1.45-16.46-5.36-.95-1.71-2.82-2.74-4.49-3.18-5.96-1.57-8.6-5.97-10.52-11.46M253.79,670.28c.81.94,1.4,2.17,3.32,2.19-.94-2.47-2.41-4.13-4.75-5.18.41.88.81,1.76,1.43,2.98M271.81,682.68c-.72-.16-1.47-.6-2.18.35,1.02,1.29,2.18,1.97,3.85,1.37,0-1.06-.79-1.18-1.67-1.72Z"/>
    <path d="M181.18,615.5c1.38-1.14,2.53-2.29,3.87-3.08,3.38-2,6.52-.29,6.03,3.59-.87,6.92-3.84,12.93-9.8,16.98-2.89,1.96-5.51.51-5.77-3.01-.42-5.63,2.05-10.17,5.67-14.48M182.59,627.28c2.48-2.48,3.92-5.39,4.38-9.22-3.14,1.34-6.38,6.19-6.16,8.63.08.96.64,1.13,1.79.58Z"/>
    <path d="M176.27,652.28c-1.53,3.31-3.3,6.18-6,8.34-1.24,1-2.66,1.95-4.37,1.26-1.85-.75-2.24-2.51-2.24-4.22,0-4.61,1.54-8.79,4.21-12.51,1.21-1.68,2.57-3.33,4.16-4.64,2.52-2.09,5.01-1.15,5.86,2.02.91,3.39-.32,6.47-1.63,9.74M170.4,655.55c2.47-2.5,3.89-5.38,3.42-9.01-2.98,2.03-4.31,4.95-4.76,8.33-.07.53.41.85,1.34.67Z"/>
    <path d="M366.7,441.91c-2.36,1.61-4.89,2.24-7.34,3.02-2.32.73-4.47.2-6.25-1.96,1.85-1.61,4.02-2.28,6.15-2.93,2.43-.73,3.88-2.09,4.41-4.66,1.02-4.91,6.96-10.21,12.34-11.04.13,4.07.83,8.6-2.23,11.47-2.16,2.03-4.33,4.3-7.08,6.09Z"/>
    <path d="M346.59,620.73c1.77-1.31,2.98-.34,4.15.62,5.04,4.16,7.78,15.51,5.21,21.47-1.07,2.48-2.8,3.07-4.58,1.56-4.31-3.65-7.37-18.19-4.78-23.65M349.71,629.51c-.03,2.86.34,5.6,2.37,7.84.77-3.14.11-6.03-1.54-8.68-.44-.71-.75-.09-.83.83Z"/>
    <path d="M346.46,666.21c.76-3.68,1.74-7.02,3.65-9.99.83-1.29,1.92-2.41,3.63-2.14,1.56.24,2.23,1.49,2.77,2.84,2.36,5.94-.02,16.53-4.72,20.82-.96.87-1.94,1.86-3.4,1.37-1.61-.54-2.3-1.93-2.45-3.46-.29-3.07-.23-6.16.52-9.45M351.39,669.98c1.08-2.82,2.11-5.64.57-8.8-2.73,3.03-3.64,8.07-2.1,11.05.82-.36,1.04-1.14,1.52-2.25Z"/>
    <path d="M340.13,636.02c1.19.22,2.17.38,3.11.68.69.22,1.46.9,1.17,1.51-2,4.27,2.22,6.09,3.49,9.05.33.77,1.13,1.33,1.81,2.1-1.36,1.93-2.77,3.71-3.38,5.95-.56,2.07-1.13,4.17-2.77,6.03-2.14-2.27-4.78-3.64-5.43-6.91-1.02-5.07-2.4-10.09-.97-15.28.39-1.42.89-2.92,2.97-3.14M342.36,647.03c-.14-1.54-.45-3.02-1.68-4.76-.75,3.84-.96,7.02,1.19,10.28.85-1.87.43-3.46.49-5.52Z"/>
    <path d="M151.63,442.83c1.11,1.13,2.54,2.09,1.11,3.6-1.29,1.36-2.36.05-3.34-.68-.94-.71-1.77-1.58-2.83-2.55-2.56,2.6-5.09,1.21-7.61-.29-3.61-2.15-6.35-5.07-7.94-8.99-.62-1.53-.88-3.16.39-4.47,1.34-1.38,2.94-.83,4.44-.22,2.25.92,4.3,2.28,5.7,4.21,2.72,3.76,6.74,6.05,10.08,9.41Z"/>
    <path d="M242.43,431.99c-.42-1.78-.77-3.32-.09-4.94,2.43-.31,4.05,1.16,5.66,2.37,2.84,2.14,5.54,4.23,5.97,8.38.31,3.07,3.1,3.88,5.95,3.64,2.41-.2,4.44.48,6.6,2.4-3.07,2.43-6.25,3.28-9.83,2.56-3.66-.73-6.27-2.76-7.18-6.49-1.2.25-.46,1.71-1.9,1.75-3.16-2.18-4.2-5.78-5.18-9.69Z"/>
    <path d="M147.78,682.44c1.68-6.28,5.39-10.82,10.56-14.18,1.62-1.05,3.58-2.2,5.48-.54,1.77,1.55,1.5,3.62.69,5.52-2.15,5.07-5.41,9.23-10.41,11.82-.88.45-1.82.84-2.58,1.45-1.74,1.37-3.16.69-4.49-.55-1.5-1.4.23-2.25.75-3.52M158.44,673.83c-2.06,1.86-4.01,3.79-4.81,7.15,3.98-1.01,5.53-3.55,6.66-6.32.68-1.67-.38-1.62-1.86-.83Z"/>
    <path d="M464.51,448.24c2.47-2.76,4.91-5.22,8.26-6.49,1.52-.57,3.1-1,4.47.3,1.47,1.4,1.14,3.1.42,4.69-1.5,3.29-3.46,6.52-6.58,8.23-2.18,1.2-4.65,2.31-7.1,2.97-2.17.58-2.59-1.44-2.46-3.08.19-2.43,1.44-4.5,2.98-6.61Z"/>
    <path d="M120.33,387.04c.59,3.76.47,7.21-.91,10.53-.55,1.31-1.25,2.61-2.91,2.63-1.46.02-2.38-1-2.99-2.17-2.77-5.34-3.13-10.81-.64-16.36.65-1.45,1.68-2.57,3.39-2.47,1.59.09,2.47,1.26,2.88,2.66.48,1.61.77,3.28,1.17,5.18Z"/>
    <path d="M498.86,393.92c3.14,5.81,2.5,11.31-.6,16.64-.91,1.57-2.21,2.97-4.31,2.6-1.97-.35-2.61-2.03-3.06-3.69-1.33-4.94-.57-9.71,1.74-14.17,1.47-2.83,3.47-3.19,6.23-1.39M497.76,403.59c.5-1.78.4-3.45-.81-5.02-2.15,2.83-2.48,6.18-.86,8.87,1.08-.93,1.32-2.18,1.67-3.84Z"/>
    <path d="M479.51,435.11c-.33-7.05,3.04-12.02,8.32-15.72,2.94-2.05,5.7-.32,5.35,3.33-.59,6.16-3.41,11.14-9.02,14.19-1.99,1.08-3.65.72-4.65-1.81M489.84,425.42c-.05-.44-.28-.84-.73-.67-1.9.71-4.13,5.07-3.71,7.38,2.64-1.37,3.47-3.9,4.43-6.71Z"/>
    <path d="M114.57,367.37c.63-5.11,2.29-9.49,6.05-12.81,1.26-1.11,2.74-2.29,4.53-1.27,1.69.96,1.83,2.77,1.59,4.48-.66,4.62-2.4,8.78-5.69,12.17-1.21,1.24-2.36,3.08-4.44,2.26-1.96-.77-1.98-2.76-2.02-4.83M118.17,365.74c1.6-2.08,2.54-4.46,3.41-7.45-2.25,2.3-2.91,4.76-3.41,7.45Z"/>
    <path d="M499.14,374.63c.89,3.11,1.76,6,.74,9.01-1.14,3.37-3.72,4.1-6.03,1.4-3.8-4.43-5.55-9.65-4.38-15.51.61-3.06,2.84-3.74,5.32-1.81,2.21,1.72,3.41,4.11,4.35,6.92M494.92,377.69c.4.97.49,2.14,1.64,2.67.9-3.29.02-6.32-2.33-7.98-.81,1.76.23,3.29.69,5.31Z"/>
    <path d="M124.07,409.48c2.39,3.26,4.05,6.63,4.6,10.43.24,1.68.86,3.93-1.28,4.73-2.13.8-2.03-1.98-3.49-2.91-.83,2.14-1.75,1.03-2.6,0-2.37-2.9-3.91-6.17-4.53-9.89-.35-2.07-.41-4.13,1.54-5.34,2.05-1.26,3.21.74,4.57,1.76.39.29.7.7,1.18,1.23Z"/>
    <path d="M483.74,356.33c-2.04-2.53-3.45-5.15-3.82-8.19-.35-2.91,1.12-4.05,3.9-3.18.47.15,1.09.58,1.38.42,4.13-2.27,5.97,1.66,6.01,3.63.06,3.27,1.87,5.98,1.77,9.1-.09,2.71-2.14,3.87-4.53,2.62-1.89-.99-3.26-2.58-4.7-4.39M488.32,352.63q-1.28-2.07-3.28-2.79c1.03,2.09,1.67,4.35,4.06,5.58.24-1.1-.33-1.73-.79-2.79Z"/>
    <path d="M340.68,675.12c-.13.48-.37.88-.26,1.03,2.47,3.43.94,9.43-2.93,11.36-1.83.92-3.87-.16-4.08-2.44-.57-6.06.45-11.88,3.25-17.31.7-1.36,1.74-3.09,3.61-2.44,1.96.69,1.8,2.57,1.43,4.33-.37,1.74-.64,3.51-1.01,5.46M338.65,676.2c-.1-1.06-.52-1.75-1.3-.5-.83,1.32-.95,2.86-.49,4.67,1.07-1.29,1.32-2.57,1.79-4.17Z"/>
    <path d="M131.46,349.58c-3.03-.19-3.78-1.76-3.14-4.28,1.45-5.74,5.19-9.17,10.77-10.76,1.65-.47,3.27-.19,4.43.98,1.22,1.22.68,2.82.04,4.18-2.41,5.12-6.22,8.61-12.09,9.89M135.9,342.8c1.33-1.35,2.9-2.52,3.79-4.93-3.67,1.23-5.86,3.18-7.51,6.27,1.78.38,2.52-.52,3.72-1.34Z"/>
    <path d="M344.34,701.41c-.34.75-.55,1.32-.86,1.82-.98,1.58-1.8,3.69-4.14,3.14-2.11-.5-2.17-2.62-2.38-4.38-.56-4.83.74-9.26,3.27-13.32.98-1.58,2.19-3.43,4.45-2.7,2.07.67,2.06,2.74,2.04,4.53-.04,3.71-.93,7.26-2.37,10.91M342.21,694.06v-2.43c-1.6,2.56-2.52,4.55-1.92,7.19,1.55-1.23,1.29-2.96,1.92-4.76Z"/>
    <path d="M461.17,695.06c-.38-4.62.93-8.49,3.73-11.8,1.22-1.44,2.73-2.86,4.87-1.98,2,.83,2.49,2.71,2.52,4.69.06,4.13-1.32,7.79-3.78,11.05-1.12,1.48-2.6,2.59-4.59,2.14-1.96-.44-2.42-2.14-2.75-4.1M466.26,693.88c2.16-1.21,3.1-3.96,2.22-6.9-1.98,1.87-2.7,4.04-2.22,6.9Z"/>
    <path d="M240.3,649.16c-.49-2.98-1.17-5.69-.21-8.47.47-1.37,1.07-2.66,2.52-3.1,1.58-.48,2.74.57,3.53,1.69,3.2,4.59,4.51,9.73,3.54,15.24-.54,3.08-3.31,3.76-5.58,1.57-1.91-1.84-2.94-4.21-3.8-6.93M244.91,651.65c1.41-2.92-.02-5.22-1.58-8.38-1,3.58-.49,6.02,1.58,8.38Z"/>
    <path d="M241.13,615.2c.44-.69.73-1.23,1.12-1.67,1.01-1.13,2.11-2.26,3.82-1.76,1.55.45,2.01,1.81,2.25,3.23.88,5.1-.25,9.87-2.43,14.44-.61,1.28-1.49,2.46-3.15,2.32-1.62-.14-2.36-1.44-2.88-2.73-1.31-3.29-.92-6.66-.13-9.98.3-1.25.85-2.43,1.4-3.85M243.18,624.61c.44-2.19,1.59-4.33.38-6.63-.95,2.25-2.69,4.43-.38,6.63Z"/>
    <path d="M172.65,676.26c-1.23,1.18-2.27,2.24-3.4,3.2-.68.58-1.5,1.12-2.43.48-.99-.68-.95-1.7-.59-2.68.41-1.12.94-2.19,1.39-3.29.41-1.01,1.21-2.09,1.09-3.05-.74-6.26,5.38-7.93,7.66-12.52,1.95,2.35,2.87,3.78,1.56,6.88-1.56,3.7-2.27,7.73-5.29,10.97Z"/>
    <path d="M290.1,430.47c.26-.96.27-1.81,1.29-2.3,1.55.99,1.51,2.72,1.3,4.15-.41,2.79.34,4.95,2.21,7.05,1.86,2.09,1.41,3.02-1.29,3.36-.89.11-2,0-2.42.87-2.23,4.46-5.74,1.29-8.6,1.35-1.78.03-2.29-2.36-1.03-3.82,1.22-1.43,2.38-2.9,4.03-3.93,2.41-1.5,3.56-3.93,4.51-6.72Z"/>
    <path d="M473.51,666.46c1.45-2.31,2.97-4.25,5.24-5.46,2.41-1.28,4.29-.41,4.85,2.26.9,4.26-3.55,12.18-7.72,13.74-2.34.88-4.12-.17-4.51-2.73-.43-2.82.69-5.25,2.14-7.8M478.74,666.74c-1,1.63-2.32,3.16-2.27,5.81,2.44-1.61,3.14-3.56,3.72-5.48.33-1.08-.44-1.09-1.45-.33Z"/>
    <path d="M336.25,715.1c2.25-2.47,3.79-2.38,5.03.28,2.12,4.59,2.86,9.47,2.39,14.49-.14,1.49-.57,3.07-2.3,3.48-1.85.43-2.61-1.09-3.36-2.35-2.97-4.94-3.77-10.15-1.74-15.89M338.35,724.75c.17.83.03,1.77.95,2.48.35-2.51-.11-4.79-1.24-6.98.08,1.35.16,2.69.29,4.5Z"/>
    <path d="M343.67,748.1c-.55-2-1.72-3.84-1.77-5.98-.03-1.32.14-2.66,1.48-3.35,1.27-.65,2.38.08,3.24.88,3.63,3.38,6.26,7.43,7.69,12.2.36,1.21.29,2.46-.92,3.19-1.25.76-2.56.33-3.66-.37-2.48-1.6-4.01-4.09-5.93-6.47-.14-.12-.13-.1-.13-.1Z"/>
    <path d="M468.88,335.91c-1.57-2.11-2.8-4.16-2.93-6.63-.12-2.23.83-2.78,2.89-2.07,4.32,1.49,7.81,3.9,9.59,8.26.67,1.63,1.62,3.45-.05,4.97-1.66,1.52-3.36.43-4.94-.41-1.78-.96-3.06-2.5-4.56-4.12Z"/>
    <path d="M489.66,651.87c-1.38,2.15-2.43,4.98-5.33,4.05-2.88-.92-2.31-3.89-2.11-6.2.29-3.26.9-6.51,2.86-9.28.82-1.16,1.81-2.27,3.4-1.98,1.44.26,1.98,1.54,2.4,2.79,1.21,3.63.25,7.05-1.2,10.62M487.87,644.49c-.93,1.9-1.59,3.85-1.44,6.37,2.21-2.94,2.49-4.15,1.44-6.37Z"/>
    <path d="M551.55,520.15c3.04-.42,4.05.48,3.46,3.05-1.09,4.76-4.14,8.01-8.37,10.22-1.29.68-2.66,1.04-3.85-.13-1.15-1.13-1.02-2.58-.38-3.87,1.98-4.01,4.83-7.22,9.15-9.28Z"/>
    <path d="M158.28,683.35c.88-.65,1.59-1.5,2.5-.67.74.67,1.27,1.59,1.09,2.65-.11.67-.39,1.34-.71,1.95-3.74,6.98-12.51,11.64-20.56,11.14-.43-1.06.44-1.36,1.06-1.81,1.77-1.28,3.61-2.47,5.3-3.85,1.49-1.23,2.72-1.82,3.59.61,1.91-.7,3.21-1.81,4.22-3.07-.3-1.33-1.74-.88-2.09-2.11,1.33-1.99,3.84-2.84,5.6-4.83Z"/>
    <path d="M334.79,697.23c-.36,1.91-.01,3.76-2.51,4.4-1.13.29-1.53,2.21-.41,3.29,4.25,4.1,4.4,5.95.48,11.51-1.35-1.84-2.84-3.48-3.28-5.76-.94-4.85-1.07-9.67.58-14.4.55-1.58,1.09-3.64,3.16-3.38,2.2.27,1.85,2.45,1.98,4.34Z"/>
    <path d="M65.6,654.85c-3.07-1.99-4.13-4.99-4.75-8.13-.38-1.95-.48-4.29,1.62-5.3,2.17-1.04,4,.76,5.39,2.07,2.01,1.92,2.82,4.75,2.37,7.4-.35,2.06-1.82,3.96-4.63,3.96Z"/>
    <path d="M71.14,668c-1.7-1.74-2.99-3.5-3.58-5.66-.35-1.28-.32-2.61.75-3.61,1.14-1.06,2.12-.07,3.25.22,3.04.78,4.96,2.74,6.47,5.3,1.14,1.92,1.24,3.68-.52,5.37-1.8,1.72-3.27.53-4.79-.38-.51-.3-.94-.73-1.57-1.24Z"/>
    <path d="M59.85,532.81c-1.43-1.71-3.71-3.29-2.13-5.43,1.59-2.14,4-.82,5.98.02,1.24.52,2.39,1.14,2.64,2.86.2,1.32,1.88,1.61,2.81,2.47.73.66,1.55,1.23,2.22,1.95.58.63,1.33,1.36.74,2.33-.53.89-1.51.91-2.39.77-3.74-.58-6.79-2.59-9.88-4.97Z"/>
    <path d="M490.65,622.84c.9,2.76,1.06,5.3,0,7.8-.43,1.01-.9,2.09-2.21,2.15-1.14.05-1.81-.79-2.28-1.68-1.95-3.72-2.58-7.7-2.04-11.84.13-.97.47-2.03,1.61-2.3,1.23-.29,2.05.5,2.78,1.36,1.06,1.24,1.48,2.8,2.14,4.5Z"/>
    <path d="M93.04,501.56c4.45-1.87,8.7-1.79,12.92-.07,1.01.41,2.15.88,2.19,2.16.04,1.31-1.11,1.87-2.11,2.22-3.96,1.4-7.99,1.56-11.89-.17-1.69-.75-3.31-1.89-1.12-4.14Z"/>
    <path d="M337.32,733.73c1.43,2.3,1.37,4.41.51,6.49-1.34.21-2.02-.43-2.7-.98-3.43-2.76-6.53-12.79-5.28-17.03.26-.88.63-1.76,1.65-1.9.95-.13,1.5.64,1.68,1.4.55,2.29,3.31,4.42.17,7.04-.98.82.31,2.55.85,3.82.56-.33.01-1.3,1.09-1.34,1,.29,1.25,1.48,2.03,2.5Z"/>
    <path d="M460.53,320.29c-2.01-3.13-2.71-6.36-2.21-9.81.17-1.21.64-2.39,2-2.66,1.27-.25,1.94.77,2.56,1.67,1.71,2.49,2.54,5.33,3.09,8.26.34,1.8.71,3.82-1.18,4.77-1.89.96-2.99-.85-4.26-2.23Z"/>
    <path d="M485.8,440.23c2.54-2.75,4.32-5.88,7.03-8.2,1.35.87,1.07,1.99.7,3-1.96,5.26-5.25,9.51-9.85,12.75-.58.41-1.21.83-1.9.36-.67-.46-.42-1.21-.42-1.91-.03-3.05,1.89-4.61,4.44-5.99Z"/>
    <path d="M82.59,502.61c-3.1-.47-5.5-1.82-7.53-3.81-1-.98-2.06-2.21-1.27-3.66.87-1.59,2.56-1.32,4.01-.9,2.5.73,4.76,2,6.79,3.64,1.02.83,1.94,1.87,1.51,3.32-.49,1.64-1.97,1.37-3.49,1.41Z"/>
    <path d="M60.51,634.05c-.57-2.98-.14-5.55,1.45-7.87.56-.82,1.31-1.56,2.44-1.38,1.13.18,1.63,1.1,1.88,2.07.61,2.42.83,4.87-.12,7.27-.55,1.39-1.18,2.99-2.82,3.13-1.85.15-2.2-1.64-2.82-3.22Z"/>
    <path d="M343.64,748.07c.31,1.65,2.01,2.84,1.32,4.94-.3.92.84,1.8,2.12,1.99,3.35.52,4.97,2.4,5.48,6.18-1.12.85-2.1.07-2.97-.43-4.2-2.46-7.49-5.83-9.47-10.32-.52-1.18-1.48-2.79-.11-3.82,1.33-1,2.22.73,3.48,1.38.18.11.17.08.16.08Z"/>
    <path d="M307.21,568.9c.58,3.26,2.04,6.1,1.97,9.25-.02,1.02-.06,2.12-1.23,2.46-1.12.32-1.56-.68-1.98-1.45-2.67-4.89-2.24-10.03-1.63-15.8,2.35,1.6,2.14,3.67,2.87,5.54Z"/>
    <path d="M42.84,509.84c2.81.1,4.01,1.89,4.16,4.18.15,2.13.66,3.63,2.92,4.1,1.75.37,2.36,1.81,2.61,3.28.26,1.5-.57,2.27-2.15,1.87-3.5-.88-8.61-9.71-7.55-13.44Z"/>
    <path d="M82.44,678.24c-.55-.46-.95-.76-1.27-1.13-1-1.15-2.11-2.49-.96-3.93,1.06-1.33,2.57-.44,3.84.07,1.94.78,3.79,1.73,5.36,3.16.96.87,1.53,1.91.88,3.16-.59,1.12-1.75,1.25-2.87,1.09-1.82-.26-3.31-1.27-4.97-2.41Z"/>
    <path d="M502.5,416.06c-1.12,4.3-3.01,7.88-6.23,11.45-1.13-2.78-1.99-5.28-.22-7.12,2.36-2.45,3.71-5.31,5.06-8.27.19-.41.61-.71,1.08-1.23,1.21,1.74.5,3.37.31,5.18Z"/>
    <path d="M482.13,610.9c-2.2-2.39-3.43-5.08-4.48-7.85-.4-1.07-.96-2.45.27-3.25,1.33-.86,2.17.39,2.91,1.28,2.11,2.52,3.96,5.21,4.03,8.67.04,2.03-.88,2.51-2.73,1.15Z"/>
    <path d="M128.3,705.17c-2.51-.05-4.79.45-7.04-.33.8-1.3,15.99-5.39,18.43-4.84-2.64,4.39-7.24,4.03-11.39,5.17Z"/>
    <path d="M107.58,375.25c.78-2.67,1.15-5.26,3.77-7.63.65,6.48-.63,11.98-2.89,17.41-1.55-3.08-1.39-6.29-.87-9.77Z"/>
    <path d="M66.7,480c2.3,1.72,3.65,3.91,4.47,6.39.47,1.42.72,3.15-.91,3.99-1.74.91-2.76-.54-3.58-1.79-1.23-1.85-2-3.89-1.79-6.17.1-1.09.17-2.24,1.8-2.42Z"/>
    <path d="M535.78,513.43c-1.79,1.79-3.6,3.16-5.8,3.93-.66.23-1.4.32-1.96-.25-.67-.69-.5-1.52-.04-2.19,2.1-3.05,5.13-4.95,8.44-6.33,1.36-.57,1.73.57,1.44,1.73-.29,1.19-1.07,2.11-2.09,3.11Z"/>
    <path d="M337.51,455.31c2.49,2.23,2.52,2.92.03,4.08-2.56,1.19-4.43,2.86-5.44,5.53-.29.76-.58,1.75-1.73,1.76-1.63-4.29,1.88-10.07,7.13-11.38Z"/>
    <path d="M145.8,450.49c.56.92,1.17,1.63.77,2.6-4.32-.59-10.91-6.3-12.16-10.92,4.61,2,8.19,4.7,11.39,8.33Z"/>
    <path d="M464.61,292.35c.83,3.59-.45,6.61-1.81,9.59-.36.8-.93,1.65-2.01,1.45-1.07-.2-1.26-1.15-1.36-2.06-.33-3.01.48-5.71,2.35-8.06.64-.8,1.35-1.86,2.82-.93Z"/>
    <path d="M259.33,586.03c-1.09.95-1.78,2.13-3.17,2.31-1.29-3.83,2.99-9.67,7.92-10.52-.4,3.47-2.94,5.53-4.75,8.21Z"/>
    <path d="M543.45,496.76c1.02-1.4,1.39-3.14,3.19-3.55,1.49,2.83-.44,9.28-3.09,10.64-1.73.89-2.24-.18-2.11-1.6.17-1.9,1.03-3.62,2.02-5.5Z"/>
    <path d="M111.93,401.98c.78,3.14,2.02,5.98,1.62,9.22-3.41-1.83-5.97-11.23-4.11-15.09,1.56,1.66,1.66,3.81,2.49,5.87Z"/>
    <path d="M505.87,391.18c.59,3.47.52,6.57-1.51,9.38-.99-4.56-2.12-9.07-.69-14.02,1.92,1.24,1.91,2.88,2.2,4.65Z"/>
    <path d="M66.15,468.35c.93-1.37,1.48-2.89,3.31-2.81,1.15,3.25-.41,7.97-3.34,9.86-1.91-2.28-.97-4.56.03-7.04Z"/>
    <path d="M484.83,741.57c4.07.9,6.38,3.94,9.48,6-1.3,1.72-2.58,1.46-3.61,1.05-2.72-1.1-4.6-3.3-6.46-5.46-.41-.48-.22-1.13.59-1.59Z"/>
    <path d="M252.06,593.74c1.22-.51,1.67.25,1.11.85-2.78,3-3.03,7.03-4.54,10.53-.27.64-.61,1.27-2.19,1.24-.6-5.25,2.01-9.02,5.62-12.61Z"/>
    <path d="M70.66,616.65c-1.07,1.43-2,2.7-3.02,3.89-.5.58-1.18,1.21-2.04.67-.79-.5-.67-1.39-.53-2.15.34-1.8,1.29-3.31,2.55-4.57.88-.88,2.01-2.1,3.29-1.22,1.2.82.36,2.13-.26,3.39Z"/>
    <path d="M123.01,426.69c1.24,2.24,2.35,4.31,3.58,6.58-3.63-.91-8.33-7.42-8.36-11.36,2.57.59,3.2,3.04,4.78,4.78Z"/>
    <path d="M283.6,457.99c1.61,2.2,2.09,4.39,1.36,6.8-1.52.22-1.69-.93-2.05-1.78-.51-1.21-1.16-2.25-2.38-2.9-1.01-.54-2.45-1.11-1.32-2.6.83-1.1,2.08-1.49,3.37-.5.31.24.58.53,1.01.98Z"/>
    <path d="M103.47,684.84c-3.11,1.12-5.82,0-8.51-1.22-.58-.26-.89-.81-.74-1.46.16-.67.76-.98,1.34-.96,3.07.14,6.04.61,7.9,3.64Z"/>
    <path d="M548.45,486.44c-.49,1.33-1.02,2.13-2.09.77-1.02-1.3-1.25-6.29-.24-8.2,2.31,2.02,2.58,4.53,2.33,7.44Z"/>
    <path d="M235.29,634.56c.19-1.57-.39-3.07,1-4.06,2.17,2.61,2.33,6.07.39,9.65-2.04-1.41-1.13-3.53-1.39-5.59Z"/>
    <path d="M272.02,444.43c-.85-.81-1.68-1.4-1.7-2.67,1.87-.62,3.46.24,5.05.78,1.25.42,2.08,1.52,1.61,2.75-.63,1.65-1.96.69-3,.29-.63-.24-1.19-.67-1.96-1.16Z"/>
    <path d="M501.76,373.95c-1.41-2.51-3.01-4.8-3.48-7.74,2.01-.49,2.78.77,3.28,1.97.77,1.86,2.43,3.76.2,5.77Z"/>
    <path d="M288.64,407.65c.85-1.63,1.76-1.4,2.49-.23,1.19,1.87,1.74,3.88.77,6.6-2.15-1.79-2.86-3.89-3.27-6.37Z"/>
    <path d="M74.25,459.43c1.45-.75,2.65-1.72,4.55-.87-1.51,2.38-3.54,3.23-5.83,3.82-.74-1.55.28-2.15,1.29-2.95Z"/>
    <path d="M470.25,287.15c-1.16.88-1.96,2.01-3.81,1.83.28-3.01,2.37-3.87,4.59-4.77.95,1.45-.11,2.03-.78,2.94Z"/>
    <path d="M561.38,473.79c-.05,1.54-.77,1.94-1.54.85-1.09-1.52-2.11-3.2-2-5.51,2.6.7,2.97,2.65,3.55,4.66Z"/>
    <path d="M75.83,608.65c.9-.32,1.63-.87,2.39.21-.94,1.41-2.13,2.23-3.94,1.99-.31-1.34.69-1.6,1.55-2.2Z"/>
  </g>
  <g id="Layer_2">
    <g>
      <path d="M514.39,698.14l.44,2.16c.31-.33.47-.77.26-1.33-.15-.42-.4-.67-.69-.83Z"/>
      <path d="M476.6,720.88c.67-6.01,1.5-12.04,3.59-17.79-.17-11.29,5.62-18.43,17.65-32.89.03-.45.15-.96.38-1.56,7.77-19.82,8.24-39.96,2.09-60.23-3.33-10.98-8.57-20.96-16.63-29.34-8.66-9.01-19.31-14.58-31.02-18.37-8.81-2.85-17.69-5.5-25.97-9.75-2.4-1.23-5.01-2.21-7.06-4.26,1.02-.7,1.84-.5,2.72-.23,5.7,1.75,10.94,1.07,15.47-3.06.67-.61,1.43-.69,2.22-.64,6.52.33,12.72,1.63,18.45,5.08,8.2,4.94,17.03,8.92,26.19,11.3,20.83,5.4,40.38.74,57.61-11.42,23.18-16.35,32.39-39.67,29.68-67.56-1.15-11.81-7.25-20.89-18.52-25.94-15.81-7.09-34.72-.31-41.15,14.95-2.71,6.43-2.76,12.79,1.37,18.75.86,1.23,1.77,2.63,3.75,2.42.4-1.42-.49-2.21-1.01-3.11-1.65-2.84-2.52-5.81-1.85-9.12,2.18-10.84,9.09-17.39,19.38-20.11,10.6-2.8,19.76.24,26.53,9.07,2.96,3.87,5.12,8.23,4.82,13.67-2.1-1.01-3.1-.17-3.56,1.57-.87,3.26-.81,6.5.23,9.71.31.95.72,2.02,1.9,2.04,1.18.01,1.52-1.11,1.99-1.98.67-1.22.29-2.96,2.07-4.1,1.28,5.02-2.39,8.63-2.5,13.47-1.44-1.5-2.67-2.49-3.96-1.12-3.33,3.54-5.32,7.72-5,12.66.14,2.14,1.57,2.59,3.37,1.3,1.39-1,2.39-2.37,3.28-3.83.51-.84.89-1.87,2.6-2.56-1.26,2.61-.49,5.44-2.38,6.91-4.91,3.82-6.74,9.41-9.18,14.68-1.2,2.58-2.87,5.05-5.52,6.02-3.04,1.1-5.41,2.86-7.52,5.14-1.22,1.31-2.57,2.32-4.55,2.81.27-2.08,2.61-3.73.6-5.47-1.75-1.52-3.97-1.09-5.99-.45-3.64,1.15-7.03,2.83-9.86,5.44-2.9,2.67-2.4,4.86,1.37,5.95,1.22.35,2,.74,1.8,2.29-4.1.15-8.04,1.04-11.75,2.82-1.06.51-2.25,1.48-3.18.17-1.05-1.48.65-2,1.41-2.77,1.91-1.94,1.71-3.45-.76-4.61-2.1-.98-4.42-1.04-6.67-1.43-5.82-1-10.83,3.36-16.64,2.34-.68-.12-1.1.77-1.2,1.5-.12.92.53,1.18,1.25,1.35,1.94.46,3.73,1.26,5.36,2.37-.35,1.53-1.02,2.19-2.57,1.5-2.96-1.32-6.14-1.59-9.33-1.8-.95-.06-2.07.12-2.27-1.27.4-.76,1.11-.82,1.79-.98,1.49-.35,3.04-.77,3.31-2.55.26-1.69-.94-2.72-2.14-3.67-3.12-2.44-6.68-3.91-10.5-4.82-.66-.16-1.57.17-1.94-.53-1.97-3.77-6.28-4.21-9.24-6.58-.49-.39-1.28-.66-1.85.12.9,4.5.49,4.81-4.86,3.47,1.09-.53,2.84-.98,1.18-2.27-2.07-1.62-4.29-3.45-7.25-2.08-1.65.76-2.05-.3-2.61-1.39,2.39-2.41,5.19,0,7.68-.74-.13-1.44-1.25-1.58-2.1-1.96-7.14-3.26-14.67-4.29-22.43-3.82-5.47.33-10.94.63-16.42.2-4.98-.39-11.33-2.86-13.95-5.49,1.7-.24,3.5.29,5.41-1.03-9.72-3.73-17.79-9.69-24.49-17.36-1.74,1.37-1.08,2.56-.8,3.66,2.13,8.47,6.62,15.75,11.67,22.7,12.13,16.71,28.7,27.28,47.79,34.36,8.76,3.25,17.73,6.07,25.82,10.89,19.92,11.88,29.58,30.28,32.85,52.51.57,3.9,1.52,8.03.31,12.13-2.82-.8-3.09,1.09-2.97,2.75.15,2.02-.92,4.93,2.79,5.19-.74,5.15-1.05,10.39-3.64,15.44-.75-1.31-1.47-2.47-2.59-1-1.9,2.5-2.58,5.57-3.65,8.45-.57,1.55.5,2.35,1.34,3.32.25.3.28,1.01.12,1.41-2.03,4.86-4.42,9.54-7.6,13.77.85-2.41,1.95-4.72,1.77-7.4-3.05.42-5.31,3.97-6.02,8.92-.25,1.77.28,2.77,2.38,2.74-2.01,3.47-2.31,7.12-3.74,10.55-.26-.84-.29-1.83-1.39-2.14-.2.09-.55.15-.71.34-2.34,2.81-2.42,8.79-.18,11.71,1.52,1.98,2.87,4.5,1.79,6.62-2.27,4.46-.25,7.81,1.8,11.35,1.04,1.8,2.42,3.43,2.69,5.61.1.08.2.16.53.44,1.4.88,1.68,2.87,3.85,2.57-.13-3.13-1.45-5.66-3.04-8.04-1.62-2.41-2.61-5.15-2.31-7.87ZM506.6,550.04c-1.99,1.26-3.57,1.31-5.16,1.32-1.09-.17-1.85-.11-2.18-1.18,2.2-.75,4.39-.52,7.34-.14ZM465.59,539.16c.07,0,.2.08.23.16.03.07-.01.19-.02.28-1.46,1.83.4,2.46.84,3.51.45,1.09.94,2.16,1.14,3.44-2.24-1.2-3.77-3.07-4.33-5.56-.33-1.45,1.02-1.68,2.14-1.84ZM435.05,539.54q-1.15,1.15-6.24,1.04c-2.56-.03-4.56.91-7.25.1,4.7-2.5,8.91-3.03,13.49-1.14Z"/>
    </g>
    <path d="M318.87,636.64c-3.22-4.49-7.55-7.03-13.28-6.45-2.94.3-4.52,1.77-4.62,4.45,4.92-3.58,9.04-2.17,12.73,1.81,1.94,2.08,3.27,4.49,4.06,7.22,3.61,12.34-2.89,28.27-14.13,34.56-2.21,1.24-4.48,2.38-6.94,3.68,2.08,2.32,1.27,3.83-.79,5.03-.79-3.25-3.84-4.87-8.14-4.33-4.44.57-5.8,2.24-5.6,7.08-2.14.1-4.24-.71-6.43-.08-2.06.59-3.71.28-5.94-1.15-5.2-3.34-9.67-7.64-15.02-10.74-1.61-.93-2.77-1.47-3.84.69-2.08-1.72-3.54-3.48-4.36-5.9,1.19.1,1.43,1.94,2.98,1.13-.32-2.44-1.6-4.5-3.28-6.09-2.64-2.49-4.56-5.15-4.56-8.94,0-1.45-.82-2.64-1.66-3.76-1.21-1.63-2.25-1.88-2.79.81-10.08-11.9-11.89-25.72-10.99-40.69-2.86,1.86-2.37,4.57-3.69,6.51-.74-3.66-.81-7.22-.43-11.05,1.44-11.96,5.92-22.46,12.07-32.42,7.27-11.76,14.58-23.52,20.31-36.15,8.28-18.24,13.94-37.06,12.76-57.41-.11-1.91.12-3.94-2.28-6.26-4.72,21.48-14.33,40.16-25.8,58.09,4.11-.49,6.44-3.47,9.59-5.72-1.53,6-4.07,11.24-7.02,16.3-7.17,12.29-16.81,22.42-27.76,31.38-1.32,1.08-2.94,1.96-3.81,4.22,4.66.37,8.08-2.71,12.16-3.14,0,.5.08.82-.02,1.06-.22.55-.48,1.1-.79,1.6-3.44,5.58-7.58,10.48-13.31,13.86-4.74,2.8-9.08,6.12-12.74,10.27-2.22,2.51-1.98,3.85.93,5.56-.38,3.82-2.88,7.16-3.27,10.89,1.54.7,2.3-.73,3.77.13-2.46,3.24-5.09,6.33-6.78,10.01-.04.09-.15.22-.2.21-3.25-.86-3.52,2.54-5.34,3.71-4.68,3.03-2.63,7.63-3.27,11.68,1.52.15,1.68-.85,2.26-1.33.57-.47,1.01-1.31,2.19-.66-1.02,5.07-6.53,8.53-5.72,14.31,1.54.42,2.23-.42,2.83-1.16,3.18-3.93,5.6-8.28,6.19-13.37.57-4.94,3.29-8.39,7.16-11.07,1.17-.81,2.35-1.61,2.98-2.84,2.61-5.08,7.4-7.61,11.96-10.42.64-.4,1.35-.93,2.25-.35.09.24.26.5.28.78,1.07,16.18,7.85,29.87,18.43,41.83,3.12,3.52,5.87,7.14,7.85,11.47.19.41.36.82.54,1.22,9.63,8.02,21.04,15.78,32.21,20.11-.05-1.12-.02-2.26.42-3.44,6.26,1.98,12.34,1.98,18.23-1.03.44-.22,1.15.01,1.72.12,4.32.79,10.7-2,12.9-5.73.73-1.25,1.57-2.69,3.02-2.59,2.3.17,3.58-1.16,4.71-2.61,6.26-8.06,10.13-17.11,10.29-27.41.1-6.27-1.44-12.28-5.16-17.46Z"/>
    <path d="M258.83,723.75"/>
  </g>
</svg>